<?xml version="1.0" standalone="no"?>
<!DOCTYPE svg PUBLIC "-//W3C//DTD SVG 1.1//EN" "http://www.w3.org/Graphics/SVG/1.1/DTD/svg11.dtd" >
<svg xmlns="http://www.w3.org/2000/svg">
    <defs>
        <font id="MuseoSansCyrl-500">
            <font-face font-family="MuseoSansCyrl-500"
                       units-per-em="1000"
                       ascent="940"
                       descent="-260"
                       bbox="-120 -215 1088 892"
                    />
            <missing-glyph horiz-adv-x="0" />
            
            <glyph glyph-name="!" unicode="&#x21;" horiz-adv-x="187" d=" M93,194 L87,706 L187,706 L180,194 M87,0 L87,99 L187,99 L187,0"/> 
            <glyph glyph-name="&quot;" unicode="&#x22;" horiz-adv-x="291" d=" M215,530 L215,718 L291,718 L291,530 M74,530 L74,718 L151,718 L151,530"/> 
            <glyph glyph-name="#" unicode="&#x23;" horiz-adv-x="677" d=" M141,0 L174,191 L43,191 L56,264 L187,264 L217,433 L87,433 L99,506 L229,506 L264,706 L345,706 L310,506 L465,506 L500,706 L581,706 L546,506 L677,506 L664,433 L534,433 L504,264 L633,264 L621,191 L492,191 L458,0 L377,0 L410,191 L255,191 L222,0 M268,264 L423,264 L453,433 L297,433"/> 
            <glyph glyph-name="$" unicode="&#x24;" horiz-adv-x="517" d=" M60,81 L115,156 Q148,123 197.5,101.5 Q247,80 295,80 Q347,80 382,108 Q417,136 417,184 Q417,224 381.5,253.5 Q346,283 295,304.5 Q244,326 193,351 Q142,376 106.5,419 Q71,462 71,521 Q71,594 122.5,648.5 Q174,703 257,715 L257,809 L327,809 L327,716 Q428,710 499,646 L454,565 Q424,592 382,609.5 Q340,627 299,627 Q244,627 207.5,596.5 Q171,566 171,523 Q171,490 196.5,464.5 Q222,439 260.5,423.5 Q299,408 344,387 Q389,366 427.5,343.5 Q466,321 491.5,280.5 Q517,240 517,187 Q517,110 466,55 Q415,0 327,-10 L327,-102 L257,-102 L257,-10 Q134,2 60,81"/> 
            <glyph glyph-name="%" unicode="&#x25;" horiz-adv-x="715" d=" M263,422 Q137,422 93,465 Q49,508 49,570 Q49,631 93,674.5 Q137,718 200,718 Q263,718 308,674.5 Q353,631 353,570 Q353,509 263,422 M64,0 L605,706 L699,706 L159,0 M200,496 Q232,496 253.5,517.5 Q275,539 275,570 Q275,601 253,623 Q231,645 200,645 Q169,645 148,623 Q127,601 127,570 Q127,539 148,517.5 Q169,496 200,496 M412,135 Q412,197 456,240.5 Q500,284 563,284 Q626,284 670.5,240.5 Q715,197 715,135 Q715,74 670.5,31 Q626,-12 563,-12 Q500,-12 456,31 Q412,74 412,135 M490,167 Q490,105 511,83.5 Q532,62 563,62 Q594,62 615.5,83.5 Q637,105 637,136 Q637,167 615.5,189 Q594,211 563,211 Q532,211 490,167"/> 
            <glyph glyph-name="&amp;" unicode="&#x26;" horiz-adv-x="639" d=" M56,197 Q56,258 89.5,309 Q123,360 180,378 L180,380 Q137,399 111.5,439 Q86,479 86,536 Q86,622 146.5,670 Q207,718 304,718 Q344,718 390,707 L365,628 Q342,634 312,634 Q258,634 222.5,605 Q187,576 187,526 Q187,482 215.5,448.5 Q244,415 316,415 L447,415 L447,511 L545,511 L545,415 L639,415 L639,329 L545,329 L545,235 Q545,118 480,53 Q415,-12 300,-12 Q192,-12 124,47.5 Q56,107 56,197 M157,203 Q157,150 196.5,114.5 Q236,79 300,79 Q370,79 408.5,119 Q447,159 447,240 L447,329 L313,329 Q238,329 197.5,296 Q157,263 157,203"/> 
            <glyph glyph-name="'" unicode="&#x27;" horiz-adv-x="151" d=" M74,530 L74,718 L151,718 L151,530"/> 
            <glyph glyph-name="(" unicode="&#x28;" horiz-adv-x="254" d=" M169,-95 Q53,98 53,340 Q53,550 169,735 L254,735 Q141,546 141,339 Q141,110 254,-95"/> 
            <glyph glyph-name=")" unicode="&#x29;" horiz-adv-x="240" d=" M39,-95 Q152,110 152,339 Q152,546 39,735 L124,735 Q240,550 240,340 Q240,98 124,-95"/> 
            <glyph glyph-name="*" unicode="&#x2A;" horiz-adv-x="446" d=" M170,329 L97,381 L187,491 L187,493 L50,530 L77,615 L210,564 L202,706 L293,706 L285,564 L419,614 L446,531 L309,493 L309,491 L398,381 L326,329 L248,447 L246,447"/> 
            <glyph glyph-name="+" unicode="&#x2B;" horiz-adv-x="553" d=" M24,246 L24,324 L248,324 L248,570 L330,570 L330,324 L553,324 L553,246 L330,246 L330,0 L248,0 L248,246"/> 
            <glyph glyph-name="," unicode="&#x2C;" horiz-adv-x="199" d=" M35,-101 L97,105 L199,105 L112,-101"/> 
            <glyph glyph-name="-" unicode="&#x2D;" horiz-adv-x="362" d=" M70,242 L70,328 L362,328 L362,242"/> 
            <glyph glyph-name="." unicode="&#x2E;" horiz-adv-x="174" d=" M70,0 L70,105 L174,105 L174,0"/> 
            <glyph glyph-name="/" unicode="&#x2F;" horiz-adv-x="378" d=" M38,-42 L292,744 L378,744 L124,-42"/> 
            <glyph glyph-name="0" unicode="&#x30;" horiz-adv-x="561" d=" M311,-12 Q243,-12 193,16 Q143,44 115,95 Q87,146 74,210 Q61,274 61,354 Q61,434 74,497.5 Q87,561 115,611.5 Q143,662 193,690 Q243,718 311,718 Q561,718 561,354 Q561,-12 311,-12 M163,79 Q459,79 459,354 Q459,627 311,627 Q163,627 163,354"/> 
            <glyph glyph-name="1" unicode="&#x31;" horiz-adv-x="464" d=" M57,0 L57,86 L213,86 L213,542 L214,585 L212,585 Q204,570 178,544 L112,480 L52,542 L221,706 L309,706 L309,86 L464,86 L464,0"/> 
            <glyph glyph-name="2" unicode="&#x32;" horiz-adv-x="515" d=" M60,0 Q55,32 55,54 Q55,105 74,149 Q93,193 123.5,225 Q154,257 191,285.5 Q228,314 265.5,339 Q303,364 333.5,389 Q364,414 383,444.5 Q402,475 402,508 Q402,560 366,592.5 Q330,625 274,625 Q231,625 192.5,600 Q154,575 131,535 L58,584 Q90,643 149,680.5 Q208,718 282,718 Q380,718 442,662 Q504,606 504,515 Q504,461 479,414 Q454,367 416.5,336.5 Q379,306 335,274 Q291,242 253,217 Q215,192 189.5,157.5 Q164,123 163,86 L515,86 L515,0"/> 
            <glyph glyph-name="3" unicode="&#x33;" horiz-adv-x="513" d=" M44,84 L98,159 Q129,126 175,104 Q221,82 269,82 Q329,82 371,118.5 Q413,155 413,211 Q413,273 365.5,307 Q318,341 248,341 L200,341 L177,394 L331,575 Q341,587 352,598.5 Q363,610 369,616 L375,621 L375,623 Q354,620 315,620 L76,620 L76,706 L498,706 L498,643 L306,421 Q357,416 401.5,395 Q446,374 479.5,326.5 Q513,279 513,214 Q513,121 446,54.5 Q379,-12 273,-12 Q210,-12 149,13 Q88,38 44,84"/> 
            <glyph glyph-name="4" unicode="&#x34;" horiz-adv-x="569" d=" M34,189 L34,251 L361,706 L473,706 L473,272 L569,272 L569,189 L473,189 L473,0 L376,0 L376,189 M143,272 L376,272 L376,530 L380,601 L378,601 Q362,567 343,542 L143,274"/> 
            <glyph glyph-name="5" unicode="&#x35;" horiz-adv-x="516" d=" M49,86 L105,158 Q167,82 260,82 Q324,82 369,122 Q414,162 414,225 Q414,288 368.5,329 Q323,370 254,370 Q188,370 135,335 L77,356 L112,706 L469,706 L469,620 L198,620 L182,471 L176,435 L178,435 Q218,456 270,456 Q380,456 448,389.5 Q516,323 516,225 Q516,124 444.5,56 Q373,-12 266,-12 Q203,-12 145.5,13.5 Q88,39 49,86"/> 
            <glyph glyph-name="6" unicode="&#x36;" horiz-adv-x="548" d=" M57,320 Q57,376 69,431.5 Q81,487 106.5,539 Q132,591 168,630.5 Q204,670 257.5,694 Q311,718 374,718 Q451,718 512,689 L480,604 Q436,627 378,627 Q288,627 234,557.5 Q180,488 167,390 L169,390 Q191,420 234.5,438 Q278,456 325,456 Q424,456 486,390 Q548,324 548,223 Q548,121 484,54.5 Q420,-12 321,-12 Q207,-12 132,80 Q57,172 57,320 M324,79 Q380,79 415,120 Q450,161 450,223 Q450,290 411,331.5 Q372,373 305,373 Q247,373 204,344 Q161,315 161,269 Q161,204 207.5,141.5 Q254,79 324,79"/> 
            <glyph glyph-name="7" unicode="&#x37;" horiz-adv-x="513" d=" M92,0 L367,555 Q376,573 386,589.5 Q396,606 402,613 L407,620 L407,622 Q393,620 357,620 L41,620 L41,706 L513,706 L513,638 L195,0"/> 
            <glyph glyph-name="8" unicode="&#x38;" horiz-adv-x="542" d=" M55,201 Q55,238 68,272.5 Q81,307 102,331 Q123,355 138,368.5 Q153,382 168,392 Q89,447 89,531 Q89,609 146,663.5 Q203,718 309,718 Q408,718 469.5,666.5 Q531,615 531,530 Q531,472 502.5,422.5 Q474,373 446,345 Q542,287 542,195 Q542,110 475,49 Q408,-12 300,-12 Q195,-12 125,48.5 Q55,109 55,201 M370,383 Q434,451 434,522 Q434,572 399,600.5 Q364,629 307,629 Q251,629 219,601 Q187,573 187,531 Q187,516 191.5,503 Q196,490 202.5,480 Q209,470 222,459.5 Q235,449 245,442 Q255,435 273.5,426 Q292,417 303.5,411.5 Q315,406 337,397 Q359,388 370,383 M156,209 Q156,152 199,114.5 Q242,77 299,77 Q357,77 399,110.5 Q441,144 441,197 Q441,220 430.5,238.5 Q420,257 396,273 Q372,289 353,299 Q334,309 296.5,325 Q259,341 242,349 Q156,289 156,209"/> 
            <glyph glyph-name="9" unicode="&#x39;" horiz-adv-x="539" d=" M84,17 L116,103 Q164,79 217,79 Q308,79 362,148.5 Q416,218 429,316 L427,316 Q406,286 362,268 Q318,250 271,250 Q172,250 110,316 Q48,382 48,482 Q48,586 112,652 Q176,718 275,718 Q390,718 464.5,626 Q539,534 539,385 Q539,315 519.5,246.5 Q500,178 462.5,119 Q425,60 362.5,24 Q300,-12 221,-12 Q143,-12 84,17 M291,333 Q350,333 393,363.5 Q436,394 436,432 Q436,504 388.5,565.5 Q341,627 276,627 Q217,627 182,586.5 Q147,546 147,482 Q147,416 186,374.5 Q225,333 291,333"/> 
            <glyph glyph-name=":" unicode="&#x3A;" horiz-adv-x="172" d=" M70,403 L70,506 L172,506 L172,403 M70,0 L70,103 L172,103 L172,0"/> 
            <glyph glyph-name=";" unicode="&#x3B;" horiz-adv-x="208" d=" M108,403 L108,506 L208,506 L208,403 M53,-101 L106,105 L206,105 L130,-101"/> 
            <glyph glyph-name="&lt;" unicode="&#x3C;" horiz-adv-x="508" d=" M42,252 L42,318 L508,526 L508,437 L151,286 L151,284 L508,133 L508,44"/> 
            <glyph glyph-name="=" unicode="&#x3D;" horiz-adv-x="527" d=" M50,340 L50,418 L527,418 L527,340 M50,151 L50,229 L527,229 L527,151"/> 
            <glyph glyph-name="&gt;" unicode="&#x3E;" horiz-adv-x="534" d=" M68,44 L68,133 L425,284 L425,286 L68,437 L68,526 L534,318 L534,252"/> 
            <glyph glyph-name="?" unicode="&#x3F;" horiz-adv-x="422" d=" M151,194 L151,241 Q151,283 168.5,317 Q186,351 210.5,374.5 Q235,398 260,419.5 Q285,441 302.5,469 Q320,497 320,530 Q320,572 287.5,600.5 Q255,629 206,629 Q145,629 93,587 L39,656 Q111,720 213,720 Q300,720 361,669 Q422,618 422,537 Q422,491 404,454.5 Q386,418 360,393.5 Q334,369 307.5,346.5 Q281,324 263,296 Q245,268 245,235 L245,194 M148,0 L148,99 L248,99 L248,0"/> 
            <glyph glyph-name="@" unicode="&#x40;" horiz-adv-x="753" d=" M56,86 Q56,396 162,503.5 Q268,611 421,611 Q556,611 618.5,553.5 Q681,496 681,408 L681,125 L753,125 L753,52 L480,52 Q389,52 331,107.5 Q273,163 273,240 Q273,318 330.5,373 Q388,428 480,428 L588,428 Q587,472 544,501.5 Q501,531 426,531 Q311,531 232,445 Q153,359 153,241 Q153,120 232.5,37 Q312,-46 437,-46 L437,-125 Q272,-125 56,86 M371,242 Q371,193 404,159 Q437,125 487,125 L588,125 L588,361 L489,361 Q438,361 404.5,326.5 Q371,292 371,242"/> 
            <glyph glyph-name="A" unicode="&#x41;" horiz-adv-x="626" d=" M15,0 L268,706 L373,706 L626,0 L524,0 L453,203 L187,203 L116,0 M213,285 L427,285 L349,508 L321,609 L319,609 Q304,545 292,508"/> 
            <glyph glyph-name="B" unicode="&#x42;" horiz-adv-x="574" d=" M93,0 L93,706 L340,706 Q432,706 488.5,658 Q545,610 545,526 Q545,475 521.5,435 Q498,395 457,374 L457,372 Q512,356 543,309 Q574,262 574,201 Q574,105 509,52.5 Q444,0 346,0 M192,409 L340,409 Q387,409 415.5,439 Q444,469 444,516 Q444,563 416,591.5 Q388,620 339,620 L192,620 M192,86 L351,86 Q407,86 439.5,119 Q472,152 472,207 Q472,261 439,294 Q406,327 351,327 L192,327"/> 
            <glyph glyph-name="C" unicode="&#x43;" horiz-adv-x="685" d=" M50,357 Q50,512 151.5,615 Q253,718 409,718 Q570,718 667,625 L617,551 Q578,586 522.5,607 Q467,628 413,628 Q293,628 222.5,551 Q152,474 152,358 Q152,241 224,160 Q296,79 415,79 Q474,79 531.5,103.5 Q589,128 632,171 L685,100 Q573,-12 412,-12 Q251,-12 150.5,93.5 Q50,199 50,357"/> 
            <glyph glyph-name="D" unicode="&#x44;" horiz-adv-x="685" d=" M93,0 L93,706 L328,706 Q491,706 588,612.5 Q685,519 685,354 Q685,188 588,94 Q491,0 328,0 M192,86 L321,86 Q442,86 512.5,155.5 Q583,225 583,354 Q583,481 512,550.5 Q441,620 321,620 L192,620"/> 
            <glyph glyph-name="E" unicode="&#x45;" horiz-adv-x="521" d=" M93,0 L93,706 L504,706 L504,620 L192,620 L192,399 L445,399 L445,313 L192,313 L192,86 L521,86 L521,0"/> 
            <glyph glyph-name="F" unicode="&#x46;" horiz-adv-x="482" d=" M93,0 L93,706 L482,706 L482,620 L192,620 L192,387 L439,387 L439,301 L192,301 L192,0"/> 
            <glyph glyph-name="G" unicode="&#x47;" horiz-adv-x="702" d=" M50,354 Q50,508 153,613 Q256,718 410,718 Q565,718 667,632 L617,559 Q581,589 525.5,608.5 Q470,628 417,628 Q297,628 224.5,550 Q152,472 152,356 Q152,235 226,157 Q300,79 411,79 Q526,79 611,167 L611,269 L497,269 L497,355 L702,355 L702,0 L615,0 L615,44 L616,74 L614,74 Q577,35 519,11.5 Q461,-12 397,-12 Q252,-12 151,91.5 Q50,195 50,354"/> 
            <glyph glyph-name="H" unicode="&#x48;" horiz-adv-x="657" d=" M93,0 L93,706 L192,706 L192,396 L559,396 L559,706 L657,706 L657,0 L559,0 L559,310 L192,310 L192,0"/> 
            <glyph glyph-name="I" unicode="&#x49;" horiz-adv-x="192" d=" M93,0 L93,706 L192,706 L192,0"/> 
            <glyph glyph-name="J" unicode="&#x4A;" horiz-adv-x="446" d=" M28,203 L28,238 L126,238 L126,208 Q126,152 153.5,115.5 Q181,79 237,79 Q285,79 316.5,109.5 Q348,140 348,204 L348,620 L170,620 L170,706 L446,706 L446,203 Q446,96 384.5,42 Q323,-12 237,-12 Q151,-12 89.5,42.5 Q28,97 28,203"/> 
            <glyph glyph-name="K" unicode="&#x4B;" horiz-adv-x="598" d=" M93,0 L93,706 L192,706 L192,409 L297,409 L476,706 L585,706 L379,371 L379,369 L598,0 L485,0 L297,323 L192,323 L192,0"/> 
            <glyph glyph-name="L" unicode="&#x4C;" horiz-adv-x="509" d=" M93,0 L93,706 L192,706 L192,86 L509,86 L509,0"/> 
            <glyph glyph-name="M" unicode="&#x4D;" horiz-adv-x="784" d=" M66,0 L124,706 L227,706 L390,324 L424,229 L426,229 Q445,285 461,324 L624,706 L727,706 L784,0 L686,0 L652,445 L650,549 L648,549 Q626,484 610,445 L469,127 L381,127 L241,445 L203,551 L201,551 Q203,488 199,445 L165,0"/> 
            <glyph glyph-name="N" unicode="&#x4E;" horiz-adv-x="658" d=" M93,0 L93,706 L191,706 L506,248 L564,145 L566,145 Q560,208 560,248 L560,706 L658,706 L658,0 L561,0 L246,458 L188,561 L186,561 Q192,498 192,458 L192,0"/> 
            <glyph glyph-name="O" unicode="&#x4F;" horiz-adv-x="774" d=" M49,358 Q49,511 152,614.5 Q255,718 412,718 Q568,718 671,614.5 Q774,511 774,358 Q774,201 671,94.5 Q568,-12 412,-12 Q256,-12 152.5,94.5 Q49,201 49,358 M151,358 Q151,239 225,159 Q299,79 412,79 Q524,79 598,159 Q672,239 672,358 Q672,473 598,550.5 Q524,628 412,628 Q299,628 225,550.5 Q151,473 151,358"/> 
            <glyph glyph-name="P" unicode="&#x50;" horiz-adv-x="573" d=" M93,0 L93,706 L352,706 Q450,706 511.5,645.5 Q573,585 573,485 Q573,385 511,323 Q449,261 352,261 L192,261 L192,0 M192,347 L336,347 Q399,347 436,384 Q473,421 473,485 Q473,548 436.5,584 Q400,620 337,620 L192,620"/> 
            <glyph glyph-name="Q" unicode="&#x51;" horiz-adv-x="775" d=" M50,357 Q50,511 153,614.5 Q256,718 411,718 Q569,718 671.5,614.5 Q774,511 774,357 Q774,224 692,124 L775,44 L717,-18 L635,65 Q541,-12 411,-12 Q255,-12 152.5,95 Q50,202 50,357 M152,357 Q152,240 226.5,159.5 Q301,79 411,79 Q502,79 565,131 L482,212 L539,274 L620,191 Q672,263 672,357 Q672,473 597.5,550.5 Q523,628 411,628 Q301,628 226.5,550.5 Q152,473 152,357"/> 
            <glyph glyph-name="R" unicode="&#x52;" horiz-adv-x="604" d=" M93,0 L93,706 L317,706 Q406,706 448,687 Q500,664 530,616 Q560,568 560,502 Q560,434 525.5,380.5 Q491,327 434,308 L434,306 Q442,296 454,274 L604,0 L492,0 L343,281 L192,281 L192,0 M192,367 L334,367 Q392,367 426,402.5 Q460,438 460,497 Q460,580 394,608 Q367,620 309,620 L192,620"/> 
            <glyph glyph-name="S" unicode="&#x53;" horiz-adv-x="498" d=" M41,81 L97,156 Q131,123 179,101.5 Q227,80 275,80 Q331,80 365,107.5 Q399,135 399,181 Q399,224 364,254.5 Q329,285 278.5,306 Q228,327 178,351 Q128,375 93,418 Q58,461 58,522 Q58,610 123.5,664 Q189,718 289,718 Q410,718 486,646 L441,565 Q411,593 368.5,610 Q326,627 285,627 Q230,627 194,599.5 Q158,572 158,527 Q158,492 183,465 Q208,438 246,422.5 Q284,407 328,386.5 Q372,366 410,344 Q448,322 473,282 Q498,242 498,189 Q498,103 438,45.5 Q378,-12 273,-12 Q136,-12 41,81"/> 
            <glyph glyph-name="T" unicode="&#x54;" horiz-adv-x="599" d=" M258,0 L258,620 L15,620 L15,706 L599,706 L599,620 L356,620 L356,0"/> 
            <glyph glyph-name="U" unicode="&#x55;" horiz-adv-x="640" d=" M85,250 L85,706 L184,706 L184,251 Q184,170 232.5,124.5 Q281,79 363,79 Q445,79 493,124.5 Q541,170 541,252 L541,706 L640,706 L640,250 Q640,132 564,60 Q488,-12 364,-12 Q239,-12 162,60 Q85,132 85,250"/> 
            <glyph glyph-name="V" unicode="&#x56;" horiz-adv-x="632" d=" M270,0 L12,706 L118,706 L294,207 L321,110 L323,110 Q337,169 350,207 L527,706 L632,706 L374,0"/> 
            <glyph glyph-name="W" unicode="&#x57;" horiz-adv-x="916" d=" M209,0 L29,706 L133,706 L256,188 L270,113 L272,113 Q278,149 288,188 L427,706 L514,706 L652,188 L668,113 L670,113 Q674,150 683,188 L814,706 L916,706 L730,0 L617,0 L493,458 L472,557 L468,557 Q459,504 446,458 L323,0"/> 
            <glyph glyph-name="X" unicode="&#x58;" horiz-adv-x="583" d=" M16,0 L238,364 L30,706 L143,706 L254,515 L299,431 L301,431 Q321,476 344,515 L456,706 L570,706 L360,364 L583,0 L472,0 L343,217 L299,298 L297,298 Q276,256 254,217 L126,0"/> 
            <glyph glyph-name="Y" unicode="&#x59;" horiz-adv-x="582" d=" M247,0 L247,299 L10,706 L122,706 L252,474 L295,385 L297,385 Q318,433 340,474 L470,706 L582,706 L345,299 L345,0"/> 
            <glyph glyph-name="Z" unicode="&#x5A;" horiz-adv-x="553" d=" M36,0 L36,66 L375,556 Q387,574 400,590 Q413,606 420,613 L426,620 L426,622 Q407,620 374,620 L53,620 L53,706 L549,706 L549,641 L209,150 Q197,133 184.5,117 Q172,101 166,94 L159,86 L159,84 Q177,86 211,86 L553,86 L553,0"/> 
            <glyph glyph-name="[" unicode="&#x5B;" horiz-adv-x="252" d=" M86,-95 L86,735 L252,735 L252,662 L171,662 L171,-21 L252,-21 L252,-95"/> 
            <glyph glyph-name="\" unicode="&#x5C;" horiz-adv-x="378" d=" M292,-42 L38,744 L124,744 L378,-42"/> 
            <glyph glyph-name="]" unicode="&#x5D;" horiz-adv-x="215" d=" M49,-21 L130,-21 L130,662 L49,662 L49,735 L215,735 L215,-95 L49,-95"/> 
            <glyph glyph-name="^" unicode="&#x5E;" horiz-adv-x="532" d=" M69,247 L269,706 L332,706 L532,247 L444,247 L300,599 L157,247"/> 
            <glyph glyph-name="_" unicode="&#x5F;" horiz-adv-x="568" d=" M29,0 L568,0 L568,-78 L29,-78"/> 
            <glyph glyph-name="`" unicode="&#x60;" horiz-adv-x="338" d=" M256,755 L161,882 L265,882 L338,755"/> 
            <glyph glyph-name="a" unicode="&#x61;" horiz-adv-x="458" d=" M33,138 Q33,194 64,232 Q95,270 146.5,286.5 Q198,303 242,309 Q286,315 335,315 L361,315 L361,325 Q361,436 250,436 Q177,436 108,387 L69,458 Q100,484 153,501 Q206,518 258,518 Q354,518 406,467 Q458,416 458,320 L458,0 L367,0 L367,51 L370,91 L368,91 Q345,46 300.5,17 Q256,-12 202,-12 Q133,-12 83,29 Q33,70 33,138 M130,146 Q130,113 155,89 Q180,65 225,65 Q285,65 323,115 Q361,165 361,226 L361,245 L336,245 Q130,245 130,146"/> 
            <glyph glyph-name="b" unicode="&#x62;" horiz-adv-x="556" d=" M75,0 L75,706 L172,706 L172,472 L168,429 L170,429 Q193,470 237.5,494 Q282,518 334,518 Q436,518 496,445 Q556,372 556,253 Q556,133 492,60.5 Q428,-12 326,-12 Q276,-12 233,12.5 Q190,37 165,79 L163,79 Q166,64 166,41 L166,0 M169,251 Q169,178 206.5,125 Q244,72 312,72 Q374,72 416,120.5 Q458,169 458,252 Q458,334 418.5,383.5 Q379,433 315,433 Q253,433 211,387 Q169,341 169,251"/> 
            <glyph glyph-name="c" unicode="&#x63;" horiz-adv-x="515" d=" M42,253 Q42,366 118.5,442 Q195,518 313,518 Q433,518 503,444 L457,376 Q399,434 317,434 Q241,434 191,382.5 Q141,331 141,254 Q141,176 191.5,124 Q242,72 320,72 Q362,72 404.5,90.5 Q447,109 476,140 L515,69 Q480,32 426,10 Q372,-12 313,-12 Q194,-12 118,63 Q42,138 42,253"/> 
            <glyph glyph-name="d" unicode="&#x64;" horiz-adv-x="526" d=" M44,253 Q44,373 108,445.5 Q172,518 273,518 Q322,518 364,496.5 Q406,475 430,435 L432,435 Q430,450 430,469 L430,706 L526,706 L526,0 L434,0 L434,51 L437,85 L435,85 Q412,42 368.5,15 Q325,-12 267,-12 Q166,-12 105,61 Q44,134 44,253 M143,253 Q143,171 182.5,121.5 Q222,72 286,72 Q348,72 390,118 Q432,164 432,254 Q432,328 394.5,380.5 Q357,433 288,433 Q226,433 184.5,384.5 Q143,336 143,253"/> 
            <glyph glyph-name="e" unicode="&#x65;" horiz-adv-x="515" d=" M42,253 Q42,372 114,445 Q186,518 296,518 Q399,518 457,450.5 Q515,383 515,281 Q515,268 511,240 L143,240 Q147,161 196.5,116.5 Q246,72 317,72 Q400,72 466,131 L507,60 Q471,27 417.5,7.5 Q364,-12 311,-12 Q193,-12 117.5,63.5 Q42,139 42,253 M146,310 L417,310 Q415,373 380.5,408 Q346,443 294,443 Q237,443 196.5,407.5 Q156,372 146,310"/> 
            <glyph glyph-name="f" unicode="&#x66;" horiz-adv-x="327" d=" M99,0 L99,422 L36,422 L36,501 L99,501 L99,523 Q99,571 113,606.5 Q127,642 147.5,661.5 Q168,681 195.5,692.5 Q223,704 245,707.5 Q267,711 290,711 Q308,711 327,708 L327,624 Q319,626 302,626 Q196,626 196,522 L196,501 L315,501 L315,422 L196,422 L196,0"/> 
            <glyph glyph-name="g" unicode="&#x67;" horiz-adv-x="519" d=" M123,-92 Q191,-126 262,-126 Q333,-126 377.5,-91.5 Q422,-57 422,15 L422,56 L425,88 L423,88 Q374,6 271,6 Q168,6 106.5,79 Q45,152 45,264 Q45,376 104,447 Q163,518 266,518 Q317,518 360,499 Q403,480 426,441 L429,441 Q426,447 426,456 L426,506 L519,506 L519,21 Q519,-39 497.5,-85 Q476,-131 439,-157.5 Q402,-184 358,-197 Q314,-210 264,-210 Q175,-210 91,-168 M143,267 Q143,187 182.5,138.5 Q222,90 290,90 Q349,90 386.5,131 Q424,172 424,264 Q424,434 281,434 Q216,434 179.5,389.5 Q143,345 143,267"/> 
            <glyph glyph-name="h" unicode="&#x68;" horiz-adv-x="533" d=" M75,0 L75,706 L172,706 L172,444 L168,402 L170,402 Q191,446 241,482 Q291,518 360,518 Q533,518 533,324 L533,0 L436,0 L436,302 Q436,363 416.5,396 Q397,429 341,429 Q268,429 220,375.5 Q172,322 172,240 L172,0"/> 
            <glyph glyph-name="i" unicode="&#x69;" horiz-adv-x="173" d=" M73,608 L73,706 L173,706 L173,608 M75,0 L75,506 L172,506 L172,0"/> 
            <glyph glyph-name="j" unicode="&#x6A;" horiz-adv-x="173" d=" M73,608 L73,706 L173,706 L173,608 M75,-11 L75,506 L172,506 L172,-17 Q172,-65 157.5,-101 Q143,-137 122.5,-156.5 Q102,-176 73.5,-188 Q45,-200 23,-203 Q1,-206 -22,-206 Q-32,-206 -56,-204 L-56,-121 Q-46,-123 -34,-123 Q-16,-123 0,-119 Q16,-115 34.5,-104.5 Q53,-94 64,-70 Q75,-46 75,-11"/> 
            <glyph glyph-name="k" unicode="&#x6B;" horiz-adv-x="510" d=" M75,0 L75,706 L172,706 L172,320 L244,320 L381,506 L491,506 L323,283 L323,281 L510,0 L397,0 L246,237 L172,237 L172,0"/> 
            <glyph glyph-name="l" unicode="&#x6C;" horiz-adv-x="243" d=" M75,139 L75,706 L171,706 L171,155 Q171,114 185.5,98.5 Q200,83 226,83 Q237,83 243,84 L243,-2 Q222,-5 211,-5 Q75,-5 75,139"/> 
            <glyph glyph-name="m" unicode="&#x6D;" horiz-adv-x="844" d=" M75,0 L75,506 L169,506 L169,437 L166,399 L168,399 Q187,446 237,482 Q287,518 344,518 Q469,518 495,403 L497,403 Q519,450 568.5,484 Q618,518 677,518 Q763,518 803.5,470 Q844,422 844,324 L844,0 L747,0 L747,303 Q747,364 728.5,397 Q710,430 658,430 Q591,430 549.5,371.5 Q508,313 508,236 L508,0 L411,0 L411,303 Q411,363 393.5,396.5 Q376,430 324,430 Q256,430 214,371 Q172,312 172,236 L172,0"/> 
            <glyph glyph-name="n" unicode="&#x6E;" horiz-adv-x="533" d=" M75,0 L75,506 L169,506 L169,437 L166,399 L168,399 Q187,442 236.5,480 Q286,518 360,518 Q533,518 533,324 L533,0 L436,0 L436,302 Q436,363 416.5,396 Q397,429 341,429 Q268,429 220,375.5 Q172,322 172,243 L172,0"/> 
            <glyph glyph-name="o" unicode="&#x6F;" horiz-adv-x="587" d=" M42,254 Q42,367 121,442.5 Q200,518 314,518 Q429,518 508,443 Q587,368 587,254 Q587,140 508,64 Q429,-12 315,-12 Q201,-12 121.5,64 Q42,140 42,254 M141,254 Q141,175 191.5,123.5 Q242,72 315,72 Q387,72 438,124 Q489,176 489,254 Q489,332 438,383 Q387,434 315,434 Q242,434 191.5,383 Q141,332 141,254"/> 
            <glyph glyph-name="p" unicode="&#x70;" horiz-adv-x="556" d=" M75,-200 L75,506 L165,506 L165,461 L162,423 L164,423 Q188,468 233,493 Q278,518 334,518 Q436,518 496,445 Q556,372 556,253 Q556,133 492,60.5 Q428,-12 327,-12 Q226,-12 170,74 L168,74 Q172,56 172,30 L172,-200 M169,251 Q169,179 207.5,125.5 Q246,72 312,72 Q374,72 416,120.5 Q458,169 458,252 Q458,334 418.5,383.5 Q379,433 315,433 Q253,433 211,387 Q169,341 169,251"/> 
            <glyph glyph-name="q" unicode="&#x71;" horiz-adv-x="526" d=" M44,253 Q44,373 108,445.5 Q172,518 273,518 Q323,518 366.5,494.5 Q410,471 434,430 L436,430 Q434,445 434,465 L434,506 L526,506 L526,-200 L430,-200 L430,34 L432,78 L430,78 Q408,39 365.5,13.5 Q323,-12 267,-12 Q166,-12 105,61 Q44,134 44,253 M143,253 Q143,171 182.5,121.5 Q222,72 286,72 Q348,72 390,118 Q432,164 432,254 Q432,328 394.5,380.5 Q357,433 288,433 Q226,433 184.5,384.5 Q143,336 143,253"/> 
            <glyph glyph-name="r" unicode="&#x72;" horiz-adv-x="355" d=" M75,0 L75,506 L169,506 L169,415 L166,378 L168,378 Q187,436 230,474 Q273,512 329,512 Q339,512 355,510 L355,414 Q347,416 327,416 Q251,416 211.5,354.5 Q172,293 172,210 L172,0"/> 
            <glyph glyph-name="s" unicode="&#x73;" horiz-adv-x="407" d=" M32,62 L78,128 Q139,69 227,69 Q266,69 289.5,86.5 Q313,104 313,135 Q313,161 286,180 Q259,199 221,213 Q183,227 145,244 Q107,261 80,293.5 Q53,326 53,372 Q53,441 105,479.5 Q157,518 235,518 Q337,518 399,462 L360,392 Q338,413 302.5,425 Q267,437 232,437 Q193,437 169.5,421 Q146,405 146,374 Q146,347 173,328 Q200,309 238,295.5 Q276,282 314.5,265 Q353,248 380,215.5 Q407,183 407,137 Q407,72 356,30 Q305,-12 225,-12 Q105,-12 32,62"/> 
            <glyph glyph-name="t" unicode="&#x74;" horiz-adv-x="324" d=" M96,185 L96,422 L30,422 L30,501 L98,501 L98,645 L193,645 L193,501 L315,501 L315,422 L193,422 L193,196 Q193,167 201,145.5 Q209,124 220.5,112 Q232,100 247.5,93 Q263,86 275.5,84 Q288,82 301,82 Q314,82 324,84 L324,-2 Q300,-5 290,-5 Q267,-5 244.5,-1.5 Q222,2 194,13.5 Q166,25 145.5,44.5 Q125,64 110.5,100.5 Q96,137 96,185"/> 
            <glyph glyph-name="u" unicode="&#x75;" horiz-adv-x="522" d=" M69,182 L69,506 L166,506 L166,204 Q166,144 186,111 Q206,78 261,78 Q336,78 381,134 Q426,190 426,269 L426,506 L522,506 L522,0 L428,0 L428,70 L432,107 L430,107 Q410,62 360,25 Q310,-12 242,-12 Q69,-12 69,182"/> 
            <glyph glyph-name="v" unicode="&#x76;" horiz-adv-x="507" d=" M209,0 L19,506 L122,506 L245,164 L263,95 L265,95 Q273,136 282,164 L405,506 L507,506 L320,0"/> 
            <glyph glyph-name="w" unicode="&#x77;" horiz-adv-x="804" d=" M187,0 L24,506 L127,506 L232,151 L245,97 L247,97 Q253,125 261,151 L370,505 L460,505 L569,151 L582,97 L584,97 Q589,125 597,151 L703,506 L804,506 L642,0 L534,0 L430,325 L415,380 L413,380 Q407,351 399,325 L295,0"/> 
            <glyph glyph-name="x" unicode="&#x78;" horiz-adv-x="482" d=" M17,0 L190,260 L27,506 L138,506 L232,352 L248,322 L250,322 Q260,339 267,352 L361,506 L472,506 L309,260 L482,0 L372,0 L266,169 L250,196 L248,196 Q241,181 233,169 L127,0"/> 
            <glyph glyph-name="y" unicode="&#x79;" horiz-adv-x="515" d=" M50,-105 Q78,-127 108,-127 Q169,-127 200,-52 L225,6 L13,506 L122,506 L249,175 L268,114 L270,114 Q278,148 287,174 L410,506 L515,506 L277,-91 Q255,-149 211.5,-179.5 Q168,-210 113,-210 Q88,-210 64,-202 Q40,-194 28,-186 L16,-179"/> 
            <glyph glyph-name="z" unicode="&#x7A;" horiz-adv-x="473" d=" M36,0 L36,56 L292,376 L333,423 L333,425 Q317,423 284,423 L47,423 L47,506 L464,506 L464,450 L209,130 Q200,118 189,106.5 Q178,95 172,89 L166,83 L166,81 Q183,84 216,84 L473,84 L473,0"/> 
            <glyph glyph-name="{" unicode="&#x7B;" horiz-adv-x="311" d=" M126,77 L126,173 Q126,217 104.5,246 Q83,275 41,282 L41,368 Q81,376 103.5,404.5 Q126,433 126,479 L126,563 Q126,608 138.5,641.5 Q151,675 168.5,692.5 Q186,710 210.5,721 Q235,732 252.5,734.5 Q270,737 288,737 L311,736 L311,662 L298,662 Q285,662 273,658.5 Q261,655 245.5,645.5 Q230,636 220.5,613.5 Q211,591 211,557 L211,454 Q211,410 189,376 Q167,342 130,327 L130,325 Q211,293 211,198 L211,83 Q211,49 220.5,26 Q230,3 245.5,-6.5 Q261,-16 273,-19 Q285,-22 298,-22 L311,-22 L311,-96 Q302,-98 288,-98 Q270,-98 252.5,-95.5 Q235,-93 210.5,-82 Q186,-71 168.5,-53.5 Q151,-36 138.5,-2 Q126,32 126,77"/> 
            <glyph glyph-name="|" unicode="&#x7C;" horiz-adv-x="169" d=" M84,-159 L84,792 L169,792 L169,-159"/> 
            <glyph glyph-name="}" unicode="&#x7D;" horiz-adv-x="314" d=" M44,-22 L58,-22 Q71,-22 82.5,-19 Q94,-16 109.5,-6.5 Q125,3 134.5,26 Q144,49 144,83 L144,198 Q144,243 165,277 Q186,311 225,325 L225,327 Q191,340 167.5,374 Q144,408 144,454 L144,557 Q144,591 134.5,613.5 Q125,636 109.5,645.5 Q94,655 82.5,658.5 Q71,662 58,662 L44,662 L44,736 Q53,737 67,737 Q85,737 102.5,734.5 Q120,732 144.5,721 Q169,710 186.5,692.5 Q204,675 216.5,641.5 Q229,608 229,563 L229,479 Q229,435 251,405 Q273,375 314,368 L314,282 Q274,277 251.5,246.5 Q229,216 229,173 L229,77 Q229,32 216.5,-2 Q204,-36 186.5,-53.5 Q169,-71 144.5,-82 Q120,-93 102.5,-95.5 Q85,-98 67,-98 L44,-96"/> 
            <glyph glyph-name="~" unicode="&#x7E;" horiz-adv-x="545" d=" M68,204 Q68,289 104.5,331 Q141,373 208,373 Q243,373 271.5,357.5 Q300,342 315,324 Q330,306 352,290.5 Q374,275 399,275 Q435,275 450.5,303 Q466,331 466,369 L545,369 Q545,200 406,200 Q377,200 353.5,210 Q330,220 314.5,234 Q299,248 284.5,262.5 Q270,277 252,287 Q234,297 213,297 Q178,297 163,269 Q148,241 148,204"/> 
            <glyph glyph-name="¡" unicode="&#xA1;" horiz-adv-x="176" d=" M170,311 L176,-201 L76,-201 L83,311 M176,505 L176,406 L76,406 L76,505"/> 
            <glyph glyph-name="¢" unicode="&#xA2;" horiz-adv-x="523" d=" M264,-12 L264,73 Q167,86 110,164.5 Q53,243 53,353 Q53,464 110,542.5 Q167,621 264,634 L264,718 L335,718 L335,634 Q400,624 448.5,583.5 Q497,543 523,479 L435,445 Q391,544 302,544 Q231,544 191.5,490.5 Q152,437 152,353 Q152,267 191,215 Q230,163 302,163 Q391,163 435,261 L523,227 Q497,166 448.5,123 Q400,80 335,73 L335,-12"/> 
            <glyph glyph-name="£" unicode="&#xA3;" horiz-adv-x="534" d=" M48,0 L48,86 L109,86 L109,319 L65,319 L65,389 L109,389 L109,525 Q109,608 170.5,663 Q232,718 326,718 Q421,718 493,654 L435,585 Q389,628 327,628 Q273,628 241,597.5 Q209,567 209,521 L209,389 L393,389 L393,319 L209,319 L209,86 L534,86 L534,0"/> 
            <glyph glyph-name="¤" unicode="&#xA4;" horiz-adv-x="577" d=" M124,0 L124,170 L54,170 L54,240 L124,240 L124,310 L54,310 L54,390 L124,390 L124,706 L357,706 Q460,706 518.5,652 Q577,598 577,505 Q577,414 514.5,361.5 Q452,309 353,309 L223,309 L223,240 L473,240 L473,170 L223,170 L223,0 M223,390 L340,390 Q404,390 439.5,422.5 Q475,455 475,509 Q475,563 440,594.5 Q405,626 342,626 L223,626"/> 
            <glyph glyph-name="¥" unicode="&#xA5;" horiz-adv-x="564" d=" M75,199 L75,263 L238,263 L238,299 L212,347 L75,347 L75,410 L178,410 L13,706 L126,706 L244,486 L287,385 L289,385 Q310,439 332,486 L451,706 L564,706 L399,410 L500,410 L500,347 L365,347 L338,299 L338,263 L500,263 L500,199 L338,199 L338,0 L238,0 L238,199"/> 
            <glyph glyph-name="§" unicode="&#xA7;" horiz-adv-x="396" d=" M143,111 L72,501 Q67,520 67,547 Q67,622 117.5,670 Q168,718 255,718 Q339,718 396,667 L350,603 Q308,637 255,637 Q208,637 178.5,611 Q149,585 149,536 Q149,515 154,496 L222,111 M51,-11 L95,56 Q138,19 192,19 Q238,19 268,46.5 Q298,74 298,124 Q298,144 292,169 L226,545 L305,545 L375,155 Q380,128 380,110 Q380,34 329,-14 Q278,-62 192,-62 Q110,-62 51,-11"/> 
            <glyph glyph-name="¨" unicode="&#xA8;" horiz-adv-x="373" d=" M294,781 L294,882 L373,882 L373,781 M126,781 L126,882 L206,882 L206,781"/> 
            <glyph glyph-name="©" unicode="&#xA9;" horiz-adv-x="769" d=" M55,201 Q55,505 159,611.5 Q263,718 410,718 Q560,718 664.5,611.5 Q769,505 769,353 Q769,201 664.5,94.5 Q560,-12 410,-12 Q263,-12 55,201 M128,478 Q128,228 209.5,141.5 Q291,55 410,55 Q531,55 613.5,141 Q696,227 696,353 Q696,479 613.5,565 Q531,651 410,651 Q291,651 128,478 M221,352 Q221,434 275.5,493 Q330,552 418,552 Q469,552 513,525 Q557,498 581,453 L519,420 Q506,446 478.5,464.5 Q451,483 420,483 Q364,483 330,445 Q296,407 296,352 Q296,296 329,258.5 Q362,221 420,221 Q451,221 477,238.5 Q503,256 519,284 L581,251 Q560,210 515.5,181 Q471,152 418,152 Q329,152 275,210.5 Q221,269 221,352"/> 
            <glyph glyph-name="ª" unicode="&#xAA;" horiz-adv-x="348" d=" M183,383 Q139,383 106.5,408.5 Q74,434 74,479 Q74,589 263,589 L273,589 L273,595 Q273,658 209,658 Q168,658 126,630 L97,679 Q146,716 218,716 Q280,716 312.5,683.5 Q345,651 345,590 L345,389 L277,389 L277,435 L275,435 Q264,413 239,398 Q214,383 183,383 M198,441 Q230,441 251.5,468.5 Q273,496 273,530 L273,538 L261,538 Q147,538 147,484 Q147,465 160.5,453 Q174,441 198,441 M74,265 L74,322 L348,322 L348,265"/> 
            <glyph glyph-name="«" unicode="&#xAB;" horiz-adv-x="508" d=" M247,282 L411,488 L508,488 L344,282 L508,77 L411,77 M209,77 L45,282 L209,488 L306,488 L142,282 L306,77"/> 
            <glyph glyph-name="¬" unicode="&#xAC;" horiz-adv-x="549" d=" M72,340 L72,418 L549,418 L549,150 L468,150 L468,340"/> 
            <glyph glyph-name="­" unicode="&#xAD;" horiz-adv-x="362" d=" M70,242 L70,328 L362,328 L362,242"/> 
            <glyph glyph-name="®" unicode="&#xAE;" horiz-adv-x="769" d=" M55,201 Q55,505 159,611.5 Q263,718 410,718 Q560,718 664.5,611.5 Q769,505 769,353 Q769,201 664.5,94.5 Q560,-12 410,-12 Q263,-12 55,201 M128,478 Q128,228 209.5,141.5 Q291,55 410,55 Q531,55 613.5,141 Q696,227 696,353 Q696,479 613.5,565 Q531,651 410,651 Q291,651 128,478 M288,166 L288,544 L434,544 Q487,544 519.5,512 Q552,480 552,428 Q552,388 531,361.5 Q510,335 483,328 L483,326 Q487,322 496,305 L569,166 L490,166 L421,312 L359,312 L359,166 M359,364 L419,364 Q448,364 464,381 Q480,398 480,428 Q480,457 464,473 Q448,489 420,489 L359,489"/> 
            <glyph glyph-name="¯" unicode="&#xAF;" horiz-adv-x="377" d=" M123,784 L123,855 L377,855 L377,784"/> 
            <glyph glyph-name="°" unicode="&#xB0;" horiz-adv-x="357" d=" M267,422 Q141,422 97,465 Q53,508 53,570 Q53,631 97,674.5 Q141,718 204,718 Q267,718 312,674.5 Q357,631 357,570 Q357,509 267,422 M204,495 Q236,495 257.5,516.5 Q279,538 279,570 Q279,601 257,623 Q235,645 204,645 Q173,645 152,623 Q131,601 131,570 Q131,538 152,516.5 Q173,495 204,495"/> 
            <glyph glyph-name="±" unicode="&#xB1;" horiz-adv-x="553" d=" M24,246 L24,324 L248,324 L248,570 L330,570 L330,324 L553,324 L553,246 L330,246 L330,0 L248,0 L248,246 M40,-95 L537,-95 L537,-172 L40,-172"/> 
            <glyph glyph-name="²" unicode="&#xB2;" horiz-adv-x="338" d=" M47,423 Q44,441 44,459 Q44,506 66,542.5 Q88,579 119,601.5 Q150,624 181,643.5 Q212,663 234,686 Q256,709 256,736 Q256,764 235.5,782.5 Q215,801 184,801 Q139,801 99,753 L50,798 Q71,829 108.5,849.5 Q146,870 187,870 Q249,870 290,833.5 Q331,797 331,739 Q331,699 310.5,667 Q290,635 260.5,614.5 Q231,594 201,576 Q171,558 149,536.5 Q127,515 125,489 L338,489 L338,423"/> 
            <glyph glyph-name="³" unicode="&#xB3;" horiz-adv-x="338" d=" M182,413 Q140,413 100,430 Q60,447 35,479 L77,532 Q92,511 120,496.5 Q148,482 179,482 Q213,482 237.5,504 Q262,526 262,558 Q262,591 236,610 Q210,629 174,629 L140,629 L123,667 L212,770 L237,794 L237,796 Q218,793 200,793 L59,793 L59,860 L330,860 L330,812 L221,686 Q271,679 304.5,646.5 Q338,614 338,558 Q338,499 294,456 Q250,413 182,413"/> 
            <glyph glyph-name="´" unicode="&#xB4;" horiz-adv-x="338" d=" M161,755 L233,882 L338,882 L242,755"/> 
            <glyph glyph-name="µ" unicode="&#xB5;" horiz-adv-x="536" d=" M162,20 Q170,-30 170,-60 L170,-200 L84,-200 L84,506 L181,506 L181,204 Q181,143 200,110.5 Q219,78 274,78 Q350,78 394.5,134 Q439,190 439,269 L439,506 L536,506 L536,0 L443,0 L443,69 L445,105 L442,105 Q440,100 436,92 Q432,84 416.5,64 Q401,44 382,28.5 Q363,13 328.5,0.5 Q294,-12 255,-12 Q192,-12 164,20"/> 
            <glyph glyph-name="¶" unicode="&#xB6;" horiz-adv-x="546" d=" M275,-50 L275,241 Q178,241 108,308.5 Q38,376 38,474 Q38,571 107.5,638.5 Q177,706 275,706 L546,706 L546,620 L349,620 L349,-50 M411,-50 L411,563 L486,563 L486,-50"/> 
            <glyph glyph-name="·" unicode="&#xB7;" horiz-adv-x="171" d=" M70,238 L70,343 L171,343 L171,238"/> 
            <glyph glyph-name="¸" unicode="&#xB8;" horiz-adv-x="328" d=" M190,-88 L219,23 L268,12 L268,5 L256,-50 Q288,-54 308,-73 Q328,-92 328,-123 Q328,-166 298.5,-186.5 Q269,-207 226,-207 Q198,-207 171,-201 L171,-142 Q188,-149 213,-149 Q261,-149 261,-118 Q261,-87 208,-87"/> 
            <glyph glyph-name="¹" unicode="&#xB9;" horiz-adv-x="332" d=" M72,423 L72,489 L165,489 L165,738 L167,764 L165,764 Q161,755 148,742 L112,708 L67,757 L173,860 L240,860 L240,489 L332,489 L332,423"/> 
            <glyph glyph-name="º" unicode="&#xBA;" horiz-adv-x="412" d=" M313,384 Q169,384 119.5,431.5 Q70,479 70,552 Q70,622 119.5,669.5 Q169,717 240,717 Q313,717 362.5,670 Q412,623 412,552 Q412,479 313,384 M241,449 Q282,449 310.5,478 Q339,507 339,552 Q339,596 310.5,624.5 Q282,653 241,653 Q199,653 170.5,624.5 Q142,596 142,552 Q142,507 170.5,478 Q199,449 241,449 M86,265 L86,322 L398,322 L398,265"/> 
            <glyph glyph-name="»" unicode="&#xBB;" horiz-adv-x="515" d=" M254,77 L418,282 L254,488 L351,488 L515,282 L351,77 M53,77 L217,282 L53,488 L150,488 L314,282 L150,77"/> 
            <glyph glyph-name="¼" unicode="&#xBC;" horiz-adv-x="914" d=" M778,0 L778,107 L571,107 L571,157 L771,437 L852,437 L852,173 L914,173 L914,107 L852,107 L852,0 M652,173 L778,173 L778,296 L781,354 L779,354 Q766,327 750,306 L652,175 M336,0 L261,0 L597,706 L671,706 M60,270 L60,336 L153,336 L153,585 L155,611 L153,611 Q149,602 136,589 L100,555 L55,604 L161,707 L228,707 L228,336 L320,336 L320,270"/> 
            <glyph glyph-name="½" unicode="&#xBD;" horiz-adv-x="893" d=" M602,0 Q599,18 599,36 Q599,83 621,119.5 Q643,156 674,178.5 Q705,201 736,220.5 Q767,240 789,263 Q811,286 811,313 Q811,341 790.5,359.5 Q770,378 739,378 Q694,378 654,330 L605,375 Q626,406 663.5,426.5 Q701,447 742,447 Q804,447 845,410.5 Q886,374 886,316 Q886,276 865.5,244 Q845,212 815.5,191.5 Q786,171 756,153 Q726,135 704,113.5 Q682,92 680,66 L893,66 L893,0 M336,0 L261,0 L597,706 L671,706 M59,270 L59,336 L152,336 L152,585 L154,611 L152,611 Q148,602 135,589 L99,555 L54,604 L160,707 L227,707 L227,336 L319,336 L319,270"/> 
            <glyph glyph-name="¾" unicode="&#xBE;" horiz-adv-x="929" d=" M793,0 L793,107 L586,107 L586,157 L786,437 L867,437 L867,173 L929,173 L929,107 L867,107 L867,0 M667,173 L793,173 L793,296 L796,354 L794,354 Q781,327 765,306 L667,175 M190,260 Q148,260 108,277 Q68,294 43,326 L85,379 Q100,358 128,343.5 Q156,329 187,329 Q221,329 245.5,351 Q270,373 270,405 Q270,438 244,457 Q218,476 182,476 L148,476 L131,514 L220,617 L245,641 L245,643 Q226,640 208,640 L67,640 L67,707 L338,707 L338,659 L229,533 Q279,526 312.5,493.5 Q346,461 346,405 Q346,346 302,303 Q258,260 190,260 M351,0 L276,0 L612,706 L686,706"/> 
            <glyph glyph-name="¿" unicode="&#xBF;" horiz-adv-x="421" d=" M309,311 L309,264 Q309,222 291.5,188 Q274,154 249,130.5 Q224,107 199.5,85.5 Q175,64 157.5,36 Q140,8 140,-25 Q140,-67 172.5,-95.5 Q205,-124 254,-124 Q315,-124 367,-82 L421,-151 Q349,-215 247,-215 Q160,-215 99,-164 Q38,-113 38,-32 Q38,14 56,50.5 Q74,87 100,111.5 Q126,136 152.5,158.5 Q179,181 197,209 Q215,237 215,270 L215,311 M312,505 L312,406 L212,406 L212,505"/> 
            <glyph glyph-name="À" unicode="&#xC0;" horiz-adv-x="626" d=" M15,0 L268,706 L373,706 L626,0 L524,0 L453,203 L187,203 L116,0 M213,285 L427,285 L349,508 L321,609 L319,609 Q304,545 292,508 M281,755 L186,882 L290,882 L363,755"/> 
            <glyph glyph-name="Á" unicode="&#xC1;" horiz-adv-x="626" d=" M15,0 L268,706 L373,706 L626,0 L524,0 L453,203 L187,203 L116,0 M213,285 L427,285 L349,508 L321,609 L319,609 Q304,545 292,508 M277,755 L349,882 L454,882 L358,755"/> 
            <glyph glyph-name="Â" unicode="&#xC2;" horiz-adv-x="626" d=" M15,0 L268,706 L373,706 L626,0 L524,0 L453,203 L187,203 L116,0 M213,285 L427,285 L349,508 L321,609 L319,609 Q304,545 292,508 M181,755 L269,882 L369,882 L458,755 L373,755 L320,835 L318,835 L266,755"/> 
            <glyph glyph-name="Ã" unicode="&#xC3;" horiz-adv-x="626" d=" M15,0 L268,706 L373,706 L626,0 L524,0 L453,203 L187,203 L116,0 M213,285 L427,285 L349,508 L321,609 L319,609 Q304,545 292,508 M151,756 Q151,883 253,883 Q282,883 304,866 Q326,849 344,832 Q362,815 379,815 Q399,815 408.5,834.5 Q418,854 418,880 L488,880 Q488,753 386,753 Q357,753 335,770 Q313,787 295,804 Q277,821 260,821 Q221,821 221,756"/> 
            <glyph glyph-name="Ä" unicode="&#xC4;" horiz-adv-x="626" d=" M15,0 L268,706 L373,706 L626,0 L524,0 L453,203 L187,203 L116,0 M213,285 L427,285 L349,508 L321,609 L319,609 Q304,545 292,508 M364,781 L364,882 L443,882 L443,781 M196,781 L196,882 L276,882 L276,781"/> 
            <glyph glyph-name="Å" unicode="&#xC5;" horiz-adv-x="626" d=" M15,0 L268,706 L373,706 L626,0 L524,0 L453,203 L187,203 L116,0 M213,285 L427,285 L349,508 L321,609 L319,609 Q304,545 292,508 M320,743 Q285,743 260,763.5 Q235,784 235,817 Q235,851 260,871.5 Q285,892 320,892 Q355,892 379.5,871.5 Q404,851 404,817 Q404,784 379,763.5 Q354,743 320,743 M320,784 Q334,784 343.5,793.5 Q353,803 353,817 Q353,833 343.5,842.5 Q334,852 320,852 Q305,852 296,842.5 Q287,833 287,817 Q287,803 296,793.5 Q305,784 320,784"/> 
            <glyph glyph-name="Æ" unicode="&#xC6;" horiz-adv-x="834" d=" M9,0 L301,706 L818,706 L818,620 L506,620 L506,399 L759,399 L759,313 L506,313 L506,86 L834,86 L834,0 L408,0 L408,314 L237,314 L112,0 M270,396 L408,396 L408,620 L361,620"/> 
            <glyph glyph-name="Ç" unicode="&#xC7;" horiz-adv-x="685" d=" M352,-88 L372,-10 Q227,3 138.5,106 Q50,209 50,357 Q50,512 151.5,615 Q253,718 409,718 Q570,718 667,625 L617,551 Q578,586 522.5,607 Q467,628 413,628 Q293,628 222.5,551 Q152,474 152,358 Q152,241 224,160 Q296,79 415,79 Q474,79 531.5,103.5 Q589,128 632,171 L685,100 Q579,-6 426,-11 L418,-50 Q450,-54 470,-73 Q490,-92 490,-123 Q490,-166 460.5,-186.5 Q431,-207 388,-207 Q360,-207 333,-201 L333,-142 Q350,-149 375,-149 Q423,-149 423,-118 Q423,-87 370,-87"/> 
            <glyph glyph-name="È" unicode="&#xC8;" horiz-adv-x="521" d=" M93,0 L93,706 L504,706 L504,620 L192,620 L192,399 L445,399 L445,313 L192,313 L192,86 L521,86 L521,0 M270,755 L175,882 L279,882 L352,755"/> 
            <glyph glyph-name="É" unicode="&#xC9;" horiz-adv-x="521" d=" M265,755 L337,882 L442,882 L346,755 M93,0 L93,706 L504,706 L504,620 L192,620 L192,399 L445,399 L445,313 L192,313 L192,86 L521,86 L521,0"/> 
            <glyph glyph-name="Ê" unicode="&#xCA;" horiz-adv-x="521" d=" M170,755 L258,882 L358,882 L447,755 L362,755 L309,835 L307,835 L255,755 M93,0 L93,706 L504,706 L504,620 L192,620 L192,399 L445,399 L445,313 L192,313 L192,86 L521,86 L521,0"/> 
            <glyph glyph-name="Ë" unicode="&#xCB;" horiz-adv-x="521" d=" M354,781 L354,882 L433,882 L433,781 M186,781 L186,882 L266,882 L266,781 M93,0 L93,706 L504,706 L504,620 L192,620 L192,399 L445,399 L445,313 L192,313 L192,86 L521,86 L521,0"/> 
            <glyph glyph-name="Ì" unicode="&#xCC;" horiz-adv-x="192" d=" M93,0 L93,706 L192,706 L192,0 M105,755 L10,882 L114,882 L187,755"/> 
            <glyph glyph-name="Í" unicode="&#xCD;" horiz-adv-x="278" d=" M93,0 L93,706 L192,706 L192,0 M101,755 L173,882 L278,882 L182,755"/> 
            <glyph glyph-name="Î" unicode="&#xCE;" horiz-adv-x="283" d=" M93,0 L93,706 L192,706 L192,0 M6,755 L94,882 L194,882 L283,755 L198,755 L145,835 L143,835 L91,755"/> 
            <glyph glyph-name="Ï" unicode="&#xCF;" horiz-adv-x="268" d=" M93,0 L93,706 L192,706 L192,0 M189,781 L189,882 L268,882 L268,781 M21,781 L21,882 L101,882 L101,781"/> 
            <glyph glyph-name="Ð" unicode="&#xD0;" horiz-adv-x="691" d=" M99,0 L99,312 L41,312 L41,394 L99,394 L99,706 L334,706 Q497,706 594,612.5 Q691,519 691,354 Q691,188 594,94 Q497,0 334,0 M197,86 L327,86 Q448,86 518.5,155.5 Q589,225 589,354 Q589,481 518,550.5 Q447,620 327,620 L197,620 L197,394 L347,394 L347,312 L197,312"/> 
            <glyph glyph-name="Ñ" unicode="&#xD1;" horiz-adv-x="658" d=" M93,0 L93,706 L191,706 L506,248 L564,145 L566,145 Q560,208 560,248 L560,706 L658,706 L658,0 L561,0 L246,458 L188,561 L186,561 Q192,498 192,458 L192,0 M207,756 Q207,883 309,883 Q338,883 360,866 Q382,849 400,832 Q418,815 435,815 Q455,815 464.5,834.5 Q474,854 474,880 L544,880 Q544,753 442,753 Q413,753 391,770 Q369,787 351,804 Q333,821 316,821 Q277,821 277,756"/> 
            <glyph glyph-name="Ò" unicode="&#xD2;" horiz-adv-x="774" d=" M49,358 Q49,511 152,614.5 Q255,718 412,718 Q568,718 671,614.5 Q774,511 774,358 Q774,201 671,94.5 Q568,-12 412,-12 Q256,-12 152.5,94.5 Q49,201 49,358 M151,358 Q151,239 225,159 Q299,79 412,79 Q524,79 598,159 Q672,239 672,358 Q672,473 598,550.5 Q524,628 412,628 Q299,628 225,550.5 Q151,473 151,358 M372,755 L277,882 L381,882 L454,755"/> 
            <glyph glyph-name="Ó" unicode="&#xD3;" horiz-adv-x="774" d=" M368,755 L440,882 L545,882 L449,755 M49,358 Q49,511 152,614.5 Q255,718 412,718 Q568,718 671,614.5 Q774,511 774,358 Q774,201 671,94.5 Q568,-12 412,-12 Q256,-12 152.5,94.5 Q49,201 49,358 M151,358 Q151,239 225,159 Q299,79 412,79 Q524,79 598,159 Q672,239 672,358 Q672,473 598,550.5 Q524,628 412,628 Q299,628 225,550.5 Q151,473 151,358"/> 
            <glyph glyph-name="Ô" unicode="&#xD4;" horiz-adv-x="774" d=" M273,755 L361,882 L461,882 L550,755 L465,755 L412,835 L410,835 L358,755 M49,358 Q49,511 152,614.5 Q255,718 412,718 Q568,718 671,614.5 Q774,511 774,358 Q774,201 671,94.5 Q568,-12 412,-12 Q256,-12 152.5,94.5 Q49,201 49,358 M151,358 Q151,239 225,159 Q299,79 412,79 Q524,79 598,159 Q672,239 672,358 Q672,473 598,550.5 Q524,628 412,628 Q299,628 225,550.5 Q151,473 151,358"/> 
            <glyph glyph-name="Õ" unicode="&#xD5;" horiz-adv-x="774" d=" M49,358 Q49,511 152,614.5 Q255,718 412,718 Q568,718 671,614.5 Q774,511 774,358 Q774,201 671,94.5 Q568,-12 412,-12 Q256,-12 152.5,94.5 Q49,201 49,358 M151,358 Q151,239 225,159 Q299,79 412,79 Q524,79 598,159 Q672,239 672,358 Q672,473 598,550.5 Q524,628 412,628 Q299,628 225,550.5 Q151,473 151,358 M243,756 Q243,883 345,883 Q374,883 396,866 Q418,849 436,832 Q454,815 471,815 Q491,815 500.5,834.5 Q510,854 510,880 L580,880 Q580,753 478,753 Q449,753 427,770 Q405,787 387,804 Q369,821 352,821 Q313,821 313,756"/> 
            <glyph glyph-name="Ö" unicode="&#xD6;" horiz-adv-x="774" d=" M456,781 L456,882 L535,882 L535,781 M288,781 L288,882 L368,882 L368,781 M49,358 Q49,511 152,614.5 Q255,718 412,718 Q568,718 671,614.5 Q774,511 774,358 Q774,201 671,94.5 Q568,-12 412,-12 Q256,-12 152.5,94.5 Q49,201 49,358 M151,358 Q151,239 225,159 Q299,79 412,79 Q524,79 598,159 Q672,239 672,358 Q672,473 598,550.5 Q524,628 412,628 Q299,628 225,550.5 Q151,473 151,358"/> 
            <glyph glyph-name="×" unicode="&#xD7;" horiz-adv-x="548" d=" M28,55 L235,285 L28,515 L84,570 L288,343 L492,570 L548,515 L341,285 L548,55 L492,0 L288,227 L84,0"/> 
            <glyph glyph-name="Ø" unicode="&#xD8;" horiz-adv-x="774" d=" M123,9 L172,77 Q115,128 82,201 Q49,274 49,357 Q49,510 154,614 Q259,718 412,718 Q512,718 597,669 L643,732 L692,698 L647,635 Q707,584 740.5,512.5 Q774,441 774,357 Q774,202 669.5,95 Q565,-12 412,-12 Q306,-12 220,42 L173,-25 M230,158 L541,591 Q481,628 412,628 Q303,628 227,550 Q151,472 151,357 Q151,239 230,158 M275,119 Q337,79 411,79 Q520,79 596,159 Q672,239 672,357 Q672,477 589,555"/> 
            <glyph glyph-name="Ù" unicode="&#xD9;" horiz-adv-x="640" d=" M85,250 L85,706 L184,706 L184,251 Q184,170 232.5,124.5 Q281,79 363,79 Q445,79 493,124.5 Q541,170 541,252 L541,706 L640,706 L640,250 Q640,132 564,60 Q488,-12 364,-12 Q239,-12 162,60 Q85,132 85,250 M323,755 L228,882 L332,882 L405,755"/> 
            <glyph glyph-name="Ú" unicode="&#xDA;" horiz-adv-x="640" d=" M319,755 L391,882 L496,882 L400,755 M85,250 L85,706 L184,706 L184,251 Q184,170 232.5,124.5 Q281,79 363,79 Q445,79 493,124.5 Q541,170 541,252 L541,706 L640,706 L640,250 Q640,132 564,60 Q488,-12 364,-12 Q239,-12 162,60 Q85,132 85,250"/> 
            <glyph glyph-name="Û" unicode="&#xDB;" horiz-adv-x="640" d=" M224,755 L312,882 L412,882 L501,755 L416,755 L363,835 L361,835 L309,755 M85,250 L85,706 L184,706 L184,251 Q184,170 232.5,124.5 Q281,79 363,79 Q445,79 493,124.5 Q541,170 541,252 L541,706 L640,706 L640,250 Q640,132 564,60 Q488,-12 364,-12 Q239,-12 162,60 Q85,132 85,250"/> 
            <glyph glyph-name="Ü" unicode="&#xDC;" horiz-adv-x="640" d=" M407,781 L407,882 L486,882 L486,781 M239,781 L239,882 L319,882 L319,781 M85,250 L85,706 L184,706 L184,251 Q184,170 232.5,124.5 Q281,79 363,79 Q445,79 493,124.5 Q541,170 541,252 L541,706 L640,706 L640,250 Q640,132 564,60 Q488,-12 364,-12 Q239,-12 162,60 Q85,132 85,250"/> 
            <glyph glyph-name="Ý" unicode="&#xDD;" horiz-adv-x="582" d=" M247,0 L247,299 L10,706 L122,706 L252,474 L295,385 L297,385 Q318,433 340,474 L470,706 L582,706 L345,299 L345,0 M252,755 L324,882 L429,882 L333,755"/> 
            <glyph glyph-name="Þ" unicode="&#xDE;" horiz-adv-x="573" d=" M93,0 L93,706 L192,706 L192,586 L352,586 Q450,586 511.5,525.5 Q573,465 573,365 Q573,265 511,203 Q449,141 351,141 L192,141 L192,0 M192,227 L336,227 Q399,227 436,264 Q473,301 473,365 Q473,428 436.5,464 Q400,500 337,500 L192,500"/> 
            <glyph glyph-name="ß" unicode="&#xDF;" horiz-adv-x="560" d=" M75,0 L75,530 Q75,617 139.5,667.5 Q204,718 291,718 Q373,718 427,671.5 Q481,625 481,557 Q481,524 465.5,495.5 Q450,467 431,450 Q412,433 396.5,412 Q381,391 381,371 Q381,354 399.5,336 Q418,318 444.5,300 Q471,282 497,261.5 Q523,241 541.5,210.5 Q560,180 560,145 Q560,72 510.5,32.5 Q461,-7 389,-7 Q302,-7 247,22 L247,108 Q307,77 377,77 Q413,77 437,95 Q461,113 461,149 Q461,176 433,202.5 Q405,229 371.5,248.5 Q338,268 310,300 Q282,332 282,368 Q282,396 298,422 Q314,448 332.5,465.5 Q351,483 367,507.5 Q383,532 383,556 Q383,587 357.5,610.5 Q332,634 288,634 Q240,634 206,605 Q172,576 172,523 L172,0"/> 
            <glyph glyph-name="à" unicode="&#xE0;" horiz-adv-x="458" d=" M33,138 Q33,194 64,232 Q95,270 146.5,286.5 Q198,303 242,309 Q286,315 335,315 L361,315 L361,325 Q361,436 250,436 Q177,436 108,387 L69,458 Q100,484 153,501 Q206,518 258,518 Q354,518 406,467 Q458,416 458,320 L458,0 L367,0 L367,51 L370,91 L368,91 Q345,46 300.5,17 Q256,-12 202,-12 Q133,-12 83,29 Q33,70 33,138 M130,146 Q130,113 155,89 Q180,65 225,65 Q285,65 323,115 Q361,165 361,226 L361,245 L336,245 Q130,245 130,146 M223,580 L128,707 L232,707 L305,580"/> 
            <glyph glyph-name="á" unicode="&#xE1;" horiz-adv-x="458" d=" M33,138 Q33,194 64,232 Q95,270 146.5,286.5 Q198,303 242,309 Q286,315 335,315 L361,315 L361,325 Q361,436 250,436 Q177,436 108,387 L69,458 Q100,484 153,501 Q206,518 258,518 Q354,518 406,467 Q458,416 458,320 L458,0 L367,0 L367,51 L370,91 L368,91 Q345,46 300.5,17 Q256,-12 202,-12 Q133,-12 83,29 Q33,70 33,138 M130,146 Q130,113 155,89 Q180,65 225,65 Q285,65 323,115 Q361,165 361,226 L361,245 L336,245 Q130,245 130,146 M216,580 L288,707 L393,707 L297,580"/> 
            <glyph glyph-name="â" unicode="&#xE2;" horiz-adv-x="458" d=" M33,138 Q33,194 64,232 Q95,270 146.5,286.5 Q198,303 242,309 Q286,315 335,315 L361,315 L361,325 Q361,436 250,436 Q177,436 108,387 L69,458 Q100,484 153,501 Q206,518 258,518 Q354,518 406,467 Q458,416 458,320 L458,0 L367,0 L367,51 L370,91 L368,91 Q345,46 300.5,17 Q256,-12 202,-12 Q133,-12 83,29 Q33,70 33,138 M130,146 Q130,113 155,89 Q180,65 225,65 Q285,65 323,115 Q361,165 361,226 L361,245 L336,245 Q130,245 130,146 M121,580 L209,707 L309,707 L398,580 L313,580 L260,660 L258,660 L206,580"/> 
            <glyph glyph-name="ã" unicode="&#xE3;" horiz-adv-x="458" d=" M33,138 Q33,194 64,232 Q95,270 146.5,286.5 Q198,303 242,309 Q286,315 335,315 L361,315 L361,325 Q361,436 250,436 Q177,436 108,387 L69,458 Q100,484 153,501 Q206,518 258,518 Q354,518 406,467 Q458,416 458,320 L458,0 L367,0 L367,51 L370,91 L368,91 Q345,46 300.5,17 Q256,-12 202,-12 Q133,-12 83,29 Q33,70 33,138 M130,146 Q130,113 155,89 Q180,65 225,65 Q285,65 323,115 Q361,165 361,226 L361,245 L336,245 Q130,245 130,146 M92,581 Q92,708 194,708 Q223,708 245,691 Q267,674 285,657 Q303,640 320,640 Q340,640 349.5,659.5 Q359,679 359,705 L429,705 Q429,578 327,578 Q298,578 276,595 Q254,612 236,629 Q218,646 201,646 Q162,646 162,581"/> 
            <glyph glyph-name="ä" unicode="&#xE4;" horiz-adv-x="458" d=" M33,138 Q33,194 64,232 Q95,270 146.5,286.5 Q198,303 242,309 Q286,315 335,315 L361,315 L361,325 Q361,436 250,436 Q177,436 108,387 L69,458 Q100,484 153,501 Q206,518 258,518 Q354,518 406,467 Q458,416 458,320 L458,0 L367,0 L367,51 L370,91 L368,91 Q345,46 300.5,17 Q256,-12 202,-12 Q133,-12 83,29 Q33,70 33,138 M130,146 Q130,113 155,89 Q180,65 225,65 Q285,65 323,115 Q361,165 361,226 L361,245 L336,245 Q130,245 130,146 M305,606 L305,707 L384,707 L384,606 M137,606 L137,707 L217,707 L217,606"/> 
            <glyph glyph-name="å" unicode="&#xE5;" horiz-adv-x="458" d=" M33,138 Q33,194 64,232 Q95,270 146.5,286.5 Q198,303 242,309 Q286,315 335,315 L361,315 L361,325 Q361,436 250,436 Q177,436 108,387 L69,458 Q100,484 153,501 Q206,518 258,518 Q354,518 406,467 Q458,416 458,320 L458,0 L367,0 L367,51 L370,91 L368,91 Q345,46 300.5,17 Q256,-12 202,-12 Q133,-12 83,29 Q33,70 33,138 M130,146 Q130,113 155,89 Q180,65 225,65 Q285,65 323,115 Q361,165 361,226 L361,245 L336,245 Q130,245 130,146 M260,568 Q225,568 200,588.5 Q175,609 175,642 Q175,676 200,696.5 Q225,717 260,717 Q295,717 319.5,696.5 Q344,676 344,642 Q344,609 319,588.5 Q294,568 260,568 M260,609 Q274,609 283.5,618.5 Q293,628 293,642 Q293,658 283.5,667.5 Q274,677 260,677 Q245,677 236,667.5 Q227,658 227,642 Q227,628 236,618.5 Q245,609 260,609"/> 
            <glyph glyph-name="æ" unicode="&#xE6;" horiz-adv-x="820" d=" M34,142 Q34,181 48.5,211 Q63,241 90,259 Q117,277 145,288.5 Q173,300 211.5,305 Q250,310 276.5,311.5 Q303,313 336,313 L361,313 L361,325 Q361,436 247,436 Q175,436 107,387 L68,458 Q100,485 151.5,501.5 Q203,518 253,518 Q381,518 422,429 L424,429 Q484,518 603,518 Q704,518 762,451 Q820,384 820,283 Q820,270 818,242 L454,242 Q458,161 505,116.5 Q552,72 623,72 Q707,72 773,130 L813,60 Q778,28 724,8 Q670,-12 617,-12 Q542,-12 486,21 Q430,54 400,114 L398,114 Q393,100 381.5,83 Q370,66 348.5,43 Q327,20 289.5,4.5 Q252,-11 207,-11 Q134,-11 84,30 Q34,71 34,142 M458,313 L722,313 Q720,373 685.5,406.5 Q651,440 602,440 Q545,440 506.5,407 Q468,374 458,313 M132,147 Q132,113 157,89.5 Q182,66 228,66 Q287,66 324.5,116.5 Q362,167 362,228 L362,242 L314,242 Q132,242 132,147"/> 
            <glyph glyph-name="ç" unicode="&#xE7;" horiz-adv-x="515" d=" M251,-88 L271,-9 Q168,5 105,77 Q42,149 42,253 Q42,366 118.5,442 Q195,518 313,518 Q433,518 503,444 L457,376 Q399,434 317,434 Q241,434 191,382.5 Q141,331 141,254 Q141,176 191.5,124 Q242,72 320,72 Q362,72 404.5,90.5 Q447,109 476,140 L515,69 Q444,-7 325,-12 L317,-50 Q349,-54 369,-73 Q389,-92 389,-123 Q389,-166 359.5,-186.5 Q330,-207 287,-207 Q259,-207 232,-201 L232,-142 Q250,-149 274,-149 Q322,-149 322,-118 Q322,-87 269,-87"/> 
            <glyph glyph-name="è" unicode="&#xE8;" horiz-adv-x="515" d=" M42,253 Q42,372 114,445 Q186,518 296,518 Q399,518 457,450.5 Q515,383 515,281 Q515,268 511,240 L143,240 Q147,161 196.5,116.5 Q246,72 317,72 Q400,72 466,131 L507,60 Q471,27 417.5,7.5 Q364,-12 311,-12 Q193,-12 117.5,63.5 Q42,139 42,253 M146,310 L417,310 Q415,373 380.5,408 Q346,443 294,443 Q237,443 196.5,407.5 Q156,372 146,310 M257,580 L162,707 L266,707 L339,580"/> 
            <glyph glyph-name="é" unicode="&#xE9;" horiz-adv-x="515" d=" M251,580 L323,707 L428,707 L332,580 M42,253 Q42,372 114,445 Q186,518 296,518 Q399,518 457,450.5 Q515,383 515,281 Q515,268 511,240 L143,240 Q147,161 196.5,116.5 Q246,72 317,72 Q400,72 466,131 L507,60 Q471,27 417.5,7.5 Q364,-12 311,-12 Q193,-12 117.5,63.5 Q42,139 42,253 M146,310 L417,310 Q415,373 380.5,408 Q346,443 294,443 Q237,443 196.5,407.5 Q156,372 146,310"/> 
            <glyph glyph-name="ê" unicode="&#xEA;" horiz-adv-x="515" d=" M156,580 L244,707 L344,707 L433,580 L348,580 L295,660 L293,660 L241,580 M42,253 Q42,372 114,445 Q186,518 296,518 Q399,518 457,450.5 Q515,383 515,281 Q515,268 511,240 L143,240 Q147,161 196.5,116.5 Q246,72 317,72 Q400,72 466,131 L507,60 Q471,27 417.5,7.5 Q364,-12 311,-12 Q193,-12 117.5,63.5 Q42,139 42,253 M146,310 L417,310 Q415,373 380.5,408 Q346,443 294,443 Q237,443 196.5,407.5 Q156,372 146,310"/> 
            <glyph glyph-name="ë" unicode="&#xEB;" horiz-adv-x="515" d=" M340,606 L340,707 L419,707 L419,606 M172,606 L172,707 L252,707 L252,606 M42,253 Q42,372 114,445 Q186,518 296,518 Q399,518 457,450.5 Q515,383 515,281 Q515,268 511,240 L143,240 Q147,161 196.5,116.5 Q246,72 317,72 Q400,72 466,131 L507,60 Q471,27 417.5,7.5 Q364,-12 311,-12 Q193,-12 117.5,63.5 Q42,139 42,253 M146,310 L417,310 Q415,373 380.5,408 Q346,443 294,443 Q237,443 196.5,407.5 Q156,372 146,310"/> 
            <glyph glyph-name="ì" unicode="&#xEC;" horiz-adv-x="172" d=" M75,0 L75,506 L172,506 L172,0 M86,580 L-9,707 L95,707 L168,580"/> 
            <glyph glyph-name="í" unicode="&#xED;" horiz-adv-x="258" d=" M81,580 L153,707 L258,707 L162,580 M75,0 L75,506 L172,506 L172,0"/> 
            <glyph glyph-name="î" unicode="&#xEE;" horiz-adv-x="263" d=" M-14,580 L74,707 L174,707 L263,580 L178,580 L125,660 L123,660 L71,580 M75,0 L75,506 L172,506 L172,0"/> 
            <glyph glyph-name="ï" unicode="&#xEF;" horiz-adv-x="249" d=" M170,606 L170,707 L249,707 L249,606 M2,606 L2,707 L82,707 L82,606 M75,0 L75,506 L172,506 L172,0"/> 
            <glyph glyph-name="ð" unicode="&#xF0;" horiz-adv-x="535" d=" M44,235 Q44,329 107.5,397.5 Q171,466 281,466 Q317,466 347.5,455.5 Q378,445 391,434 L404,424 L406,424 Q376,504 297,557 L116,477 L106,539 L230,594 Q174,623 101,640 L128,719 Q249,690 335,639 L474,700 L483,639 L391,597 Q535,477 535,275 Q535,222 520.5,173 Q506,124 477,81.5 Q448,39 397,13.5 Q346,-12 281,-12 Q173,-12 108.5,61.5 Q44,135 44,235 M143,233 Q143,167 180,119 Q217,71 284,71 Q359,71 397.5,127.5 Q436,184 436,258 Q436,315 397.5,351.5 Q359,388 295,388 Q222,388 182.5,342.5 Q143,297 143,233"/> 
            <glyph glyph-name="ñ" unicode="&#xF1;" horiz-adv-x="533" d=" M75,0 L75,506 L169,506 L169,437 L166,399 L168,399 Q187,442 236.5,480 Q286,518 360,518 Q533,518 533,324 L533,0 L436,0 L436,302 Q436,363 416.5,396 Q397,429 341,429 Q268,429 220,375.5 Q172,322 172,243 L172,0 M143,581 Q143,708 245,708 Q274,708 296,691 Q318,674 336,657 Q354,640 371,640 Q391,640 400.5,659.5 Q410,679 410,705 L480,705 Q480,578 378,578 Q349,578 327,595 Q305,612 287,629 Q269,646 252,646 Q213,646 213,581"/> 
            <glyph glyph-name="ò" unicode="&#xF2;" horiz-adv-x="587" d=" M42,254 Q42,367 121,442.5 Q200,518 314,518 Q429,518 508,443 Q587,368 587,254 Q587,140 508,64 Q429,-12 315,-12 Q201,-12 121.5,64 Q42,140 42,254 M141,254 Q141,175 191.5,123.5 Q242,72 315,72 Q387,72 438,124 Q489,176 489,254 Q489,332 438,383 Q387,434 315,434 Q242,434 191.5,383 Q141,332 141,254 M275,580 L180,707 L284,707 L357,580"/> 
            <glyph glyph-name="ó" unicode="&#xF3;" horiz-adv-x="587" d=" M271,580 L343,707 L448,707 L352,580 M42,254 Q42,367 121,442.5 Q200,518 314,518 Q429,518 508,443 Q587,368 587,254 Q587,140 508,64 Q429,-12 315,-12 Q201,-12 121.5,64 Q42,140 42,254 M141,254 Q141,175 191.5,123.5 Q242,72 315,72 Q387,72 438,124 Q489,176 489,254 Q489,332 438,383 Q387,434 315,434 Q242,434 191.5,383 Q141,332 141,254"/> 
            <glyph glyph-name="ô" unicode="&#xF4;" horiz-adv-x="587" d=" M176,580 L264,707 L364,707 L453,580 L368,580 L315,660 L313,660 L261,580 M42,254 Q42,367 121,442.5 Q200,518 314,518 Q429,518 508,443 Q587,368 587,254 Q587,140 508,64 Q429,-12 315,-12 Q201,-12 121.5,64 Q42,140 42,254 M141,254 Q141,175 191.5,123.5 Q242,72 315,72 Q387,72 438,124 Q489,176 489,254 Q489,332 438,383 Q387,434 315,434 Q242,434 191.5,383 Q141,332 141,254"/> 
            <glyph glyph-name="õ" unicode="&#xF5;" horiz-adv-x="587" d=" M42,254 Q42,367 121,442.5 Q200,518 314,518 Q429,518 508,443 Q587,368 587,254 Q587,140 508,64 Q429,-12 315,-12 Q201,-12 121.5,64 Q42,140 42,254 M141,254 Q141,175 191.5,123.5 Q242,72 315,72 Q387,72 438,124 Q489,176 489,254 Q489,332 438,383 Q387,434 315,434 Q242,434 191.5,383 Q141,332 141,254 M146,581 Q146,708 248,708 Q277,708 299,691 Q321,674 339,657 Q357,640 374,640 Q394,640 403.5,659.5 Q413,679 413,705 L483,705 Q483,578 381,578 Q352,578 330,595 Q308,612 290,629 Q272,646 255,646 Q216,646 216,581"/> 
            <glyph glyph-name="ö" unicode="&#xF6;" horiz-adv-x="587" d=" M359,606 L359,707 L438,707 L438,606 M191,606 L191,707 L271,707 L271,606 M42,254 Q42,367 121,442.5 Q200,518 314,518 Q429,518 508,443 Q587,368 587,254 Q587,140 508,64 Q429,-12 315,-12 Q201,-12 121.5,64 Q42,140 42,254 M141,254 Q141,175 191.5,123.5 Q242,72 315,72 Q387,72 438,124 Q489,176 489,254 Q489,332 438,383 Q387,434 315,434 Q242,434 191.5,383 Q141,332 141,254"/> 
            <glyph glyph-name="÷" unicode="&#xF7;" horiz-adv-x="541" d=" M241,435 L241,526 L335,526 L335,435 M36,246 L36,324 L541,324 L541,246 M241,44 L241,135 L335,135 L335,44"/> 
            <glyph glyph-name="ø" unicode="&#xF8;" horiz-adv-x="588" d=" M100,-4 L138,49 Q42,127 42,254 Q42,368 121,443 Q200,518 315,518 Q387,518 450,485 L490,540 L537,506 L498,452 Q588,375 588,254 Q588,140 508.5,64 Q429,-12 315,-12 Q244,-12 187,18 L148,-38 M192,125 L398,412 Q360,434 315,434 Q243,434 192,383 Q141,332 141,254 Q141,178 192,125 M239,90 Q277,72 315,72 Q388,72 438.5,123.5 Q489,175 489,254 Q489,326 443,374"/> 
            <glyph glyph-name="ù" unicode="&#xF9;" horiz-adv-x="522" d=" M69,182 L69,506 L166,506 L166,204 Q166,144 186,111 Q206,78 261,78 Q336,78 381,134 Q426,190 426,269 L426,506 L522,506 L522,0 L428,0 L428,70 L432,107 L430,107 Q410,62 360,25 Q310,-12 242,-12 Q69,-12 69,182 M257,580 L162,707 L266,707 L339,580"/> 
            <glyph glyph-name="ú" unicode="&#xFA;" horiz-adv-x="522" d=" M252,580 L324,707 L429,707 L333,580 M69,182 L69,506 L166,506 L166,204 Q166,144 186,111 Q206,78 261,78 Q336,78 381,134 Q426,190 426,269 L426,506 L522,506 L522,0 L428,0 L428,70 L432,107 L430,107 Q410,62 360,25 Q310,-12 242,-12 Q69,-12 69,182"/> 
            <glyph glyph-name="û" unicode="&#xFB;" horiz-adv-x="522" d=" M156,580 L244,707 L344,707 L433,580 L348,580 L295,660 L293,660 L241,580 M69,182 L69,506 L166,506 L166,204 Q166,144 186,111 Q206,78 261,78 Q336,78 381,134 Q426,190 426,269 L426,506 L522,506 L522,0 L428,0 L428,70 L432,107 L430,107 Q410,62 360,25 Q310,-12 242,-12 Q69,-12 69,182"/> 
            <glyph glyph-name="ü" unicode="&#xFC;" horiz-adv-x="522" d=" M340,606 L340,707 L419,707 L419,606 M172,606 L172,707 L252,707 L252,606 M69,182 L69,506 L166,506 L166,204 Q166,144 186,111 Q206,78 261,78 Q336,78 381,134 Q426,190 426,269 L426,506 L522,506 L522,0 L428,0 L428,70 L432,107 L430,107 Q410,62 360,25 Q310,-12 242,-12 Q69,-12 69,182"/> 
            <glyph glyph-name="ý" unicode="&#xFD;" horiz-adv-x="515" d=" M50,-105 Q78,-127 108,-127 Q169,-127 200,-52 L225,6 L13,506 L122,506 L249,175 L268,114 L270,114 Q278,148 287,174 L410,506 L515,506 L277,-91 Q255,-149 211.5,-179.5 Q168,-210 113,-210 Q88,-210 64,-202 Q40,-194 28,-186 L16,-179 M225,580 L297,707 L402,707 L306,580"/> 
            <glyph glyph-name="þ" unicode="&#xFE;" horiz-adv-x="556" d=" M75,-200 L75,706 L172,706 L172,475 L170,434 L172,434 Q193,472 234.5,495 Q276,518 332,518 Q434,518 495,444 Q556,370 556,253 Q556,136 492.5,62 Q429,-12 329,-12 Q281,-12 237.5,9.5 Q194,31 172,71 L170,71 Q172,53 172,27 L172,-200 M169,252 Q169,172 208.5,121.5 Q248,71 314,71 Q376,71 417,121.5 Q458,172 458,253 Q458,333 418.5,383.5 Q379,434 316,434 Q253,434 211,389 Q169,344 169,252"/> 
            <glyph glyph-name="ÿ" unicode="&#xFF;" horiz-adv-x="515" d=" M50,-105 Q78,-127 108,-127 Q169,-127 200,-52 L225,6 L13,506 L122,506 L249,175 L268,114 L270,114 Q278,148 287,174 L410,506 L515,506 L277,-91 Q255,-149 211.5,-179.5 Q168,-210 113,-210 Q88,-210 64,-202 Q40,-194 28,-186 L16,-179 M313,606 L313,707 L392,707 L392,606 M145,606 L145,707 L225,707 L225,606"/> 
            <glyph glyph-name="Ā" unicode="&#x100;" horiz-adv-x="626" d=" M15,0 L268,706 L373,706 L626,0 L524,0 L453,203 L187,203 L116,0 M213,285 L427,285 L349,508 L321,609 L319,609 Q304,545 292,508 M193,784 L193,855 L447,855 L447,784"/> 
            <glyph glyph-name="ā" unicode="&#x101;" horiz-adv-x="458" d=" M33,138 Q33,194 64,232 Q95,270 146.5,286.5 Q198,303 242,309 Q286,315 335,315 L361,315 L361,325 Q361,436 250,436 Q177,436 108,387 L69,458 Q100,484 153,501 Q206,518 258,518 Q354,518 406,467 Q458,416 458,320 L458,0 L367,0 L367,51 L370,91 L368,91 Q345,46 300.5,17 Q256,-12 202,-12 Q133,-12 83,29 Q33,70 33,138 M130,146 Q130,113 155,89 Q180,65 225,65 Q285,65 323,115 Q361,165 361,226 L361,245 L336,245 Q130,245 130,146 M134,609 L134,680 L388,680 L388,609"/> 
            <glyph glyph-name="Ă" unicode="&#x102;" horiz-adv-x="626" d=" M15,0 L268,706 L373,706 L626,0 L524,0 L453,203 L187,203 L116,0 M213,285 L427,285 L349,508 L321,609 L319,609 Q304,545 292,508 M320,751 Q265,751 226.5,782 Q188,813 188,868 L188,882 L260,882 L260,869 Q260,839 277.5,824 Q295,809 320,809 Q344,809 361.5,824.5 Q379,840 379,870 L379,882 L451,882 L451,868 Q451,813 412.5,782 Q374,751 320,751"/> 
            <glyph glyph-name="ă" unicode="&#x103;" horiz-adv-x="458" d=" M33,138 Q33,194 64,232 Q95,270 146.5,286.5 Q198,303 242,309 Q286,315 335,315 L361,315 L361,325 Q361,436 250,436 Q177,436 108,387 L69,458 Q100,484 153,501 Q206,518 258,518 Q354,518 406,467 Q458,416 458,320 L458,0 L367,0 L367,51 L370,91 L368,91 Q345,46 300.5,17 Q256,-12 202,-12 Q133,-12 83,29 Q33,70 33,138 M130,146 Q130,113 155,89 Q180,65 225,65 Q285,65 323,115 Q361,165 361,226 L361,245 L336,245 Q130,245 130,146 M260,576 Q205,576 166.5,607 Q128,638 128,693 L128,707 L200,707 L200,694 Q200,664 217.5,649 Q235,634 260,634 Q284,634 301.5,649.5 Q319,665 319,695 L319,707 L391,707 L391,693 Q391,638 352.5,607 Q314,576 260,576"/> 
            <glyph glyph-name="Ą" unicode="&#x104;" horiz-adv-x="626" d=" M15,0 L268,706 L373,706 L626,0 Q562,-51 562,-89 Q562,-106 576,-116.5 Q590,-127 604,-130 L617,-132 L594,-207 Q589,-207 581.5,-205.5 Q574,-204 554,-198 Q534,-192 518.5,-182.5 Q503,-173 490.5,-154.5 Q478,-136 478,-112 Q478,-52 544,0 L524,0 L453,203 L187,203 L116,0 M213,285 L427,285 L349,508 L321,609 L319,609 Q304,545 292,508"/> 
            <glyph glyph-name="ą" unicode="&#x105;" horiz-adv-x="458" d=" M33,138 Q33,194 64,232 Q95,270 146.5,286.5 Q198,303 242,309 Q286,315 335,315 L361,315 L361,325 Q361,436 250,436 Q177,436 108,387 L69,458 Q100,484 153,501 Q206,518 258,518 Q354,518 406,467 Q458,416 458,320 L458,0 Q393,-50 393,-89 Q393,-106 406.5,-116.5 Q420,-127 434,-130 L448,-132 L426,-207 Q421,-207 413,-205.5 Q405,-204 385,-198 Q365,-192 349.5,-182.5 Q334,-173 321.5,-154.5 Q309,-136 309,-112 Q309,-55 378,0 L367,0 L367,51 L370,91 L368,91 Q345,46 300.5,17 Q256,-12 202,-12 Q133,-12 83,29 Q33,70 33,138 M130,146 Q130,113 155,89 Q180,65 225,65 Q285,65 323,115 Q361,165 361,226 L361,245 L336,245 Q130,245 130,146"/> 
            <glyph glyph-name="Ć" unicode="&#x106;" horiz-adv-x="685" d=" M358,755 L430,882 L535,882 L439,755 M50,357 Q50,512 151.5,615 Q253,718 409,718 Q570,718 667,625 L617,551 Q578,586 522.5,607 Q467,628 413,628 Q293,628 222.5,551 Q152,474 152,358 Q152,241 224,160 Q296,79 415,79 Q474,79 531.5,103.5 Q589,128 632,171 L685,100 Q573,-12 412,-12 Q251,-12 150.5,93.5 Q50,199 50,357"/> 
            <glyph glyph-name="ć" unicode="&#x107;" horiz-adv-x="515" d=" M249,580 L321,707 L426,707 L330,580 M42,253 Q42,366 118.5,442 Q195,518 313,518 Q433,518 503,444 L457,376 Q399,434 317,434 Q241,434 191,382.5 Q141,331 141,254 Q141,176 191.5,124 Q242,72 320,72 Q362,72 404.5,90.5 Q447,109 476,140 L515,69 Q480,32 426,10 Q372,-12 313,-12 Q194,-12 118,63 Q42,138 42,253"/> 
            <glyph glyph-name="Ĉ" unicode="&#x108;" horiz-adv-x="685" d=" M263,755 L351,882 L451,882 L540,755 L455,755 L402,835 L400,835 L348,755 M50,357 Q50,512 151.5,615 Q253,718 409,718 Q570,718 667,625 L617,551 Q578,586 522.5,607 Q467,628 413,628 Q293,628 222.5,551 Q152,474 152,358 Q152,241 224,160 Q296,79 415,79 Q474,79 531.5,103.5 Q589,128 632,171 L685,100 Q573,-12 412,-12 Q251,-12 150.5,93.5 Q50,199 50,357"/> 
            <glyph glyph-name="ĉ" unicode="&#x109;" horiz-adv-x="515" d=" M154,580 L242,707 L342,707 L431,580 L346,580 L293,660 L291,660 L239,580 M42,253 Q42,366 118.5,442 Q195,518 313,518 Q433,518 503,444 L457,376 Q399,434 317,434 Q241,434 191,382.5 Q141,331 141,254 Q141,176 191.5,124 Q242,72 320,72 Q362,72 404.5,90.5 Q447,109 476,140 L515,69 Q480,32 426,10 Q372,-12 313,-12 Q194,-12 118,63 Q42,138 42,253"/> 
            <glyph glyph-name="Ċ" unicode="&#x10A;" horiz-adv-x="685" d=" M50,357 Q50,512 151.5,615 Q253,718 409,718 Q570,718 667,625 L617,551 Q578,586 522.5,607 Q467,628 413,628 Q293,628 222.5,551 Q152,474 152,358 Q152,241 224,160 Q296,79 415,79 Q474,79 531.5,103.5 Q589,128 632,171 L685,100 Q573,-12 412,-12 Q251,-12 150.5,93.5 Q50,199 50,357 M359,784 L359,882 L445,882 L445,784"/> 
            <glyph glyph-name="ċ" unicode="&#x10B;" horiz-adv-x="515" d=" M42,253 Q42,366 118.5,442 Q195,518 313,518 Q433,518 503,444 L457,376 Q399,434 317,434 Q241,434 191,382.5 Q141,331 141,254 Q141,176 191.5,124 Q242,72 320,72 Q362,72 404.5,90.5 Q447,109 476,140 L515,69 Q480,32 426,10 Q372,-12 313,-12 Q194,-12 118,63 Q42,138 42,253 M251,609 L251,707 L337,707 L337,609"/> 
            <glyph glyph-name="Č" unicode="&#x10C;" horiz-adv-x="685" d=" M351,755 L263,882 L348,882 L400,801 L402,801 L455,882 L540,882 L451,755 M50,357 Q50,512 151.5,615 Q253,718 409,718 Q570,718 667,625 L617,551 Q578,586 522.5,607 Q467,628 413,628 Q293,628 222.5,551 Q152,474 152,358 Q152,241 224,160 Q296,79 415,79 Q474,79 531.5,103.5 Q589,128 632,171 L685,100 Q573,-12 412,-12 Q251,-12 150.5,93.5 Q50,199 50,357"/> 
            <glyph glyph-name="č" unicode="&#x10D;" horiz-adv-x="515" d=" M242,580 L154,707 L239,707 L291,626 L293,626 L346,707 L431,707 L342,580 M42,253 Q42,366 118.5,442 Q195,518 313,518 Q433,518 503,444 L457,376 Q399,434 317,434 Q241,434 191,382.5 Q141,331 141,254 Q141,176 191.5,124 Q242,72 320,72 Q362,72 404.5,90.5 Q447,109 476,140 L515,69 Q480,32 426,10 Q372,-12 313,-12 Q194,-12 118,63 Q42,138 42,253"/> 
            <glyph glyph-name="Ď" unicode="&#x10E;" horiz-adv-x="685" d=" M291,755 L203,882 L288,882 L340,801 L342,801 L395,882 L480,882 L391,755 M93,0 L93,706 L328,706 Q491,706 588,612.5 Q685,519 685,354 Q685,188 588,94 Q491,0 328,0 M192,86 L321,86 Q442,86 512.5,155.5 Q583,225 583,354 Q583,481 512,550.5 Q441,620 321,620 L192,620"/> 
            <glyph glyph-name="ď" unicode="&#x10F;" horiz-adv-x="675" d=" M583,705 L668,705 Q675,678 675,654 Q675,613 650,560 L576,560 Q595,614 595,644 Q595,674 583,705 M44,253 Q44,373 108,445.5 Q172,518 273,518 Q322,518 364,496.5 Q406,475 430,435 L432,435 Q430,450 430,469 L430,706 L526,706 L526,0 L434,0 L434,51 L437,85 L435,85 Q412,42 368.5,15 Q325,-12 267,-12 Q166,-12 105,61 Q44,134 44,253 M143,253 Q143,171 182.5,121.5 Q222,72 286,72 Q348,72 390,118 Q432,164 432,254 Q432,328 394.5,380.5 Q357,433 288,433 Q226,433 184.5,384.5 Q143,336 143,253"/> 
            <glyph glyph-name="Đ" unicode="&#x110;" horiz-adv-x="691" d=" M99,0 L99,312 L41,312 L41,394 L99,394 L99,706 L334,706 Q497,706 594,612.5 Q691,519 691,354 Q691,188 594,94 Q497,0 334,0 M197,86 L327,86 Q448,86 518.5,155.5 Q589,225 589,354 Q589,481 518,550.5 Q447,620 327,620 L197,620 L197,394 L347,394 L347,312 L197,312"/> 
            <glyph glyph-name="đ" unicode="&#x111;" horiz-adv-x="602" d=" M44,253 Q44,373 108,445.5 Q172,518 273,518 Q321,518 363.5,497.5 Q406,477 429,438 L431,438 Q430,453 430,472 L430,563 L299,563 L299,626 L430,626 L430,706 L526,706 L526,626 L602,626 L602,563 L526,563 L526,0 L434,0 L434,48 L435,82 L433,82 Q410,39 367,13.5 Q324,-12 267,-12 Q166,-12 105,61 Q44,134 44,253 M143,253 Q143,171 182.5,121.5 Q222,72 286,72 Q348,72 390,118 Q432,164 432,254 Q432,328 394.5,381 Q357,434 288,434 Q226,434 184.5,385 Q143,336 143,253"/> 
            <glyph glyph-name="Ē" unicode="&#x112;" horiz-adv-x="521" d=" M93,0 L93,706 L504,706 L504,620 L192,620 L192,399 L445,399 L445,313 L192,313 L192,86 L521,86 L521,0 M183,784 L183,855 L437,855 L437,784"/> 
            <glyph glyph-name="ē" unicode="&#x113;" horiz-adv-x="515" d=" M42,253 Q42,372 114,445 Q186,518 296,518 Q399,518 457,450.5 Q515,383 515,281 Q515,268 511,240 L143,240 Q147,161 196.5,116.5 Q246,72 317,72 Q400,72 466,131 L507,60 Q471,27 417.5,7.5 Q364,-12 311,-12 Q193,-12 117.5,63.5 Q42,139 42,253 M146,310 L417,310 Q415,373 380.5,408 Q346,443 294,443 Q237,443 196.5,407.5 Q156,372 146,310 M169,609 L169,680 L423,680 L423,609"/> 
            <glyph glyph-name="Ĕ" unicode="&#x114;" horiz-adv-x="521" d=" M93,0 L93,706 L504,706 L504,620 L192,620 L192,399 L445,399 L445,313 L192,313 L192,86 L521,86 L521,0 M309,751 Q254,751 215.5,782 Q177,813 177,868 L177,882 L249,882 L249,869 Q249,839 266.5,824 Q284,809 309,809 Q333,809 350.5,824.5 Q368,840 368,870 L368,882 L440,882 L440,868 Q440,813 401.5,782 Q363,751 309,751"/> 
            <glyph glyph-name="ĕ" unicode="&#x115;" horiz-adv-x="515" d=" M42,253 Q42,372 114,445 Q186,518 296,518 Q399,518 457,450.5 Q515,383 515,281 Q515,268 511,240 L143,240 Q147,161 196.5,116.5 Q246,72 317,72 Q400,72 466,131 L507,60 Q471,27 417.5,7.5 Q364,-12 311,-12 Q193,-12 117.5,63.5 Q42,139 42,253 M146,310 L417,310 Q415,373 380.5,408 Q346,443 294,443 Q237,443 196.5,407.5 Q156,372 146,310 M295,576 Q240,576 201.5,607 Q163,638 163,693 L163,707 L235,707 L235,694 Q235,664 252.5,649 Q270,634 295,634 Q319,634 336.5,649.5 Q354,665 354,695 L354,707 L426,707 L426,693 Q426,638 387.5,607 Q349,576 295,576"/> 
            <glyph glyph-name="Ė" unicode="&#x116;" horiz-adv-x="521" d=" M93,0 L93,706 L504,706 L504,620 L192,620 L192,399 L445,399 L445,313 L192,313 L192,86 L521,86 L521,0 M266,784 L266,882 L352,882 L352,784"/> 
            <glyph glyph-name="ė" unicode="&#x117;" horiz-adv-x="515" d=" M42,253 Q42,372 114,445 Q186,518 296,518 Q399,518 457,450.5 Q515,383 515,281 Q515,268 511,240 L143,240 Q147,161 196.5,116.5 Q246,72 317,72 Q400,72 466,131 L507,60 Q471,27 417.5,7.5 Q364,-12 311,-12 Q193,-12 117.5,63.5 Q42,139 42,253 M146,310 L417,310 Q415,373 380.5,408 Q346,443 294,443 Q237,443 196.5,407.5 Q156,372 146,310 M252,609 L252,707 L338,707 L338,609"/> 
            <glyph glyph-name="Ę" unicode="&#x118;" horiz-adv-x="521" d=" M93,0 L93,706 L504,706 L504,620 L192,620 L192,399 L445,399 L445,313 L192,313 L192,86 L521,86 L521,0 Q456,-50 456,-89 Q456,-106 470,-116.5 Q484,-127 498,-130 L512,-132 L489,-207 Q484,-207 476.5,-205.5 Q469,-204 449,-198 Q429,-192 413.5,-182.5 Q398,-173 385.5,-154.5 Q373,-136 373,-112 Q373,-53 444,0"/> 
            <glyph glyph-name="ę" unicode="&#x119;" horiz-adv-x="515" d=" M42,253 Q42,372 114,445 Q186,518 296,518 Q399,518 457,450.5 Q515,383 515,281 L511,240 L143,240 Q147,161 196.5,116.5 Q246,72 317,72 Q399,72 466,131 L506,60 Q496,50 457.5,22 Q419,-6 395.5,-33 Q372,-60 372,-89 Q372,-106 386,-116.5 Q400,-127 414,-130 L427,-132 L405,-207 Q400,-207 392,-205.5 Q384,-204 364,-198 Q344,-192 328.5,-182.5 Q313,-173 300.5,-154.5 Q288,-136 288,-112 Q288,-59 349,-8 Q327,-12 311,-12 Q193,-12 117.5,63.5 Q42,139 42,253 M146,310 L417,310 Q415,373 380.5,408 Q346,443 294,443 Q237,443 196.5,407 Q156,371 146,310"/> 
            <glyph glyph-name="Ě" unicode="&#x11A;" horiz-adv-x="521" d=" M258,755 L170,882 L255,882 L307,801 L309,801 L362,882 L447,882 L358,755 M93,0 L93,706 L504,706 L504,620 L192,620 L192,399 L445,399 L445,313 L192,313 L192,86 L521,86 L521,0"/> 
            <glyph glyph-name="ě" unicode="&#x11B;" horiz-adv-x="515" d=" M244,580 L156,707 L241,707 L293,626 L295,626 L348,707 L433,707 L344,580 M42,253 Q42,372 114,445 Q186,518 296,518 Q399,518 457,450.5 Q515,383 515,281 Q515,268 511,240 L143,240 Q147,161 196.5,116.5 Q246,72 317,72 Q400,72 466,131 L507,60 Q471,27 417.5,7.5 Q364,-12 311,-12 Q193,-12 117.5,63.5 Q42,139 42,253 M146,310 L417,310 Q415,373 380.5,408 Q346,443 294,443 Q237,443 196.5,407.5 Q156,372 146,310"/> 
            <glyph glyph-name="Ĝ" unicode="&#x11C;" horiz-adv-x="702" d=" M260,755 L348,882 L448,882 L537,755 L452,755 L399,835 L397,835 L345,755 M50,354 Q50,508 153,613 Q256,718 410,718 Q565,718 667,632 L617,559 Q581,589 525.5,608.5 Q470,628 417,628 Q297,628 224.5,550 Q152,472 152,356 Q152,235 226,157 Q300,79 411,79 Q526,79 611,167 L611,269 L497,269 L497,355 L702,355 L702,0 L615,0 L615,44 L616,74 L614,74 Q577,35 519,11.5 Q461,-12 397,-12 Q252,-12 151,91.5 Q50,195 50,354"/> 
            <glyph glyph-name="ĝ" unicode="&#x11D;" horiz-adv-x="519" d=" M150,580 L238,707 L338,707 L427,580 L342,580 L289,660 L287,660 L235,580 M123,-92 Q191,-126 262,-126 Q333,-126 377.5,-91.5 Q422,-57 422,15 L422,56 L425,88 L423,88 Q374,6 271,6 Q168,6 106.5,79 Q45,152 45,264 Q45,376 104,447 Q163,518 266,518 Q317,518 360,499 Q403,480 426,441 L429,441 Q426,447 426,456 L426,506 L519,506 L519,21 Q519,-39 497.5,-85 Q476,-131 439,-157.5 Q402,-184 358,-197 Q314,-210 264,-210 Q175,-210 91,-168 M143,267 Q143,187 182.5,138.5 Q222,90 290,90 Q349,90 386.5,131 Q424,172 424,264 Q424,434 281,434 Q216,434 179.5,389.5 Q143,345 143,267"/> 
            <glyph glyph-name="Ğ" unicode="&#x11E;" horiz-adv-x="702" d=" M50,354 Q50,508 153,613 Q256,718 410,718 Q565,718 667,632 L617,559 Q581,589 525.5,608.5 Q470,628 417,628 Q297,628 224.5,550 Q152,472 152,356 Q152,235 226,157 Q300,79 411,79 Q526,79 611,167 L611,269 L497,269 L497,355 L702,355 L702,0 L615,0 L615,44 L616,74 L614,74 Q577,35 519,11.5 Q461,-12 397,-12 Q252,-12 151,91.5 Q50,195 50,354 M400,751 Q345,751 306.5,782 Q268,813 268,868 L268,882 L340,882 L340,869 Q340,839 357.5,824 Q375,809 400,809 Q424,809 441.5,824.5 Q459,840 459,870 L459,882 L531,882 L531,868 Q531,813 492.5,782 Q454,751 400,751"/> 
            <glyph glyph-name="ğ" unicode="&#x11F;" horiz-adv-x="519" d=" M123,-92 Q191,-126 262,-126 Q333,-126 377.5,-91.5 Q422,-57 422,15 L422,56 L425,88 L423,88 Q374,6 271,6 Q168,6 106.5,79 Q45,152 45,264 Q45,376 104,447 Q163,518 266,518 Q317,518 360,499 Q403,480 426,441 L429,441 Q426,447 426,456 L426,506 L519,506 L519,21 Q519,-39 497.5,-85 Q476,-131 439,-157.5 Q402,-184 358,-197 Q314,-210 264,-210 Q175,-210 91,-168 M143,267 Q143,187 182.5,138.5 Q222,90 290,90 Q349,90 386.5,131 Q424,172 424,264 Q424,434 281,434 Q216,434 179.5,389.5 Q143,345 143,267 M289,576 Q234,576 195.5,607 Q157,638 157,693 L157,707 L229,707 L229,694 Q229,664 246.5,649 Q264,634 289,634 Q313,634 330.5,649.5 Q348,665 348,695 L348,707 L420,707 L420,693 Q420,638 381.5,607 Q343,576 289,576"/> 
            <glyph glyph-name="Ġ" unicode="&#x120;" horiz-adv-x="702" d=" M50,354 Q50,508 153,613 Q256,718 410,718 Q565,718 667,632 L617,559 Q581,589 525.5,608.5 Q470,628 417,628 Q297,628 224.5,550 Q152,472 152,356 Q152,235 226,157 Q300,79 411,79 Q526,79 611,167 L611,269 L497,269 L497,355 L702,355 L702,0 L615,0 L615,44 L616,74 L614,74 Q577,35 519,11.5 Q461,-12 397,-12 Q252,-12 151,91.5 Q50,195 50,354 M357,784 L357,882 L443,882 L443,784"/> 
            <glyph glyph-name="ġ" unicode="&#x121;" horiz-adv-x="519" d=" M123,-92 Q191,-126 262,-126 Q333,-126 377.5,-91.5 Q422,-57 422,15 L422,56 L425,88 L423,88 Q374,6 271,6 Q168,6 106.5,79 Q45,152 45,264 Q45,376 104,447 Q163,518 266,518 Q317,518 360,499 Q403,480 426,441 L429,441 Q426,447 426,456 L426,506 L519,506 L519,21 Q519,-39 497.5,-85 Q476,-131 439,-157.5 Q402,-184 358,-197 Q314,-210 264,-210 Q175,-210 91,-168 M143,267 Q143,187 182.5,138.5 Q222,90 290,90 Q349,90 386.5,131 Q424,172 424,264 Q424,434 281,434 Q216,434 179.5,389.5 Q143,345 143,267 M246,609 L246,707 L332,707 L332,609"/> 
            <glyph glyph-name="Ģ" unicode="&#x122;" horiz-adv-x="702" d=" M351,-59 L436,-59 Q443,-86 443,-110 Q443,-151 418,-204 L344,-204 Q363,-150 363,-120 Q363,-90 351,-59 M50,354 Q50,508 153,613 Q256,718 410,718 Q565,718 667,632 L617,559 Q581,589 525.5,608.5 Q470,628 417,628 Q297,628 224.5,550 Q152,472 152,356 Q152,235 226,157 Q300,79 411,79 Q526,79 611,167 L611,269 L497,269 L497,355 L702,355 L702,0 L615,0 L615,44 L616,74 L614,74 Q577,35 519,11.5 Q461,-12 397,-12 Q252,-12 151,91.5 Q50,195 50,354"/> 
            <glyph glyph-name="ģ" unicode="&#x123;" horiz-adv-x="519" d=" M333,563 L249,563 Q242,590 242,613 Q242,653 267,706 L340,706 Q321,652 321,623 Q321,594 333,563 M123,-92 Q191,-126 262,-126 Q333,-126 377.5,-91.5 Q422,-57 422,15 L422,56 L425,88 L423,88 Q374,6 271,6 Q168,6 106.5,79 Q45,152 45,264 Q45,376 104,447 Q163,518 266,518 Q317,518 360,499 Q403,480 426,441 L429,441 Q426,447 426,456 L426,506 L519,506 L519,21 Q519,-39 497.5,-85 Q476,-131 439,-157.5 Q402,-184 358,-197 Q314,-210 264,-210 Q175,-210 91,-168 M143,267 Q143,187 182.5,138.5 Q222,90 290,90 Q349,90 386.5,131 Q424,172 424,264 Q424,434 281,434 Q216,434 179.5,389.5 Q143,345 143,267"/> 
            <glyph glyph-name="Ĥ" unicode="&#x124;" horiz-adv-x="657" d=" M236,755 L324,882 L424,882 L513,755 L428,755 L375,835 L373,835 L321,755 M93,0 L93,706 L192,706 L192,396 L559,396 L559,706 L657,706 L657,0 L559,0 L559,310 L192,310 L192,0"/> 
            <glyph glyph-name="ĥ" unicode="&#x125;" horiz-adv-x="533" d=" M-13,755 L75,882 L175,882 L264,755 L179,755 L126,835 L124,835 L72,755 M75,0 L75,706 L172,706 L172,444 L168,402 L170,402 Q191,446 241,482 Q291,518 360,518 Q533,518 533,324 L533,0 L436,0 L436,302 Q436,363 416.5,396 Q397,429 341,429 Q268,429 220,375.5 Q172,322 172,240 L172,0"/> 
            <glyph glyph-name="Ħ" unicode="&#x126;" horiz-adv-x="724" d=" M100,0 L100,514 L34,514 L34,581 L100,581 L100,706 L200,706 L200,581 L559,581 L559,706 L659,706 L659,581 L724,581 L724,514 L659,514 L659,0 L559,0 L559,310 L200,310 L200,0 M200,396 L559,396 L559,514 L200,514"/> 
            <glyph glyph-name="ħ" unicode="&#x127;" horiz-adv-x="533" d=" M75,0 L75,563 L3,563 L3,626 L75,626 L75,706 L172,706 L172,626 L305,626 L305,563 L172,563 L172,447 L170,405 L172,405 Q192,448 241.5,483 Q291,518 360,518 Q533,518 533,324 L533,0 L436,0 L436,302 Q436,363 416.5,396 Q397,429 341,429 Q266,429 219,374.5 Q172,320 172,243 L172,0"/> 
            <glyph glyph-name="Ĩ" unicode="&#x128;" horiz-adv-x="313" d=" M93,0 L93,706 L192,706 L192,0 M-24,756 Q-24,883 78,883 Q107,883 129,866 Q151,849 169,832 Q187,815 204,815 Q224,815 233.5,834.5 Q243,854 243,880 L313,880 Q313,753 211,753 Q182,753 160,770 Q138,787 120,804 Q102,821 85,821 Q46,821 46,756"/> 
            <glyph glyph-name="ĩ" unicode="&#x129;" horiz-adv-x="294" d=" M75,0 L75,506 L172,506 L172,0 M-43,581 Q-43,708 59,708 Q88,708 110,691 Q132,674 150,657 Q168,640 185,640 Q205,640 214.5,659.5 Q224,679 224,705 L294,705 Q294,578 192,578 Q163,578 141,595 Q119,612 101,629 Q83,646 66,646 Q27,646 27,581"/> 
            <glyph glyph-name="Ī" unicode="&#x12A;" horiz-adv-x="272" d=" M93,0 L93,706 L192,706 L192,0 M18,784 L18,855 L272,855 L272,784"/> 
            <glyph glyph-name="ī" unicode="&#x12B;" horiz-adv-x="252" d=" M75,0 L75,506 L172,506 L172,0 M-2,609 L-2,680 L252,680 L252,609"/> 
            <glyph glyph-name="Ĭ" unicode="&#x12C;" horiz-adv-x="276" d=" M93,0 L93,706 L192,706 L192,0 M145,751 Q90,751 51.5,782 Q13,813 13,868 L13,882 L85,882 L85,869 Q85,839 102.5,824 Q120,809 145,809 Q169,809 186.5,824.5 Q204,840 204,870 L204,882 L276,882 L276,868 Q276,813 237.5,782 Q199,751 145,751"/> 
            <glyph glyph-name="ĭ" unicode="&#x12D;" horiz-adv-x="256" d=" M75,0 L75,506 L172,506 L172,0 M125,576 Q70,576 31.5,607 Q-7,638 -7,693 L-7,707 L65,707 L65,694 Q65,664 82.5,649 Q100,634 125,634 Q149,634 166.5,649.5 Q184,665 184,695 L184,707 L256,707 L256,693 Q256,638 217.5,607 Q179,576 125,576"/> 
            <glyph glyph-name="Į" unicode="&#x12E;" horiz-adv-x="192" d=" M93,0 L93,706 L192,706 L192,0 Q128,-51 128,-89 Q128,-106 142,-116.5 Q156,-127 170,-130 L183,-132 L160,-207 Q155,-207 147.5,-205.5 Q140,-204 120,-198 Q100,-192 84.5,-182.5 Q69,-173 56.5,-154.5 Q44,-136 44,-112 Q44,-54 112,0"/> 
            <glyph glyph-name="į" unicode="&#x12F;" horiz-adv-x="173" d=" M75,0 L75,506 L172,506 L172,0 Q108,-51 108,-89 Q108,-106 122,-116.5 Q136,-127 150,-130 L163,-132 L141,-207 Q136,-207 128,-205.5 Q120,-204 100,-198 Q80,-192 64.5,-182.5 Q49,-173 36.5,-154.5 Q24,-136 24,-112 Q24,-55 93,0 M73,608 L73,706 L173,706 L173,608"/> 
            <glyph glyph-name="İ" unicode="&#x130;" horiz-adv-x="192" d=" M93,0 L93,706 L192,706 L192,0 M102,784 L102,882 L188,882 L188,784"/> 
            <glyph glyph-name="ı" unicode="&#x131;" horiz-adv-x="172" d=" M75,0 L75,506 L172,506 L172,0"/> 
            <glyph glyph-name="Ĳ" unicode="&#x132;" horiz-adv-x="522" d=" M284,-4 L284,86 Q309,86 330.5,92 Q352,98 374,113.5 Q396,129 409,161 Q422,193 422,240 L422,706 L522,706 L522,239 Q522,-4 284,-4 M93,0 L93,706 L192,706 L192,0"/> 
            <glyph glyph-name="ĳ" unicode="&#x133;" horiz-adv-x="419" d=" M73,608 L73,706 L173,706 L173,608 M75,0 L75,506 L172,506 L172,0 M319,608 L319,706 L419,706 L419,608 M321,-11 L321,506 L418,506 L418,-17 Q418,-65 403.5,-101 Q389,-137 368.5,-156.5 Q348,-176 319.5,-188 Q291,-200 269,-203 Q247,-206 224,-206 Q214,-206 190,-204 L190,-121 Q200,-123 212,-123 Q230,-123 246,-119 Q262,-115 280.5,-104.5 Q299,-94 310,-70 Q321,-46 321,-11"/> 
            <glyph glyph-name="Ĵ" unicode="&#x134;" horiz-adv-x="446" d=" M167,755 L255,882 L355,882 L444,755 L359,755 L306,835 L304,835 L252,755 M28,203 L28,238 L126,238 L126,208 Q126,152 153.5,115.5 Q181,79 237,79 Q285,79 316.5,109.5 Q348,140 348,204 L348,620 L170,620 L170,706 L446,706 L446,203 Q446,96 384.5,42 Q323,-12 237,-12 Q151,-12 89.5,42.5 Q28,97 28,203"/> 
            <glyph glyph-name="ĵ" unicode="&#x135;" horiz-adv-x="256" d=" M-14,579 L74,706 L168,706 L256,579 L175,579 L122,660 L120,660 L68,579 M75,-11 L75,506 L172,506 L172,-17 Q172,-65 157.5,-101 Q143,-137 122.5,-156.5 Q102,-176 73.5,-188 Q45,-200 23,-203 Q1,-206 -22,-206 Q-44,-206 -56,-204 L-56,-121 Q-42,-123 -34,-123 Q-16,-123 0,-119 Q16,-115 34.5,-104.5 Q53,-94 64,-70 Q75,-46 75,-11"/> 
            <glyph glyph-name="Ķ" unicode="&#x136;" horiz-adv-x="598" d=" M272,-59 L357,-59 Q364,-86 364,-110 Q364,-151 339,-204 L265,-204 Q284,-150 284,-120 Q284,-90 272,-59 M93,0 L93,706 L192,706 L192,409 L297,409 L476,706 L585,706 L379,371 L379,369 L598,0 L485,0 L297,323 L192,323 L192,0"/> 
            <glyph glyph-name="ķ" unicode="&#x137;" horiz-adv-x="510" d=" M227,-59 L312,-59 Q319,-86 319,-110 Q319,-151 294,-204 L220,-204 Q239,-150 239,-120 Q239,-90 227,-59 M75,0 L75,706 L172,706 L172,320 L244,320 L381,506 L491,506 L323,283 L323,281 L510,0 L397,0 L246,237 L172,237 L172,0"/> 
            <glyph glyph-name="ĸ" unicode="&#x138;" horiz-adv-x="502" d=" M75,0 L75,506 L172,506 L172,307 L242,307 L387,506 L499,506 L323,271 L323,269 L502,0 L386,0 L244,225 L172,225 L172,0"/> 
            <glyph glyph-name="Ĺ" unicode="&#x139;" horiz-adv-x="509" d=" M101,755 L173,882 L278,882 L182,755 M93,0 L93,706 L192,706 L192,86 L509,86 L509,0"/> 
            <glyph glyph-name="ĺ" unicode="&#x13A;" horiz-adv-x="259" d=" M82,755 L154,882 L259,882 L163,755 M75,139 L75,706 L171,706 L171,155 Q171,114 185.5,98.5 Q200,83 226,83 Q237,83 243,84 L243,-2 Q222,-5 211,-5 Q75,-5 75,139"/> 
            <glyph glyph-name="Ļ" unicode="&#x13B;" horiz-adv-x="509" d=" M262,-59 L347,-59 Q354,-86 354,-110 Q354,-151 329,-204 L255,-204 Q274,-150 274,-120 Q274,-90 262,-59 M93,0 L93,706 L192,706 L192,86 L509,86 L509,0"/> 
            <glyph glyph-name="ļ" unicode="&#x13C;" horiz-adv-x="243" d=" M115,-59 L200,-59 Q207,-86 207,-110 Q207,-151 182,-204 L108,-204 Q127,-150 127,-120 Q127,-90 115,-59 M75,139 L75,706 L171,706 L171,155 Q171,114 185.5,98.5 Q200,83 226,83 Q237,83 243,84 L243,-2 Q222,-5 211,-5 Q75,-5 75,139"/> 
            <glyph glyph-name="Ľ" unicode="&#x13D;" horiz-adv-x="509" d=" M276,705 L361,705 Q368,678 368,654 Q368,613 343,560 L269,560 Q288,614 288,644 Q288,674 276,705 M93,0 L93,706 L192,706 L192,86 L509,86 L509,0"/> 
            <glyph glyph-name="ľ" unicode="&#x13E;" horiz-adv-x="321" d=" M229,705 L314,705 Q321,678 321,654 Q321,613 296,560 L222,560 Q241,614 241,644 Q241,674 229,705 M75,139 L75,706 L171,706 L171,155 Q171,114 185.5,98.5 Q200,83 226,83 Q237,83 243,84 L243,-2 Q222,-5 211,-5 Q75,-5 75,139"/> 
            <glyph glyph-name="Ŀ" unicode="&#x13F;" horiz-adv-x="509" d=" M93,0 L93,706 L192,706 L192,86 L509,86 L509,0 M308,326 L308,431 L409,431 L409,326"/> 
            <glyph glyph-name="ŀ" unicode="&#x140;" horiz-adv-x="344" d=" M75,139 L75,706 L171,706 L171,155 Q171,114 185.5,98.5 Q200,83 226,83 Q237,83 243,84 L243,-2 Q222,-5 211,-5 Q75,-5 75,139 M243,326 L243,431 L344,431 L344,326"/> 
            <glyph glyph-name="Ł" unicode="&#x141;" horiz-adv-x="513" d=" M99,0 L99,301 L39,267 L39,364 L99,398 L99,706 L197,706 L197,454 L306,517 L306,420 L197,357 L197,86 L513,86 L513,0"/> 
            <glyph glyph-name="ł" unicode="&#x142;" horiz-adv-x="268" d=" M16,275 L16,372 L89,414 L89,706 L186,706 L186,470 L268,517 L268,420 L186,372 L186,155 Q186,83 240,83 L258,84 L258,-2 Q243,-5 225,-5 Q89,-5 89,139 L89,317"/> 
            <glyph glyph-name="Ń" unicode="&#x143;" horiz-adv-x="658" d=" M332,755 L404,882 L509,882 L413,755 M93,0 L93,706 L191,706 L506,248 L564,145 L566,145 Q560,208 560,248 L560,706 L658,706 L658,0 L561,0 L246,458 L188,561 L186,561 Q192,498 192,458 L192,0"/> 
            <glyph glyph-name="ń" unicode="&#x144;" horiz-adv-x="533" d=" M268,580 L340,707 L445,707 L349,580 M75,0 L75,506 L169,506 L169,437 L166,399 L168,399 Q187,442 236.5,480 Q286,518 360,518 Q533,518 533,324 L533,0 L436,0 L436,302 Q436,363 416.5,396 Q397,429 341,429 Q268,429 220,375.5 Q172,322 172,243 L172,0"/> 
            <glyph glyph-name="Ņ" unicode="&#x145;" horiz-adv-x="658" d=" M330,-59 L415,-59 Q422,-86 422,-110 Q422,-151 397,-204 L323,-204 Q342,-150 342,-120 Q342,-90 330,-59 M93,0 L93,706 L191,706 L506,248 L564,145 L566,145 Q560,208 560,248 L560,706 L658,706 L658,0 L561,0 L246,458 L188,561 L186,561 Q192,498 192,458 L192,0"/> 
            <glyph glyph-name="ņ" unicode="&#x146;" horiz-adv-x="533" d=" M257,-59 L342,-59 Q349,-86 349,-110 Q349,-151 324,-204 L250,-204 Q269,-150 269,-120 Q269,-90 257,-59 M75,0 L75,506 L169,506 L169,437 L166,399 L168,399 Q187,442 236.5,480 Q286,518 360,518 Q533,518 533,324 L533,0 L436,0 L436,302 Q436,363 416.5,396 Q397,429 341,429 Q268,429 220,375.5 Q172,322 172,243 L172,0"/> 
            <glyph glyph-name="Ň" unicode="&#x147;" horiz-adv-x="658" d=" M325,755 L237,882 L322,882 L374,801 L376,801 L429,882 L514,882 L425,755 M93,0 L93,706 L191,706 L506,248 L564,145 L566,145 Q560,208 560,248 L560,706 L658,706 L658,0 L561,0 L246,458 L188,561 L186,561 Q192,498 192,458 L192,0"/> 
            <glyph glyph-name="ň" unicode="&#x148;" horiz-adv-x="533" d=" M261,580 L173,707 L258,707 L310,626 L312,626 L365,707 L450,707 L361,580 M75,0 L75,506 L169,506 L169,437 L166,399 L168,399 Q187,442 236.5,480 Q286,518 360,518 Q533,518 533,324 L533,0 L436,0 L436,302 Q436,363 416.5,396 Q397,429 341,429 Q268,429 220,375.5 Q172,322 172,243 L172,0"/> 
            <glyph glyph-name="ŉ" unicode="&#x149;" horiz-adv-x="533" d=" M3,705 L88,705 Q95,678 95,654 Q95,613 70,560 L-4,560 Q15,614 15,644 Q15,674 3,705 M75,0 L75,506 L169,506 L169,437 L166,399 L168,399 Q187,442 236.5,480 Q286,518 360,518 Q533,518 533,324 L533,0 L436,0 L436,302 Q436,363 416.5,396 Q397,429 341,429 Q268,429 220,375.5 Q172,322 172,243 L172,0"/> 
            <glyph glyph-name="Ŋ" unicode="&#x14A;" horiz-adv-x="658" d=" M93,0 L93,706 L191,706 L506,248 L564,145 L566,145 Q560,208 560,248 L560,706 L658,706 L658,27 Q658,-38 637.5,-85.5 Q617,-133 582,-158 Q547,-183 508.5,-194 Q470,-205 426,-205 L426,-114 Q473,-114 513,-84 Q553,-54 557,7 L246,458 L188,561 L186,561 Q192,498 192,458 L192,0"/> 
            <glyph glyph-name="ŋ" unicode="&#x14B;" horiz-adv-x="533" d=" M75,0 L75,506 L169,506 L169,431 L167,402 L169,402 Q189,445 237.5,481.5 Q286,518 360,518 Q533,518 533,324 L533,-20 Q533,-68 518.5,-104 Q504,-140 483.5,-159.5 Q463,-179 434.5,-191 Q406,-203 384,-206 Q362,-209 339,-209 L305,-207 L305,-124 Q314,-125 327,-125 Q345,-125 361,-121 Q377,-117 395.5,-107 Q414,-97 425,-73 Q436,-49 436,-14 L436,302 Q436,363 416.5,396 Q397,429 341,429 Q266,429 219,374.5 Q172,320 172,243 L172,0"/> 
            <glyph glyph-name="Ō" unicode="&#x14C;" horiz-adv-x="774" d=" M285,784 L285,855 L539,855 L539,784 M49,358 Q49,511 152,614.5 Q255,718 412,718 Q568,718 671,614.5 Q774,511 774,358 Q774,201 671,94.5 Q568,-12 412,-12 Q256,-12 152.5,94.5 Q49,201 49,358 M151,358 Q151,239 225,159 Q299,79 412,79 Q524,79 598,159 Q672,239 672,358 Q672,473 598,550.5 Q524,628 412,628 Q299,628 225,550.5 Q151,473 151,358"/> 
            <glyph glyph-name="ō" unicode="&#x14D;" horiz-adv-x="587" d=" M188,609 L188,680 L442,680 L442,609 M42,254 Q42,367 121,442.5 Q200,518 314,518 Q429,518 508,443 Q587,368 587,254 Q587,140 508,64 Q429,-12 315,-12 Q201,-12 121.5,64 Q42,140 42,254 M141,254 Q141,175 191.5,123.5 Q242,72 315,72 Q387,72 438,124 Q489,176 489,254 Q489,332 438,383 Q387,434 315,434 Q242,434 191.5,383 Q141,332 141,254"/> 
            <glyph glyph-name="Ŏ" unicode="&#x14E;" horiz-adv-x="774" d=" M49,358 Q49,511 152,614.5 Q255,718 412,718 Q568,718 671,614.5 Q774,511 774,358 Q774,201 671,94.5 Q568,-12 412,-12 Q256,-12 152.5,94.5 Q49,201 49,358 M151,358 Q151,239 225,159 Q299,79 412,79 Q524,79 598,159 Q672,239 672,358 Q672,473 598,550.5 Q524,628 412,628 Q299,628 225,550.5 Q151,473 151,358 M411,751 Q356,751 317.5,782 Q279,813 279,868 L279,882 L351,882 L351,869 Q351,839 368.5,824 Q386,809 411,809 Q435,809 452.5,824.5 Q470,840 470,870 L470,882 L542,882 L542,868 Q542,813 503.5,782 Q465,751 411,751"/> 
            <glyph glyph-name="ŏ" unicode="&#x14F;" horiz-adv-x="587" d=" M42,254 Q42,367 121,442.5 Q200,518 314,518 Q429,518 508,443 Q587,368 587,254 Q587,140 508,64 Q429,-12 315,-12 Q201,-12 121.5,64 Q42,140 42,254 M141,254 Q141,175 191.5,123.5 Q242,72 315,72 Q387,72 438,124 Q489,176 489,254 Q489,332 438,383 Q387,434 315,434 Q242,434 191.5,383 Q141,332 141,254 M314,576 Q259,576 220.5,607 Q182,638 182,693 L182,707 L254,707 L254,694 Q254,664 271.5,649 Q289,634 314,634 Q338,634 355.5,649.5 Q373,665 373,695 L373,707 L445,707 L445,693 Q445,638 406.5,607 Q368,576 314,576"/> 
            <glyph glyph-name="Ő" unicode="&#x150;" horiz-adv-x="774" d=" M433,755 L506,882 L607,882 L511,755 M279,755 L347,882 L435,882 L364,755 M49,358 Q49,511 152,614.5 Q255,718 412,718 Q568,718 671,614.5 Q774,511 774,358 Q774,201 671,94.5 Q568,-12 412,-12 Q256,-12 152.5,94.5 Q49,201 49,358 M151,358 Q151,239 225,159 Q299,79 412,79 Q524,79 598,159 Q672,239 672,358 Q672,473 598,550.5 Q524,628 412,628 Q299,628 225,550.5 Q151,473 151,358"/> 
            <glyph glyph-name="ő" unicode="&#x151;" horiz-adv-x="587" d=" M336,580 L409,707 L510,707 L414,580 M182,580 L250,707 L338,707 L267,580 M42,254 Q42,367 121,442.5 Q200,518 314,518 Q429,518 508,443 Q587,368 587,254 Q587,140 508,64 Q429,-12 315,-12 Q201,-12 121.5,64 Q42,140 42,254 M141,254 Q141,175 191.5,123.5 Q242,72 315,72 Q387,72 438,124 Q489,176 489,254 Q489,332 438,383 Q387,434 315,434 Q242,434 191.5,383 Q141,332 141,254"/> 
            <glyph glyph-name="Œ" unicode="&#x152;" horiz-adv-x="913" d=" M50,354 Q50,507 154.5,611 Q259,715 415,715 Q441,715 481.5,710.5 Q522,706 538,706 L896,706 L896,620 L584,620 L584,399 L838,399 L838,313 L584,313 L584,86 L913,86 L913,0 L538,0 Q523,0 482,-4.5 Q441,-9 415,-9 Q259,-9 154.5,95.5 Q50,200 50,354 M152,354 Q152,236 225.5,156.5 Q299,77 415,77 Q433,77 450.5,79 Q468,81 477,83 L486,85 L486,621 Q455,629 415,629 Q300,629 226,550 Q152,471 152,354"/> 
            <glyph glyph-name="œ" unicode="&#x153;" horiz-adv-x="960" d=" M42,135 Q42,369 120.5,443.5 Q199,518 312,518 Q459,518 531,398 L533,398 Q596,518 741,518 Q845,518 902.5,450.5 Q960,383 960,281 L957,240 L588,240 Q594,161 643.5,116.5 Q693,72 762,72 Q845,72 912,131 L952,60 Q916,27 863,7.5 Q810,-12 756,-12 Q603,-12 535,111 L533,111 Q462,-12 312,-12 Q199,-12 42,135 M591,310 L861,310 Q859,372 825,406.5 Q791,441 740,441 Q683,441 642.5,406 Q602,371 591,310 M141,252 Q141,172 191.5,122 Q242,72 314,72 Q387,72 437.5,122.5 Q488,173 488,255 Q488,334 437,384 Q386,434 314,434 Q242,434 191.5,383.5 Q141,333 141,252"/> 
            <glyph glyph-name="Ŕ" unicode="&#x154;" horiz-adv-x="604" d=" M262,755 L334,882 L439,882 L343,755 M93,0 L93,706 L317,706 Q406,706 448,687 Q500,664 530,616 Q560,568 560,502 Q560,434 525.5,380.5 Q491,327 434,308 L434,306 Q442,296 454,274 L604,0 L492,0 L343,281 L192,281 L192,0 M192,367 L334,367 Q392,367 426,402.5 Q460,438 460,497 Q460,580 394,608 Q367,620 309,620 L192,620"/> 
            <glyph glyph-name="ŕ" unicode="&#x155;" horiz-adv-x="357" d=" M180,580 L252,707 L357,707 L261,580 M75,0 L75,506 L169,506 L169,415 L166,378 L168,378 Q187,436 230,474 Q273,512 329,512 Q339,512 355,510 L355,414 Q347,416 327,416 Q251,416 211.5,354.5 Q172,293 172,210 L172,0"/> 
            <glyph glyph-name="Ŗ" unicode="&#x156;" horiz-adv-x="604" d=" M280,-59 L365,-59 Q372,-86 372,-110 Q372,-151 347,-204 L273,-204 Q292,-150 292,-120 Q292,-90 280,-59 M93,0 L93,706 L317,706 Q406,706 448,687 Q500,664 530,616 Q560,568 560,502 Q560,434 525.5,380.5 Q491,327 434,308 L434,306 Q442,296 454,274 L604,0 L492,0 L343,281 L192,281 L192,0 M192,367 L334,367 Q392,367 426,402.5 Q460,438 460,497 Q460,580 394,608 Q367,620 309,620 L192,620"/> 
            <glyph glyph-name="ŗ" unicode="&#x157;" horiz-adv-x="355" d=" M81,-59 L166,-59 Q173,-86 173,-110 Q173,-151 148,-204 L74,-204 Q93,-150 93,-120 Q93,-90 81,-59 M75,0 L75,506 L169,506 L169,415 L166,378 L168,378 Q187,436 230,474 Q273,512 329,512 Q339,512 355,510 L355,414 Q347,416 327,416 Q251,416 211.5,354.5 Q172,293 172,210 L172,0"/> 
            <glyph glyph-name="Ř" unicode="&#x158;" horiz-adv-x="604" d=" M254,755 L166,882 L251,882 L303,801 L305,801 L358,882 L443,882 L354,755 M93,0 L93,706 L317,706 Q406,706 448,687 Q500,664 530,616 Q560,568 560,502 Q560,434 525.5,380.5 Q491,327 434,308 L434,306 Q442,296 454,274 L604,0 L492,0 L343,281 L192,281 L192,0 M192,367 L334,367 Q392,367 426,402.5 Q460,438 460,497 Q460,580 394,608 Q367,620 309,620 L192,620"/> 
            <glyph glyph-name="ř" unicode="&#x159;" horiz-adv-x="363" d=" M174,580 L86,707 L171,707 L223,626 L225,626 L278,707 L363,707 L274,580 M75,0 L75,506 L169,506 L169,415 L166,378 L168,378 Q187,436 230,474 Q273,512 329,512 Q339,512 355,510 L355,414 Q347,416 327,416 Q251,416 211.5,354.5 Q172,293 172,210 L172,0"/> 
            <glyph glyph-name="Ś" unicode="&#x15A;" horiz-adv-x="498" d=" M230,755 L302,882 L407,882 L311,755 M41,81 L97,156 Q131,123 179,101.5 Q227,80 275,80 Q331,80 365,107.5 Q399,135 399,181 Q399,224 364,254.5 Q329,285 278.5,306 Q228,327 178,351 Q128,375 93,418 Q58,461 58,522 Q58,610 123.5,664 Q189,718 289,718 Q410,718 486,646 L441,565 Q411,593 368.5,610 Q326,627 285,627 Q230,627 194,599.5 Q158,572 158,527 Q158,492 183,465 Q208,438 246,422.5 Q284,407 328,386.5 Q372,366 410,344 Q448,322 473,282 Q498,242 498,189 Q498,103 438,45.5 Q378,-12 273,-12 Q136,-12 41,81"/> 
            <glyph glyph-name="ś" unicode="&#x15B;" horiz-adv-x="407" d=" M179,580 L251,707 L356,707 L260,580 M32,62 L78,128 Q139,69 227,69 Q266,69 289.5,86.5 Q313,104 313,135 Q313,161 286,180 Q259,199 221,213 Q183,227 145,244 Q107,261 80,293.5 Q53,326 53,372 Q53,441 105,479.5 Q157,518 235,518 Q337,518 399,462 L360,392 Q338,413 302.5,425 Q267,437 232,437 Q193,437 169.5,421 Q146,405 146,374 Q146,347 173,328 Q200,309 238,295.5 Q276,282 314.5,265 Q353,248 380,215.5 Q407,183 407,137 Q407,72 356,30 Q305,-12 225,-12 Q105,-12 32,62"/> 
            <glyph glyph-name="Ŝ" unicode="&#x15C;" horiz-adv-x="498" d=" M136,755 L224,882 L324,882 L413,755 L328,755 L275,835 L273,835 L221,755 M41,81 L97,156 Q131,123 179,101.5 Q227,80 275,80 Q331,80 365,107.5 Q399,135 399,181 Q399,224 364,254.5 Q329,285 278.5,306 Q228,327 178,351 Q128,375 93,418 Q58,461 58,522 Q58,610 123.5,664 Q189,718 289,718 Q410,718 486,646 L441,565 Q411,593 368.5,610 Q326,627 285,627 Q230,627 194,599.5 Q158,572 158,527 Q158,492 183,465 Q208,438 246,422.5 Q284,407 328,386.5 Q372,366 410,344 Q448,322 473,282 Q498,242 498,189 Q498,103 438,45.5 Q378,-12 273,-12 Q136,-12 41,81"/> 
            <glyph glyph-name="ŝ" unicode="&#x15D;" horiz-adv-x="407" d=" M87,580 L175,707 L275,707 L364,580 L279,580 L226,660 L224,660 L172,580 M32,62 L78,128 Q139,69 227,69 Q266,69 289.5,86.5 Q313,104 313,135 Q313,161 286,180 Q259,199 221,213 Q183,227 145,244 Q107,261 80,293.5 Q53,326 53,372 Q53,441 105,479.5 Q157,518 235,518 Q337,518 399,462 L360,392 Q338,413 302.5,425 Q267,437 232,437 Q193,437 169.5,421 Q146,405 146,374 Q146,347 173,328 Q200,309 238,295.5 Q276,282 314.5,265 Q353,248 380,215.5 Q407,183 407,137 Q407,72 356,30 Q305,-12 225,-12 Q105,-12 32,62"/> 
            <glyph glyph-name="Ş" unicode="&#x15E;" horiz-adv-x="498" d=" M226,-88 L246,-11 Q123,-1 41,81 L97,156 Q131,123 179,101.5 Q227,80 275,80 Q331,80 365,107.5 Q399,135 399,181 Q399,224 364,254.5 Q329,285 278.5,306 Q228,327 178,351 Q128,375 93,418 Q58,461 58,522 Q58,610 123.5,664 Q189,718 289,718 Q410,718 486,646 L441,565 Q411,593 368.5,610 Q326,627 285,627 Q230,627 194,599.5 Q158,572 158,527 Q158,492 183,465 Q208,438 246,422.5 Q284,407 328,386.5 Q372,366 410,344 Q448,322 473,282 Q498,242 498,189 Q498,109 445.5,53 Q393,-3 300,-11 L292,-50 Q324,-54 344,-73 Q364,-92 364,-123 Q364,-166 334.5,-186.5 Q305,-207 262,-207 Q234,-207 207,-201 L207,-142 Q224,-149 249,-149 Q297,-149 297,-118 Q297,-87 244,-87"/> 
            </font>
</defs>
</svg>
