<?xml version="1.0" standalone="no"?>
<!DOCTYPE svg PUBLIC "-//W3C//DTD SVG 1.1//EN" "http://www.w3.org/Graphics/SVG/1.1/DTD/svg11.dtd" >
<svg xmlns="http://www.w3.org/2000/svg">
    <defs>
        <font id="MuseoSansCyrl-300">
            <font-face font-family="MuseoSansCyrl-300"
                       units-per-em="1000"
                       ascent="940"
                       descent="-260"
                       bbox="-117 -214 1088 883"
                    />
            <missing-glyph horiz-adv-x="0" />
            
            <glyph glyph-name="!" unicode="&#x21;" horiz-adv-x="170" d=" M98,184 L95,703 L165,703 L162,184 M92,0 L92,79 L170,79 L170,0"/> 
            <glyph glyph-name="&quot;" unicode="&#x22;" horiz-adv-x="259" d=" M200,545 L200,713 L259,713 L259,545 M79,545 L79,713 L138,713 L138,545"/> 
            <glyph glyph-name="#" unicode="&#x23;" horiz-adv-x="678" d=" M155,0 L189,195 L47,195 L57,251 L199,251 L234,447 L92,447 L102,503 L243,503 L278,703 L339,703 L304,503 L477,503 L512,703 L573,703 L538,503 L678,503 L669,447 L529,447 L494,251 L634,251 L624,195 L484,195 L450,0 L389,0 L423,195 L250,195 L216,0 M260,251 L433,251 L468,447 L294,447"/> 
            <glyph glyph-name="$" unicode="&#x24;" horiz-adv-x="502" d=" M66,78 L107,131 Q141,97 191,75.5 Q241,54 291,54 Q351,54 391,87.5 Q431,121 431,176 Q431,223 394.5,256.5 Q358,290 306,312.5 Q254,335 202,359 Q150,383 113.5,425 Q77,467 77,526 Q77,596 128,649 Q179,702 261,712 L261,807 L317,807 L317,713 Q417,708 484,647 L450,589 Q421,616 379,632.5 Q337,649 296,649 Q231,649 189.5,613 Q148,577 148,528 Q148,484 184.5,452.5 Q221,421 273,399.5 Q325,378 377,353.5 Q429,329 465.5,285 Q502,241 502,178 Q502,103 452,50.5 Q402,-2 317,-10 L317,-103 L261,-103 L261,-10 Q141,-1 66,78"/> 
            <glyph glyph-name="%" unicode="&#x25;" horiz-adv-x="674" d=" M253,437 Q137,437 96,477.5 Q55,518 55,576 Q55,633 96,674 Q137,715 195,715 Q253,715 294.5,674 Q336,633 336,576 Q336,518 253,437 M61,0 L596,703 L668,703 L133,0 M161,493 Q229,493 252.5,517 Q276,541 276,576 Q276,610 252.5,634.5 Q229,659 195,659 Q161,659 137.5,634.5 Q114,610 114,576 Q114,541 161,493 M393,126 Q393,184 434,225 Q475,266 533,266 Q591,266 632.5,225 Q674,184 674,126 Q674,69 632.5,28.5 Q591,-12 533,-12 Q475,-12 434,28.5 Q393,69 393,126 M452,127 Q452,92 475.5,68 Q499,44 533,44 Q567,44 591,68 Q615,92 615,127 Q615,161 591,185.5 Q567,210 533,210 Q499,210 475.5,185.5 Q452,161 452,127"/> 
            <glyph glyph-name="&amp;" unicode="&#x26;" horiz-adv-x="626" d=" M60,194 Q60,257 94,309 Q128,361 188,379 L188,381 Q91,422 91,537 Q91,618 148,666.5 Q205,715 301,715 Q340,715 381,704 L362,647 Q334,654 304,654 Q242,654 202,621.5 Q162,589 162,533 Q162,512 167.5,493 Q173,474 187.5,452.5 Q202,431 234.5,418.5 Q267,406 313,406 L461,406 L461,505 L530,505 L530,406 L626,406 L626,344 L530,344 L530,241 Q530,117 468,52.5 Q406,-12 297,-12 Q193,-12 126.5,46.5 Q60,105 60,194 M132,198 Q132,136 177,94.5 Q222,53 297,53 Q461,53 461,243 L461,344 L313,344 Q224,344 178,305 Q132,266 132,198"/> 
            <glyph glyph-name="'" unicode="&#x27;" horiz-adv-x="138" d=" M79,545 L79,713 L138,713 L138,545"/> 
            <glyph glyph-name="(" unicode="&#x28;" horiz-adv-x="234" d=" M170,-95 Q58,100 58,337 Q58,545 170,730 L234,730 Q121,541 121,336 Q121,106 234,-95"/> 
            <glyph glyph-name=")" unicode="&#x29;" horiz-adv-x="220" d=" M44,-95 Q157,108 157,336 Q157,539 44,730 L107,730 Q220,546 220,337 Q220,99 107,-95"/> 
            <glyph glyph-name="*" unicode="&#x2A;" horiz-adv-x="441" d=" M161,337 L108,375 L203,495 L203,497 L56,539 L75,602 L220,549 L214,703 L281,703 L275,549 L420,601 L441,540 L293,497 L293,495 L387,375 L334,336 L249,463 L247,463"/> 
            <glyph glyph-name="+" unicode="&#x2B;" horiz-adv-x="545" d=" M23,255 L23,313 L254,313 L254,568 L315,568 L315,313 L545,313 L545,255 L315,255 L315,0 L254,0 L254,255"/> 
            <glyph glyph-name="," unicode="&#x2C;" horiz-adv-x="179" d=" M44,-97 L101,82 L179,82 L103,-97"/> 
            <glyph glyph-name="-" unicode="&#x2D;" horiz-adv-x="358" d=" M74,253 L74,315 L358,315 L358,253"/> 
            <glyph glyph-name="." unicode="&#x2E;" horiz-adv-x="156" d=" M74,0 L74,83 L156,83 L156,0"/> 
            <glyph glyph-name="/" unicode="&#x2F;" horiz-adv-x="360" d=" M42,-42 L296,742 L360,742 L106,-42"/> 
            <glyph glyph-name="0" unicode="&#x30;" horiz-adv-x="551" d=" M308,-12 Q180,-12 123,87 Q66,186 66,352 Q66,431 78.5,494.5 Q91,558 118.5,609 Q146,660 194,687.5 Q242,715 308,715 Q396,715 452,665 Q508,615 529.5,537 Q551,459 551,352 Q551,272 538.5,208.5 Q526,145 498.5,94.5 Q471,44 423,16 Q375,-12 308,-12 M308,53 Q372,53 411.5,94 Q451,135 465,198 Q479,261 479,352 Q479,418 471,469.5 Q463,521 444,562.5 Q425,604 391,626.5 Q357,649 308,649 Q138,649 138,352 Q138,212 176.5,132.5 Q215,53 308,53"/> 
            <glyph glyph-name="1" unicode="&#x31;" horiz-adv-x="438" d=" M57,0 L57,62 L215,62 L215,578 L216,617 L214,617 Q207,603 179,575 L104,501 L60,545 L219,703 L283,703 L283,62 L438,62 L438,0"/> 
            <glyph glyph-name="2" unicode="&#x32;" horiz-adv-x="502" d=" M62,0 Q58,32 58,45 Q58,95 78,138.5 Q98,182 129.5,213.5 Q161,245 200,273.5 Q239,302 277.5,328 Q316,354 347.5,380.5 Q379,407 399,441.5 Q419,476 419,514 Q419,573 378.5,611 Q338,649 273,649 Q225,649 183.5,622.5 Q142,596 115,553 L64,588 Q95,644 151.5,679.5 Q208,715 277,715 Q374,715 432.5,659 Q491,603 491,518 Q491,470 471.5,428.5 Q452,387 420.5,356.5 Q389,326 351,298.5 Q313,271 275,245.5 Q237,220 205.5,193.5 Q174,167 154,133.5 Q134,100 134,62 L502,62 L502,0"/> 
            <glyph glyph-name="3" unicode="&#x33;" horiz-adv-x="503" d=" M49,84 L92,137 Q124,102 172,78.5 Q220,55 272,55 Q337,55 384.5,97.5 Q432,140 432,206 Q432,277 380.5,316.5 Q329,356 256,356 L207,356 L190,397 L366,603 L403,642 L403,644 Q383,641 346,641 L82,641 L82,703 L493,703 L493,657 L284,415 Q320,413 356,401.5 Q392,390 426,367.5 Q460,345 481.5,303.5 Q503,262 503,208 Q503,117 437,52.5 Q371,-12 272,-12 Q211,-12 152,13.5 Q93,39 49,84"/> 
            <glyph glyph-name="4" unicode="&#x34;" horiz-adv-x="558" d=" M38,195 L38,240 L383,703 L458,703 L458,255 L558,255 L558,195 L458,195 L458,0 L389,0 L389,195 M121,255 L389,255 L389,550 L393,617 L391,617 Q374,588 356,563 L121,257"/> 
            <glyph glyph-name="5" unicode="&#x35;" horiz-adv-x="504" d=" M54,87 L99,136 Q155,55 257,55 Q331,55 381.5,101.5 Q432,148 432,219 Q432,291 381,338 Q330,385 254,385 Q183,385 126,346 L82,362 L120,703 L460,703 L460,641 L181,641 L160,461 L154,421 L156,421 Q199,448 262,448 Q366,448 435,381.5 Q504,315 504,219 Q504,122 433.5,55 Q363,-12 260,-12 Q199,-12 144,14 Q89,40 54,87"/> 
            <glyph glyph-name="6" unicode="&#x36;" horiz-adv-x="536" d=" M62,317 Q62,386 80,454 Q98,522 134,581.5 Q170,641 231,678 Q292,715 370,715 Q442,715 500,686 L474,625 Q432,649 370,649 Q269,649 208.5,565.5 Q148,482 138,368 L140,368 Q165,405 214,427.5 Q263,450 318,450 Q414,450 475,386 Q536,322 536,220 Q536,116 473,52 Q410,-12 316,-12 Q203,-12 132.5,81 Q62,174 62,317 M320,53 Q385,53 425.5,100.5 Q466,148 466,222 Q466,298 422.5,343 Q379,388 307,388 Q240,388 188.5,351.5 Q137,315 137,260 Q137,220 156.5,174 Q176,128 220,90.5 Q264,53 320,53"/> 
            <glyph glyph-name="7" unicode="&#x37;" horiz-adv-x="501" d=" M103,0 L387,576 L425,641 L425,643 Q408,641 373,641 L44,641 L44,703 L501,703 L501,655 L175,0"/> 
            <glyph glyph-name="8" unicode="&#x38;" horiz-adv-x="530" d=" M59,198 Q59,238 73,273.5 Q87,309 109,334 Q131,359 147,372 Q163,385 178,395 Q93,451 93,535 Q93,610 149,662.5 Q205,715 306,715 Q403,715 462,664.5 Q521,614 521,533 Q521,490 501,445.5 Q481,401 463.5,379 Q446,357 430,341 Q530,283 530,191 Q530,107 464,47.5 Q398,-12 297,-12 Q199,-12 129,46.5 Q59,105 59,198 M373,369 Q451,447 451,528 Q451,585 410.5,618 Q370,651 305,651 Q240,651 201.5,618 Q163,585 163,536 Q163,514 172.5,494.5 Q182,475 195,462 Q208,449 232.5,434.5 Q257,420 274.5,412 Q292,404 324.5,390.5 Q357,377 373,369 M131,203 Q131,137 181,94.5 Q231,52 296,52 Q360,52 409.5,91.5 Q459,131 459,190 Q459,217 446.5,239 Q434,261 407.5,279 Q381,297 358.5,308 Q336,319 295,336 Q254,353 234,363 Q131,299 131,203"/> 
            <glyph glyph-name="9" unicode="&#x39;" horiz-adv-x="527" d=" M89,17 L116,78 Q162,53 218,53 Q288,53 340.5,96 Q393,139 419,200.5 Q445,262 452,335 L450,335 Q424,298 375,275.5 Q326,253 272,253 Q175,253 114,316.5 Q53,380 53,481 Q53,587 116,651 Q179,715 274,715 Q387,715 457,622 Q527,529 527,385 Q527,316 508.5,248.5 Q490,181 454.5,121.5 Q419,62 357.5,25 Q296,-12 218,-12 Q148,-12 89,17 M282,315 Q351,315 402,353 Q453,391 453,435 Q453,511 401,580 Q349,649 275,649 Q204,649 163.5,602 Q123,555 123,481 Q123,406 166.5,360.5 Q210,315 282,315"/> 
            <glyph glyph-name=":" unicode="&#x3A;" horiz-adv-x="152" d=" M74,423 L74,503 L152,503 L152,423 M74,0 L74,80 L152,80 L152,0"/> 
            <glyph glyph-name=";" unicode="&#x3B;" horiz-adv-x="193" d=" M116,423 L116,503 L193,503 L193,423 M66,-97 L115,82 L190,82 L124,-97"/> 
            <glyph glyph-name="&lt;" unicode="&#x3C;" horiz-adv-x="497" d=" M45,259 L45,309 L497,511 L497,444 L129,285 L129,283 L497,124 L497,57"/> 
            <glyph glyph-name="=" unicode="&#x3D;" horiz-adv-x="517" d=" M51,342 L51,400 L517,400 L517,342 M51,168 L51,226 L517,226 L517,168"/> 
            <glyph glyph-name="&gt;" unicode="&#x3E;" horiz-adv-x="522" d=" M71,57 L71,124 L438,283 L438,285 L71,444 L71,511 L522,309 L522,259"/> 
            <glyph glyph-name="?" unicode="&#x3F;" horiz-adv-x="403" d=" M157,184 L157,229 Q157,273 175,308.5 Q193,344 218.5,368 Q244,392 269.5,415.5 Q295,439 313,469.5 Q331,500 331,536 Q331,585 294,618 Q257,651 200,651 Q135,651 80,609 L42,659 Q70,684 114,700 Q158,716 203,716 Q289,716 346,666 Q403,616 403,539 Q403,493 384.5,456 Q366,419 340,394.5 Q314,370 287.5,347 Q261,324 242.5,293.5 Q224,263 224,227 L224,184 M151,0 L151,79 L230,79 L230,0"/> 
            <glyph glyph-name="@" unicode="&#x40;" horiz-adv-x="731" d=" M60,242 Q60,395 164,502.5 Q268,610 415,610 Q542,610 601,556 Q660,502 660,420 L660,105 L731,105 L731,49 L462,49 Q377,49 320,105.5 Q263,162 263,241 Q263,320 320,376.5 Q377,433 462,433 L592,433 Q590,484 546.5,517.5 Q503,551 420,551 Q298,551 213.5,460 Q129,369 129,242 Q129,113 213.5,24.5 Q298,-64 425,-64 L425,-124 Q270,-124 165,-18 Q60,88 60,242 M333,299 Q333,185 372,145 Q411,105 468,105 L592,105 L592,380 L470,380 Q412,380 333,299"/> 
            <glyph glyph-name="A" unicode="&#x41;" horiz-adv-x="611" d=" M21,0 L279,703 L353,703 L611,0 L538,0 L457,224 L174,224 L94,0 M195,284 L436,284 L344,539 L317,631 L315,631 Q300,572 288,539"/> 
            <glyph glyph-name="B" unicode="&#x42;" horiz-adv-x="560" d=" M101,0 L101,703 L341,703 Q425,703 478,655 Q531,607 531,526 Q531,418 442,373 L442,371 Q496,356 528,308 Q560,260 560,197 Q560,106 500,53 Q440,0 349,0 M170,398 L341,398 Q394,398 427,432 Q460,466 460,521 Q460,575 427.5,608 Q395,641 339,641 L170,641 M170,62 L350,62 Q414,62 451,99 Q488,136 488,199 Q488,262 449.5,300 Q411,338 349,338 L170,338"/> 
            <glyph glyph-name="C" unicode="&#x43;" horiz-adv-x="680" d=" M55,356 Q55,510 154.5,612.5 Q254,715 408,715 Q567,715 662,624 L625,573 Q584,609 526,629.5 Q468,650 410,650 Q284,650 205.5,566.5 Q127,483 127,357 Q127,229 206,141 Q285,53 413,53 Q545,53 640,146 L680,97 Q569,-12 411,-12 Q253,-12 154,93.5 Q55,199 55,356"/> 
            <glyph glyph-name="D" unicode="&#x44;" horiz-adv-x="680" d=" M101,0 L101,703 L327,703 Q488,703 584,609.5 Q680,516 680,352 Q680,187 584,93.5 Q488,0 327,0 M170,62 L320,62 Q452,62 530,137.5 Q608,213 608,352 Q608,490 530,565.5 Q452,641 320,641 L170,641"/> 
            <glyph glyph-name="E" unicode="&#x45;" horiz-adv-x="515" d=" M101,0 L101,703 L496,703 L496,641 L170,641 L170,385 L437,385 L437,323 L170,323 L170,62 L515,62 L515,0"/> 
            <glyph glyph-name="F" unicode="&#x46;" horiz-adv-x="470" d=" M101,0 L101,703 L470,703 L470,641 L170,641 L170,377 L428,377 L428,315 L170,315 L170,0"/> 
            <glyph glyph-name="G" unicode="&#x47;" horiz-adv-x="693" d=" M55,352 Q55,505 157,610 Q259,715 410,715 Q559,715 660,633 L622,580 Q585,611 527,630.5 Q469,650 413,650 Q287,650 207,565 Q127,480 127,353 Q127,223 206.5,138 Q286,53 407,53 Q469,53 527.5,80.5 Q586,108 628,155 L628,274 L508,274 L508,336 L693,336 L693,0 L630,0 L630,53 L631,83 L629,83 Q590,40 529,14 Q468,-12 400,-12 Q254,-12 154.5,92 Q55,196 55,352"/> 
            <glyph glyph-name="H" unicode="&#x48;" horiz-adv-x="647" d=" M101,0 L101,703 L170,703 L170,383 L577,383 L577,703 L647,703 L647,0 L577,0 L577,321 L170,321 L170,0"/> 
            <glyph glyph-name="I" unicode="&#x49;" horiz-adv-x="170" d=" M101,0 L101,703 L170,703 L170,0"/> 
            <glyph glyph-name="J" unicode="&#x4A;" horiz-adv-x="426" d=" M32,197 L32,225 L101,225 L101,199 Q101,136 133,94.5 Q165,53 228,53 Q283,53 320,88 Q357,123 357,197 L357,641 L185,641 L185,703 L426,703 L426,197 Q426,91 368.5,39.5 Q311,-12 229,-12 Q147,-12 89.5,40 Q32,92 32,197"/> 
            <glyph glyph-name="K" unicode="&#x4B;" horiz-adv-x="571" d=" M101,0 L101,703 L170,703 L170,398 L288,398 L478,703 L557,703 L346,371 L346,369 L571,0 L490,0 L288,336 L170,336 L170,0"/> 
            <glyph glyph-name="L" unicode="&#x4C;" horiz-adv-x="496" d=" M101,0 L101,703 L170,703 L170,62 L496,62 L496,0"/> 
            <glyph glyph-name="M" unicode="&#x4D;" horiz-adv-x="768" d=" M74,0 L130,703 L201,703 L386,290 L420,204 L422,204 Q440,254 456,290 L641,703 L712,703 L768,0 L699,0 L660,492 L658,590 L656,590 Q635,528 619,492 L453,131 L389,131 L224,492 L186,592 L184,592 Q185,530 182,492 L143,0"/> 
            <glyph glyph-name="N" unicode="&#x4E;" horiz-adv-x="650" d=" M101,0 L101,703 L168,703 L527,197 L585,102 L587,102 Q581,160 581,197 L581,703 L650,703 L650,0 L583,0 L224,506 L166,601 L164,601 Q170,543 170,506 L170,0"/> 
            <glyph glyph-name="O" unicode="&#x4F;" horiz-adv-x="770" d=" M54,357 Q54,508 156.5,611.5 Q259,715 412,715 Q566,715 668,612 Q770,509 770,357 Q770,201 668,94.5 Q566,-12 412,-12 Q259,-12 156.5,94.5 Q54,201 54,357 M126,357 Q126,228 207.5,140.5 Q289,53 412,53 Q535,53 616.5,140 Q698,227 698,357 Q698,482 616.5,566 Q535,650 412,650 Q289,650 207.5,566 Q126,482 126,357"/> 
            <glyph glyph-name="P" unicode="&#x50;" horiz-adv-x="561" d=" M101,0 L101,703 L344,703 Q439,703 500,645 Q561,587 561,491 Q561,394 500,335 Q439,276 344,276 L170,276 L170,0 M170,338 L335,338 Q406,338 448,379 Q490,420 490,491 Q490,561 448.5,601 Q407,641 336,641 L170,641"/> 
            <glyph glyph-name="Q" unicode="&#x51;" horiz-adv-x="771" d=" M55,356 Q55,508 157.5,611.5 Q260,715 412,715 Q567,715 669,612 Q771,509 771,356 Q771,213 683,114 L770,27 L728,-17 L643,71 Q544,-12 412,-12 Q259,-12 157,94.5 Q55,201 55,356 M127,356 Q127,228 209,140.5 Q291,53 412,53 Q518,53 594,118 L507,206 L549,249 L634,162 Q699,243 699,356 Q699,482 616.5,566 Q534,650 412,650 Q291,650 209,566 Q127,482 127,356"/> 
            <glyph glyph-name="R" unicode="&#x52;" horiz-adv-x="585" d=" M101,0 L101,703 L314,703 Q398,703 443,683 Q547,633 547,507 Q547,436 510,383 Q473,330 413,313 L413,311 Q421,302 432,283 L585,0 L505,0 L347,296 L170,296 L170,0 M170,358 L337,358 Q400,358 438,398.5 Q476,439 476,505 Q476,547 456.5,579.5 Q437,612 402,628 Q373,641 310,641 L170,641"/> 
            <glyph glyph-name="S" unicode="&#x53;" horiz-adv-x="483" d=" M47,78 L88,131 Q123,97 171.5,75.5 Q220,54 270,54 Q333,54 372.5,87 Q412,120 412,174 Q412,210 392.5,237.5 Q373,265 342.5,283.5 Q312,302 274.5,318.5 Q237,335 199.5,353 Q162,371 131.5,392.5 Q101,414 81.5,448.5 Q62,483 62,527 Q62,612 125,663.5 Q188,715 283,715 Q396,715 469,647 L435,589 Q406,616 364,632.5 Q322,649 280,649 Q218,649 175.5,617 Q133,585 133,531 Q133,497 152.5,470.5 Q172,444 202.5,427 Q233,410 270.5,394 Q308,378 345.5,360 Q383,342 413.5,320 Q444,298 463.5,262.5 Q483,227 483,181 Q483,97 425,42.5 Q367,-12 268,-12 Q137,-12 47,78"/> 
            <glyph glyph-name="T" unicode="&#x54;" horiz-adv-x="591" d=" M269,0 L269,641 L17,641 L17,703 L591,703 L591,641 L338,641 L338,0"/> 
            <glyph glyph-name="U" unicode="&#x55;" horiz-adv-x="631" d=" M93,245 L93,703 L162,703 L162,246 Q162,156 216,104.5 Q270,53 361,53 Q453,53 507,105 Q561,157 561,248 L561,703 L631,703 L631,245 Q631,129 556.5,58.5 Q482,-12 362,-12 Q242,-12 167.5,58.5 Q93,129 93,245"/> 
            <glyph glyph-name="V" unicode="&#x56;" horiz-adv-x="613" d=" M279,0 L19,703 L93,703 L288,169 L315,79 L317,79 Q331,133 344,169 L539,703 L613,703 L353,0"/> 
            <glyph glyph-name="W" unicode="&#x57;" horiz-adv-x="895" d=" M217,0 L35,703 L108,703 L244,157 L260,82 L262,82 Q269,120 280,157 L430,703 L496,703 L646,157 L663,82 L665,82 Q671,121 680,157 L823,703 L895,703 L707,0 L625,0 L489,495 L464,600 L461,600 Q449,540 436,495 L300,0"/> 
            <glyph glyph-name="X" unicode="&#x58;" horiz-adv-x="557" d=" M19,0 L243,367 L38,703 L119,703 L242,495 L288,414 L290,414 Q311,459 333,495 L457,703 L538,703 L332,367 L557,0 L478,0 L331,243 L287,321 L285,321 Q264,279 242,242 L98,0"/> 
            <glyph glyph-name="Y" unicode="&#x59;" horiz-adv-x="561" d=" M255,0 L255,302 L17,703 L96,703 L245,448 L288,364 L290,364 Q312,411 333,448 L482,703 L561,703 L324,302 L324,0"/> 
            <glyph glyph-name="Z" unicode="&#x5A;" horiz-adv-x="537" d=" M35,0 L35,49 L399,577 Q410,594 422.5,610 Q435,626 442,634 L448,641 L448,643 Q431,641 396,641 L55,641 L55,703 L534,703 L534,654 L170,126 Q159,109 146.5,93 Q134,77 128,70 L121,62 L121,60 Q138,62 173,62 L537,62 L537,0"/> 
            <glyph glyph-name="[" unicode="&#x5B;" horiz-adv-x="228" d=" M92,-95 L92,730 L228,730 L228,674 L155,674 L155,-39 L228,-39 L228,-95"/> 
            <glyph glyph-name="\" unicode="&#x5C;" horiz-adv-x="360" d=" M296,-42 L42,742 L106,742 L360,-42"/> 
            <glyph glyph-name="]" unicode="&#x5D;" horiz-adv-x="190" d=" M54,-39 L127,-39 L127,674 L54,674 L54,730 L190,730 L190,-95 L54,-95"/> 
            <glyph glyph-name="^" unicode="&#x5E;" horiz-adv-x="517" d=" M73,250 L272,703 L318,703 L517,250 L451,250 L295,620 L139,250"/> 
            <glyph glyph-name="_" unicode="&#x5F;" horiz-adv-x="553" d=" M37,0 L553,0 L553,-58 L37,-58"/> 
            <glyph glyph-name="`" unicode="&#x60;" horiz-adv-x="326" d=" M264,752 L178,871 L257,871 L326,752"/> 
            <glyph glyph-name="a" unicode="&#x61;" horiz-adv-x="441" d=" M37,135 Q37,310 343,310 L373,310 L373,324 Q373,454 249,454 Q172,454 106,406 L75,458 Q105,484 154,499.5 Q203,515 253,515 Q344,515 392.5,465.5 Q441,416 441,322 L441,0 L376,0 L376,59 L379,101 L377,101 Q356,53 310.5,20.5 Q265,-12 207,-12 Q138,-12 87.5,27 Q37,66 37,135 M106,141 Q106,103 136,74 Q166,45 219,45 Q288,45 330.5,103 Q373,161 373,233 L373,256 L344,256 Q312,256 288.5,255 Q265,254 227.5,247.5 Q190,241 166,230 Q142,219 124,196 Q106,173 106,141"/> 
            <glyph glyph-name="b" unicode="&#x62;" horiz-adv-x="539" d=" M81,0 L81,703 L149,703 L149,455 L146,413 L148,413 Q171,460 217,487.5 Q263,515 320,515 Q421,515 480,442.5 Q539,370 539,252 Q539,133 476,60.5 Q413,-12 312,-12 Q259,-12 214,16 Q169,44 145,91 L143,91 Q146,74 146,50 L146,0 M147,250 Q147,168 189,108.5 Q231,49 307,49 Q376,49 423,103.5 Q470,158 470,251 Q470,342 425.5,397.5 Q381,453 310,453 Q241,453 194,402 Q147,351 147,250"/> 
            <glyph glyph-name="c" unicode="&#x63;" horiz-adv-x="507" d=" M47,251 Q47,366 123,440.5 Q199,515 311,515 Q363,515 413,496.5 Q463,478 495,443 L460,392 Q433,420 393.5,437 Q354,454 313,454 Q229,454 173,397 Q117,340 117,251 Q117,163 173.5,106.5 Q230,50 315,50 Q359,50 403,68.5 Q447,87 476,119 L507,68 Q474,31 421.5,9.5 Q369,-12 311,-12 Q198,-12 122.5,61.5 Q47,135 47,251"/> 
            <glyph glyph-name="d" unicode="&#x64;" horiz-adv-x="508" d=" M49,134 Q49,370 112,442.5 Q175,515 276,515 Q329,515 373.5,488.5 Q418,462 441,416 L443,416 Q440,433 440,454 L440,703 L508,703 L508,0 L442,0 L442,57 L445,93 L443,93 Q420,47 375,17.5 Q330,-12 268,-12 Q168,-12 49,134 M119,252 Q119,160 163.5,104.5 Q208,49 279,49 Q348,49 394.5,100 Q441,151 441,253 Q441,335 399.5,394 Q358,453 282,453 Q213,453 166,399 Q119,345 119,252"/> 
            <glyph glyph-name="e" unicode="&#x65;" horiz-adv-x="506" d=" M47,251 Q47,371 118.5,443 Q190,515 296,515 Q396,515 451,448.5 Q506,382 506,283 Q506,271 504,249 L118,249 Q120,156 176,103 Q232,50 313,50 Q400,50 466,110 L497,58 Q462,26 411.5,7 Q361,-12 311,-12 Q198,-12 122.5,62 Q47,136 47,251 M121,303 L437,303 Q434,378 394,418.5 Q354,459 294,459 Q229,459 181,418 Q133,377 121,303"/> 
            <glyph glyph-name="f" unicode="&#x66;" horiz-adv-x="305" d=" M100,0 L100,442 L37,442 L37,499 L100,499 L100,522 Q100,580 118.5,620 Q137,660 167,677.5 Q197,695 222.5,701.5 Q248,708 274,708 Q290,708 305,705 L305,645 Q297,647 281,647 Q263,647 246.5,642.5 Q230,638 211,626.5 Q192,615 180.5,587.5 Q169,560 169,521 L169,499 L297,499 L297,442 L169,442 L169,0"/> 
            <glyph glyph-name="g" unicode="&#x67;" horiz-adv-x="501" d=" M120,-114 Q186,-148 257,-148 Q336,-148 384,-109.5 Q432,-71 432,9 L432,59 L436,96 L434,96 Q385,3 274,3 Q173,3 111.5,75 Q50,147 50,261 Q50,375 109,445 Q168,515 268,515 Q322,515 367.5,493 Q413,471 435,427 L437,427 Q435,433 435,444 L435,503 L501,503 L501,12 Q501,-100 431.5,-155 Q362,-210 259,-210 Q172,-210 95,-169 M119,352 Q119,172 164,118 Q209,64 284,64 Q351,64 392.5,110.5 Q434,157 434,261 Q434,454 275,454 Q202,454 119,352"/> 
            <glyph glyph-name="h" unicode="&#x68;" horiz-adv-x="518" d=" M81,0 L81,703 L149,703 L149,427 L146,386 L148,386 Q166,432 219.5,473.5 Q273,515 349,515 Q440,515 479,466 Q518,417 518,320 L518,0 L450,0 L450,302 Q450,373 428,412 Q406,451 340,451 Q260,451 204.5,392 Q149,333 149,243 L149,0"/> 
            <glyph glyph-name="i" unicode="&#x69;" horiz-adv-x="152" d=" M78,618 L78,703 L152,703 L152,618 M81,0 L81,503 L149,503 L149,0"/> 
            <glyph glyph-name="j" unicode="&#x6A;" horiz-adv-x="152" d=" M78,618 L78,703 L152,703 L152,618 M81,-16 L81,503 L149,503 L149,-18 Q149,-77 130.5,-117.5 Q112,-158 82,-175.5 Q52,-193 26.5,-199.5 Q1,-206 -26,-206 Q-40,-206 -55,-203 L-55,-143 Q-47,-145 -33,-145 Q-15,-145 1.5,-140.5 Q18,-136 37.5,-124 Q57,-112 69,-84 Q81,-56 81,-16"/> 
            <glyph glyph-name="k" unicode="&#x6B;" horiz-adv-x="480" d=" M81,0 L81,703 L149,703 L149,311 L230,311 L380,503 L462,503 L287,284 L287,282 L480,0 L398,0 L231,251 L149,251 L149,0"/> 
            <glyph glyph-name="l" unicode="&#x6C;" horiz-adv-x="222" d=" M81,119 L81,703 L149,703 L149,134 Q149,58 206,58 Q216,58 222,59 L222,-2 Q210,-4 197,-4 Q182,-4 169,-2 Q156,0 139,7.5 Q122,15 110,28 Q98,41 89.5,64.5 Q81,88 81,119"/> 
            <glyph glyph-name="m" unicode="&#x6D;" horiz-adv-x="840" d=" M81,0 L81,503 L148,503 L148,424 L144,384 L146,384 Q165,436 219,475.5 Q273,515 331,515 Q464,515 486,389 L488,389 Q510,440 561.5,477.5 Q613,515 673,515 Q762,515 801,466 Q840,417 840,320 L840,0 L772,0 L772,303 Q772,374 749.5,413 Q727,452 664,452 Q591,452 543,388.5 Q495,325 495,243 L495,0 L427,0 L427,303 Q427,373 406,412.5 Q385,452 321,452 Q247,452 198,387.5 Q149,323 149,243 L149,0"/> 
            <glyph glyph-name="n" unicode="&#x6E;" horiz-adv-x="518" d=" M81,0 L81,503 L148,503 L148,424 L144,384 L146,384 Q165,430 217.5,472.5 Q270,515 349,515 Q440,515 479,466 Q518,417 518,320 L518,0 L450,0 L450,302 Q450,373 428,412 Q406,451 340,451 Q259,451 204,392 Q149,333 149,246 L149,0"/> 
            <glyph glyph-name="o" unicode="&#x6F;" horiz-adv-x="578" d=" M47,254 Q47,365 124,440 Q201,515 312,515 Q423,515 500.5,440 Q578,365 578,254 Q578,141 500.5,64.5 Q423,-12 312,-12 Q201,-12 124,64.5 Q47,141 47,254 M117,254 Q117,166 173.5,108 Q230,50 312,50 Q394,50 451,108 Q508,166 508,254 Q508,339 451,396.5 Q394,454 312,454 Q230,454 173.5,396.5 Q117,339 117,254"/> 
            <glyph glyph-name="p" unicode="&#x70;" horiz-adv-x="539" d=" M81,-200 L81,503 L146,503 L146,450 L143,411 L145,411 Q168,460 214.5,487.5 Q261,515 320,515 Q421,515 480,442.5 Q539,370 539,252 Q539,133 476,60.5 Q413,-12 314,-12 Q261,-12 217,14.5 Q173,41 148,88 L146,88 Q149,70 149,44 L149,-200 M147,250 Q147,169 190.5,109 Q234,49 307,49 Q376,49 423,103.5 Q470,158 470,251 Q470,342 425.5,397.5 Q381,453 310,453 Q241,453 194,402 Q147,351 147,250"/> 
            <glyph glyph-name="q" unicode="&#x71;" horiz-adv-x="508" d=" M49,134 Q49,370 112,442.5 Q175,515 276,515 Q329,515 374,488 Q419,461 443,414 L445,414 Q442,430 442,452 L442,503 L508,503 L508,-200 L440,-200 L440,46 L443,90 L441,90 Q419,47 375.5,17.5 Q332,-12 268,-12 Q168,-12 49,134 M119,252 Q119,160 163.5,104.5 Q208,49 279,49 Q348,49 394.5,100 Q441,151 441,253 Q441,335 399.5,394 Q358,453 282,453 Q213,453 166,399 Q119,345 119,252"/> 
            <glyph glyph-name="r" unicode="&#x72;" horiz-adv-x="334" d=" M81,0 L81,503 L148,503 L148,410 L144,370 L146,370 Q166,430 208.5,469 Q251,508 307,508 Q322,508 334,505 L334,438 Q328,440 309,440 Q256,440 218,403 Q180,366 164.5,316.5 Q149,267 149,213 L149,0"/> 
            <glyph glyph-name="s" unicode="&#x73;" horiz-adv-x="394" d=" M37,61 L73,109 Q132,48 225,48 Q269,48 297.5,69.5 Q326,91 326,129 Q326,160 298.5,181.5 Q271,203 231.5,217.5 Q192,232 152.5,249 Q113,266 85.5,297.5 Q58,329 58,375 Q58,441 107,478 Q156,515 229,515 Q326,515 384,460 L352,409 Q331,430 296,442.5 Q261,455 226,455 Q183,455 154,435.5 Q125,416 125,377 Q125,346 152.5,324 Q180,302 220,287.5 Q260,273 299.5,256 Q339,239 366.5,207.5 Q394,176 394,130 Q394,68 346,28 Q298,-12 224,-12 Q107,-12 37,61"/> 
            <glyph glyph-name="t" unicode="&#x74;" horiz-adv-x="304" d=" M99,183 L99,442 L33,442 L33,499 L100,499 L100,642 L167,642 L167,499 L294,499 L294,442 L167,442 L167,190 Q167,149 179,120.5 Q191,92 210,79.5 Q229,67 246,62 Q263,57 281,57 Q295,57 304,59 L304,-2 Q292,-4 275,-4 Q254,-4 234,-1 Q214,2 188.5,13.5 Q163,25 144,44 Q125,63 112,99 Q99,135 99,183"/> 
            <glyph glyph-name="u" unicode="&#x75;" horiz-adv-x="507" d=" M75,183 L75,503 L144,503 L144,201 Q144,130 165.5,91 Q187,52 253,52 Q336,52 387.5,114 Q439,176 439,262 L439,503 L507,503 L507,0 L440,0 L440,79 L444,119 L442,119 Q424,72 371.5,30 Q319,-12 244,-12 Q156,-12 115.5,36 Q75,84 75,183"/> 
            <glyph glyph-name="v" unicode="&#x76;" horiz-adv-x="485" d=" M219,0 L25,503 L98,503 L237,134 L254,73 L256,73 Q265,109 274,134 L413,503 L485,503 L293,0"/> 
            <glyph glyph-name="w" unicode="&#x77;" horiz-adv-x="796" d=" M199,0 L29,503 L102,503 L223,129 L238,75 L240,75 Q248,104 256,129 L379,501 L447,501 L570,129 L586,75 L588,75 Q594,103 603,129 L724,503 L796,503 L627,0 L552,0 L429,358 L414,413 L412,413 Q404,383 396,358 L274,0"/> 
            <glyph glyph-name="x" unicode="&#x78;" horiz-adv-x="460" d=" M20,0 L196,262 L34,503 L114,503 L222,334 L239,305 L241,305 Q250,321 258,334 L366,503 L445,503 L283,262 L460,0 L380,0 L258,189 L241,217 L239,217 Q231,203 222,189 L99,0"/> 
            <glyph glyph-name="y" unicode="&#x79;" horiz-adv-x="500" d=" M45,-126 Q73,-149 105,-149 Q165,-149 201,-67 L231,5 L22,503 L97,503 L244,136 L263,83 L265,83 Q272,111 282,136 L427,503 L500,503 L252,-105 Q232,-154 194.5,-182 Q157,-210 108,-210 Q85,-210 62.5,-202.5 Q40,-195 30,-188 L19,-180"/> 
            <glyph glyph-name="z" unicode="&#x7A;" horiz-adv-x="460" d=" M37,0 L37,44 L318,397 L358,443 L358,445 Q341,443 308,443 L49,443 L49,503 L450,503 L450,458 L169,106 L128,60 L128,58 Q145,60 178,60 L460,60 L460,0"/> 
            <glyph glyph-name="{" unicode="&#x7B;" horiz-adv-x="293" d=" M129,83 L129,178 Q129,223 107.5,253.5 Q86,284 44,292 L44,354 Q84,362 106.5,392 Q129,422 129,469 L129,551 Q129,598 141,633 Q153,668 169.5,686 Q186,704 208.5,714.5 Q231,725 246.5,727.5 Q262,730 278,730 L293,730 L293,674 L284,674 Q271,674 258.5,670.5 Q246,667 229,655.5 Q212,644 202,617 Q192,590 192,549 L192,451 Q192,408 171,374 Q150,340 112,324 L112,322 Q192,291 192,195 L192,85 Q192,44 202,17 Q212,-10 229,-21.5 Q246,-33 258.5,-36.5 Q271,-40 284,-40 L293,-40 L293,-96 Q287,-97 278,-97 Q262,-97 246.5,-94.5 Q231,-92 208.5,-81 Q186,-70 169.5,-52 Q153,-34 141,1 Q129,36 129,83"/> 
            <glyph glyph-name="|" unicode="&#x7C;" horiz-adv-x="153" d=" M90,-157 L90,788 L153,788 L153,-157"/> 
            <glyph glyph-name="}" unicode="&#x7D;" horiz-adv-x="296" d=" M47,-40 L56,-40 Q69,-40 81.5,-36.5 Q94,-33 110.5,-21.5 Q127,-10 137.5,17 Q148,44 148,85 L148,195 Q148,241 169,274.5 Q190,308 228,322 L228,324 Q193,337 170.5,371.5 Q148,406 148,451 L148,549 Q148,590 137.5,617 Q127,644 110.5,655.5 Q94,667 81.5,670.5 Q69,674 56,674 L47,674 L47,730 L62,730 Q78,730 93.5,727.5 Q109,725 131.5,714.5 Q154,704 170.5,686 Q187,668 199,633 Q211,598 211,551 L211,469 Q211,424 233,392.5 Q255,361 296,354 L296,292 Q255,285 233,253.5 Q211,222 211,178 L211,83 Q211,36 199,1 Q187,-34 170.5,-52 Q154,-70 131.5,-81 Q109,-92 93.5,-94.5 Q78,-97 62,-97 L47,-96"/> 
            <glyph glyph-name="~" unicode="&#x7E;" horiz-adv-x="529" d=" M74,209 Q74,288 107.5,326 Q141,364 200,364 Q237,364 265.5,348 Q294,332 309.5,312 Q325,292 348.5,276 Q372,260 400,260 Q440,260 455.5,291 Q471,322 471,360 L529,360 Q529,281 495.5,243 Q462,205 403,205 Q366,205 337.5,221.5 Q309,238 294,257 Q279,276 255,292.5 Q231,309 203,309 Q164,309 148.5,278 Q133,247 133,209"/> 
            <glyph glyph-name="¡" unicode="&#xA1;" horiz-adv-x="157" d=" M151,318 L154,-201 L84,-201 L87,318 M157,502 L157,423 L79,423 L79,502"/> 
            <glyph glyph-name="¢" unicode="&#xA2;" horiz-adv-x="509" d=" M267,-13 L267,72 Q167,83 112,160.5 Q57,238 57,352 Q57,465 112,542.5 Q167,620 267,631 L267,715 L323,715 L323,631 Q450,616 509,483 L446,459 Q397,566 297,566 Q214,566 170.5,506.5 Q127,447 127,352 Q127,256 170,196.5 Q213,137 297,137 Q397,137 446,244 L509,220 Q447,83 323,72 L323,-13"/> 
            <glyph glyph-name="£" unicode="&#xA3;" horiz-adv-x="521" d=" M49,0 L49,62 L112,62 L112,326 L68,326 L68,381 L112,381 L112,530 Q112,609 170.5,662 Q229,715 318,715 Q407,715 475,658 L432,608 Q383,650 319,650 Q255,650 218.5,614.5 Q182,579 182,526 L182,381 L373,381 L373,326 L182,326 L182,62 L521,62 L521,0"/> 
            <glyph glyph-name="¤" unicode="&#xA4;" horiz-adv-x="559" d=" M129,0 L129,180 L57,180 L57,235 L129,235 L129,310 L57,310 L57,369 L129,369 L129,703 L343,703 Q441,703 500,649.5 Q559,596 559,505 Q559,415 498,362.5 Q437,310 341,310 L198,310 L198,235 L451,235 L451,180 L198,180 L198,0 M198,369 L334,369 Q405,369 446,406.5 Q487,444 487,508 Q487,572 446,608 Q405,644 334,644 L198,644"/> 
            <glyph glyph-name="¥" unicode="&#xA5;" horiz-adv-x="551" d=" M86,211 L86,262 L249,262 L249,302 L221,350 L86,350 L86,401 L193,401 L17,703 L96,703 L240,453 L283,364 L285,364 Q306,413 328,453 L472,703 L551,703 L375,401 L480,401 L480,350 L347,350 L319,302 L319,262 L480,262 L480,211 L319,211 L319,0 L249,0 L249,211"/> 
            <glyph glyph-name="§" unicode="&#xA7;" horiz-adv-x="358" d=" M142,85 L73,519 Q70,537 70,554 Q70,624 117.5,669.5 Q165,715 242,715 Q310,715 358,673 L323,626 Q285,655 242,655 Q195,655 163.5,626.5 Q132,598 132,548 Q132,531 136,518 L202,85 M57,-20 L92,28 Q128,-2 174,-2 Q221,-2 252,27.5 Q283,57 283,107 Q283,124 279,139 L214,568 L274,568 L342,134 Q345,115 345,99 Q345,29 297.5,-16.5 Q250,-62 173,-62 Q107,-62 57,-20"/> 
            <glyph glyph-name="¨" unicode="&#xA8;" horiz-adv-x="359" d=" M297,785 L297,871 L359,871 L359,785 M146,785 L146,871 L207,871 L207,785"/> 
            <glyph glyph-name="©" unicode="&#xA9;" horiz-adv-x="770" d=" M60,352 Q60,503 163.5,609 Q267,715 413,715 Q562,715 666,609.5 Q770,504 770,352 Q770,200 666,94 Q562,-12 413,-12 Q266,-12 163,94 Q60,200 60,352 M118,352 Q118,221 203,131.5 Q288,42 413,42 Q540,42 626,131.5 Q712,221 712,352 Q712,482 625.5,571.5 Q539,661 413,661 Q289,661 203.5,571.5 Q118,482 118,352 M217,266 Q217,434 272.5,495 Q328,556 423,556 Q473,556 516.5,530.5 Q560,505 586,463 L540,432 Q522,461 490.5,481 Q459,501 425,501 Q356,501 316,457 Q276,413 276,351 Q276,289 315.5,245 Q355,201 425,201 Q459,201 490,220 Q521,239 540,270 L586,239 Q562,200 517.5,173 Q473,146 423,146 Q328,146 217,266"/> 
            <glyph glyph-name="ª" unicode="&#xAA;" horiz-adv-x="342" d=" M190,382 Q146,382 113,407 Q80,432 80,477 Q80,588 272,588 L284,588 L284,592 Q284,666 214,666 Q171,666 129,638 L104,676 Q150,713 219,713 Q278,713 308.5,681.5 Q339,650 339,590 L339,388 L286,388 L286,437 L284,437 Q272,414 246.5,398 Q221,382 190,382 M198,429 Q236,429 260,462 Q284,495 284,535 L284,544 L271,544 Q137,544 137,481 Q137,459 153,444 Q169,429 198,429 M79,264 L79,310 L342,310 L342,264"/> 
            <glyph glyph-name="«" unicode="&#xAB;" horiz-adv-x="468" d=" M230,282 L394,488 L468,488 L304,282 L468,77 L394,77 M214,77 L50,282 L214,488 L288,488 L124,282 L288,77"/> 
            <glyph glyph-name="¬" unicode="&#xAC;" horiz-adv-x="548" d=" M81,342 L81,400 L548,400 L548,158 L487,158 L487,342"/> 
            <glyph glyph-name="­" unicode="&#xAD;" horiz-adv-x="358" d=" M74,253 L74,315 L358,315 L358,253"/> 
            <glyph glyph-name="®" unicode="&#xAE;" horiz-adv-x="770" d=" M60,352 Q60,503 163.5,609 Q267,715 413,715 Q562,715 666,609.5 Q770,504 770,352 Q770,200 666,94 Q562,-12 413,-12 Q266,-12 163,94 Q60,200 60,352 M118,352 Q118,221 203,131.5 Q288,42 413,42 Q540,42 626,131.5 Q712,221 712,352 Q712,482 625.5,571.5 Q539,661 413,661 Q289,661 203.5,571.5 Q118,482 118,352 M294,157 L294,547 L433,547 Q486,547 518.5,515 Q551,483 551,431 Q551,390 529,362.5 Q507,335 477,328 L477,326 Q481,321 490,304 L566,157 L503,157 L426,315 L351,315 L351,157 M351,359 L424,359 Q456,359 474.5,378.5 Q493,398 493,431 Q493,464 474.5,482 Q456,500 424,500 L351,500"/> 
            <glyph glyph-name="¯" unicode="&#xAF;" horiz-adv-x="375" d=" M129,785 L129,840 L375,840 L375,785"/> 
            <glyph glyph-name="°" unicode="&#xB0;" horiz-adv-x="340" d=" M257,436 Q141,436 100,476.5 Q59,517 59,575 Q59,632 100,673 Q141,714 199,714 Q257,714 298.5,673 Q340,632 340,575 Q340,517 257,436 M165,492 Q233,492 256.5,516 Q280,540 280,575 Q280,609 256.5,633.5 Q233,658 199,658 Q165,658 141.5,633.5 Q118,609 118,575 Q118,540 165,492"/> 
            <glyph glyph-name="±" unicode="&#xB1;" horiz-adv-x="545" d=" M23,255 L23,313 L254,313 L254,568 L315,568 L315,313 L545,313 L545,255 L315,255 L315,0 L254,0 L254,255 M41,-104 L527,-104 L527,-162 L41,-162"/> 
            <glyph glyph-name="²" unicode="&#xB2;" horiz-adv-x="329" d=" M51,423 Q48,440 48,454 Q48,500 70.5,536 Q93,572 124.5,595 Q156,618 188,638 Q220,658 242.5,683.5 Q265,709 265,740 Q265,772 241.5,794.5 Q218,817 183,817 Q134,817 93,768 L58,803 Q77,831 111.5,850 Q146,869 184,869 Q246,869 283.5,833 Q321,797 321,742 Q321,701 299.5,669 Q278,637 247,615.5 Q216,594 185,575 Q154,556 131,530 Q108,504 107,473 L329,473 L329,423"/> 
            <glyph glyph-name="³" unicode="&#xB3;" horiz-adv-x="330" d=" M181,413 Q140,413 101,430 Q62,447 38,479 L73,517 Q88,496 117,480.5 Q146,465 180,465 Q216,465 244.5,490.5 Q273,516 273,554 Q273,592 243.5,615 Q214,638 175,638 L142,638 L128,668 L227,784 L252,809 L252,811 Q234,808 215,808 L62,808 L62,859 L324,859 L324,822 L205,683 Q255,678 292.5,646 Q330,614 330,554 Q330,496 287,454.5 Q244,413 181,413"/> 
            <glyph glyph-name="´" unicode="&#xB4;" horiz-adv-x="326" d=" M178,752 L247,871 L326,871 L239,752"/> 
            <glyph glyph-name="µ" unicode="&#xB5;" horiz-adv-x="520" d=" M145,30 Q152,-21 152,-46 L152,-200 L89,-200 L89,503 L157,503 L157,201 Q157,167 161,143.5 Q165,120 175.5,97.5 Q186,75 208.5,63.5 Q231,52 266,52 Q350,52 401,114 Q452,176 452,262 L452,503 L520,503 L520,0 L454,0 L454,77 L456,115 L454,115 Q452,110 448,101.5 Q444,93 427.5,71 Q411,49 390.5,32 Q370,15 334,1.5 Q298,-12 256,-12 Q180,-12 147,30"/> 
            <glyph glyph-name="¶" unicode="&#xB6;" horiz-adv-x="517" d=" M279,-50 L279,241 Q181,241 110.5,308.5 Q40,376 40,473 Q40,569 110,636 Q180,703 278,703 L517,703 L517,641 L336,641 L336,-50 M398,-50 L398,581 L456,581 L456,-50"/> 
            <glyph glyph-name="·" unicode="&#xB7;" horiz-adv-x="154" d=" M74,247 L74,330 L154,330 L154,247"/> 
            <glyph glyph-name="¸" unicode="&#xB8;" horiz-adv-x="325" d=" M200,-91 L226,20 L266,13 L266,5 L255,-55 Q287,-60 306,-78.5 Q325,-97 325,-126 Q325,-167 297.5,-186 Q270,-205 229,-205 Q199,-205 179,-200 L179,-152 Q194,-158 221,-158 Q272,-158 272,-124 Q272,-90 215,-90"/> 
            <glyph glyph-name="¹" unicode="&#xB9;" horiz-adv-x="320" d=" M78,423 L78,473 L173,473 L173,762 L174,786 L173,786 Q169,778 152,762 L112,723 L77,760 L176,859 L228,859 L228,473 L320,473 L320,423"/> 
            <glyph glyph-name="º" unicode="&#xBA;" horiz-adv-x="409" d=" M312,383 Q172,383 123.5,431 Q75,479 75,550 Q75,619 124,666.5 Q173,714 242,714 Q311,714 360,666.5 Q409,619 409,550 Q409,479 312,383 M195,434 Q289,434 321.5,467 Q354,500 354,550 Q354,599 321.5,631.5 Q289,664 242,664 Q195,664 162.5,631.5 Q130,599 130,550 Q130,500 195,434 M92,264 L92,310 L395,310 L395,264"/> 
            <glyph glyph-name="»" unicode="&#xBB;" horiz-adv-x="475" d=" M237,77 L401,282 L237,488 L311,488 L475,282 L311,77 M58,77 L222,282 L58,488 L132,488 L296,282 L132,77"/> 
            <glyph glyph-name="¼" unicode="&#xBC;" horiz-adv-x="888" d=" M768,0 L768,114 L557,114 L557,152 L769,436 L823,436 L823,164 L888,164 L888,114 L823,114 L823,0 M625,164 L768,164 L768,300 L772,362 L770,362 Q754,335 737,313 L625,166 M314,0 L255,0 L591,703 L649,703 M62,268 L62,318 L157,318 L157,607 L158,631 L157,631 Q153,623 136,607 L96,568 L61,605 L160,704 L212,704 L212,318 L304,318 L304,268"/> 
            <glyph glyph-name="½" unicode="&#xBD;" horiz-adv-x="866" d=" M588,0 Q585,16 585,31 Q585,77 607.5,113 Q630,149 662,172 Q694,195 725.5,215 Q757,235 779.5,260.5 Q802,286 802,317 Q802,349 778.5,371.5 Q755,394 720,394 Q671,394 630,345 L595,380 Q614,408 648.5,427 Q683,446 721,446 Q783,446 820.5,410 Q858,374 858,319 Q858,278 836.5,246 Q815,214 784,192.5 Q753,171 722,152 Q691,133 668,107 Q645,81 644,50 L866,50 L866,0 M314,0 L255,0 L591,703 L649,703 M62,268 L62,318 L157,318 L157,607 L158,631 L157,631 Q153,623 136,607 L96,568 L61,605 L160,704 L212,704 L212,318 L304,318 L304,268"/> 
            <glyph glyph-name="¾" unicode="&#xBE;" horiz-adv-x="908" d=" M788,0 L788,114 L577,114 L577,152 L789,436 L843,436 L843,164 L908,164 L908,114 L843,114 L843,0 M645,164 L788,164 L788,300 L792,362 L790,362 Q774,335 757,313 L645,166 M190,258 Q149,258 110,275 Q71,292 47,324 L82,362 Q97,341 125.5,325.5 Q154,310 189,310 Q225,310 253.5,335.5 Q282,361 282,399 Q282,437 252.5,460 Q223,483 184,483 L151,483 L137,513 L236,629 L261,654 L261,656 Q243,653 224,653 L71,653 L71,704 L333,704 L333,667 L214,528 Q264,523 301.5,491 Q339,459 339,399 Q339,341 296,299.5 Q253,258 190,258 M333,0 L274,0 L610,703 L668,703"/> 
            <glyph glyph-name="¿" unicode="&#xBF;" horiz-adv-x="402" d=" M287,318 L287,273 Q287,229 269,193.5 Q251,158 225.5,134 Q200,110 174.5,86.5 Q149,63 131,32.5 Q113,2 113,-34 Q113,-83 150,-116 Q187,-149 244,-149 Q309,-149 364,-107 L402,-157 Q374,-182 330,-198 Q286,-214 241,-214 Q155,-214 98,-164 Q41,-114 41,-37 Q41,9 59.5,46 Q78,83 104,107.5 Q130,132 156.5,155 Q183,178 201.5,208.5 Q220,239 220,275 L220,318 M293,502 L293,423 L214,423 L214,502"/> 
            <glyph glyph-name="À" unicode="&#xC0;" horiz-adv-x="611" d=" M21,0 L279,703 L353,703 L611,0 L538,0 L457,224 L174,224 L94,0 M195,284 L436,284 L344,539 L317,631 L315,631 Q300,572 288,539 M285,752 L199,871 L278,871 L347,752"/> 
            <glyph glyph-name="Á" unicode="&#xC1;" horiz-adv-x="611" d=" M21,0 L279,703 L353,703 L611,0 L538,0 L457,224 L174,224 L94,0 M195,284 L436,284 L344,539 L317,631 L315,631 Q300,572 288,539 M283,752 L352,871 L431,871 L344,752"/> 
            <glyph glyph-name="Â" unicode="&#xC2;" horiz-adv-x="611" d=" M21,0 L279,703 L353,703 L611,0 L538,0 L457,224 L174,224 L94,0 M195,284 L436,284 L344,539 L317,631 L315,631 Q300,572 288,539 M195,752 L278,871 L353,871 L437,752 L371,752 L317,832 L315,832 L261,752"/> 
            <glyph glyph-name="Ã" unicode="&#xC3;" horiz-adv-x="611" d=" M21,0 L279,703 L353,703 L611,0 L538,0 L457,224 L174,224 L94,0 M195,284 L436,284 L344,539 L317,631 L315,631 Q300,572 288,539 M160,755 Q160,871 252,871 Q281,871 302.5,853.5 Q324,836 342,818 Q360,800 378,800 Q400,800 409,821.5 Q418,843 418,868 L472,868 Q472,752 380,752 Q351,752 329.5,770 Q308,788 290,805.5 Q272,823 254,823 Q215,823 215,755"/> 
            <glyph glyph-name="Ä" unicode="&#xC4;" horiz-adv-x="611" d=" M21,0 L279,703 L353,703 L611,0 L538,0 L457,224 L174,224 L94,0 M195,284 L436,284 L344,539 L317,631 L315,631 Q300,572 288,539 M361,785 L361,871 L423,871 L423,785 M210,785 L210,871 L271,871 L271,785"/> 
            <glyph glyph-name="Å" unicode="&#xC5;" horiz-adv-x="611" d=" M21,0 L279,703 L353,703 L611,0 L538,0 L457,224 L174,224 L94,0 M195,284 L436,284 L344,539 L317,631 L315,631 Q300,572 288,539 M316,742 Q284,742 262,761.5 Q240,781 240,812 Q240,843 262,863 Q284,883 316,883 Q347,883 369,863 Q391,843 391,812 Q391,781 369,761.5 Q347,742 316,742 M316,779 Q330,779 339,788.5 Q348,798 348,812 Q348,827 339,836.5 Q330,846 316,846 Q301,846 292,836.5 Q283,827 283,812 Q283,798 292,788.5 Q301,779 316,779"/> 
            <glyph glyph-name="Æ" unicode="&#xC6;" horiz-adv-x="805" d=" M17,0 L306,703 L787,703 L787,641 L460,641 L460,385 L727,385 L727,323 L460,323 L460,62 L805,62 L805,0 L391,0 L391,324 L220,324 L90,0 M245,384 L391,384 L391,641 L350,641"/> 
            <glyph glyph-name="Ç" unicode="&#xC7;" horiz-adv-x="680" d=" M359,-91 L378,-11 Q233,1 144,104.5 Q55,208 55,356 Q55,510 154.5,612.5 Q254,715 408,715 Q567,715 662,624 L625,573 Q584,609 526,629.5 Q468,650 410,650 Q284,650 205.5,566.5 Q127,483 127,357 Q127,229 206,141 Q285,53 413,53 Q545,53 640,146 L680,97 Q573,-8 422,-12 L414,-55 Q446,-60 465,-78.5 Q484,-97 484,-126 Q484,-167 456.5,-186 Q429,-205 388,-205 Q358,-205 338,-200 L338,-152 Q353,-158 380,-158 Q431,-158 431,-124 Q431,-90 374,-90"/> 
            <glyph glyph-name="È" unicode="&#xC8;" horiz-adv-x="515" d=" M101,0 L101,703 L496,703 L496,641 L170,641 L170,385 L437,385 L437,323 L170,323 L170,62 L515,62 L515,0 M279,752 L193,871 L272,871 L341,752"/> 
            <glyph glyph-name="É" unicode="&#xC9;" horiz-adv-x="515" d=" M277,752 L346,871 L425,871 L338,752 M101,0 L101,703 L496,703 L496,641 L170,641 L170,385 L437,385 L437,323 L170,323 L170,62 L515,62 L515,0"/> 
            <glyph glyph-name="Ê" unicode="&#xCA;" horiz-adv-x="515" d=" M189,752 L272,871 L347,871 L431,752 L365,752 L311,832 L309,832 L255,752 M101,0 L101,703 L496,703 L496,641 L170,641 L170,385 L437,385 L437,323 L170,323 L170,62 L515,62 L515,0"/> 
            <glyph glyph-name="Ë" unicode="&#xCB;" horiz-adv-x="515" d=" M355,785 L355,871 L417,871 L417,785 M204,785 L204,871 L265,871 L265,785 M101,0 L101,703 L496,703 L496,641 L170,641 L170,385 L437,385 L437,323 L170,323 L170,62 L515,62 L515,0"/> 
            <glyph glyph-name="Ì" unicode="&#xCC;" horiz-adv-x="170" d=" M101,0 L101,703 L170,703 L170,0 M106,752 L20,871 L99,871 L168,752"/> 
            <glyph glyph-name="Í" unicode="&#xCD;" horiz-adv-x="252" d=" M101,0 L101,703 L170,703 L170,0 M104,752 L173,871 L252,871 L165,752"/> 
            <glyph glyph-name="Î" unicode="&#xCE;" horiz-adv-x="258" d=" M101,0 L101,703 L170,703 L170,0 M16,752 L99,871 L174,871 L258,752 L192,752 L138,832 L136,832 L82,752"/> 
            <glyph glyph-name="Ï" unicode="&#xCF;" horiz-adv-x="244" d=" M101,0 L101,703 L170,703 L170,0 M182,785 L182,871 L244,871 L244,785 M31,785 L31,871 L92,871 L92,785"/> 
            <glyph glyph-name="Ð" unicode="&#xD0;" horiz-adv-x="686" d=" M107,0 L107,323 L47,323 L47,383 L107,383 L107,703 L333,703 Q494,703 590,609.5 Q686,516 686,352 Q686,187 590,93.5 Q494,0 333,0 M176,62 L326,62 Q458,62 536,137.5 Q614,213 614,352 Q614,490 536,565.5 Q458,641 326,641 L176,641 L176,383 L343,383 L343,323 L176,323"/> 
            <glyph glyph-name="Ñ" unicode="&#xD1;" horiz-adv-x="650" d=" M101,0 L101,703 L168,703 L527,197 L585,102 L587,102 Q581,160 581,197 L581,703 L650,703 L650,0 L583,0 L224,506 L166,601 L164,601 Q170,543 170,506 L170,0 M219,755 Q219,871 311,871 Q340,871 361.5,853.5 Q383,836 401,818 Q419,800 437,800 Q459,800 468,821.5 Q477,843 477,868 L531,868 Q531,752 439,752 Q410,752 388.5,770 Q367,788 349,805.5 Q331,823 313,823 Q274,823 274,755"/> 
            <glyph glyph-name="Ò" unicode="&#xD2;" horiz-adv-x="770" d=" M54,357 Q54,508 156.5,611.5 Q259,715 412,715 Q566,715 668,612 Q770,509 770,357 Q770,201 668,94.5 Q566,-12 412,-12 Q259,-12 156.5,94.5 Q54,201 54,357 M126,357 Q126,228 207.5,140.5 Q289,53 412,53 Q535,53 616.5,140 Q698,227 698,357 Q698,482 616.5,566 Q535,650 412,650 Q289,650 207.5,566 Q126,482 126,357 M381,752 L295,871 L374,871 L443,752"/> 
            <glyph glyph-name="Ó" unicode="&#xD3;" horiz-adv-x="770" d=" M379,752 L448,871 L527,871 L440,752 M54,357 Q54,508 156.5,611.5 Q259,715 412,715 Q566,715 668,612 Q770,509 770,357 Q770,201 668,94.5 Q566,-12 412,-12 Q259,-12 156.5,94.5 Q54,201 54,357 M126,357 Q126,228 207.5,140.5 Q289,53 412,53 Q535,53 616.5,140 Q698,227 698,357 Q698,482 616.5,566 Q535,650 412,650 Q289,650 207.5,566 Q126,482 126,357"/> 
            <glyph glyph-name="Ô" unicode="&#xD4;" horiz-adv-x="770" d=" M291,752 L374,871 L449,871 L533,752 L467,752 L413,832 L411,832 L357,752 M54,357 Q54,508 156.5,611.5 Q259,715 412,715 Q566,715 668,612 Q770,509 770,357 Q770,201 668,94.5 Q566,-12 412,-12 Q259,-12 156.5,94.5 Q54,201 54,357 M126,357 Q126,228 207.5,140.5 Q289,53 412,53 Q535,53 616.5,140 Q698,227 698,357 Q698,482 616.5,566 Q535,650 412,650 Q289,650 207.5,566 Q126,482 126,357"/> 
            <glyph glyph-name="Õ" unicode="&#xD5;" horiz-adv-x="770" d=" M54,357 Q54,508 156.5,611.5 Q259,715 412,715 Q566,715 668,612 Q770,509 770,357 Q770,201 668,94.5 Q566,-12 412,-12 Q259,-12 156.5,94.5 Q54,201 54,357 M126,357 Q126,228 207.5,140.5 Q289,53 412,53 Q535,53 616.5,140 Q698,227 698,357 Q698,482 616.5,566 Q535,650 412,650 Q289,650 207.5,566 Q126,482 126,357 M256,755 Q256,871 348,871 Q377,871 398.5,853.5 Q420,836 438,818 Q456,800 474,800 Q496,800 505,821.5 Q514,843 514,868 L568,868 Q568,752 476,752 Q447,752 425.5,770 Q404,788 386,805.5 Q368,823 350,823 Q311,823 311,755"/> 
            <glyph glyph-name="Ö" unicode="&#xD6;" horiz-adv-x="770" d=" M457,785 L457,871 L519,871 L519,785 M306,785 L306,871 L367,871 L367,785 M54,357 Q54,508 156.5,611.5 Q259,715 412,715 Q566,715 668,612 Q770,509 770,357 Q770,201 668,94.5 Q566,-12 412,-12 Q259,-12 156.5,94.5 Q54,201 54,357 M126,357 Q126,228 207.5,140.5 Q289,53 412,53 Q535,53 616.5,140 Q698,227 698,357 Q698,482 616.5,566 Q535,650 412,650 Q289,650 207.5,566 Q126,482 126,357"/> 
            <glyph glyph-name="×" unicode="&#xD7;" horiz-adv-x="540" d=" M28,41 L244,284 L28,527 L70,568 L284,328 L497,568 L540,527 L323,284 L540,41 L497,0 L284,240 L70,0"/> 
            <glyph glyph-name="Ø" unicode="&#xD8;" horiz-adv-x="770" d=" M131,5 L180,74 Q121,125 87.5,198.5 Q54,272 54,356 Q54,508 158,611.5 Q262,715 412,715 Q514,715 601,661 L649,728 L690,698 L643,632 Q770,526 770,356 Q770,202 666,95 Q562,-12 412,-12 Q308,-12 221,44 L172,-24 M221,131 L562,607 Q496,650 412,650 Q293,650 209.5,565.5 Q126,481 126,356 Q126,289 152,230 Q178,171 221,131 M259,98 Q327,53 412,53 Q532,53 615,140 Q698,227 698,355 Q698,491 602,577"/> 
            <glyph glyph-name="Ù" unicode="&#xD9;" horiz-adv-x="631" d=" M93,245 L93,703 L162,703 L162,246 Q162,156 216,104.5 Q270,53 361,53 Q453,53 507,105 Q561,157 561,248 L561,703 L631,703 L631,245 Q631,129 556.5,58.5 Q482,-12 362,-12 Q242,-12 167.5,58.5 Q93,129 93,245 M330,752 L244,871 L323,871 L392,752"/> 
            <glyph glyph-name="Ú" unicode="&#xDA;" horiz-adv-x="631" d=" M328,752 L397,871 L476,871 L389,752 M93,245 L93,703 L162,703 L162,246 Q162,156 216,104.5 Q270,53 361,53 Q453,53 507,105 Q561,157 561,248 L561,703 L631,703 L631,245 Q631,129 556.5,58.5 Q482,-12 362,-12 Q242,-12 167.5,58.5 Q93,129 93,245"/> 
            <glyph glyph-name="Û" unicode="&#xDB;" horiz-adv-x="631" d=" M240,752 L323,871 L398,871 L482,752 L416,752 L362,832 L360,832 L306,752 M93,245 L93,703 L162,703 L162,246 Q162,156 216,104.5 Q270,53 361,53 Q453,53 507,105 Q561,157 561,248 L561,703 L631,703 L631,245 Q631,129 556.5,58.5 Q482,-12 362,-12 Q242,-12 167.5,58.5 Q93,129 93,245"/> 
            <glyph glyph-name="Ü" unicode="&#xDC;" horiz-adv-x="631" d=" M406,785 L406,871 L468,871 L468,785 M255,785 L255,871 L316,871 L316,785 M93,245 L93,703 L162,703 L162,246 Q162,156 216,104.5 Q270,53 361,53 Q453,53 507,105 Q561,157 561,248 L561,703 L631,703 L631,245 Q631,129 556.5,58.5 Q482,-12 362,-12 Q242,-12 167.5,58.5 Q93,129 93,245"/> 
            <glyph glyph-name="Ý" unicode="&#xDD;" horiz-adv-x="561" d=" M255,0 L255,302 L17,703 L96,703 L245,448 L288,364 L290,364 Q312,411 333,448 L482,703 L561,703 L324,302 L324,0 M256,752 L325,871 L404,871 L317,752"/> 
            <glyph glyph-name="Þ" unicode="&#xDE;" horiz-adv-x="561" d=" M101,0 L101,703 L170,703 L170,578 L344,578 Q439,578 500,520 Q561,462 561,365 Q561,269 499.5,210 Q438,151 342,151 L170,151 L170,0 M170,213 L335,213 Q406,213 448,253.5 Q490,294 490,365 Q490,436 448.5,476 Q407,516 336,516 L170,516"/> 
            <glyph glyph-name="ß" unicode="&#xDF;" horiz-adv-x="542" d=" M81,0 L81,531 Q81,616 141.5,665.5 Q202,715 283,715 Q361,715 409,671.5 Q457,628 457,566 Q457,531 439.5,500.5 Q422,470 401.5,452 Q381,434 363.5,412 Q346,390 346,369 Q346,351 366,331.5 Q386,312 415,293.5 Q444,275 473,254 Q502,233 522,202 Q542,171 542,136 Q542,68 495,30.5 Q448,-7 380,-7 Q291,-7 232,25 L232,90 Q291,55 375,55 Q416,55 444,76 Q472,97 472,138 Q472,169 441.5,198.5 Q411,228 374,248 Q337,268 306.5,300 Q276,332 276,367 Q276,396 293.5,423 Q311,450 332,468 Q353,486 370.5,512 Q388,538 388,565 Q388,600 359.5,627 Q331,654 280,654 Q227,654 188,620 Q149,586 149,526 L149,0"/> 
            <glyph glyph-name="à" unicode="&#xE0;" horiz-adv-x="441" d=" M37,135 Q37,310 343,310 L373,310 L373,324 Q373,454 249,454 Q172,454 106,406 L75,458 Q105,484 154,499.5 Q203,515 253,515 Q344,515 392.5,465.5 Q441,416 441,322 L441,0 L376,0 L376,59 L379,101 L377,101 Q356,53 310.5,20.5 Q265,-12 207,-12 Q138,-12 87.5,27 Q37,66 37,135 M106,141 Q106,103 136,74 Q166,45 219,45 Q288,45 330.5,103 Q373,161 373,233 L373,256 L344,256 Q312,256 288.5,255 Q265,254 227.5,247.5 Q190,241 166,230 Q142,219 124,196 Q106,173 106,141 M225,585 L139,704 L218,704 L287,585"/> 
            <glyph glyph-name="á" unicode="&#xE1;" horiz-adv-x="441" d=" M37,135 Q37,310 343,310 L373,310 L373,324 Q373,454 249,454 Q172,454 106,406 L75,458 Q105,484 154,499.5 Q203,515 253,515 Q344,515 392.5,465.5 Q441,416 441,322 L441,0 L376,0 L376,59 L379,101 L377,101 Q356,53 310.5,20.5 Q265,-12 207,-12 Q138,-12 87.5,27 Q37,66 37,135 M106,141 Q106,103 136,74 Q166,45 219,45 Q288,45 330.5,103 Q373,161 373,233 L373,256 L344,256 Q312,256 288.5,255 Q265,254 227.5,247.5 Q190,241 166,230 Q142,219 124,196 Q106,173 106,141 M221,585 L290,704 L369,704 L282,585"/> 
            <glyph glyph-name="â" unicode="&#xE2;" horiz-adv-x="441" d=" M37,135 Q37,310 343,310 L373,310 L373,324 Q373,454 249,454 Q172,454 106,406 L75,458 Q105,484 154,499.5 Q203,515 253,515 Q344,515 392.5,465.5 Q441,416 441,322 L441,0 L376,0 L376,59 L379,101 L377,101 Q356,53 310.5,20.5 Q265,-12 207,-12 Q138,-12 87.5,27 Q37,66 37,135 M106,141 Q106,103 136,74 Q166,45 219,45 Q288,45 330.5,103 Q373,161 373,233 L373,256 L344,256 Q312,256 288.5,255 Q265,254 227.5,247.5 Q190,241 166,230 Q142,219 124,196 Q106,173 106,141 M133,585 L216,704 L291,704 L375,585 L309,585 L255,665 L253,665 L199,585"/> 
            <glyph glyph-name="ã" unicode="&#xE3;" horiz-adv-x="441" d=" M37,135 Q37,310 343,310 L373,310 L373,324 Q373,454 249,454 Q172,454 106,406 L75,458 Q105,484 154,499.5 Q203,515 253,515 Q344,515 392.5,465.5 Q441,416 441,322 L441,0 L376,0 L376,59 L379,101 L377,101 Q356,53 310.5,20.5 Q265,-12 207,-12 Q138,-12 87.5,27 Q37,66 37,135 M106,141 Q106,103 136,74 Q166,45 219,45 Q288,45 330.5,103 Q373,161 373,233 L373,256 L344,256 Q312,256 288.5,255 Q265,254 227.5,247.5 Q190,241 166,230 Q142,219 124,196 Q106,173 106,141 M98,588 Q98,704 190,704 Q219,704 240.5,686 Q262,668 280,650.5 Q298,633 316,633 Q338,633 347,654.5 Q356,676 356,701 L410,701 Q410,585 318,585 Q289,585 267.5,602.5 Q246,620 228,638 Q210,656 192,656 Q153,656 153,588"/> 
            <glyph glyph-name="ä" unicode="&#xE4;" horiz-adv-x="441" d=" M37,135 Q37,310 343,310 L373,310 L373,324 Q373,454 249,454 Q172,454 106,406 L75,458 Q105,484 154,499.5 Q203,515 253,515 Q344,515 392.5,465.5 Q441,416 441,322 L441,0 L376,0 L376,59 L379,101 L377,101 Q356,53 310.5,20.5 Q265,-12 207,-12 Q138,-12 87.5,27 Q37,66 37,135 M106,141 Q106,103 136,74 Q166,45 219,45 Q288,45 330.5,103 Q373,161 373,233 L373,256 L344,256 Q312,256 288.5,255 Q265,254 227.5,247.5 Q190,241 166,230 Q142,219 124,196 Q106,173 106,141 M299,618 L299,704 L361,704 L361,618 M148,618 L148,704 L209,704 L209,618"/> 
            <glyph glyph-name="å" unicode="&#xE5;" horiz-adv-x="441" d=" M37,135 Q37,310 343,310 L373,310 L373,324 Q373,454 249,454 Q172,454 106,406 L75,458 Q105,484 154,499.5 Q203,515 253,515 Q344,515 392.5,465.5 Q441,416 441,322 L441,0 L376,0 L376,59 L379,101 L377,101 Q356,53 310.5,20.5 Q265,-12 207,-12 Q138,-12 87.5,27 Q37,66 37,135 M106,141 Q106,103 136,74 Q166,45 219,45 Q288,45 330.5,103 Q373,161 373,233 L373,256 L344,256 Q312,256 288.5,255 Q265,254 227.5,247.5 Q190,241 166,230 Q142,219 124,196 Q106,173 106,141 M254,575 Q222,575 200,594.5 Q178,614 178,645 Q178,676 200,696 Q222,716 254,716 Q285,716 307,696 Q329,676 329,645 Q329,614 307,594.5 Q285,575 254,575 M254,612 Q268,612 277,621.5 Q286,631 286,645 Q286,660 277,669.5 Q268,679 254,679 Q239,679 230,669.5 Q221,660 221,645 Q221,631 230,621.5 Q239,612 254,612"/> 
            <glyph glyph-name="æ" unicode="&#xE6;" horiz-adv-x="820" d=" M38,137 Q38,171 49.5,198 Q61,225 78,242.5 Q95,260 122.5,272.5 Q150,285 174,291.5 Q198,298 232,301.5 Q266,305 287.5,305.5 Q309,306 340,306 L373,306 L373,324 Q373,454 245,454 Q170,454 106,406 L74,457 Q104,484 152,499.5 Q200,515 249,515 Q384,515 419,411 L421,411 Q483,515 611,515 Q709,515 764.5,449.5 Q820,384 820,286 Q820,285 817,252 L439,252 Q441,156 493,103 Q545,50 627,50 Q716,50 779,110 L810,58 Q777,27 725.5,7.5 Q674,-12 624,-12 Q547,-12 489,25 Q431,62 403,128 L401,128 Q398,117 391.5,103 Q385,89 369,67.5 Q353,46 333.5,29.5 Q314,13 281.5,0.5 Q249,-12 211,-12 Q138,-12 88,27.5 Q38,67 38,137 M443,306 L750,306 Q747,380 706.5,418.5 Q666,457 608,457 Q543,457 499,418 Q455,379 443,306 M108,141 Q108,102 137.5,73.5 Q167,45 220,45 Q289,45 331.5,103.5 Q374,162 374,234 L374,252 L315,252 Q276,252 245.5,248.5 Q215,245 180.5,235 Q146,225 127,201 Q108,177 108,141"/> 
            <glyph glyph-name="ç" unicode="&#xE7;" horiz-adv-x="507" d=" M257,-91 L276,-10 Q175,1 111,73 Q47,145 47,251 Q47,366 123,440.5 Q199,515 311,515 Q363,515 413,496.5 Q463,478 495,443 L460,392 Q433,420 393.5,437 Q354,454 313,454 Q229,454 173,397 Q117,340 117,251 Q117,163 173.5,106.5 Q230,50 315,50 Q359,50 403,68.5 Q447,87 476,119 L507,68 Q438,-7 320,-12 L312,-55 Q344,-60 363,-78.5 Q382,-97 382,-126 Q382,-167 354.5,-186 Q327,-205 286,-205 Q256,-205 236,-200 L236,-152 Q251,-158 278,-158 Q329,-158 329,-124 Q329,-90 272,-90"/> 
            <glyph glyph-name="è" unicode="&#xE8;" horiz-adv-x="506" d=" M47,251 Q47,371 118.5,443 Q190,515 296,515 Q396,515 451,448.5 Q506,382 506,283 Q506,271 504,249 L118,249 Q120,156 176,103 Q232,50 313,50 Q400,50 466,110 L497,58 Q462,26 411.5,7 Q361,-12 311,-12 Q198,-12 122.5,62 Q47,136 47,251 M121,303 L437,303 Q434,378 394,418.5 Q354,459 294,459 Q229,459 181,418 Q133,377 121,303 M266,585 L180,704 L259,704 L328,585"/> 
            <glyph glyph-name="é" unicode="&#xE9;" horiz-adv-x="506" d=" M263,585 L332,704 L411,704 L324,585 M47,251 Q47,371 118.5,443 Q190,515 296,515 Q396,515 451,448.5 Q506,382 506,283 Q506,271 504,249 L118,249 Q120,156 176,103 Q232,50 313,50 Q400,50 466,110 L497,58 Q462,26 411.5,7 Q361,-12 311,-12 Q198,-12 122.5,62 Q47,136 47,251 M121,303 L437,303 Q434,378 394,418.5 Q354,459 294,459 Q229,459 181,418 Q133,377 121,303"/> 
            <glyph glyph-name="ê" unicode="&#xEA;" horiz-adv-x="506" d=" M175,585 L258,704 L333,704 L417,585 L351,585 L297,665 L295,665 L241,585 M47,251 Q47,371 118.5,443 Q190,515 296,515 Q396,515 451,448.5 Q506,382 506,283 Q506,271 504,249 L118,249 Q120,156 176,103 Q232,50 313,50 Q400,50 466,110 L497,58 Q462,26 411.5,7 Q361,-12 311,-12 Q198,-12 122.5,62 Q47,136 47,251 M121,303 L437,303 Q434,378 394,418.5 Q354,459 294,459 Q229,459 181,418 Q133,377 121,303"/> 
            <glyph glyph-name="ë" unicode="&#xEB;" horiz-adv-x="506" d=" M341,618 L341,704 L403,704 L403,618 M190,618 L190,704 L251,704 L251,618 M47,251 Q47,371 118.5,443 Q190,515 296,515 Q396,515 451,448.5 Q506,382 506,283 Q506,271 504,249 L118,249 Q120,156 176,103 Q232,50 313,50 Q400,50 466,110 L497,58 Q462,26 411.5,7 Q361,-12 311,-12 Q198,-12 122.5,62 Q47,136 47,251 M121,303 L437,303 Q434,378 394,418.5 Q354,459 294,459 Q229,459 181,418 Q133,377 121,303"/> 
            <glyph glyph-name="ì" unicode="&#xEC;" horiz-adv-x="149" d=" M81,0 L81,503 L149,503 L149,0 M86,585 L0,704 L79,704 L148,585"/> 
            <glyph glyph-name="í" unicode="&#xED;" horiz-adv-x="232" d=" M84,585 L153,704 L232,704 L145,585 M81,0 L81,503 L149,503 L149,0"/> 
            <glyph glyph-name="î" unicode="&#xEE;" horiz-adv-x="238" d=" M-4,585 L79,704 L154,704 L238,585 L172,585 L118,665 L116,665 L62,585 M81,0 L81,503 L149,503 L149,0"/> 
            <glyph glyph-name="ï" unicode="&#xEF;" horiz-adv-x="224" d=" M162,618 L162,704 L224,704 L224,618 M11,618 L11,704 L72,704 L72,618 M81,0 L81,503 L149,503 L149,0"/> 
            <glyph glyph-name="ð" unicode="&#xF0;" horiz-adv-x="527" d=" M49,232 Q49,328 112.5,397.5 Q176,467 288,467 Q315,467 339.5,461.5 Q364,456 380,448 Q396,440 408.5,431.5 Q421,423 426,418 L432,412 L434,412 Q400,511 310,572 L134,492 L120,540 L256,603 Q192,636 114,654 L133,711 Q247,685 330,635 L461,694 L474,646 L377,601 Q527,482 527,272 Q527,201 503,139 Q479,77 421,32.5 Q363,-12 280,-12 Q175,-12 112,61 Q49,134 49,232 M119,231 Q119,157 163,103 Q207,49 282,49 Q368,49 413,113.5 Q458,178 458,261 Q458,325 413,367 Q368,409 295,409 Q210,409 164.5,356.5 Q119,304 119,231"/> 
            <glyph glyph-name="ñ" unicode="&#xF1;" horiz-adv-x="518" d=" M81,0 L81,503 L148,503 L148,424 L144,384 L146,384 Q165,430 217.5,472.5 Q270,515 349,515 Q440,515 479,466 Q518,417 518,320 L518,0 L450,0 L450,302 Q450,373 428,412 Q406,451 340,451 Q259,451 204,392 Q149,333 149,246 L149,0 M153,588 Q153,704 245,704 Q274,704 295.5,686 Q317,668 335,650.5 Q353,633 371,633 Q393,633 402,654.5 Q411,676 411,701 L465,701 Q465,585 373,585 Q344,585 322.5,602.5 Q301,620 283,638 Q265,656 247,656 Q208,656 208,588"/> 
            <glyph glyph-name="ò" unicode="&#xF2;" horiz-adv-x="578" d=" M47,254 Q47,365 124,440 Q201,515 312,515 Q423,515 500.5,440 Q578,365 578,254 Q578,141 500.5,64.5 Q423,-12 312,-12 Q201,-12 124,64.5 Q47,141 47,254 M117,254 Q117,166 173.5,108 Q230,50 312,50 Q394,50 451,108 Q508,166 508,254 Q508,339 451,396.5 Q394,454 312,454 Q230,454 173.5,396.5 Q117,339 117,254 M281,585 L195,704 L274,704 L343,585"/> 
            <glyph glyph-name="ó" unicode="&#xF3;" horiz-adv-x="578" d=" M279,585 L348,704 L427,704 L340,585 M47,254 Q47,365 124,440 Q201,515 312,515 Q423,515 500.5,440 Q578,365 578,254 Q578,141 500.5,64.5 Q423,-12 312,-12 Q201,-12 124,64.5 Q47,141 47,254 M117,254 Q117,166 173.5,108 Q230,50 312,50 Q394,50 451,108 Q508,166 508,254 Q508,339 451,396.5 Q394,454 312,454 Q230,454 173.5,396.5 Q117,339 117,254"/> 
            <glyph glyph-name="ô" unicode="&#xF4;" horiz-adv-x="578" d=" M191,585 L274,704 L349,704 L433,585 L367,585 L313,665 L311,665 L257,585 M47,254 Q47,365 124,440 Q201,515 312,515 Q423,515 500.5,440 Q578,365 578,254 Q578,141 500.5,64.5 Q423,-12 312,-12 Q201,-12 124,64.5 Q47,141 47,254 M117,254 Q117,166 173.5,108 Q230,50 312,50 Q394,50 451,108 Q508,166 508,254 Q508,339 451,396.5 Q394,454 312,454 Q230,454 173.5,396.5 Q117,339 117,254"/> 
            <glyph glyph-name="õ" unicode="&#xF5;" horiz-adv-x="578" d=" M47,254 Q47,365 124,440 Q201,515 312,515 Q423,515 500.5,440 Q578,365 578,254 Q578,141 500.5,64.5 Q423,-12 312,-12 Q201,-12 124,64.5 Q47,141 47,254 M117,254 Q117,166 173.5,108 Q230,50 312,50 Q394,50 451,108 Q508,166 508,254 Q508,339 451,396.5 Q394,454 312,454 Q230,454 173.5,396.5 Q117,339 117,254 M156,588 Q156,704 248,704 Q277,704 298.5,686 Q320,668 338,650.5 Q356,633 374,633 Q396,633 405,654.5 Q414,676 414,701 L468,701 Q468,585 376,585 Q347,585 325.5,602.5 Q304,620 286,638 Q268,656 250,656 Q211,656 211,588"/> 
            <glyph glyph-name="ö" unicode="&#xF6;" horiz-adv-x="578" d=" M357,618 L357,704 L419,704 L419,618 M206,618 L206,704 L267,704 L267,618 M47,254 Q47,365 124,440 Q201,515 312,515 Q423,515 500.5,440 Q578,365 578,254 Q578,141 500.5,64.5 Q423,-12 312,-12 Q201,-12 124,64.5 Q47,141 47,254 M117,254 Q117,166 173.5,108 Q230,50 312,50 Q394,50 451,108 Q508,166 508,254 Q508,339 451,396.5 Q394,454 312,454 Q230,454 173.5,396.5 Q117,339 117,254"/> 
            <glyph glyph-name="÷" unicode="&#xF7;" horiz-adv-x="529" d=" M246,433 L246,507 L321,507 L321,433 M39,255 L39,313 L529,313 L529,255 M246,61 L246,135 L321,135 L321,61"/> 
            <glyph glyph-name="ø" unicode="&#xF8;" horiz-adv-x="579" d=" M105,-3 L142,49 Q47,126 47,254 Q47,365 124.5,440 Q202,515 313,515 Q386,515 449,479 L488,532 L529,503 L490,449 Q579,372 579,254 Q579,141 501.5,64.5 Q424,-12 313,-12 Q241,-12 184,21 L146,-33 M180,103 L412,426 Q364,454 313,454 Q231,454 174,396.5 Q117,339 117,254 Q117,163 180,103 M221,73 Q262,50 313,50 Q395,50 452,108 Q509,166 509,254 Q509,338 451,394"/> 
            <glyph glyph-name="ù" unicode="&#xF9;" horiz-adv-x="507" d=" M75,183 L75,503 L144,503 L144,201 Q144,130 165.5,91 Q187,52 253,52 Q336,52 387.5,114 Q439,176 439,262 L439,503 L507,503 L507,0 L440,0 L440,79 L444,119 L442,119 Q424,72 371.5,30 Q319,-12 244,-12 Q156,-12 115.5,36 Q75,84 75,183 M262,585 L176,704 L255,704 L324,585"/> 
            <glyph glyph-name="ú" unicode="&#xFA;" horiz-adv-x="507" d=" M258,585 L327,704 L406,704 L319,585 M75,183 L75,503 L144,503 L144,201 Q144,130 165.5,91 Q187,52 253,52 Q336,52 387.5,114 Q439,176 439,262 L439,503 L507,503 L507,0 L440,0 L440,79 L444,119 L442,119 Q424,72 371.5,30 Q319,-12 244,-12 Q156,-12 115.5,36 Q75,84 75,183"/> 
            <glyph glyph-name="û" unicode="&#xFB;" horiz-adv-x="507" d=" M170,585 L253,704 L328,704 L412,585 L346,585 L292,665 L290,665 L236,585 M75,183 L75,503 L144,503 L144,201 Q144,130 165.5,91 Q187,52 253,52 Q336,52 387.5,114 Q439,176 439,262 L439,503 L507,503 L507,0 L440,0 L440,79 L444,119 L442,119 Q424,72 371.5,30 Q319,-12 244,-12 Q156,-12 115.5,36 Q75,84 75,183"/> 
            <glyph glyph-name="ü" unicode="&#xFC;" horiz-adv-x="507" d=" M336,618 L336,704 L398,704 L398,618 M185,618 L185,704 L246,704 L246,618 M75,183 L75,503 L144,503 L144,201 Q144,130 165.5,91 Q187,52 253,52 Q336,52 387.5,114 Q439,176 439,262 L439,503 L507,503 L507,0 L440,0 L440,79 L444,119 L442,119 Q424,72 371.5,30 Q319,-12 244,-12 Q156,-12 115.5,36 Q75,84 75,183"/> 
            <glyph glyph-name="ý" unicode="&#xFD;" horiz-adv-x="500" d=" M45,-126 Q73,-149 105,-149 Q165,-149 201,-67 L231,5 L22,503 L97,503 L244,136 L263,83 L265,83 Q272,111 282,136 L427,503 L500,503 L252,-105 Q232,-154 194.5,-182 Q157,-210 108,-210 Q85,-210 62.5,-202.5 Q40,-195 30,-188 L19,-180 M231,584 L300,703 L379,703 L292,584"/> 
            <glyph glyph-name="þ" unicode="&#xFE;" horiz-adv-x="539" d=" M81,-200 L81,703 L149,703 L149,459 L148,419 L150,419 Q170,461 215,488 Q260,515 319,515 Q420,515 479.5,442 Q539,369 539,252 Q539,134 476.5,61 Q414,-12 315,-12 Q263,-12 217,13.5 Q171,39 149,84 L147,84 Q149,66 149,40 L149,-200 M147,251 Q147,166 190.5,107.5 Q234,49 308,49 Q377,49 423.5,104.5 Q470,160 470,252 Q470,342 425.5,398 Q381,454 311,454 Q241,454 194,403 Q147,352 147,251"/> 
            <glyph glyph-name="ÿ" unicode="&#xFF;" horiz-adv-x="500" d=" M45,-126 Q73,-149 105,-149 Q165,-149 201,-67 L231,5 L22,503 L97,503 L244,136 L263,83 L265,83 Q272,111 282,136 L427,503 L500,503 L252,-105 Q232,-154 194.5,-182 Q157,-210 108,-210 Q85,-210 62.5,-202.5 Q40,-195 30,-188 L19,-180 M308,617 L308,703 L370,703 L370,617 M157,617 L157,703 L218,703 L218,617"/> 
            <glyph glyph-name="Ā" unicode="&#x100;" horiz-adv-x="611" d=" M21,0 L279,703 L353,703 L611,0 L538,0 L457,224 L174,224 L94,0 M195,284 L436,284 L344,539 L317,631 L315,631 Q300,572 288,539 M193,785 L193,840 L439,840 L439,785"/> 
            <glyph glyph-name="ā" unicode="&#x101;" horiz-adv-x="441" d=" M37,135 Q37,310 343,310 L373,310 L373,324 Q373,454 249,454 Q172,454 106,406 L75,458 Q105,484 154,499.5 Q203,515 253,515 Q344,515 392.5,465.5 Q441,416 441,322 L441,0 L376,0 L376,59 L379,101 L377,101 Q356,53 310.5,20.5 Q265,-12 207,-12 Q138,-12 87.5,27 Q37,66 37,135 M106,141 Q106,103 136,74 Q166,45 219,45 Q288,45 330.5,103 Q373,161 373,233 L373,256 L344,256 Q312,256 288.5,255 Q265,254 227.5,247.5 Q190,241 166,230 Q142,219 124,196 Q106,173 106,141 M131,618 L131,673 L377,673 L377,618"/> 
            <glyph glyph-name="Ă" unicode="&#x102;" horiz-adv-x="611" d=" M21,0 L279,703 L353,703 L611,0 L538,0 L457,224 L174,224 L94,0 M195,284 L436,284 L344,539 L317,631 L315,631 Q300,572 288,539 M316,749 Q268,749 234,777 Q200,805 200,856 L200,871 L255,871 L255,857 Q255,826 272,811 Q289,796 316,796 Q341,796 358.5,811.5 Q376,827 376,858 L376,871 L431,871 L431,856 Q431,805 397,777 Q363,749 316,749"/> 
            <glyph glyph-name="ă" unicode="&#x103;" horiz-adv-x="441" d=" M37,135 Q37,310 343,310 L373,310 L373,324 Q373,454 249,454 Q172,454 106,406 L75,458 Q105,484 154,499.5 Q203,515 253,515 Q344,515 392.5,465.5 Q441,416 441,322 L441,0 L376,0 L376,59 L379,101 L377,101 Q356,53 310.5,20.5 Q265,-12 207,-12 Q138,-12 87.5,27 Q37,66 37,135 M106,141 Q106,103 136,74 Q166,45 219,45 Q288,45 330.5,103 Q373,161 373,233 L373,256 L344,256 Q312,256 288.5,255 Q265,254 227.5,247.5 Q190,241 166,230 Q142,219 124,196 Q106,173 106,141 M254,582 Q206,582 172,610 Q138,638 138,689 L138,704 L193,704 L193,690 Q193,659 210,644 Q227,629 254,629 Q279,629 296.5,644.5 Q314,660 314,691 L314,704 L369,704 L369,689 Q369,638 335,610 Q301,582 254,582"/> 
            <glyph glyph-name="Ą" unicode="&#x104;" horiz-adv-x="611" d=" M21,0 L279,703 L353,703 L611,0 Q538,-56 538,-99 Q538,-119 553.5,-131.5 Q569,-144 584,-146 L600,-149 L585,-205 Q581,-205 573.5,-204 Q566,-203 547,-197 Q528,-191 513.5,-182 Q499,-173 487,-155 Q475,-137 475,-113 Q475,-52 541,0 L538,0 L457,224 L174,224 L94,0 M195,284 L436,284 L344,539 L317,631 L315,631 Q300,572 288,539"/> 
            <glyph glyph-name="ą" unicode="&#x105;" horiz-adv-x="441" d=" M37,135 Q37,310 343,310 L373,310 L373,324 Q373,454 249,454 Q172,454 106,406 L75,458 Q105,484 154,499.5 Q203,515 253,515 Q344,515 392.5,465.5 Q441,416 441,322 L441,0 Q368,-56 368,-99 Q368,-119 383.5,-131.5 Q399,-144 414,-146 L430,-149 L415,-205 Q411,-205 403.5,-204 Q396,-203 377,-197 Q358,-191 343.5,-182 Q329,-173 317,-155 Q305,-137 305,-113 Q305,-54 376,0 L376,59 L379,101 L377,101 Q356,53 310.5,20.5 Q265,-12 207,-12 Q138,-12 87.5,27 Q37,66 37,135 M106,141 Q106,103 136,74 Q166,45 219,45 Q288,45 330.5,103 Q373,161 373,233 L373,256 L344,256 Q312,256 288.5,255 Q265,254 227.5,247.5 Q190,241 166,230 Q142,219 124,196 Q106,173 106,141"/> 
            <glyph glyph-name="Ć" unicode="&#x106;" horiz-adv-x="680" d=" M369,752 L438,871 L517,871 L430,752 M55,356 Q55,510 154.5,612.5 Q254,715 408,715 Q567,715 662,624 L625,573 Q584,609 526,629.5 Q468,650 410,650 Q284,650 205.5,566.5 Q127,483 127,357 Q127,229 206,141 Q285,53 413,53 Q545,53 640,146 L680,97 Q569,-12 411,-12 Q253,-12 154,93.5 Q55,199 55,356"/> 
            <glyph glyph-name="ć" unicode="&#x107;" horiz-adv-x="507" d=" M260,585 L329,704 L408,704 L321,585 M47,251 Q47,366 123,440.5 Q199,515 311,515 Q363,515 413,496.5 Q463,478 495,443 L460,392 Q433,420 393.5,437 Q354,454 313,454 Q229,454 173,397 Q117,340 117,251 Q117,163 173.5,106.5 Q230,50 315,50 Q359,50 403,68.5 Q447,87 476,119 L507,68 Q474,31 421.5,9.5 Q369,-12 311,-12 Q198,-12 122.5,61.5 Q47,135 47,251"/> 
            <glyph glyph-name="Ĉ" unicode="&#x108;" horiz-adv-x="680" d=" M281,752 L364,871 L439,871 L523,752 L457,752 L403,832 L401,832 L347,752 M55,356 Q55,510 154.5,612.5 Q254,715 408,715 Q567,715 662,624 L625,573 Q584,609 526,629.5 Q468,650 410,650 Q284,650 205.5,566.5 Q127,483 127,357 Q127,229 206,141 Q285,53 413,53 Q545,53 640,146 L680,97 Q569,-12 411,-12 Q253,-12 154,93.5 Q55,199 55,356"/> 
            <glyph glyph-name="ĉ" unicode="&#x109;" horiz-adv-x="507" d=" M171,585 L254,704 L329,704 L413,585 L347,585 L293,665 L291,665 L237,585 M47,251 Q47,366 123,440.5 Q199,515 311,515 Q363,515 413,496.5 Q463,478 495,443 L460,392 Q433,420 393.5,437 Q354,454 313,454 Q229,454 173,397 Q117,340 117,251 Q117,163 173.5,106.5 Q230,50 315,50 Q359,50 403,68.5 Q447,87 476,119 L507,68 Q474,31 421.5,9.5 Q369,-12 311,-12 Q198,-12 122.5,61.5 Q47,135 47,251"/> 
            <glyph glyph-name="Ċ" unicode="&#x10A;" horiz-adv-x="680" d=" M55,356 Q55,510 154.5,612.5 Q254,715 408,715 Q567,715 662,624 L625,573 Q584,609 526,629.5 Q468,650 410,650 Q284,650 205.5,566.5 Q127,483 127,357 Q127,229 206,141 Q285,53 413,53 Q545,53 640,146 L680,97 Q569,-12 411,-12 Q253,-12 154,93.5 Q55,199 55,356 M369,786 L369,871 L434,871 L434,786"/> 
            <glyph glyph-name="ċ" unicode="&#x10B;" horiz-adv-x="507" d=" M47,251 Q47,366 123,440.5 Q199,515 311,515 Q363,515 413,496.5 Q463,478 495,443 L460,392 Q433,420 393.5,437 Q354,454 313,454 Q229,454 173,397 Q117,340 117,251 Q117,163 173.5,106.5 Q230,50 315,50 Q359,50 403,68.5 Q447,87 476,119 L507,68 Q474,31 421.5,9.5 Q369,-12 311,-12 Q198,-12 122.5,61.5 Q47,135 47,251 M260,619 L260,704 L325,704 L325,619"/> 
            <glyph glyph-name="Č" unicode="&#x10C;" horiz-adv-x="680" d=" M364,752 L281,871 L347,871 L401,791 L403,791 L457,871 L523,871 L439,752 M55,356 Q55,510 154.5,612.5 Q254,715 408,715 Q567,715 662,624 L625,573 Q584,609 526,629.5 Q468,650 410,650 Q284,650 205.5,566.5 Q127,483 127,357 Q127,229 206,141 Q285,53 413,53 Q545,53 640,146 L680,97 Q569,-12 411,-12 Q253,-12 154,93.5 Q55,199 55,356"/> 
            <glyph glyph-name="č" unicode="&#x10D;" horiz-adv-x="507" d=" M254,585 L171,704 L237,704 L291,624 L293,624 L347,704 L413,704 L329,585 M47,251 Q47,366 123,440.5 Q199,515 311,515 Q363,515 413,496.5 Q463,478 495,443 L460,392 Q433,420 393.5,437 Q354,454 313,454 Q229,454 173,397 Q117,340 117,251 Q117,163 173.5,106.5 Q230,50 315,50 Q359,50 403,68.5 Q447,87 476,119 L507,68 Q474,31 421.5,9.5 Q369,-12 311,-12 Q198,-12 122.5,61.5 Q47,135 47,251"/> 
            <glyph glyph-name="Ď" unicode="&#x10E;" horiz-adv-x="680" d=" M303,752 L220,871 L286,871 L340,791 L342,791 L396,871 L462,871 L378,752 M101,0 L101,703 L327,703 Q488,703 584,609.5 Q680,516 680,352 Q680,187 584,93.5 Q488,0 327,0 M170,62 L320,62 Q452,62 530,137.5 Q608,213 608,352 Q608,490 530,565.5 Q452,641 320,641 L170,641"/> 
            <glyph glyph-name="ď" unicode="&#x10F;" horiz-adv-x="641" d=" M570,702 L635,702 Q641,675 641,653 Q641,614 618,563 L562,563 Q581,610 581,644 Q581,672 570,702 M49,134 Q49,370 112,442.5 Q175,515 276,515 Q329,515 373.5,488.5 Q418,462 441,416 L443,416 Q440,433 440,454 L440,703 L508,703 L508,0 L442,0 L442,57 L445,93 L443,93 Q420,47 375,17.5 Q330,-12 268,-12 Q168,-12 49,134 M119,252 Q119,160 163.5,104.5 Q208,49 279,49 Q348,49 394.5,100 Q441,151 441,253 Q441,335 399.5,394 Q358,453 282,453 Q213,453 166,399 Q119,345 119,252"/> 
            <glyph glyph-name="Đ" unicode="&#x110;" horiz-adv-x="686" d=" M107,0 L107,323 L47,323 L47,383 L107,383 L107,703 L333,703 Q494,703 590,609.5 Q686,516 686,352 Q686,187 590,93.5 Q494,0 333,0 M176,62 L326,62 Q458,62 536,137.5 Q614,213 614,352 Q614,490 536,565.5 Q458,641 326,641 L176,641 L176,383 L343,383 L343,323 L176,323"/> 
            <glyph glyph-name="đ" unicode="&#x111;" horiz-adv-x="587" d=" M49,134 Q49,370 112,442.5 Q175,515 276,515 Q327,515 371.5,490 Q416,465 439,420 L441,420 Q440,437 440,458 L440,566 L308,566 L308,617 L440,617 L440,703 L508,703 L508,617 L587,617 L587,566 L508,566 L508,0 L442,0 L442,53 L444,90 L442,90 Q421,46 375.5,17 Q330,-12 268,-12 Q168,-12 49,134 M119,252 Q119,160 163.5,104.5 Q208,49 279,49 Q348,49 394.5,100 Q441,151 441,253 Q441,335 399.5,394.5 Q358,454 282,454 Q213,454 166,399.5 Q119,345 119,252"/> 
            <glyph glyph-name="Ē" unicode="&#x112;" horiz-adv-x="515" d=" M101,0 L101,703 L496,703 L496,641 L170,641 L170,385 L437,385 L437,323 L170,323 L170,62 L515,62 L515,0 M187,785 L187,840 L433,840 L433,785"/> 
            <glyph glyph-name="ē" unicode="&#x113;" horiz-adv-x="506" d=" M47,251 Q47,371 118.5,443 Q190,515 296,515 Q396,515 451,448.5 Q506,382 506,283 Q506,271 504,249 L118,249 Q120,156 176,103 Q232,50 313,50 Q400,50 466,110 L497,58 Q462,26 411.5,7 Q361,-12 311,-12 Q198,-12 122.5,62 Q47,136 47,251 M121,303 L437,303 Q434,378 394,418.5 Q354,459 294,459 Q229,459 181,418 Q133,377 121,303 M173,618 L173,673 L419,673 L419,618"/> 
            <glyph glyph-name="Ĕ" unicode="&#x114;" horiz-adv-x="515" d=" M101,0 L101,703 L496,703 L496,641 L170,641 L170,385 L437,385 L437,323 L170,323 L170,62 L515,62 L515,0 M310,749 Q262,749 228,777 Q194,805 194,856 L194,871 L249,871 L249,857 Q249,826 266,811 Q283,796 310,796 Q335,796 352.5,811.5 Q370,827 370,858 L370,871 L425,871 L425,856 Q425,805 391,777 Q357,749 310,749"/> 
            <glyph glyph-name="ĕ" unicode="&#x115;" horiz-adv-x="506" d=" M47,251 Q47,371 118.5,443 Q190,515 296,515 Q396,515 451,448.5 Q506,382 506,283 Q506,271 504,249 L118,249 Q120,156 176,103 Q232,50 313,50 Q400,50 466,110 L497,58 Q462,26 411.5,7 Q361,-12 311,-12 Q198,-12 122.5,62 Q47,136 47,251 M121,303 L437,303 Q434,378 394,418.5 Q354,459 294,459 Q229,459 181,418 Q133,377 121,303 M296,582 Q248,582 214,610 Q180,638 180,689 L180,704 L235,704 L235,690 Q235,659 252,644 Q269,629 296,629 Q321,629 338.5,644.5 Q356,660 356,691 L356,704 L411,704 L411,689 Q411,638 377,610 Q343,582 296,582"/> 
            <glyph glyph-name="Ė" unicode="&#x116;" horiz-adv-x="515" d=" M101,0 L101,703 L496,703 L496,641 L170,641 L170,385 L437,385 L437,323 L170,323 L170,62 L515,62 L515,0 M277,786 L277,871 L342,871 L342,786"/> 
            <glyph glyph-name="ė" unicode="&#x117;" horiz-adv-x="506" d=" M47,251 Q47,371 118.5,443 Q190,515 296,515 Q396,515 451,448.5 Q506,382 506,283 Q506,271 504,249 L118,249 Q120,156 176,103 Q232,50 313,50 Q400,50 466,110 L497,58 Q462,26 411.5,7 Q361,-12 311,-12 Q198,-12 122.5,62 Q47,136 47,251 M121,303 L437,303 Q434,378 394,418.5 Q354,459 294,459 Q229,459 181,418 Q133,377 121,303 M263,619 L263,704 L328,704 L328,619"/> 
            <glyph glyph-name="Ę" unicode="&#x118;" horiz-adv-x="515" d=" M101,0 L101,703 L496,703 L496,641 L170,641 L170,385 L437,385 L437,323 L170,323 L170,62 L515,62 L515,0 Q442,-56 442,-99 Q442,-119 457.5,-131.5 Q473,-144 488,-146 L504,-149 L488,-205 Q484,-205 476.5,-204 Q469,-203 450,-197 Q431,-191 417,-182 Q403,-173 391,-155 Q379,-137 379,-113 Q379,-52 452,0"/> 
            <glyph glyph-name="ę" unicode="&#x119;" horiz-adv-x="506" d=" M47,251 Q47,371 118.5,443 Q190,515 296,515 Q396,515 451,448.5 Q506,382 506,283 L504,249 L118,249 Q120,156 176,103 Q232,50 313,50 Q396,50 466,110 L497,59 Q486,48 444,18.5 Q402,-11 377,-39.5 Q352,-68 352,-99 Q352,-119 367.5,-131.5 Q383,-144 398,-146 L414,-149 L399,-205 Q395,-205 387.5,-204 Q380,-203 361,-197 Q342,-191 327.5,-182 Q313,-173 301,-155 Q289,-137 289,-113 Q289,-58 347,-8 Q325,-12 311,-12 Q198,-12 122.5,62 Q47,136 47,251 M121,303 L437,303 Q434,379 394,419 Q354,459 294,459 Q229,459 181,417.5 Q133,376 121,303"/> 
            <glyph glyph-name="Ě" unicode="&#x11A;" horiz-adv-x="515" d=" M272,752 L189,871 L255,871 L309,791 L311,791 L365,871 L431,871 L347,752 M101,0 L101,703 L496,703 L496,641 L170,641 L170,385 L437,385 L437,323 L170,323 L170,62 L515,62 L515,0"/> 
            <glyph glyph-name="ě" unicode="&#x11B;" horiz-adv-x="506" d=" M258,585 L175,704 L241,704 L295,624 L297,624 L351,704 L417,704 L333,585 M47,251 Q47,371 118.5,443 Q190,515 296,515 Q396,515 451,448.5 Q506,382 506,283 Q506,271 504,249 L118,249 Q120,156 176,103 Q232,50 313,50 Q400,50 466,110 L497,58 Q462,26 411.5,7 Q361,-12 311,-12 Q198,-12 122.5,62 Q47,136 47,251 M121,303 L437,303 Q434,378 394,418.5 Q354,459 294,459 Q229,459 181,418 Q133,377 121,303"/> 
            <glyph glyph-name="Ĝ" unicode="&#x11C;" horiz-adv-x="693" d=" M277,752 L360,871 L435,871 L519,752 L453,752 L399,832 L397,832 L343,752 M55,352 Q55,505 157,610 Q259,715 410,715 Q559,715 660,633 L622,580 Q585,611 527,630.5 Q469,650 413,650 Q287,650 207,565 Q127,480 127,353 Q127,223 206.5,138 Q286,53 407,53 Q469,53 527.5,80.5 Q586,108 628,155 L628,274 L508,274 L508,336 L693,336 L693,0 L630,0 L630,53 L631,83 L629,83 Q590,40 529,14 Q468,-12 400,-12 Q254,-12 154.5,92 Q55,196 55,352"/> 
            <glyph glyph-name="ĝ" unicode="&#x11D;" horiz-adv-x="501" d=" M163,585 L246,704 L321,704 L405,585 L339,585 L285,665 L283,665 L229,585 M120,-114 Q186,-148 257,-148 Q336,-148 384,-109.5 Q432,-71 432,9 L432,59 L436,96 L434,96 Q385,3 274,3 Q173,3 111.5,75 Q50,147 50,261 Q50,375 109,445 Q168,515 268,515 Q322,515 367.5,493 Q413,471 435,427 L437,427 Q435,433 435,444 L435,503 L501,503 L501,12 Q501,-100 431.5,-155 Q362,-210 259,-210 Q172,-210 95,-169 M119,352 Q119,172 164,118 Q209,64 284,64 Q351,64 392.5,110.5 Q434,157 434,261 Q434,454 275,454 Q202,454 119,352"/> 
            <glyph glyph-name="Ğ" unicode="&#x11E;" horiz-adv-x="693" d=" M55,352 Q55,505 157,610 Q259,715 410,715 Q559,715 660,633 L622,580 Q585,611 527,630.5 Q469,650 413,650 Q287,650 207,565 Q127,480 127,353 Q127,223 206.5,138 Q286,53 407,53 Q469,53 527.5,80.5 Q586,108 628,155 L628,274 L508,274 L508,336 L693,336 L693,0 L630,0 L630,53 L631,83 L629,83 Q590,40 529,14 Q468,-12 400,-12 Q254,-12 154.5,92 Q55,196 55,352 M399,749 Q351,749 317,777 Q283,805 283,856 L283,871 L338,871 L338,857 Q338,826 355,811 Q372,796 399,796 Q424,796 441.5,811.5 Q459,827 459,858 L459,871 L514,871 L514,856 Q514,805 480,777 Q446,749 399,749"/> 
            <glyph glyph-name="ğ" unicode="&#x11F;" horiz-adv-x="501" d=" M120,-114 Q186,-148 257,-148 Q336,-148 384,-109.5 Q432,-71 432,9 L432,59 L436,96 L434,96 Q385,3 274,3 Q173,3 111.5,75 Q50,147 50,261 Q50,375 109,445 Q168,515 268,515 Q322,515 367.5,493 Q413,471 435,427 L437,427 Q435,433 435,444 L435,503 L501,503 L501,12 Q501,-100 431.5,-155 Q362,-210 259,-210 Q172,-210 95,-169 M119,352 Q119,172 164,118 Q209,64 284,64 Q351,64 392.5,110.5 Q434,157 434,261 Q434,454 275,454 Q202,454 119,352 M284,582 Q236,582 202,610 Q168,638 168,689 L168,704 L223,704 L223,690 Q223,659 240,644 Q257,629 284,629 Q309,629 326.5,644.5 Q344,660 344,691 L344,704 L399,704 L399,689 Q399,638 365,610 Q331,582 284,582"/> 
            <glyph glyph-name="Ġ" unicode="&#x120;" horiz-adv-x="693" d=" M55,352 Q55,505 157,610 Q259,715 410,715 Q559,715 660,633 L622,580 Q585,611 527,630.5 Q469,650 413,650 Q287,650 207,565 Q127,480 127,353 Q127,223 206.5,138 Q286,53 407,53 Q469,53 527.5,80.5 Q586,108 628,155 L628,274 L508,274 L508,336 L693,336 L693,0 L630,0 L630,53 L631,83 L629,83 Q590,40 529,14 Q468,-12 400,-12 Q254,-12 154.5,92 Q55,196 55,352 M366,786 L366,871 L431,871 L431,786"/> 
            <glyph glyph-name="ġ" unicode="&#x121;" horiz-adv-x="501" d=" M120,-114 Q186,-148 257,-148 Q336,-148 384,-109.5 Q432,-71 432,9 L432,59 L436,96 L434,96 Q385,3 274,3 Q173,3 111.5,75 Q50,147 50,261 Q50,375 109,445 Q168,515 268,515 Q322,515 367.5,493 Q413,471 435,427 L437,427 Q435,433 435,444 L435,503 L501,503 L501,12 Q501,-100 431.5,-155 Q362,-210 259,-210 Q172,-210 95,-169 M119,352 Q119,172 164,118 Q209,64 284,64 Q351,64 392.5,110.5 Q434,157 434,261 Q434,454 275,454 Q202,454 119,352 M251,619 L251,704 L316,704 L316,619"/> 
            <glyph glyph-name="Ģ" unicode="&#x122;" horiz-adv-x="693" d=" M366,-63 L431,-63 Q437,-90 437,-112 Q437,-151 414,-202 L358,-202 Q377,-154 377,-121 Q377,-93 366,-63 M55,352 Q55,505 157,610 Q259,715 410,715 Q559,715 660,633 L622,580 Q585,611 527,630.5 Q469,650 413,650 Q287,650 207,565 Q127,480 127,353 Q127,223 206.5,138 Q286,53 407,53 Q469,53 527.5,80.5 Q586,108 628,155 L628,274 L508,274 L508,336 L693,336 L693,0 L630,0 L630,53 L631,83 L629,83 Q590,40 529,14 Q468,-12 400,-12 Q254,-12 154.5,92 Q55,196 55,352"/> 
            <glyph glyph-name="ģ" unicode="&#x123;" horiz-adv-x="501" d=" M318,565 L253,565 Q247,590 247,613 Q247,652 270,703 L326,703 Q307,656 307,622 Q307,594 318,565 M120,-114 Q186,-148 257,-148 Q336,-148 384,-109.5 Q432,-71 432,9 L432,59 L436,96 L434,96 Q385,3 274,3 Q173,3 111.5,75 Q50,147 50,261 Q50,375 109,445 Q168,515 268,515 Q322,515 367.5,493 Q413,471 435,427 L437,427 Q435,433 435,444 L435,503 L501,503 L501,12 Q501,-100 431.5,-155 Q362,-210 259,-210 Q172,-210 95,-169 M119,352 Q119,172 164,118 Q209,64 284,64 Q351,64 392.5,110.5 Q434,157 434,261 Q434,454 275,454 Q202,454 119,352"/> 
            <glyph glyph-name="Ĥ" unicode="&#x124;" horiz-adv-x="647" d=" M252,752 L335,871 L410,871 L494,752 L428,752 L374,832 L372,832 L318,752 M101,0 L101,703 L170,703 L170,383 L577,383 L577,703 L647,703 L647,0 L577,0 L577,321 L170,321 L170,0"/> 
            <glyph glyph-name="ĥ" unicode="&#x125;" horiz-adv-x="518" d=" M-4,752 L79,871 L154,871 L238,752 L172,752 L118,832 L116,832 L62,752 M81,0 L81,703 L149,703 L149,427 L146,386 L148,386 Q166,432 219.5,473.5 Q273,515 349,515 Q440,515 479,466 Q518,417 518,320 L518,0 L450,0 L450,302 Q450,373 428,412 Q406,451 340,451 Q260,451 204.5,392 Q149,333 149,243 L149,0"/> 
            <glyph glyph-name="Ħ" unicode="&#x126;" horiz-adv-x="716" d=" M107,0 L107,512 L42,512 L42,565 L107,565 L107,703 L177,703 L177,565 L581,565 L581,703 L651,703 L651,565 L716,565 L716,512 L651,512 L651,0 L581,0 L581,321 L177,321 L177,0 M177,383 L581,383 L581,512 L177,512"/> 
            <glyph glyph-name="ħ" unicode="&#x127;" horiz-adv-x="518" d=" M81,0 L81,566 L5,566 L5,617 L81,617 L81,703 L149,703 L149,617 L283,617 L283,566 L149,566 L149,431 L147,390 L149,390 Q168,435 220.5,475 Q273,515 349,515 Q440,515 479,466 Q518,417 518,320 L518,0 L450,0 L450,302 Q450,373 428,412 Q406,451 340,451 Q258,451 203.5,391 Q149,331 149,246 L149,0"/> 
            <glyph glyph-name="Ĩ" unicode="&#x128;" horiz-adv-x="293" d=" M101,0 L101,703 L170,703 L170,0 M-19,755 Q-19,871 73,871 Q102,871 123.5,853.5 Q145,836 163,818 Q181,800 199,800 Q221,800 230,821.5 Q239,843 239,868 L293,868 Q293,752 201,752 Q172,752 150.5,770 Q129,788 111,805.5 Q93,823 75,823 Q36,823 36,755"/> 
            <glyph glyph-name="ĩ" unicode="&#x129;" horiz-adv-x="273" d=" M81,0 L81,503 L149,503 L149,0 M-39,588 Q-39,704 53,704 Q82,704 103.5,686 Q125,668 143,650.5 Q161,633 179,633 Q201,633 210,654.5 Q219,676 219,701 L273,701 Q273,585 181,585 Q152,585 130.5,602.5 Q109,620 91,638 Q73,656 55,656 Q16,656 16,588"/> 
            <glyph glyph-name="Ī" unicode="&#x12A;" horiz-adv-x="260" d=" M101,0 L101,703 L170,703 L170,0 M14,785 L14,840 L260,840 L260,785"/> 
            <glyph glyph-name="ī" unicode="&#x12B;" horiz-adv-x="239" d=" M81,0 L81,503 L149,503 L149,0 M-7,618 L-7,673 L239,673 L239,618"/> 
            <glyph glyph-name="Ĭ" unicode="&#x12C;" horiz-adv-x="252" d=" M101,0 L101,703 L170,703 L170,0 M137,749 Q89,749 55,777 Q21,805 21,856 L21,871 L76,871 L76,857 Q76,826 93,811 Q110,796 137,796 Q162,796 179.5,811.5 Q197,827 197,858 L197,871 L252,871 L252,856 Q252,805 218,777 Q184,749 137,749"/> 
            <glyph glyph-name="ĭ" unicode="&#x12D;" horiz-adv-x="232" d=" M81,0 L81,503 L149,503 L149,0 M117,582 Q69,582 35,610 Q1,638 1,689 L1,704 L56,704 L56,690 Q56,659 73,644 Q90,629 117,629 Q142,629 159.5,644.5 Q177,660 177,691 L177,704 L232,704 L232,689 Q232,638 198,610 Q164,582 117,582"/> 
            <glyph glyph-name="Į" unicode="&#x12E;" horiz-adv-x="170" d=" M101,0 L101,703 L170,703 L170,0 Q97,-56 97,-99 Q97,-119 112.5,-131.5 Q128,-144 144,-146 L159,-149 L144,-205 Q140,-205 132.5,-204 Q125,-203 106,-197 Q87,-191 72.5,-182 Q58,-173 46,-155 Q34,-137 34,-113 Q34,-54 104,0"/> 
            <glyph glyph-name="į" unicode="&#x12F;" horiz-adv-x="152" d=" M81,0 L81,503 L149,503 L149,1 L150,0 Q77,-56 77,-99 Q77,-119 92.5,-131.5 Q108,-144 124,-146 L139,-149 L124,-205 Q120,-205 112.5,-204 Q105,-203 86,-197 Q67,-191 52.5,-182 Q38,-173 26,-154.5 Q14,-136 14,-112 Q14,-53 86,0 M78,618 L78,703 L152,703 L152,618"/> 
            <glyph glyph-name="İ" unicode="&#x130;" horiz-adv-x="170" d=" M101,0 L101,703 L170,703 L170,0 M104,786 L104,871 L169,871 L169,786"/> 
            <glyph glyph-name="ı" unicode="&#x131;" horiz-adv-x="149" d=" M81,0 L81,503 L149,503 L149,0"/> 
            <glyph glyph-name="Ĳ" unicode="&#x132;" horiz-adv-x="487" d=" M271,-5 L271,60 Q417,60 417,228 L417,703 L487,703 L487,228 Q487,-5 271,-5 M101,0 L101,703 L170,703 L170,0"/> 
            <glyph glyph-name="ĳ" unicode="&#x133;" horiz-adv-x="382" d=" M78,618 L78,703 L152,703 L152,618 M81,0 L81,503 L149,503 L149,0 M308,618 L308,703 L382,703 L382,618 M311,-16 L311,503 L379,503 L379,-18 Q379,-77 360.5,-117.5 Q342,-158 312,-175.5 Q282,-193 256.5,-199.5 Q231,-206 204,-206 Q190,-206 175,-203 L175,-143 Q183,-145 197,-145 Q215,-145 231.5,-140.5 Q248,-136 267.5,-124 Q287,-112 299,-84 Q311,-56 311,-16"/> 
            <glyph glyph-name="Ĵ" unicode="&#x134;" horiz-adv-x="426" d=" M184,752 L267,871 L342,871 L426,752 L360,752 L306,832 L304,832 L250,752 M32,197 L32,225 L101,225 L101,199 Q101,136 133,94.5 Q165,53 228,53 Q283,53 320,88 Q357,123 357,197 L357,641 L185,641 L185,703 L426,703 L426,197 Q426,91 368.5,39.5 Q311,-12 229,-12 Q147,-12 89.5,40 Q32,92 32,197"/> 
            <glyph glyph-name="ĵ" unicode="&#x135;" horiz-adv-x="232" d=" M-8,584 L76,703 L148,703 L232,584 L167,584 L113,665 L111,665 L57,584 M81,-16 L81,503 L149,503 L149,-18 Q149,-77 130.5,-117.5 Q112,-158 82,-175.5 Q52,-193 26.5,-199.5 Q1,-206 -26,-206 Q-40,-206 -55,-203 L-55,-143 Q-43,-145 -33,-145 Q-15,-145 1.5,-140.5 Q18,-136 37.5,-124 Q57,-112 69,-84 Q81,-56 81,-16"/> 
            <glyph glyph-name="Ķ" unicode="&#x136;" horiz-adv-x="571" d=" M275,-63 L340,-63 Q346,-90 346,-112 Q346,-151 323,-202 L267,-202 Q286,-154 286,-121 Q286,-93 275,-63 M101,0 L101,703 L170,703 L170,398 L288,398 L478,703 L557,703 L346,371 L346,369 L571,0 L490,0 L288,336 L170,336 L170,0"/> 
            <glyph glyph-name="ķ" unicode="&#x137;" horiz-adv-x="480" d=" M226,-63 L291,-63 Q297,-90 297,-112 Q297,-151 274,-202 L218,-202 Q237,-154 237,-121 Q237,-93 226,-63 M81,0 L81,703 L149,703 L149,311 L230,311 L380,503 L462,503 L287,284 L287,282 L480,0 L398,0 L231,251 L149,251 L149,0"/> 
            <glyph glyph-name="ĸ" unicode="&#x138;" horiz-adv-x="471" d=" M81,0 L81,503 L149,503 L149,297 L228,297 L387,503 L470,503 L287,270 L287,268 L471,0 L387,0 L229,238 L149,238 L149,0"/> 
            <glyph glyph-name="Ĺ" unicode="&#x139;" horiz-adv-x="496" d=" M104,752 L173,871 L252,871 L165,752 M101,0 L101,703 L170,703 L170,62 L496,62 L496,0"/> 
            <glyph glyph-name="ĺ" unicode="&#x13A;" horiz-adv-x="233" d=" M85,752 L154,871 L233,871 L146,752 M81,119 L81,703 L149,703 L149,134 Q149,58 206,58 Q216,58 222,59 L222,-2 Q210,-4 197,-4 Q182,-4 169,-2 Q156,0 139,7.5 Q122,15 110,28 Q98,41 89.5,64.5 Q81,88 81,119"/> 
            <glyph glyph-name="Ļ" unicode="&#x13B;" horiz-adv-x="496" d=" M271,-63 L336,-63 Q342,-90 342,-112 Q342,-151 319,-202 L263,-202 Q282,-154 282,-121 Q282,-93 271,-63 M101,0 L101,703 L170,703 L170,62 L496,62 L496,0"/> 
            <glyph glyph-name="ļ" unicode="&#x13C;" horiz-adv-x="222" d=" M116,-63 L181,-63 Q187,-90 187,-112 Q187,-151 164,-202 L108,-202 Q127,-154 127,-121 Q127,-93 116,-63 M81,119 L81,703 L149,703 L149,134 Q149,58 206,58 Q216,58 222,59 L222,-2 Q210,-4 197,-4 Q182,-4 169,-2 Q156,0 139,7.5 Q122,15 110,28 Q98,41 89.5,64.5 Q81,88 81,119"/> 
            <glyph glyph-name="Ľ" unicode="&#x13D;" horiz-adv-x="496" d=" M261,702 L326,702 Q332,675 332,653 Q332,614 309,563 L253,563 Q272,610 272,644 Q272,672 261,702 M101,0 L101,703 L170,703 L170,62 L496,62 L496,0"/> 
            <glyph glyph-name="ľ" unicode="&#x13E;" horiz-adv-x="284" d=" M213,702 L278,702 Q284,675 284,653 Q284,614 261,563 L205,563 Q224,610 224,644 Q224,672 213,702 M81,119 L81,703 L149,703 L149,134 Q149,58 206,58 Q216,58 222,59 L222,-2 Q210,-4 197,-4 Q182,-4 169,-2 Q156,0 139,7.5 Q122,15 110,28 Q98,41 89.5,64.5 Q81,88 81,119"/> 
            <glyph glyph-name="Ŀ" unicode="&#x13F;" horiz-adv-x="496" d=" M101,0 L101,703 L170,703 L170,62 L496,62 L496,0 M294,330 L294,413 L374,413 L374,330"/> 
            <glyph glyph-name="ŀ" unicode="&#x140;" horiz-adv-x="297" d=" M81,119 L81,703 L149,703 L149,134 Q149,58 206,58 Q216,58 222,59 L222,-2 Q210,-4 197,-4 Q182,-4 169,-2 Q156,0 139,7.5 Q122,15 110,28 Q98,41 89.5,64.5 Q81,88 81,119 M217,330 L217,413 L297,413 L297,330"/> 
            <glyph glyph-name="Ł" unicode="&#x141;" horiz-adv-x="501" d=" M106,0 L106,337 L44,302 L44,372 L106,408 L106,703 L175,703 L175,448 L288,513 L288,442 L175,377 L175,62 L501,62 L501,0"/> 
            <glyph glyph-name="ł" unicode="&#x142;" horiz-adv-x="252" d=" M16,306 L16,376 L97,423 L97,703 L165,703 L165,462 L252,513 L252,442 L165,391 L165,134 Q165,58 222,58 L238,59 L238,-2 Q226,-4 213,-4 Q97,-4 97,119 L97,352"/> 
            <glyph glyph-name="Ń" unicode="&#x143;" horiz-adv-x="650" d=" M342,752 L411,871 L490,871 L403,752 M101,0 L101,703 L168,703 L527,197 L585,102 L587,102 Q581,160 581,197 L581,703 L650,703 L650,0 L583,0 L224,506 L166,601 L164,601 Q170,543 170,506 L170,0"/> 
            <glyph glyph-name="ń" unicode="&#x144;" horiz-adv-x="518" d=" M276,585 L345,704 L424,704 L337,585 M81,0 L81,503 L148,503 L148,424 L144,384 L146,384 Q165,430 217.5,472.5 Q270,515 349,515 Q440,515 479,466 Q518,417 518,320 L518,0 L450,0 L450,302 Q450,373 428,412 Q406,451 340,451 Q259,451 204,392 Q149,333 149,246 L149,0"/> 
            <glyph glyph-name="Ņ" unicode="&#x145;" horiz-adv-x="650" d=" M341,-63 L406,-63 Q412,-90 412,-112 Q412,-151 389,-202 L333,-202 Q352,-154 352,-121 Q352,-93 341,-63 M101,0 L101,703 L168,703 L527,197 L585,102 L587,102 Q581,160 581,197 L581,703 L650,703 L650,0 L583,0 L224,506 L166,601 L164,601 Q170,543 170,506 L170,0"/> 
            <glyph glyph-name="ņ" unicode="&#x146;" horiz-adv-x="518" d=" M265,-63 L330,-63 Q336,-90 336,-112 Q336,-151 313,-202 L257,-202 Q276,-154 276,-121 Q276,-93 265,-63 M81,0 L81,503 L148,503 L148,424 L144,384 L146,384 Q165,430 217.5,472.5 Q270,515 349,515 Q440,515 479,466 Q518,417 518,320 L518,0 L450,0 L450,302 Q450,373 428,412 Q406,451 340,451 Q259,451 204,392 Q149,333 149,246 L149,0"/> 
            <glyph glyph-name="Ň" unicode="&#x147;" horiz-adv-x="650" d=" M337,752 L254,871 L320,871 L374,791 L376,791 L430,871 L496,871 L412,752 M101,0 L101,703 L168,703 L527,197 L585,102 L587,102 Q581,160 581,197 L581,703 L650,703 L650,0 L583,0 L224,506 L166,601 L164,601 Q170,543 170,506 L170,0"/> 
            <glyph glyph-name="ň" unicode="&#x148;" horiz-adv-x="518" d=" M271,585 L188,704 L254,704 L308,624 L310,624 L364,704 L430,704 L346,585 M81,0 L81,503 L148,503 L148,424 L144,384 L146,384 Q165,430 217.5,472.5 Q270,515 349,515 Q440,515 479,466 Q518,417 518,320 L518,0 L450,0 L450,302 Q450,373 428,412 Q406,451 340,451 Q259,451 204,392 Q149,333 149,246 L149,0"/> 
            <glyph glyph-name="ŉ" unicode="&#x149;" horiz-adv-x="518" d=" M19,702 L84,702 Q90,675 90,653 Q90,614 67,563 L11,563 Q30,610 30,644 Q30,672 19,702 M81,0 L81,503 L148,503 L148,424 L144,384 L146,384 Q165,430 217.5,472.5 Q270,515 349,515 Q440,515 479,466 Q518,417 518,320 L518,0 L450,0 L450,302 Q450,373 428,412 Q406,451 340,451 Q259,451 204,392 Q149,333 149,246 L149,0"/> 
            <glyph glyph-name="Ŋ" unicode="&#x14A;" horiz-adv-x="650" d=" M101,0 L101,703 L168,703 L527,197 L585,102 L587,102 Q581,160 581,197 L581,703 L650,703 L650,12 Q650,-102 589,-153.5 Q528,-205 442,-205 L442,-140 Q496,-140 537,-105 Q578,-70 579,5 L224,506 L166,601 L164,601 Q170,543 170,506 L170,0"/> 
            <glyph glyph-name="ŋ" unicode="&#x14B;" horiz-adv-x="518" d=" M81,0 L81,503 L148,503 L148,423 L146,388 L148,388 Q167,434 218.5,474.5 Q270,515 349,515 Q440,515 479,466 Q518,417 518,320 L518,-23 Q518,-82 499.5,-122 Q481,-162 450.5,-179.5 Q420,-197 394.5,-203.5 Q369,-210 342,-210 L313,-207 L313,-148 Q322,-149 335,-149 Q353,-149 370,-144.5 Q387,-140 406.5,-128 Q426,-116 438,-88 Q450,-60 450,-20 L450,302 Q450,373 428,412 Q406,451 340,451 Q257,451 203,391 Q149,331 149,246 L149,0"/> 
            <glyph glyph-name="Ō" unicode="&#x14C;" horiz-adv-x="770" d=" M289,785 L289,840 L535,840 L535,785 M54,357 Q54,508 156.5,611.5 Q259,715 412,715 Q566,715 668,612 Q770,509 770,357 Q770,201 668,94.5 Q566,-12 412,-12 Q259,-12 156.5,94.5 Q54,201 54,357 M126,357 Q126,228 207.5,140.5 Q289,53 412,53 Q535,53 616.5,140 Q698,227 698,357 Q698,482 616.5,566 Q535,650 412,650 Q289,650 207.5,566 Q126,482 126,357"/> 
            <glyph glyph-name="ō" unicode="&#x14D;" horiz-adv-x="578" d=" M189,618 L189,673 L435,673 L435,618 M47,254 Q47,365 124,440 Q201,515 312,515 Q423,515 500.5,440 Q578,365 578,254 Q578,141 500.5,64.5 Q423,-12 312,-12 Q201,-12 124,64.5 Q47,141 47,254 M117,254 Q117,166 173.5,108 Q230,50 312,50 Q394,50 451,108 Q508,166 508,254 Q508,339 451,396.5 Q394,454 312,454 Q230,454 173.5,396.5 Q117,339 117,254"/> 
            <glyph glyph-name="Ŏ" unicode="&#x14E;" horiz-adv-x="770" d=" M54,357 Q54,508 156.5,611.5 Q259,715 412,715 Q566,715 668,612 Q770,509 770,357 Q770,201 668,94.5 Q566,-12 412,-12 Q259,-12 156.5,94.5 Q54,201 54,357 M126,357 Q126,228 207.5,140.5 Q289,53 412,53 Q535,53 616.5,140 Q698,227 698,357 Q698,482 616.5,566 Q535,650 412,650 Q289,650 207.5,566 Q126,482 126,357 M412,749 Q364,749 330,777 Q296,805 296,856 L296,871 L351,871 L351,857 Q351,826 368,811 Q385,796 412,796 Q437,796 454.5,811.5 Q472,827 472,858 L472,871 L527,871 L527,856 Q527,805 493,777 Q459,749 412,749"/> 
            <glyph glyph-name="ŏ" unicode="&#x14F;" horiz-adv-x="578" d=" M47,254 Q47,365 124,440 Q201,515 312,515 Q423,515 500.5,440 Q578,365 578,254 Q578,141 500.5,64.5 Q423,-12 312,-12 Q201,-12 124,64.5 Q47,141 47,254 M117,254 Q117,166 173.5,108 Q230,50 312,50 Q394,50 451,108 Q508,166 508,254 Q508,339 451,396.5 Q394,454 312,454 Q230,454 173.5,396.5 Q117,339 117,254 M312,582 Q264,582 230,610 Q196,638 196,689 L196,704 L251,704 L251,690 Q251,659 268,644 Q285,629 312,629 Q337,629 354.5,644.5 Q372,660 372,691 L372,704 L427,704 L427,689 Q427,638 393,610 Q359,582 312,582"/> 
            <glyph glyph-name="Ő" unicode="&#x150;" horiz-adv-x="770" d=" M433,752 L503,871 L580,871 L493,752 M299,752 L364,871 L432,871 L364,752 M54,357 Q54,508 156.5,611.5 Q259,715 412,715 Q566,715 668,612 Q770,509 770,357 Q770,201 668,94.5 Q566,-12 412,-12 Q259,-12 156.5,94.5 Q54,201 54,357 M126,357 Q126,228 207.5,140.5 Q289,53 412,53 Q535,53 616.5,140 Q698,227 698,357 Q698,482 616.5,566 Q535,650 412,650 Q289,650 207.5,566 Q126,482 126,357"/> 
            <glyph glyph-name="ő" unicode="&#x151;" horiz-adv-x="578" d=" M333,585 L403,704 L480,704 L393,585 M199,585 L264,704 L332,704 L264,585 M47,254 Q47,365 124,440 Q201,515 312,515 Q423,515 500.5,440 Q578,365 578,254 Q578,141 500.5,64.5 Q423,-12 312,-12 Q201,-12 124,64.5 Q47,141 47,254 M117,254 Q117,166 173.5,108 Q230,50 312,50 Q394,50 451,108 Q508,166 508,254 Q508,339 451,396.5 Q394,454 312,454 Q230,454 173.5,396.5 Q117,339 117,254"/> 
            <glyph glyph-name="Œ" unicode="&#x152;" horiz-adv-x="898" d=" M55,199 Q55,505 157,608.5 Q259,712 414,712 Q435,712 476.5,707.5 Q518,703 533,703 L880,703 L880,641 L553,641 L553,385 L820,385 L820,323 L553,323 L553,62 L898,62 L898,0 L533,0 Q519,0 477,-5 Q435,-10 414,-10 Q259,-10 55,199 M127,352 Q127,223 207,138 Q287,53 414,53 Q431,53 448.5,55 Q466,57 475,59 L484,61 L484,642 Q452,650 414,650 Q287,650 207,565 Q127,480 127,352"/> 
            <glyph glyph-name="œ" unicode="&#x153;" horiz-adv-x="966" d=" M47,134 Q47,368 124,441.5 Q201,515 311,515 Q386,515 446,479 Q506,443 538,380 L540,380 Q569,444 626,479.5 Q683,515 755,515 Q855,515 910.5,448.5 Q966,382 966,283 L964,249 L578,249 Q582,155 637.5,102.5 Q693,50 773,50 Q858,50 926,110 L957,58 Q922,26 871.5,7 Q821,-12 770,-12 Q692,-12 632,24.5 Q572,61 541,125 L539,125 Q507,61 447,24.5 Q387,-12 311,-12 Q201,-12 47,134 M581,303 L896,303 Q893,378 853,418 Q813,458 754,458 Q689,458 641,417 Q593,376 581,303 M117,340 Q117,162 173.5,106 Q230,50 312,50 Q394,50 451,106.5 Q508,163 508,254 Q508,343 450.5,398.5 Q393,454 312,454 Q231,454 117,340"/> 
            <glyph glyph-name="Ŕ" unicode="&#x154;" horiz-adv-x="585" d=" M268,752 L337,871 L416,871 L329,752 M101,0 L101,703 L314,703 Q398,703 443,683 Q547,633 547,507 Q547,436 510,383 Q473,330 413,313 L413,311 Q421,302 432,283 L585,0 L505,0 L347,296 L170,296 L170,0 M170,358 L337,358 Q400,358 438,398.5 Q476,439 476,505 Q476,547 456.5,579.5 Q437,612 402,628 Q373,641 310,641 L170,641"/> 
            <glyph glyph-name="ŕ" unicode="&#x155;" horiz-adv-x="334" d=" M181,584 L250,703 L329,703 L242,584 M81,0 L81,503 L148,503 L148,410 L144,370 L146,370 Q166,430 208.5,469 Q251,508 307,508 Q322,508 334,505 L334,438 Q328,440 309,440 Q256,440 218,403 Q180,366 164.5,316.5 Q149,267 149,213 L149,0"/> 
            <glyph glyph-name="Ŗ" unicode="&#x156;" horiz-adv-x="585" d=" M287,-63 L352,-63 Q358,-90 358,-112 Q358,-151 335,-202 L279,-202 Q298,-154 298,-121 Q298,-93 287,-63 M101,0 L101,703 L314,703 Q398,703 443,683 Q547,633 547,507 Q547,436 510,383 Q473,330 413,313 L413,311 Q421,302 432,283 L585,0 L505,0 L347,296 L170,296 L170,0 M170,358 L337,358 Q400,358 438,398.5 Q476,439 476,505 Q476,547 456.5,579.5 Q437,612 402,628 Q373,641 310,641 L170,641"/> 
            <glyph glyph-name="ŗ" unicode="&#x157;" horiz-adv-x="334" d=" M84,-63 L149,-63 Q155,-90 155,-112 Q155,-151 132,-202 L76,-202 Q95,-154 95,-121 Q95,-93 84,-63 M81,0 L81,503 L148,503 L148,410 L144,370 L146,370 Q166,430 208.5,469 Q251,508 307,508 Q322,508 334,505 L334,438 Q328,440 309,440 Q256,440 218,403 Q180,366 164.5,316.5 Q149,267 149,213 L149,0"/> 
            <glyph glyph-name="Ř" unicode="&#x158;" horiz-adv-x="585" d=" M263,752 L180,871 L246,871 L300,791 L302,791 L356,871 L422,871 L338,752 M101,0 L101,703 L314,703 Q398,703 443,683 Q547,633 547,507 Q547,436 510,383 Q473,330 413,313 L413,311 Q421,302 432,283 L585,0 L505,0 L347,296 L170,296 L170,0 M170,358 L337,358 Q400,358 438,398.5 Q476,439 476,505 Q476,547 456.5,579.5 Q437,612 402,628 Q373,641 310,641 L170,641"/> 
            <glyph glyph-name="ř" unicode="&#x159;" horiz-adv-x="336" d=" M177,584 L94,703 L160,703 L214,623 L216,623 L270,703 L336,703 L252,584 M81,0 L81,503 L148,503 L148,410 L144,370 L146,370 Q166,430 208.5,469 Q251,508 307,508 Q322,508 334,505 L334,438 Q328,440 309,440 Q256,440 218,403 Q180,366 164.5,316.5 Q149,267 149,213 L149,0"/> 
            <glyph glyph-name="Ś" unicode="&#x15A;" horiz-adv-x="483" d=" M236,752 L305,871 L384,871 L297,752 M47,78 L88,131 Q123,97 171.5,75.5 Q220,54 270,54 Q333,54 372.5,87 Q412,120 412,174 Q412,210 392.5,237.5 Q373,265 342.5,283.5 Q312,302 274.5,318.5 Q237,335 199.5,353 Q162,371 131.5,392.5 Q101,414 81.5,448.5 Q62,483 62,527 Q62,612 125,663.5 Q188,715 283,715 Q396,715 469,647 L435,589 Q406,616 364,632.5 Q322,649 280,649 Q218,649 175.5,617 Q133,585 133,531 Q133,497 152.5,470.5 Q172,444 202.5,427 Q233,410 270.5,394 Q308,378 345.5,360 Q383,342 413.5,320 Q444,298 463.5,262.5 Q483,227 483,181 Q483,97 425,42.5 Q367,-12 268,-12 Q137,-12 47,78"/> 
            <glyph glyph-name="ś" unicode="&#x15B;" horiz-adv-x="394" d=" M189,585 L258,704 L337,704 L250,585 M37,61 L73,109 Q132,48 225,48 Q269,48 297.5,69.5 Q326,91 326,129 Q326,160 298.5,181.5 Q271,203 231.5,217.5 Q192,232 152.5,249 Q113,266 85.5,297.5 Q58,329 58,375 Q58,441 107,478 Q156,515 229,515 Q326,515 384,460 L352,409 Q331,430 296,442.5 Q261,455 226,455 Q183,455 154,435.5 Q125,416 125,377 Q125,346 152.5,324 Q180,302 220,287.5 Q260,273 299.5,256 Q339,239 366.5,207.5 Q394,176 394,130 Q394,68 346,28 Q298,-12 224,-12 Q107,-12 37,61"/> 
            <glyph glyph-name="Ŝ" unicode="&#x15C;" horiz-adv-x="483" d=" M148,752 L231,871 L306,871 L390,752 L324,752 L270,832 L268,832 L214,752 M47,78 L88,131 Q123,97 171.5,75.5 Q220,54 270,54 Q333,54 372.5,87 Q412,120 412,174 Q412,210 392.5,237.5 Q373,265 342.5,283.5 Q312,302 274.5,318.5 Q237,335 199.5,353 Q162,371 131.5,392.5 Q101,414 81.5,448.5 Q62,483 62,527 Q62,612 125,663.5 Q188,715 283,715 Q396,715 469,647 L435,589 Q406,616 364,632.5 Q322,649 280,649 Q218,649 175.5,617 Q133,585 133,531 Q133,497 152.5,470.5 Q172,444 202.5,427 Q233,410 270.5,394 Q308,378 345.5,360 Q383,342 413.5,320 Q444,298 463.5,262.5 Q483,227 483,181 Q483,97 425,42.5 Q367,-12 268,-12 Q137,-12 47,78"/> 
            </font>
</defs>
</svg>
