<?xml version="1.0" standalone="no"?>
<!DOCTYPE svg PUBLIC "-//W3C//DTD SVG 1.1//EN" "http://www.w3.org/Graphics/SVG/1.1/DTD/svg11.dtd" >
<svg xmlns="http://www.w3.org/2000/svg">
    <defs>
        <font id="MuseoSansCyrl-900">
            <font-face font-family="MuseoSansCyrl-900"
                       units-per-em="1000"
                       ascent="940"
                       descent="-260"
                       bbox="-129 -215 1230 918"
                    />
            <missing-glyph horiz-adv-x="0" />
            
            <glyph glyph-name="!" unicode="&#x21;" horiz-adv-x="244" d=" M80,221 L64,715 L244,715 L228,221 M75,0 L75,150 L233,150 L233,0"/> 
            <glyph glyph-name="&quot;" unicode="&#x22;" horiz-adv-x="375" d=" M253,490 L253,730 L375,730 L375,490 M62,490 L62,730 L184,730 L184,490"/> 
            <glyph glyph-name="#" unicode="&#x23;" horiz-adv-x="672" d=" M103,0 L134,180 L33,180 L53,300 L154,300 L171,395 L72,395 L92,515 L191,515 L226,715 L360,715 L325,515 L433,515 L468,715 L602,715 L567,515 L672,515 L652,395 L547,395 L530,300 L633,300 L613,180 L510,180 L479,0 L345,0 L376,180 L268,180 L237,0 M288,300 L396,300 L413,395 L305,395"/> 
            <glyph glyph-name="$" unicode="&#x24;" horiz-adv-x="555" d=" M42,90 L134,223 Q168,192 215,170.5 Q262,149 305,149 Q336,149 358,162.5 Q380,176 380,206 Q380,227 346.5,246.5 Q313,266 265,285.5 Q217,305 169.5,331 Q122,357 88.5,402.5 Q55,448 55,508 Q55,590 108,647.5 Q161,705 246,721 L246,815 L355,815 L355,724 Q463,713 538,646 L464,503 Q432,530 389,548 Q346,566 306,566 Q275,566 252.5,552 Q230,538 230,510 Q230,487 263.5,468 Q297,449 344.5,430.5 Q392,412 440,387.5 Q488,363 521.5,317 Q555,271 555,210 Q555,128 501.5,67.5 Q448,7 355,-8 L355,-99 L246,-99 L246,-8 Q118,11 42,90"/> 
            <glyph glyph-name="%" unicode="&#x25;" horiz-adv-x="823" d=" M215,382 Q139,382 86.5,432 Q34,482 34,554 Q34,625 87,676 Q140,727 215,727 Q290,727 343,676 Q396,625 396,554 Q396,482 343,432 Q290,382 215,382 M74,0 L626,715 L778,715 L226,0 M192,502 Q238,502 254,517.5 Q270,533 270,555 Q270,576 253.5,591.5 Q237,607 215,607 Q193,607 176.5,591.5 Q160,576 160,555 Q160,533 192,502 M461,160 Q461,231 514,282 Q567,333 642,333 Q717,333 770,282 Q823,231 823,160 Q823,88 770,38 Q717,-12 642,-12 Q566,-12 513.5,38 Q461,88 461,160 M587,161 Q587,139 603,123.5 Q619,108 642,108 Q665,108 681,123.5 Q697,139 697,161 Q697,182 680.5,197.5 Q664,213 642,213 Q620,213 603.5,197.5 Q587,182 587,161"/> 
            <glyph glyph-name="&amp;" unicode="&#x26;" horiz-adv-x="672" d=" M44,207 Q44,262 75.5,309.5 Q107,357 158,378 L158,380 Q119,399 96.5,441 Q74,483 74,534 Q74,631 142.5,679 Q211,727 310,727 Q355,727 413,715 L373,578 Q357,582 334,582 Q298,582 274.5,563 Q251,544 251,508 Q251,479 270.5,459 Q290,439 324,439 L411,439 L411,527 L583,527 L583,439 L672,439 L672,289 L583,289 L583,220 Q583,120 510,54 Q437,-12 310,-12 Q190,-12 117,50.5 Q44,113 44,207 M223,218 Q223,189 248,168 Q273,147 310,147 Q358,147 384.5,170 Q411,193 411,230 L411,289 L313,289 Q223,289 223,218"/> 
            <glyph glyph-name="'" unicode="&#x27;" horiz-adv-x="187" d=" M62,490 L62,730 L187,730 L187,490"/> 
            <glyph glyph-name="(" unicode="&#x28;" horiz-adv-x="306" d=" M164,-95 Q40,101 40,347 Q40,559 164,750 L306,750 Q193,561 193,347 Q193,120 306,-95"/> 
            <glyph glyph-name=")" unicode="&#x29;" horiz-adv-x="292" d=" M26,-95 Q139,120 139,347 Q139,561 26,750 L168,750 Q292,559 292,347 Q292,101 168,-95"/> 
            <glyph glyph-name="*" unicode="&#x2A;" horiz-adv-x="461" d=" M191,309 L69,397 L144,480 L144,482 L34,505 L80,648 L182,603 L171,715 L323,715 L311,603 L414,649 L461,506 L350,483 L350,481 L426,398 L304,309 L248,406 L246,406"/> 
            <glyph glyph-name="+" unicode="&#x2B;" horiz-adv-x="573" d=" M27,222 L27,352 L232,352 L232,575 L368,575 L368,352 L573,352 L573,222 L368,222 L368,0 L232,0 L232,222"/> 
            <glyph glyph-name="," unicode="&#x2C;" horiz-adv-x="251" d=" M11,-111 L86,166 L251,166 L138,-111"/> 
            <glyph glyph-name="-" unicode="&#x2D;" horiz-adv-x="373" d=" M59,212 L59,362 L373,362 L373,212"/> 
            <glyph glyph-name="." unicode="&#x2E;" horiz-adv-x="223" d=" M59,0 L59,164 L223,164 L223,0"/> 
            <glyph glyph-name="/" unicode="&#x2F;" horiz-adv-x="426" d=" M26,-42 L282,750 L426,750 L170,-42"/> 
            <glyph glyph-name="0" unicode="&#x30;" horiz-adv-x="587" d=" M392,-12 Q244,-12 190.5,16.5 Q137,45 107,97 Q77,149 63,214 Q49,279 49,359 Q49,439 63,503.5 Q77,568 107,619.5 Q137,671 190.5,699 Q244,727 318,727 Q392,727 445.5,699 Q499,671 529,619.5 Q559,568 573,503.5 Q587,439 587,359 Q587,279 573,214 Q559,149 529,97 Q499,45 392,-12 M229,148 Q407,148 407,359 Q407,567 318,567 Q229,567 229,359"/> 
            <glyph glyph-name="1" unicode="&#x31;" horiz-adv-x="531" d=" M55,0 L55,150 L207,150 L207,448 L208,503 L206,503 Q197,483 178,465 L135,426 L34,534 L227,715 L378,715 L378,150 L531,150 L531,0"/> 
            <glyph glyph-name="2" unicode="&#x32;" horiz-adv-x="550" d=" M55,0 Q47,45 47,77 Q47,139 70,192 Q93,245 127,279 Q161,313 201.5,344 Q242,375 276,396.5 Q310,418 333,442.5 Q356,467 356,491 Q356,526 333,544 Q310,562 279,562 Q246,562 218,540 Q190,518 173,486 L43,573 Q78,641 141.5,684 Q205,727 295,727 Q393,727 466,670.5 Q539,614 539,508 Q539,446 509,395 Q479,344 436,311.5 Q393,279 350,252.5 Q307,226 275,200.5 Q243,175 241,150 L550,150 L550,0"/> 
            <glyph glyph-name="3" unicode="&#x33;" horiz-adv-x="539" d=" M30,82 L114,217 Q180,153 261,153 Q308,153 335.5,173.5 Q363,194 363,224 Q363,303 230,303 L180,303 L143,388 L237,501 Q252,519 267.5,536 Q283,553 291,560 L299,568 L299,570 Q276,565 231,565 L60,565 L60,715 L511,715 L511,606 L366,439 Q445,422 492,365 Q539,308 539,232 Q539,132 469.5,60 Q400,-12 274,-12 Q123,-12 30,82"/> 
            <glyph glyph-name="4" unicode="&#x34;" horiz-adv-x="599" d=" M24,173 L24,279 L300,715 L514,715 L514,318 L599,318 L599,173 L514,173 L514,0 L341,0 L341,173 M202,318 L341,318 L341,478 L347,558 L345,558 Q330,514 310,484 L202,320"/> 
            <glyph glyph-name="5" unicode="&#x35;" horiz-adv-x="546" d=" M37,82 L121,217 Q189,153 266,153 Q305,153 335.5,176.5 Q366,200 366,241 Q366,282 334,306 Q302,330 252,330 Q204,330 156,306 L63,341 L92,715 L492,715 L492,565 L244,565 L240,499 L236,471 L238,471 Q257,478 290,478 Q412,478 479,411.5 Q546,345 546,243 Q546,132 472,60 Q398,-12 281,-12 Q135,-12 37,82"/> 
            <glyph glyph-name="6" unicode="&#x36;" horiz-adv-x="579" d=" M45,330 Q45,404 67.5,474 Q90,544 131.5,601 Q173,658 239.5,692.5 Q306,727 386,727 Q479,727 544,696 L497,546 Q484,553 453,560 Q422,567 399,567 Q284,567 245,449 L247,449 Q260,458 290,466 Q320,474 345,474 Q451,474 515,400.5 Q579,327 579,229 Q579,132 512.5,60 Q446,-12 335,-12 Q217,-12 131,77 Q45,166 45,330 M335,148 Q367,148 387,171.5 Q407,195 407,228 Q407,271 380,302 Q353,333 299,333 Q225,333 225,290 Q225,230 260,189 Q295,148 335,148"/> 
            <glyph glyph-name="7" unicode="&#x37;" horiz-adv-x="546" d=" M63,0 L316,501 Q327,523 337.5,539 Q348,555 353,560 L358,566 L358,568 Q352,565 316,565 L33,565 L33,715 L546,715 L546,593 L246,0"/> 
            <glyph glyph-name="8" unicode="&#x38;" horiz-adv-x="573" d=" M43,210 Q43,250 63,289.5 Q83,329 102.5,349 Q122,369 142,384 Q77,442 77,521 Q77,607 138,667 Q199,727 317,727 Q421,727 490,671.5 Q559,616 559,520 Q559,441 489,356 Q573,298 573,206 Q573,117 503,52.5 Q433,-12 308,-12 Q184,-12 113.5,53.5 Q43,119 43,210 M362,419 Q388,461 388,507 Q388,537 368,555 Q348,573 313,573 Q281,573 264.5,557.5 Q248,542 248,517 Q248,485 276.5,464 Q305,443 362,419 M222,225 Q222,190 247,166 Q272,142 308,142 Q348,142 371,161 Q394,180 394,215 Q394,222 392,228 Q390,234 385,240 Q380,246 375.5,251 Q371,256 361.5,262 Q352,268 345.5,272 Q339,276 326.5,282 Q314,288 306.5,292 Q299,296 284,302.5 Q269,309 261,313 Q222,272 222,225"/> 
            <glyph glyph-name="9" unicode="&#x39;" horiz-adv-x="570" d=" M71,19 L118,169 Q167,148 216,148 Q331,148 370,266 L368,266 Q356,256 326,248.5 Q296,241 270,241 Q164,241 100,314.5 Q36,388 36,486 Q36,583 102.5,655 Q169,727 280,727 Q398,727 484,638 Q570,549 570,385 Q570,311 547.5,241 Q525,171 483.5,114 Q442,57 375.5,22.5 Q309,-12 229,-12 Q136,-12 71,19 M316,382 Q390,382 390,425 Q390,485 355,526 Q320,567 280,567 Q248,567 228,543.5 Q208,520 208,487 Q208,444 235,413 Q262,382 316,382"/> 
            <glyph glyph-name=":" unicode="&#x3A;" horiz-adv-x="223" d=" M59,351 L59,515 L223,515 L223,351 M59,0 L59,164 L223,164 L223,0"/> 
            <glyph glyph-name=";" unicode="&#x3B;" horiz-adv-x="249" d=" M88,351 L88,515 L246,515 L246,351 M18,-111 L83,166 L249,166 L146,-111"/> 
            <glyph glyph-name="&lt;" unicode="&#x3C;" horiz-adv-x="538" d=" M34,234 L34,341 L538,564 L538,419 L208,288 L208,286 L538,156 L538,11"/> 
            <glyph glyph-name="=" unicode="&#x3D;" horiz-adv-x="553" d=" M47,337 L47,467 L553,467 L553,337 M47,107 L47,237 L553,237 L553,107"/> 
            <glyph glyph-name="&gt;" unicode="&#x3E;" horiz-adv-x="565" d=" M61,11 L61,156 L391,286 L391,288 L61,419 L61,564 L565,341 L565,234"/> 
            <glyph glyph-name="?" unicode="&#x3F;" horiz-adv-x="472" d=" M135,221 L135,271 Q135,308 151,339.5 Q167,371 190.5,391.5 Q214,412 237,430.5 Q260,449 276,470 Q292,491 292,514 Q292,539 271,556 Q250,573 221,573 Q175,573 126,530 L30,647 Q113,730 239,730 Q331,730 401.5,677.5 Q472,625 472,534 Q472,489 454.5,451.5 Q437,414 411.5,390.5 Q386,367 361,346.5 Q336,326 318.5,303.5 Q301,281 301,257 L301,221 M139,0 L139,150 L297,150 L297,0"/> 
            <glyph glyph-name="@" unicode="&#x40;" horiz-adv-x="811" d=" M46,80 Q46,398 158.5,506.5 Q271,615 439,615 Q595,615 666,548.5 Q737,482 737,375 L737,177 L811,177 L811,58 L528,58 Q422,58 361.5,112 Q301,166 301,240 Q301,312 360.5,364 Q420,416 528,416 L577,416 Q577,446 535.5,463 Q494,480 442,480 Q347,480 281,406.5 Q215,333 215,239 Q215,138 282,69 Q349,0 467,0 L467,-130 Q275,-130 46,80 M472,273 Q472,215 489,196 Q506,177 538,177 L577,177 L577,311 L540,311 Q507,311 472,273"/> 
            <glyph glyph-name="A" unicode="&#x41;" horiz-adv-x="667" d=" M-3,0 L240,715 L424,715 L667,0 L487,0 L443,150 L220,150 L177,0 M261,290 L402,290 L362,429 L333,552 L331,552 Q315,474 302,429"/> 
            <glyph glyph-name="B" unicode="&#x42;" horiz-adv-x="610" d=" M75,0 L75,715 L338,715 Q448,715 514.5,666.5 Q581,618 581,528 Q581,482 559,440.5 Q537,399 498,376 L498,374 Q555,357 582.5,311.5 Q610,266 610,213 Q610,104 533,52 Q456,0 338,0 M250,438 L340,438 Q371,438 387,457 Q403,476 403,504 Q403,531 386.5,548 Q370,565 337,565 L250,565 M250,150 L355,150 Q391,150 411,171.5 Q431,193 431,225 Q431,257 412,277.5 Q393,298 356,298 L250,298"/> 
            <glyph glyph-name="C" unicode="&#x43;" horiz-adv-x="700" d=" M37,359 Q37,517 142.5,622 Q248,727 412,727 Q487,727 558,701.5 Q629,676 680,626 L599,494 Q563,526 514.5,546.5 Q466,567 420,567 Q320,567 269,507.5 Q218,448 218,363 Q218,276 270.5,212 Q323,148 420,148 Q522,148 610,236 L700,108 Q584,-12 412,-12 Q242,-12 139.5,92.5 Q37,197 37,359"/> 
            <glyph glyph-name="D" unicode="&#x44;" horiz-adv-x="698" d=" M75,0 L75,715 L329,715 Q499,715 598.5,620.5 Q698,526 698,359 Q698,191 598.5,95.5 Q499,0 329,0 M250,150 L322,150 Q414,150 465.5,204 Q517,258 517,359 Q517,459 465,512 Q413,565 322,565 L250,565"/> 
            <glyph glyph-name="E" unicode="&#x45;" horiz-adv-x="537" d=" M75,0 L75,715 L523,715 L523,565 L250,565 L250,435 L468,435 L468,285 L250,285 L250,150 L537,150 L537,0"/> 
            <glyph glyph-name="F" unicode="&#x46;" horiz-adv-x="513" d=" M75,0 L75,715 L513,715 L513,565 L250,565 L250,415 L468,415 L468,265 L250,265 L250,0"/> 
            <glyph glyph-name="G" unicode="&#x47;" horiz-adv-x="723" d=" M37,359 Q37,516 143.5,621.5 Q250,727 412,727 Q579,727 687,632 L603,501 Q572,529 523,548 Q474,567 429,567 Q323,567 270.5,509.5 Q218,452 218,365 Q218,266 277.5,207 Q337,148 423,148 Q501,148 568,200 L568,255 L467,255 L467,404 L723,404 L723,0 L577,0 L577,20 L578,50 L576,50 Q544,22 492.5,5 Q441,-12 388,-12 Q244,-12 140.5,89 Q37,190 37,359"/> 
            <glyph glyph-name="H" unicode="&#x48;" horiz-adv-x="685" d=" M75,0 L75,715 L250,715 L250,429 L510,429 L510,715 L685,715 L685,0 L510,0 L510,280 L250,280 L250,0"/> 
            <glyph glyph-name="I" unicode="&#x49;" horiz-adv-x="250" d=" M75,0 L75,715 L250,715 L250,0"/> 
            <glyph glyph-name="J" unicode="&#x4A;" horiz-adv-x="497" d=" M18,220 L18,272 L193,272 L193,234 Q193,148 258,148 Q288,148 305,167 Q322,186 322,224 L322,565 L130,565 L130,715 L497,715 L497,220 Q497,109 426,48.5 Q355,-12 258,-12 Q160,-12 89,49 Q18,110 18,220"/> 
            <glyph glyph-name="K" unicode="&#x4B;" horiz-adv-x="669" d=" M75,0 L75,715 L250,715 L250,439 L322,439 L470,715 L658,715 L465,373 L465,371 L669,0 L473,0 L322,290 L250,290 L250,0"/> 
            <glyph glyph-name="L" unicode="&#x4C;" horiz-adv-x="542" d=" M75,0 L75,715 L250,715 L250,150 L542,150 L542,0"/> 
            <glyph glyph-name="M" unicode="&#x4D;" horiz-adv-x="826" d=" M47,0 L106,715 L296,715 L400,413 L436,295 L438,295 Q458,367 474,413 L578,715 L768,715 L826,0 L651,0 L629,322 Q627,346 627,376 Q627,406 628,424 L629,442 L627,442 Q603,367 587,322 L512,115 L362,115 L287,322 L247,442 L245,442 Q249,376 245,322 L223,0"/> 
            <glyph glyph-name="N" unicode="&#x4E;" horiz-adv-x="679" d=" M75,0 L75,715 L252,715 L450,381 Q462,360 477,329.5 Q492,299 501,279 L510,259 L512,259 Q504,336 504,381 L504,715 L679,715 L679,0 L503,0 L304,333 Q292,354 277,384.5 Q262,415 253,435 L244,455 L242,455 Q250,378 250,333 L250,0"/> 
            <glyph glyph-name="O" unicode="&#x4F;" horiz-adv-x="784" d=" M36,362 Q36,518 141,622.5 Q246,727 410,727 Q574,727 679,622.5 Q784,518 784,362 Q784,202 679,95 Q574,-12 410,-12 Q246,-12 141,95 Q36,202 36,362 M217,362 Q217,270 271.5,209 Q326,148 410,148 Q494,148 548.5,209 Q603,270 603,362 Q603,450 548.5,508.5 Q494,567 410,567 Q326,567 271.5,508.5 Q217,450 217,362"/> 
            <glyph glyph-name="P" unicode="&#x50;" horiz-adv-x="605" d=" M75,0 L75,715 L372,715 Q476,715 540.5,646 Q605,577 605,469 Q605,360 540.5,290.5 Q476,221 372,221 L250,221 L250,0 M250,371 L336,371 Q380,371 403.5,398 Q427,425 427,469 Q427,513 404,539 Q381,565 339,565 L250,565"/> 
            <glyph glyph-name="Q" unicode="&#x51;" horiz-adv-x="788" d=" M36,362 Q36,518 141,622.5 Q246,727 410,727 Q574,727 679,622.5 Q784,518 784,362 Q784,251 713,150 L788,89 L689,-22 L616,47 Q526,-12 410,-12 Q246,-12 141,95 Q36,202 36,362 M217,362 Q217,270 271.5,209 Q326,148 410,148 Q456,148 488,164 L415,228 L513,339 L584,270 Q603,314 603,362 Q603,450 548,508.5 Q493,567 410,567 Q326,567 271.5,508.5 Q217,450 217,362"/> 
            <glyph glyph-name="R" unicode="&#x52;" horiz-adv-x="654" d=" M75,0 L75,715 L324,715 Q419,715 463,698 Q525,674 560,620.5 Q595,567 595,490 Q595,430 567,375.5 Q539,321 488,295 L488,293 Q498,280 515,250 L654,0 L459,0 L332,241 L250,241 L250,0 M250,391 L326,391 Q369,391 393,414 Q417,437 417,479 Q417,538 375,555 Q352,565 309,565 L250,565"/> 
            <glyph glyph-name="S" unicode="&#x53;" horiz-adv-x="539" d=" M26,90 L118,223 Q152,193 199,171 Q246,149 290,149 Q325,149 344.5,163 Q364,177 364,199 Q364,222 340.5,241.5 Q317,261 282,274 Q247,287 206,307.5 Q165,328 130,351 Q95,374 71.5,414.5 Q48,455 48,508 Q48,606 120.5,666.5 Q193,727 307,727 Q440,727 531,646 L457,503 Q426,530 383,548 Q340,566 299,566 Q261,566 242,552 Q223,538 223,515 Q223,492 246.5,473 Q270,454 305,441.5 Q340,429 381,409.5 Q422,390 457,367.5 Q492,345 515.5,304.5 Q539,264 539,211 Q539,116 471.5,52 Q404,-12 285,-12 Q213,-12 144.5,14 Q76,40 26,90"/> 
            <glyph glyph-name="T" unicode="&#x54;" horiz-adv-x="621" d=" M229,0 L229,565 L12,565 L12,715 L621,715 L621,565 L404,565 L404,0"/> 
            <glyph glyph-name="U" unicode="&#x55;" horiz-adv-x="665" d=" M67,263 L67,715 L242,715 L242,263 Q242,208 275.5,178 Q309,148 366,148 Q423,148 456.5,178 Q490,208 490,263 L490,715 L665,715 L665,263 Q665,141 583,64.5 Q501,-12 367,-12 Q232,-12 149.5,64.5 Q67,141 67,263"/> 
            <glyph glyph-name="V" unicode="&#x56;" horiz-adv-x="681" d=" M247,0 L-6,715 L184,715 L310,308 Q316,288 323,259 Q330,230 334,212 L337,193 L339,193 Q352,263 366,308 L494,715 L681,715 L429,0"/> 
            <glyph glyph-name="W" unicode="&#x57;" horiz-adv-x="970" d=" M187,0 L13,715 L197,715 L287,268 Q291,248 293.5,229.5 Q296,211 296,202 L296,193 L298,193 Q299,224 310,268 L420,715 L561,715 L668,268 Q673,248 676,229.5 Q679,211 680,202 L680,193 L682,193 Q682,224 691,268 L789,715 L970,715 L789,0 L594,0 L504,361 L490,445 L488,445 Q485,407 474,361 L384,0"/> 
            <glyph glyph-name="X" unicode="&#x58;" horiz-adv-x="652" d=" M8,0 L225,355 L7,715 L206,715 L284,568 L328,476 L330,476 Q349,522 374,568 L453,715 L652,715 L433,355 L651,0 L456,0 L374,150 L330,239 L328,239 Q309,195 284,150 L202,0"/> 
            <glyph glyph-name="Y" unicode="&#x59;" horiz-adv-x="637" d=" M226,0 L226,293 L-10,715 L189,715 L270,543 L313,440 L315,440 Q335,494 358,543 L438,715 L637,715 L401,293 L401,0"/> 
            <glyph glyph-name="Z" unicode="&#x5A;" horiz-adv-x="595" d=" M37,0 L37,110 L313,501 Q327,521 340.5,537 Q354,553 361,560 L368,566 L368,568 Q345,565 313,565 L50,565 L50,715 L590,715 L590,607 L313,214 Q299,194 285.5,178 Q272,162 265,156 L258,149 L258,147 Q281,150 313,150 L595,150 L595,0"/> 
            <glyph glyph-name="[" unicode="&#x5B;" horiz-adv-x="316" d=" M70,-95 L70,750 L316,750 L316,630 L214,630 L214,25 L316,25 L316,-95"/> 
            <glyph glyph-name="\" unicode="&#x5C;" horiz-adv-x="426" d=" M282,-42 L26,750 L170,750 L426,-42"/> 
            <glyph glyph-name="]" unicode="&#x5D;" horiz-adv-x="282" d=" M36,25 L138,25 L138,630 L36,630 L36,750 L282,750 L282,-95 L36,-95"/> 
            <glyph glyph-name="^" unicode="&#x5E;" horiz-adv-x="571" d=" M58,241 L261,715 L368,715 L571,241 L426,241 L314,541 L203,241"/> 
            <glyph glyph-name="_" unicode="&#x5F;" horiz-adv-x="607" d=" M11,0 L607,0 L607,-130 L11,-130"/> 
            <glyph glyph-name="`" unicode="&#x60;" horiz-adv-x="368" d=" M234,761 L116,911 L287,911 L368,761"/> 
            <glyph glyph-name="a" unicode="&#x61;" horiz-adv-x="501" d=" M22,145 Q22,194 49,230 Q76,266 120.5,285 Q165,304 213,312.5 Q261,321 313,321 L328,321 L328,330 Q328,387 255,387 Q187,387 113,338 L53,460 Q88,487 149.5,507 Q211,527 271,527 Q378,527 439.5,471 Q501,415 501,317 L501,0 L343,0 L343,31 L345,63 L343,63 Q318,28 276.5,8 Q235,-12 190,-12 Q116,-12 69,33 Q22,78 22,145 M193,161 Q193,142 206,129.5 Q219,117 242,117 Q278,117 304,146 Q330,175 330,208 L330,222 L314,222 Q266,222 229.5,207.5 Q193,193 193,161"/> 
            <glyph glyph-name="b" unicode="&#x62;" horiz-adv-x="602" d=" M58,0 L58,715 L231,715 L231,516 L229,472 L231,472 Q253,497 291.5,512 Q330,527 370,527 Q475,527 538.5,452.5 Q602,378 602,257 Q602,136 534,62 Q466,-12 362,-12 Q269,-12 218,49 L216,49 Q217,36 217,20 L217,0 M226,254 Q226,204 252.5,167.5 Q279,131 327,131 Q370,131 399,164 Q428,197 428,254 Q428,311 400,346 Q372,381 327,381 Q284,381 255,349 Q226,317 226,254"/> 
            <glyph glyph-name="c" unicode="&#x63;" horiz-adv-x="537" d=" M29,258 Q29,368 106.5,447.5 Q184,527 316,527 Q374,527 429.5,507.5 Q485,488 521,449 L448,333 Q396,383 327,383 Q269,383 236.5,346.5 Q204,310 204,260 Q204,209 238,170.5 Q272,132 333,132 Q402,132 474,194 L537,73 Q499,34 439.5,11 Q380,-12 316,-12 Q184,-12 106.5,67 Q29,146 29,258"/> 
            <glyph glyph-name="d" unicode="&#x64;" horiz-adv-x="575" d=" M31,137 Q31,379 96.5,453 Q162,527 266,527 Q360,527 401,486 L403,486 Q402,496 402,509 L402,715 L575,715 L575,0 L413,0 L413,34 L414,63 L412,63 Q363,-12 263,-12 Q158,-12 31,137 M205,315 Q205,201 233,166 Q261,131 306,131 Q349,131 378,163 Q407,195 407,258 Q407,308 380.5,344.5 Q354,381 306,381 Q263,381 205,315"/> 
            <glyph glyph-name="e" unicode="&#x65;" horiz-adv-x="535" d=" M29,258 Q29,374 102,450.5 Q175,527 297,527 Q408,527 471.5,457.5 Q535,388 535,278 Q535,260 531,224 L206,224 Q215,179 248.5,155.5 Q282,132 326,132 Q390,132 468,184 L532,63 Q491,28 431.5,8 Q372,-12 312,-12 Q181,-12 105,68 Q29,148 29,258 M210,323 L364,323 Q364,356 344.5,378 Q325,400 293,400 Q227,400 210,323"/> 
            <glyph glyph-name="f" unicode="&#x66;" horiz-adv-x="383" d=" M95,0 L95,371 L32,371 L32,506 L95,506 L95,527 Q95,575 112,611.5 Q129,648 153.5,668 Q178,688 212.5,700 Q247,712 274.5,715.5 Q302,719 331,719 Q365,719 383,716 L383,570 Q375,572 355,572 Q268,572 268,522 L268,506 L363,506 L363,371 L268,371 L268,0"/> 
            <glyph glyph-name="g" unicode="&#x67;" horiz-adv-x="567" d=" M130,-33 Q198,-66 275,-66 Q394,-66 394,33 L394,50 L395,69 L393,69 Q348,15 264,15 Q154,15 93,91 Q32,167 32,274 Q32,380 92,453.5 Q152,527 263,527 Q353,527 403,477 L406,477 Q405,483 405,489 L405,515 L567,515 L567,47 Q567,-21 542,-72 Q517,-123 474,-152.5 Q431,-182 381.5,-196 Q332,-210 276,-210 Q169,-210 81,-164 M206,280 Q206,228 231,193.5 Q256,159 305,159 Q345,159 371.5,184.5 Q398,210 398,272 Q398,383 298,383 Q254,383 230,354.5 Q206,326 206,280"/> 
            <glyph glyph-name="h" unicode="&#x68;" horiz-adv-x="573" d=" M58,0 L58,715 L231,715 L231,489 L229,445 L231,445 Q253,483 295,505 Q337,527 388,527 Q573,527 573,334 L573,0 L400,0 L400,302 Q400,370 343,370 Q289,370 260,332 Q231,294 231,232 L231,0"/> 
            <glyph glyph-name="i" unicode="&#x69;" horiz-adv-x="231" d=" M60,580 L60,715 L229,715 L229,580 M58,0 L58,515 L231,515 L231,0"/> 
            <glyph glyph-name="j" unicode="&#x6A;" horiz-adv-x="231" d=" M60,580 L60,715 L229,715 L229,580 M58,4 L58,515 L231,515 L231,-13 Q231,-62 213,-99.5 Q195,-137 169.5,-157 Q144,-177 108.5,-189 Q73,-201 45.5,-204.5 Q18,-208 -11,-208 Q-34,-208 -57,-205 L-57,-61 Q-49,-62 -35,-62 Q58,-62 58,4"/> 
            <glyph glyph-name="k" unicode="&#x6B;" horiz-adv-x="591" d=" M58,0 L58,715 L231,715 L231,345 L280,345 L382,515 L570,515 L419,281 L419,279 L591,0 L394,0 L285,200 L231,200 L231,0"/> 
            <glyph glyph-name="l" unicode="&#x6C;" horiz-adv-x="299" d=" M57,190 L57,715 L230,715 L230,213 Q230,175 239.5,161 Q249,147 278,147 Q291,147 299,148 L299,-2 Q263,-5 247,-5 Q207,-5 177.5,1.5 Q148,8 118.5,27 Q89,46 73,87 Q57,128 57,190"/> 
            <glyph glyph-name="m" unicode="&#x6D;" horiz-adv-x="855" d=" M58,0 L58,515 L224,515 L224,470 L222,438 L224,438 Q283,527 377,527 Q481,527 521,440 L523,440 Q545,476 589.5,501.5 Q634,527 688,527 Q764,527 809.5,481 Q855,435 855,334 L855,0 L682,0 L682,305 Q682,370 642,370 Q590,370 566.5,326.5 Q543,283 543,218 L543,0 L370,0 L370,305 Q370,370 330,370 Q276,370 253.5,326 Q231,282 231,218 L231,0"/> 
            <glyph glyph-name="n" unicode="&#x6E;" horiz-adv-x="573" d=" M58,0 L58,515 L224,515 L224,470 L222,438 L224,438 Q277,527 388,527 Q573,527 573,334 L573,0 L400,0 L400,302 Q400,370 343,370 Q288,370 259.5,331 Q231,292 231,233 L231,0"/> 
            <glyph glyph-name="o" unicode="&#x6F;" horiz-adv-x="613" d=" M29,137 Q29,375 113,451 Q197,527 320,527 Q444,527 528.5,451.5 Q613,376 613,256 Q613,137 529,62.5 Q445,-12 321,-12 Q197,-12 29,137 M204,256 Q204,200 238,166 Q272,132 321,132 Q370,132 404,166 Q438,200 438,256 Q438,313 404,348 Q370,383 321,383 Q272,383 238,348 Q204,313 204,256"/> 
            <glyph glyph-name="p" unicode="&#x70;" horiz-adv-x="602" d=" M58,-200 L58,515 L214,515 L214,489 L212,456 L214,456 Q267,527 370,527 Q475,527 538.5,452.5 Q602,378 602,257 Q602,136 534,62 Q466,-12 362,-12 Q288,-12 231,37 L229,37 Q231,19 231,-7 L231,-200 M226,254 Q226,204 252.5,167.5 Q279,131 327,131 Q370,131 399,164 Q428,197 428,254 Q428,311 400,346 Q372,381 327,381 Q284,381 255,349 Q226,317 226,254"/> 
            <glyph glyph-name="q" unicode="&#x71;" horiz-adv-x="575" d=" M31,137 Q31,379 96.5,453 Q162,527 266,527 Q364,527 413,472 L415,472 Q413,483 413,500 L413,515 L575,515 L575,-200 L402,-200 L402,2 L404,46 L402,46 Q352,-12 263,-12 Q158,-12 31,137 M205,315 Q205,201 233,166 Q261,131 306,131 Q349,131 378,163 Q407,195 407,258 Q407,308 380.5,344.5 Q354,381 306,381 Q263,381 205,315"/> 
            <glyph glyph-name="r" unicode="&#x72;" horiz-adv-x="408" d=" M58,0 L58,515 L224,515 L224,428 L222,396 L224,396 Q241,450 286.5,487 Q332,524 388,524 Q396,524 408,522 L408,352 Q399,355 373,355 Q303,355 267,314 Q231,273 231,200 L231,0"/> 
            <glyph glyph-name="s" unicode="&#x73;" horiz-adv-x="441" d=" M19,64 L93,177 Q155,125 233,125 Q280,125 280,152 Q280,167 255,178.5 Q230,190 195,202 Q160,214 124.5,231.5 Q89,249 64,283 Q39,317 39,364 Q39,441 99.5,484 Q160,527 253,527 Q364,527 437,468 L378,348 Q356,366 318.5,378 Q281,390 248,390 Q200,390 200,365 Q200,353 218,342.5 Q236,332 262.5,324.5 Q289,317 320.5,303.5 Q352,290 378.5,273.5 Q405,257 423,226.5 Q441,196 441,157 Q441,83 383.5,35.5 Q326,-12 229,-12 Q104,-12 19,64"/> 
            <glyph glyph-name="t" unicode="&#x74;" horiz-adv-x="376" d=" M88,190 L88,371 L22,371 L22,506 L93,506 L93,654 L261,654 L261,506 L369,506 L369,371 L261,371 L261,213 Q261,147 353,147 Q365,147 376,148 L376,-2 Q337,-5 329,-5 Q305,-5 282.5,-2.5 Q260,0 230.5,7 Q201,14 177.5,28 Q154,42 133,62.5 Q112,83 100,116 Q88,149 88,190"/> 
            <glyph glyph-name="u" unicode="&#x75;" horiz-adv-x="563" d=" M53,181 L53,515 L226,515 L226,213 Q226,145 281,145 Q334,145 362,185.5 Q390,226 390,287 L390,515 L563,515 L563,0 L397,0 L397,45 L399,77 L397,77 Q376,36 332,12 Q288,-12 236,-12 Q152,-12 102.5,33.5 Q53,79 53,181"/> 
            <glyph glyph-name="v" unicode="&#x76;" horiz-adv-x="567" d=" M181,0 L3,515 L185,515 L265,241 L284,152 L286,152 Q295,207 305,241 L384,515 L567,515 L392,0"/> 
            <glyph glyph-name="w" unicode="&#x77;" horiz-adv-x="825" d=" M155,0 L11,515 L193,515 L257,211 L263,157 L265,157 Q267,183 274,211 L345,515 L493,515 L564,211 L572,157 L574,157 Q575,183 581,211 L645,515 L825,515 L681,0 L488,0 L430,238 L420,293 L418,293 Q415,266 408,238 L350,0"/> 
            <glyph glyph-name="x" unicode="&#x78;" horiz-adv-x="543" d=" M11,0 L173,255 L7,515 L202,515 L258,400 L274,366 L276,366 Q286,387 292,400 L348,515 L543,515 L378,255 L540,0 L350,0 L288,116 L276,142 L274,142 Q267,125 262,116 L201,0"/> 
            <glyph glyph-name="y" unicode="&#x79;" horiz-adv-x="554" d=" M63,-47 Q91,-66 116,-66 Q178,-66 199,-14 L209,10 L-10,515 L186,515 L262,278 L281,198 L283,198 Q293,247 300,275 L365,515 L554,515 L343,-55 Q313,-135 254.5,-172.5 Q196,-210 128,-210 Q98,-210 68,-201 Q38,-192 23,-183 L8,-174"/> 
            <glyph glyph-name="z" unicode="&#x7A;" horiz-adv-x="507" d=" M34,0 L34,86 L223,323 Q235,337 246,349 Q257,361 262,366 L268,370 L268,372 Q255,370 223,370 L42,370 L42,515 L502,515 L502,428 L314,191 Q303,177 291.5,165.5 Q280,154 274,149 L268,144 L268,142 Q281,145 314,145 L507,145 L507,0"/> 
            <glyph glyph-name="{" unicode="&#x7B;" horiz-adv-x="359" d=" M117,62 L117,160 Q117,202 95.5,227 Q74,252 32,256 L32,406 Q72,410 94.5,435 Q117,460 117,505 L117,593 Q117,643 137.5,678 Q158,713 191.5,728.5 Q225,744 254.5,749.5 Q284,755 316,755 L359,753 L359,629 Q348,631 334,631 Q261,631 261,577 L261,460 Q261,414 237.5,379.5 Q214,345 177,333 L177,331 Q261,301 261,205 L261,78 Q261,24 334,24 L359,26 L359,-98 Q341,-100 316,-100 Q284,-100 254.5,-94.5 Q225,-89 191.5,-73.5 Q158,-58 137.5,-23 Q117,12 117,62"/> 
            <glyph glyph-name="|" unicode="&#x7C;" horiz-adv-x="212" d=" M68,-165 L68,802 L212,802 L212,-165"/> 
            <glyph glyph-name="}" unicode="&#x7D;" horiz-adv-x="363" d=" M36,26 Q47,24 61,24 Q134,24 134,78 L134,205 Q134,248 156,284 Q178,320 218,331 L218,333 Q184,344 159,378 Q134,412 134,460 L134,577 Q134,631 61,631 L36,629 L36,753 Q54,755 79,755 Q111,755 140.5,749.5 Q170,744 203.5,728.5 Q237,713 257.5,678 Q278,643 278,593 L278,505 Q278,464 299.5,436.5 Q321,409 363,406 L363,256 Q324,255 301,227.5 Q278,200 278,160 L278,62 Q278,12 257.5,-23 Q237,-58 203.5,-73.5 Q170,-89 140.5,-94.5 Q111,-100 79,-100 L36,-98"/> 
            <glyph glyph-name="~" unicode="&#x7E;" horiz-adv-x="587" d=" M53,191 Q53,394 227,394 Q258,394 285.5,381.5 Q313,369 328.5,354 Q344,339 363,326.5 Q382,314 399,314 Q424,314 439,333.5 Q454,353 454,390 L587,390 Q587,187 414,187 Q383,187 355.5,199.5 Q328,212 312.5,227 Q297,242 277.5,254.5 Q258,267 241,267 Q217,267 202,247.5 Q187,228 187,191"/> 
            <glyph glyph-name="¡" unicode="&#xA1;" horiz-adv-x="235" d=" M219,294 L235,-200 L55,-200 L71,294 M224,515 L224,365 L66,365 L66,515"/> 
            <glyph glyph-name="¢" unicode="&#xA2;" horiz-adv-x="559" d=" M256,-12 L256,75 Q165,96 104,174.5 Q43,253 43,358 Q43,462 104.5,541 Q166,620 256,641 L256,726 L366,726 L366,641 Q434,626 485.5,580.5 Q537,535 559,469 L405,409 Q394,441 370.5,462.5 Q347,484 315,484 Q278,484 247.5,448 Q217,412 217,358 Q217,298 245.5,265 Q274,232 315,232 Q347,232 371,253.5 Q395,275 405,307 L559,247 Q538,187 487.5,136 Q437,85 366,75 L366,-12"/> 
            <glyph glyph-name="£" unicode="&#xA3;" horiz-adv-x="569" d=" M45,0 L45,150 L100,150 L100,299 L57,299 L57,411 L100,411 L100,511 Q100,606 169,666.5 Q238,727 344,727 Q457,727 540,644 L443,526 Q399,570 349,570 Q320,570 299.5,552.5 Q279,535 279,506 L279,411 L444,411 L444,299 L279,299 L279,150 L569,150 L569,0"/> 
            <glyph glyph-name="¤" unicode="&#xA4;" horiz-adv-x="623" d=" M112,0 L112,142 L47,142 L47,253 L112,253 L112,310 L47,310 L47,444 L112,444 L112,715 L394,715 Q509,715 566,658.5 Q623,602 623,503 Q623,411 556.5,360 Q490,309 384,309 L287,309 L287,253 L531,253 L531,142 L287,142 L287,0 M287,444 L358,444 Q402,444 423,464.5 Q444,485 444,514 Q444,542 423.5,561 Q403,580 361,580 L287,580"/> 
            <glyph glyph-name="¥" unicode="&#xA5;" horiz-adv-x="598" d=" M47,167 L47,263 L210,263 L210,291 L186,340 L47,340 L47,436 L139,436 L2,715 L203,715 L256,572 L299,439 L301,439 Q320,506 344,572 L397,715 L598,715 L460,436 L553,436 L553,340 L413,340 L389,291 L389,263 L553,263 L553,167 L389,167 L389,0 L210,0 L210,167"/> 
            <glyph glyph-name="§" unicode="&#xA7;" horiz-adv-x="495" d=" M143,179 L67,452 Q57,489 57,527 Q57,616 116.5,671.5 Q176,727 288,727 Q345,727 400.5,707 Q456,687 495,650 L421,542 Q366,589 290,589 Q192,589 192,506 Q192,476 202,439 L274,179 M34,15 L103,130 Q162,75 240,75 Q338,75 338,169 Q338,201 325,246 L257,486 L388,486 L462,213 Q472,176 472,138 Q472,49 412.5,-6.5 Q353,-62 241,-62 Q185,-62 128.5,-42 Q72,-22 34,15"/> 
            <glyph glyph-name="¨" unicode="&#xA8;" horiz-adv-x="410" d=" M284,771 L284,911 L410,911 L410,771 M75,771 L75,911 L201,911 L201,771"/> 
            <glyph glyph-name="©" unicode="&#xA9;" horiz-adv-x="765" d=" M43,205 Q43,511 148,618.5 Q253,726 402,726 Q553,726 659,618.5 Q765,511 765,358 Q765,205 659,96.5 Q553,-12 402,-12 Q254,-12 43,205 M156,358 Q156,246 227,168.5 Q298,91 402,91 Q508,91 580.5,168.5 Q653,246 653,358 Q653,469 580.5,546 Q508,623 402,623 Q298,623 227,546 Q156,469 156,358 M232,277 Q232,433 283,487.5 Q334,542 404,542 Q462,542 505,511 Q548,480 566,427 L466,388 Q462,407 445.5,422 Q429,437 408,437 Q385,437 367,414 Q349,391 349,355 Q349,316 365.5,294.5 Q382,273 408,273 Q428,273 444,287 Q460,301 466,322 L566,283 Q553,237 509.5,202.5 Q466,168 404,168 Q334,168 232,277"/> 
            <glyph glyph-name="ª" unicode="&#xAA;" horiz-adv-x="366" d=" M163,383 Q122,383 90,411.5 Q58,440 58,485 Q58,594 239,594 L244,594 L244,602 Q244,638 197,638 Q158,638 117,611 L79,686 Q132,725 217,725 Q287,725 324.5,689 Q362,653 362,590 L362,390 L254,390 L254,429 L252,429 Q228,383 163,383 M198,472 Q216,472 229.5,486 Q243,500 243,517 L243,522 L233,522 Q175,522 175,492 Q175,472 198,472 M61,268 L61,353 L366,353 L366,268"/> 
            <glyph glyph-name="«" unicode="&#xAB;" horiz-adv-x="614" d=" M292,282 L456,488 L614,488 L450,282 L614,77 L456,77 M196,77 L32,282 L196,488 L354,488 L190,282 L354,77"/> 
            <glyph glyph-name="¬" unicode="&#xAC;" horiz-adv-x="553" d=" M47,337 L47,467 L553,467 L553,132 L418,132 L418,337"/> 
            <glyph glyph-name="­" unicode="&#xAD;" horiz-adv-x="373" d=" M59,212 L59,362 L373,362 L373,212"/> 
            <glyph glyph-name="®" unicode="&#xAE;" horiz-adv-x="765" d=" M43,205 Q43,511 148,618.5 Q253,726 402,726 Q553,726 659,618.5 Q765,511 765,358 Q765,205 659,96.5 Q553,-12 402,-12 Q254,-12 43,205 M156,358 Q156,246 227,168.5 Q298,91 402,91 Q508,91 580.5,168.5 Q653,246 653,358 Q653,469 580.5,546 Q508,623 402,623 Q298,623 227,546 Q156,469 156,358 M272,187 L272,534 L435,534 Q491,534 524,503 Q557,472 557,419 Q557,382 537.5,358.5 Q518,335 499,330 L499,328 Q503,325 512,308 L575,187 L457,187 L408,305 L380,305 L380,187 M380,377 L407,377 Q447,377 447,419 Q447,460 409,460 L380,460"/> 
            <glyph glyph-name="¯" unicode="&#xAF;" horiz-adv-x="380" d=" M105,782 L105,894 L380,894 L380,782"/> 
            <glyph glyph-name="°" unicode="&#xB0;" horiz-adv-x="400" d=" M219,385 Q143,385 90.5,435 Q38,485 38,557 Q38,628 91,679 Q144,730 219,730 Q294,730 347,679 Q400,628 400,557 Q400,485 347,435 Q294,385 219,385 M196,505 Q242,505 258,520.5 Q274,536 274,558 Q274,579 257.5,594.5 Q241,610 219,610 Q197,610 180.5,594.5 Q164,579 164,558 Q164,536 196,505"/> 
            <glyph glyph-name="±" unicode="&#xB1;" horiz-adv-x="573" d=" M27,222 L27,352 L232,352 L232,575 L368,575 L368,352 L573,352 L573,222 L368,222 L368,0 L232,0 L232,222 M37,-70 L563,-70 L563,-200 L37,-200"/> 
            <glyph glyph-name="²" unicode="&#xB2;" horiz-adv-x="364" d=" M37,423 Q32,451 32,472 Q32,522 52.5,560 Q73,598 102.5,619.5 Q132,641 161,657.5 Q190,674 210.5,690.5 Q231,707 231,725 Q231,741 218,750 Q205,759 186,759 Q151,759 115,714 L32,785 Q56,825 100.5,849.5 Q145,874 195,874 Q259,874 308.5,837.5 Q358,801 358,731 Q358,684 330.5,647.5 Q303,611 269.5,594.5 Q236,578 206,561 Q176,544 173,531 L364,531 L364,423"/> 
            <glyph glyph-name="³" unicode="&#xB3;" horiz-adv-x="360" d=" M187,413 Q85,413 27,481 L88,571 Q123,528 179,528 Q204,528 218.5,540 Q233,552 233,570 Q233,588 215.5,597 Q198,606 171,606 L134,606 L110,663 L172,732 L196,755 L196,757 Q175,755 162,755 L52,755 L52,864 L346,864 L346,785 L263,694 Q360,670 360,568 Q360,506 314,459.5 Q268,413 187,413"/> 
            <glyph glyph-name="´" unicode="&#xB4;" horiz-adv-x="368" d=" M116,761 L197,911 L368,911 L250,761"/> 
            <glyph glyph-name="µ" unicode="&#xB5;" horiz-adv-x="579" d=" M208,-8 Q216,-56 216,-96 L216,-200 L69,-200 L69,515 L242,515 L242,213 Q242,145 297,145 Q350,145 378,185.5 Q406,226 406,287 L406,515 L579,515 L579,0 L413,0 L413,50 L415,77 L412,77 Q410,73 406.5,67 Q403,61 389.5,46 Q376,31 359.5,19 Q343,7 314,-2.5 Q285,-12 252,-12 Q229,-12 210,-8"/> 
            <glyph glyph-name="¶" unicode="&#xB6;" horiz-adv-x="622" d=" M265,-50 L265,241 Q168,241 100,310 Q32,379 32,479 Q32,579 100,647 Q168,715 265,715 L622,715 L622,565 L385,565 L385,-50 M447,-50 L447,515 L567,515 L567,-50"/> 
            <glyph glyph-name="·" unicode="&#xB7;" horiz-adv-x="217" d=" M59,213 L59,377 L217,377 L217,213"/> 
            <glyph glyph-name="¸" unicode="&#xB8;" horiz-adv-x="336" d=" M164,-82 L199,29 L271,12 L271,5 L261,-36 Q336,-44 336,-116 Q336,-166 302,-188 Q268,-210 219,-210 Q182,-210 148,-201 L148,-114 Q166,-124 193,-124 Q231,-124 231,-101 Q231,-80 190,-80"/> 
            <glyph glyph-name="¹" unicode="&#xB9;" horiz-adv-x="362" d=" M57,423 L57,531 L146,531 L146,674 L149,706 L147,706 Q142,696 136,691 L112,669 L40,748 L164,864 L272,864 L272,531 L362,531 L362,423"/> 
            <glyph glyph-name="º" unicode="&#xBA;" horiz-adv-x="421" d=" M315,385 Q161,385 108.5,432.5 Q56,480 56,555 Q56,630 108.5,677.5 Q161,725 237,725 Q315,725 368,677.5 Q421,630 421,555 Q421,480 315,385 M212,488 Q264,488 282.5,506 Q301,524 301,555 Q301,585 282.5,604 Q264,623 238,623 Q212,623 193.5,604 Q175,585 175,555 Q175,524 212,488 M69,268 L69,353 L407,353 L407,268"/> 
            <glyph glyph-name="»" unicode="&#xBB;" horiz-adv-x="622" d=" M300,77 L464,282 L300,488 L458,488 L622,282 L458,77 M40,77 L204,282 L40,488 L198,488 L362,282 L198,77"/> 
            <glyph glyph-name="¼" unicode="&#xBC;" horiz-adv-x="979" d=" M802,0 L802,87 L605,87 L605,171 L776,441 L926,441 L926,194 L979,194 L979,87 L926,87 L926,0 M724,194 L802,194 L802,284 L806,334 L804,334 Q795,307 783,288 L724,196 M394,0 L275,0 L611,715 L730,715 M53,274 L53,382 L142,382 L142,525 L145,557 L143,557 Q138,547 132,542 L108,520 L36,599 L160,715 L268,715 L268,382 L358,382 L358,274"/> 
            <glyph glyph-name="½" unicode="&#xBD;" horiz-adv-x="967" d=" M396,0 L277,0 L613,715 L732,715 M51,274 L51,382 L140,382 L140,525 L143,557 L141,557 Q136,547 130,542 L106,520 L34,599 L158,715 L266,715 L266,382 L356,382 L356,274 M640,0 Q635,28 635,49 Q635,99 655.5,137 Q676,175 705,196.5 Q734,218 763.5,234.5 Q793,251 813.5,267.5 Q834,284 834,302 Q834,318 821,327 Q808,336 789,336 Q754,336 718,291 L635,362 Q659,402 703.5,426.5 Q748,451 798,451 Q862,451 911.5,414.5 Q961,378 961,308 Q961,261 933.5,224.5 Q906,188 872.5,171.5 Q839,155 809,138 Q779,121 776,108 L967,108 L967,0"/> 
            <glyph glyph-name="¾" unicode="&#xBE;" horiz-adv-x="984" d=" M193,264 Q91,264 33,332 L94,422 Q129,379 185,379 Q210,379 224.5,391 Q239,403 239,421 Q239,439 221.5,448 Q204,457 177,457 L140,457 L116,514 L178,583 L202,606 L202,608 Q181,606 168,606 L58,606 L58,715 L352,715 L352,636 L269,545 Q366,521 366,419 Q366,357 320,310.5 Q274,264 193,264 M399,0 L280,0 L616,715 L735,715 M807,0 L807,87 L610,87 L610,171 L781,441 L931,441 L931,194 L984,194 L984,87 L931,87 L931,0 M729,194 L807,194 L807,284 L811,334 L809,334 Q800,307 788,288 L729,196"/> 
            <glyph glyph-name="¿" unicode="&#xBF;" horiz-adv-x="476" d=" M371,294 L371,244 Q371,207 355,175.5 Q339,144 315.5,123.5 Q292,103 269,84.5 Q246,66 230,45 Q214,24 214,1 Q214,-24 235,-41 Q256,-58 285,-58 Q331,-58 380,-15 L476,-132 Q393,-215 267,-215 Q175,-215 104.5,-162.5 Q34,-110 34,-19 Q34,26 51.5,63.5 Q69,101 94.5,124.5 Q120,148 145,168.5 Q170,189 187.5,211.5 Q205,234 205,258 L205,294 M367,515 L367,365 L209,365 L209,515"/> 
            <glyph glyph-name="À" unicode="&#xC0;" horiz-adv-x="667" d=" M-3,0 L240,715 L424,715 L667,0 L487,0 L443,150 L220,150 L177,0 M261,290 L402,290 L362,429 L333,552 L331,552 Q315,474 302,429 M270,761 L152,911 L323,911 L404,761"/> 
            <glyph glyph-name="Á" unicode="&#xC1;" horiz-adv-x="667" d=" M-3,0 L240,715 L424,715 L667,0 L487,0 L443,150 L220,150 L177,0 M261,290 L402,290 L362,429 L333,552 L331,552 Q315,474 302,429 M260,761 L341,911 L512,911 L394,761"/> 
            <glyph glyph-name="Â" unicode="&#xC2;" horiz-adv-x="667" d=" M-3,0 L240,715 L424,715 L667,0 L487,0 L443,150 L220,150 L177,0 M261,290 L402,290 L362,429 L333,552 L331,552 Q315,474 302,429 M149,761 L248,911 L416,911 L515,761 L380,761 L333,843 L331,843 L284,761"/> 
            <glyph glyph-name="Ã" unicode="&#xC3;" horiz-adv-x="667" d=" M-3,0 L240,715 L424,715 L667,0 L487,0 L443,150 L220,150 L177,0 M261,290 L402,290 L362,429 L333,552 L331,552 Q315,474 302,429 M131,761 Q131,914 259,914 Q288,914 311,899 Q334,884 352,869 Q370,854 385,854 Q422,854 422,911 L534,911 Q534,758 406,758 Q377,758 354,773 Q331,788 313,803 Q295,818 280,818 Q243,818 243,761"/> 
            <glyph glyph-name="Ä" unicode="&#xC4;" horiz-adv-x="667" d=" M-3,0 L240,715 L424,715 L667,0 L487,0 L443,150 L220,150 L177,0 M261,290 L402,290 L362,429 L333,552 L331,552 Q315,474 302,429 M374,771 L374,911 L500,911 L500,771 M165,771 L165,911 L291,911 L291,771"/> 
            <glyph glyph-name="Å" unicode="&#xC5;" horiz-adv-x="667" d=" M-3,0 L240,715 L424,715 L667,0 L487,0 L443,150 L220,150 L177,0 M261,290 L402,290 L362,429 L333,552 L331,552 Q315,474 302,429 M376,747 Q288,747 255.5,769 Q223,791 223,832 Q223,873 255.5,895.5 Q288,918 332,918 Q376,918 409,895.5 Q442,873 442,832 Q442,791 376,747 M316,797 Q348,797 357.5,806.5 Q367,816 367,832 Q367,848 357.5,858 Q348,868 332,868 Q317,868 307.5,858 Q298,848 298,832 Q298,816 316,797"/> 
            <glyph glyph-name="Æ" unicode="&#xC6;" horiz-adv-x="912" d=" M-10,0 L289,715 L899,715 L899,565 L626,565 L626,435 L844,435 L844,285 L626,285 L626,150 L912,150 L912,0 L451,0 L451,288 L283,288 L172,0 M337,428 L451,428 L451,565 L390,565"/> 
            <glyph glyph-name="Ç" unicode="&#xC7;" horiz-adv-x="700" d=" M334,-82 L357,-9 Q210,8 123.5,109.5 Q37,211 37,359 Q37,517 142.5,622 Q248,727 412,727 Q487,727 558,701.5 Q629,676 680,626 L599,494 Q563,526 514.5,546.5 Q466,567 420,567 Q320,567 269,507.5 Q218,448 218,363 Q218,276 270.5,212 Q323,148 420,148 Q522,148 610,236 L700,108 Q594,-2 437,-11 L431,-36 Q506,-44 506,-116 Q506,-166 472,-188 Q438,-210 389,-210 Q352,-210 318,-201 L318,-114 Q336,-124 363,-124 Q401,-124 401,-101 Q401,-80 360,-80"/> 
            <glyph glyph-name="È" unicode="&#xC8;" horiz-adv-x="537" d=" M75,0 L75,715 L523,715 L523,565 L250,565 L250,435 L468,435 L468,285 L250,285 L250,150 L537,150 L537,0 M245,761 L127,911 L298,911 L379,761"/> 
            <glyph glyph-name="É" unicode="&#xC9;" horiz-adv-x="537" d=" M75,0 L75,715 L523,715 L523,565 L250,565 L250,435 L468,435 L468,285 L250,285 L250,150 L537,150 L537,0 M235,761 L316,911 L487,911 L369,761"/> 
            <glyph glyph-name="Ê" unicode="&#xCA;" horiz-adv-x="537" d=" M75,0 L75,715 L523,715 L523,565 L250,565 L250,435 L468,435 L468,285 L250,285 L250,150 L537,150 L537,0 M124,761 L223,911 L391,911 L490,761 L355,761 L308,843 L306,843 L259,761"/> 
            <glyph glyph-name="Ë" unicode="&#xCB;" horiz-adv-x="537" d=" M75,0 L75,715 L523,715 L523,565 L250,565 L250,435 L468,435 L468,285 L250,285 L250,150 L537,150 L537,0 M349,771 L349,911 L475,911 L475,771 M140,771 L140,911 L266,911 L266,771"/> 
            <glyph glyph-name="Ì" unicode="&#xCC;" horiz-adv-x="250" d=" M75,0 L75,715 L250,715 L250,0 M101,761 L-17,911 L154,911 L235,761"/> 
            <glyph glyph-name="Í" unicode="&#xCD;" horiz-adv-x="343" d=" M75,0 L75,715 L250,715 L250,0 M91,761 L172,911 L343,911 L225,761"/> 
            <glyph glyph-name="Î" unicode="&#xCE;" horiz-adv-x="346" d=" M75,0 L75,715 L250,715 L250,0 M-20,761 L79,911 L247,911 L346,761 L211,761 L164,843 L162,843 L115,761"/> 
            <glyph glyph-name="Ï" unicode="&#xCF;" horiz-adv-x="331" d=" M75,0 L75,715 L250,715 L250,0 M205,771 L205,911 L331,911 L331,771 M-4,771 L-4,911 L122,911 L122,771"/> 
            <glyph glyph-name="Ð" unicode="&#xD0;" horiz-adv-x="703" d=" M80,0 L80,284 L23,284 L23,424 L80,424 L80,715 L334,715 Q504,715 603.5,620.5 Q703,526 703,359 Q703,191 603.5,95.5 Q504,0 334,0 M255,150 L327,150 Q419,150 470.5,204 Q522,258 522,359 Q522,459 470,512 Q418,565 327,565 L255,565 L255,424 L359,424 L359,284 L255,284"/> 
            <glyph glyph-name="Ñ" unicode="&#xD1;" horiz-adv-x="679" d=" M75,0 L75,715 L252,715 L450,381 Q462,360 477,329.5 Q492,299 501,279 L510,259 L512,259 Q504,336 504,381 L504,715 L679,715 L679,0 L503,0 L304,333 Q292,354 277,384.5 Q262,415 253,435 L244,455 L242,455 Q250,378 250,333 L250,0 M176,761 Q176,914 304,914 Q333,914 356,899 Q379,884 397,869 Q415,854 430,854 Q467,854 467,911 L579,911 Q579,758 451,758 Q422,758 399,773 Q376,788 358,803 Q340,818 325,818 Q288,818 288,761"/> 
            <glyph glyph-name="Ò" unicode="&#xD2;" horiz-adv-x="784" d=" M36,362 Q36,518 141,622.5 Q246,727 410,727 Q574,727 679,622.5 Q784,518 784,362 Q784,202 679,95 Q574,-12 410,-12 Q246,-12 141,95 Q36,202 36,362 M217,362 Q217,270 271.5,209 Q326,148 410,148 Q494,148 548.5,209 Q603,270 603,362 Q603,450 548.5,508.5 Q494,567 410,567 Q326,567 271.5,508.5 Q217,450 217,362 M348,761 L230,911 L401,911 L482,761"/> 
            <glyph glyph-name="Ó" unicode="&#xD3;" horiz-adv-x="784" d=" M36,362 Q36,518 141,622.5 Q246,727 410,727 Q574,727 679,622.5 Q784,518 784,362 Q784,202 679,95 Q574,-12 410,-12 Q246,-12 141,95 Q36,202 36,362 M217,362 Q217,270 271.5,209 Q326,148 410,148 Q494,148 548.5,209 Q603,270 603,362 Q603,450 548.5,508.5 Q494,567 410,567 Q326,567 271.5,508.5 Q217,450 217,362 M338,761 L419,911 L590,911 L472,761"/> 
            <glyph glyph-name="Ô" unicode="&#xD4;" horiz-adv-x="784" d=" M36,362 Q36,518 141,622.5 Q246,727 410,727 Q574,727 679,622.5 Q784,518 784,362 Q784,202 679,95 Q574,-12 410,-12 Q246,-12 141,95 Q36,202 36,362 M217,362 Q217,270 271.5,209 Q326,148 410,148 Q494,148 548.5,209 Q603,270 603,362 Q603,450 548.5,508.5 Q494,567 410,567 Q326,567 271.5,508.5 Q217,450 217,362 M227,761 L326,911 L494,911 L593,761 L458,761 L411,843 L409,843 L362,761"/> 
            <glyph glyph-name="Õ" unicode="&#xD5;" horiz-adv-x="784" d=" M36,362 Q36,518 141,622.5 Q246,727 410,727 Q574,727 679,622.5 Q784,518 784,362 Q784,202 679,95 Q574,-12 410,-12 Q246,-12 141,95 Q36,202 36,362 M217,362 Q217,270 271.5,209 Q326,148 410,148 Q494,148 548.5,209 Q603,270 603,362 Q603,450 548.5,508.5 Q494,567 410,567 Q326,567 271.5,508.5 Q217,450 217,362 M209,761 Q209,914 337,914 Q366,914 389,899 Q412,884 430,869 Q448,854 463,854 Q500,854 500,911 L612,911 Q612,758 484,758 Q455,758 432,773 Q409,788 391,803 Q373,818 358,818 Q321,818 321,761"/> 
            <glyph glyph-name="Ö" unicode="&#xD6;" horiz-adv-x="784" d=" M36,362 Q36,518 141,622.5 Q246,727 410,727 Q574,727 679,622.5 Q784,518 784,362 Q784,202 679,95 Q574,-12 410,-12 Q246,-12 141,95 Q36,202 36,362 M217,362 Q217,270 271.5,209 Q326,148 410,148 Q494,148 548.5,209 Q603,270 603,362 Q603,450 548.5,508.5 Q494,567 410,567 Q326,567 271.5,508.5 Q217,450 217,362 M452,771 L452,911 L578,911 L578,771 M243,771 L243,911 L369,911 L369,771"/> 
            <glyph glyph-name="×" unicode="&#xD7;" horiz-adv-x="571" d=" M28,92 L210,287 L28,483 L120,575 L299,383 L479,575 L571,483 L388,287 L571,92 L479,0 L299,192 L120,0"/> 
            <glyph glyph-name="Ø" unicode="&#xD8;" horiz-adv-x="784" d=" M104,20 L152,86 Q36,194 36,362 Q36,517 142.5,622 Q249,727 410,727 Q508,727 586,687 L627,743 L697,696 L657,641 Q784,533 784,362 Q784,203 677.5,95.5 Q571,-12 410,-12 Q305,-12 220,36 L174,-28 M256,230 L488,550 Q451,567 410,567 Q329,567 273,508.5 Q217,450 217,362 Q217,285 256,230 M318,172 Q361,148 410,148 Q491,148 547,209 Q603,270 603,362 Q603,443 555,499"/> 
            <glyph glyph-name="Ù" unicode="&#xD9;" horiz-adv-x="665" d=" M67,263 L67,715 L242,715 L242,263 Q242,208 275.5,178 Q309,148 366,148 Q423,148 456.5,178 Q490,208 490,263 L490,715 L665,715 L665,263 Q665,141 583,64.5 Q501,-12 367,-12 Q232,-12 149.5,64.5 Q67,141 67,263 M304,761 L186,911 L357,911 L438,761"/> 
            <glyph glyph-name="Ú" unicode="&#xDA;" horiz-adv-x="665" d=" M67,263 L67,715 L242,715 L242,263 Q242,208 275.5,178 Q309,148 366,148 Q423,148 456.5,178 Q490,208 490,263 L490,715 L665,715 L665,263 Q665,141 583,64.5 Q501,-12 367,-12 Q232,-12 149.5,64.5 Q67,141 67,263 M294,761 L375,911 L546,911 L428,761"/> 
            <glyph glyph-name="Û" unicode="&#xDB;" horiz-adv-x="665" d=" M67,263 L67,715 L242,715 L242,263 Q242,208 275.5,178 Q309,148 366,148 Q423,148 456.5,178 Q490,208 490,263 L490,715 L665,715 L665,263 Q665,141 583,64.5 Q501,-12 367,-12 Q232,-12 149.5,64.5 Q67,141 67,263 M183,761 L282,911 L450,911 L549,761 L414,761 L367,843 L365,843 L318,761"/> 
            <glyph glyph-name="Ü" unicode="&#xDC;" horiz-adv-x="665" d=" M67,263 L67,715 L242,715 L242,263 Q242,208 275.5,178 Q309,148 366,148 Q423,148 456.5,178 Q490,208 490,263 L490,715 L665,715 L665,263 Q665,141 583,64.5 Q501,-12 367,-12 Q232,-12 149.5,64.5 Q67,141 67,263 M408,771 L408,911 L534,911 L534,771 M199,771 L199,911 L325,911 L325,771"/> 
            <glyph glyph-name="Ý" unicode="&#xDD;" horiz-adv-x="637" d=" M226,0 L226,293 L-10,715 L189,715 L270,543 L313,440 L315,440 Q335,494 358,543 L438,715 L637,715 L401,293 L401,0 M242,761 L323,911 L494,911 L376,761"/> 
            <glyph glyph-name="Þ" unicode="&#xDE;" horiz-adv-x="605" d=" M75,0 L75,715 L250,715 L250,609 L372,609 Q476,609 540.5,540 Q605,471 605,363 Q605,254 540.5,184.5 Q476,115 372,115 L250,115 L250,0 M250,265 L336,265 Q380,265 403.5,292 Q427,319 427,363 Q427,407 404,433 Q381,459 339,459 L250,459"/> 
            <glyph glyph-name="ß" unicode="&#xDF;" horiz-adv-x="606" d=" M58,0 L58,527 Q58,621 133,674 Q208,727 313,727 Q407,727 475.5,672.5 Q544,618 544,534 Q544,500 526,471.5 Q508,443 490,419.5 Q472,396 472,374 Q472,358 493,338.5 Q514,319 539,300.5 Q564,282 585,246.5 Q606,211 606,168 Q606,84 550,38.5 Q494,-7 412,-7 Q334,-7 288,14 L288,156 Q338,137 383,137 Q433,137 433,179 Q433,194 412,213 Q391,232 365.5,250 Q340,268 319,300 Q298,332 298,370 Q298,401 316,430 Q334,459 352,484 Q370,509 370,530 Q370,554 353.5,568.5 Q337,583 308,583 Q231,583 231,515 L231,0"/> 
            <glyph glyph-name="à" unicode="&#xE0;" horiz-adv-x="501" d=" M22,145 Q22,194 49,230 Q76,266 120.5,285 Q165,304 213,312.5 Q261,321 313,321 L328,321 L328,330 Q328,387 255,387 Q187,387 113,338 L53,460 Q88,487 149.5,507 Q211,527 271,527 Q378,527 439.5,471 Q501,415 501,317 L501,0 L343,0 L343,31 L345,63 L343,63 Q318,28 276.5,8 Q235,-12 190,-12 Q116,-12 69,33 Q22,78 22,145 M193,161 Q193,142 206,129.5 Q219,117 242,117 Q278,117 304,146 Q330,175 330,208 L330,222 L314,222 Q266,222 229.5,207.5 Q193,193 193,161 M215,565 L97,715 L268,715 L349,565"/> 
            <glyph glyph-name="á" unicode="&#xE1;" horiz-adv-x="501" d=" M22,145 Q22,194 49,230 Q76,266 120.5,285 Q165,304 213,312.5 Q261,321 313,321 L328,321 L328,330 Q328,387 255,387 Q187,387 113,338 L53,460 Q88,487 149.5,507 Q211,527 271,527 Q378,527 439.5,471 Q501,415 501,317 L501,0 L343,0 L343,31 L345,63 L343,63 Q318,28 276.5,8 Q235,-12 190,-12 Q116,-12 69,33 Q22,78 22,145 M193,161 Q193,142 206,129.5 Q219,117 242,117 Q278,117 304,146 Q330,175 330,208 L330,222 L314,222 Q266,222 229.5,207.5 Q193,193 193,161 M204,565 L285,715 L456,715 L338,565"/> 
            <glyph glyph-name="â" unicode="&#xE2;" horiz-adv-x="501" d=" M22,145 Q22,194 49,230 Q76,266 120.5,285 Q165,304 213,312.5 Q261,321 313,321 L328,321 L328,330 Q328,387 255,387 Q187,387 113,338 L53,460 Q88,487 149.5,507 Q211,527 271,527 Q378,527 439.5,471 Q501,415 501,317 L501,0 L343,0 L343,31 L345,63 L343,63 Q318,28 276.5,8 Q235,-12 190,-12 Q116,-12 69,33 Q22,78 22,145 M193,161 Q193,142 206,129.5 Q219,117 242,117 Q278,117 304,146 Q330,175 330,208 L330,222 L314,222 Q266,222 229.5,207.5 Q193,193 193,161 M93,565 L192,715 L360,715 L459,565 L324,565 L277,647 L275,647 L228,565"/> 
            <glyph glyph-name="ã" unicode="&#xE3;" horiz-adv-x="501" d=" M22,145 Q22,194 49,230 Q76,266 120.5,285 Q165,304 213,312.5 Q261,321 313,321 L328,321 L328,330 Q328,387 255,387 Q187,387 113,338 L53,460 Q88,487 149.5,507 Q211,527 271,527 Q378,527 439.5,471 Q501,415 501,317 L501,0 L343,0 L343,31 L345,63 L343,63 Q318,28 276.5,8 Q235,-12 190,-12 Q116,-12 69,33 Q22,78 22,145 M193,161 Q193,142 206,129.5 Q219,117 242,117 Q278,117 304,146 Q330,175 330,208 L330,222 L314,222 Q266,222 229.5,207.5 Q193,193 193,161 M75,565 Q75,718 203,718 Q232,718 255,703 Q278,688 296,673 Q314,658 329,658 Q366,658 366,715 L478,715 Q478,562 350,562 Q321,562 298,577 Q275,592 257,607 Q239,622 224,622 Q187,622 187,565"/> 
            <glyph glyph-name="ä" unicode="&#xE4;" horiz-adv-x="501" d=" M22,145 Q22,194 49,230 Q76,266 120.5,285 Q165,304 213,312.5 Q261,321 313,321 L328,321 L328,330 Q328,387 255,387 Q187,387 113,338 L53,460 Q88,487 149.5,507 Q211,527 271,527 Q378,527 439.5,471 Q501,415 501,317 L501,0 L343,0 L343,31 L345,63 L343,63 Q318,28 276.5,8 Q235,-12 190,-12 Q116,-12 69,33 Q22,78 22,145 M193,161 Q193,142 206,129.5 Q219,117 242,117 Q278,117 304,146 Q330,175 330,208 L330,222 L314,222 Q266,222 229.5,207.5 Q193,193 193,161 M318,575 L318,715 L444,715 L444,575 M109,575 L109,715 L235,715 L235,575"/> 
            <glyph glyph-name="å" unicode="&#xE5;" horiz-adv-x="501" d=" M22,145 Q22,194 49,230 Q76,266 120.5,285 Q165,304 213,312.5 Q261,321 313,321 L328,321 L328,330 Q328,387 255,387 Q187,387 113,338 L53,460 Q88,487 149.5,507 Q211,527 271,527 Q378,527 439.5,471 Q501,415 501,317 L501,0 L343,0 L343,31 L345,63 L343,63 Q318,28 276.5,8 Q235,-12 190,-12 Q116,-12 69,33 Q22,78 22,145 M193,161 Q193,142 206,129.5 Q219,117 242,117 Q278,117 304,146 Q330,175 330,208 L330,222 L314,222 Q266,222 229.5,207.5 Q193,193 193,161 M320,551 Q232,551 199.5,573 Q167,595 167,636 Q167,677 199.5,699.5 Q232,722 276,722 Q320,722 353,699.5 Q386,677 386,636 Q386,595 320,551 M260,601 Q292,601 301.5,610.5 Q311,620 311,636 Q311,652 301.5,662 Q292,672 276,672 Q261,672 251.5,662 Q242,652 242,636 Q242,620 260,601"/> 
            <glyph glyph-name="æ" unicode="&#xE6;" horiz-adv-x="822" d=" M22,154 Q22,198 46,230.5 Q70,263 103.5,280 Q137,297 182.5,307.5 Q228,318 260,320.5 Q292,323 324,323 L328,323 L328,330 Q328,387 252,387 Q187,387 112,338 L52,459 Q88,488 148,507.5 Q208,527 265,527 Q371,527 428,476 L430,476 Q492,527 584,527 Q692,527 757,455.5 Q822,384 822,273 Q822,260 818,224 L493,224 Q502,178 535.5,155 Q569,132 613,132 Q685,132 755,183 L819,63 Q781,29 720,8.5 Q659,-12 599,-12 Q466,-12 392,78 L390,78 Q374,49 325,19 Q276,-11 197,-11 Q123,-11 72.5,34.5 Q22,80 22,154 M497,323 L648,323 Q648,352 630,374.5 Q612,397 584,397 Q516,397 497,323 M196,163 Q196,120 247,120 Q281,120 306,149.5 Q331,179 331,212 L331,224 L314,224 Q268,224 232,208 Q196,192 196,163"/> 
            <glyph glyph-name="ç" unicode="&#xE7;" horiz-adv-x="537" d=" M235,-82 L258,-7 Q151,10 90,84.5 Q29,159 29,258 Q29,368 106.5,447.5 Q184,527 316,527 Q374,527 429.5,507.5 Q485,488 521,449 L448,333 Q396,383 327,383 Q269,383 236.5,346.5 Q204,310 204,260 Q204,209 238,170.5 Q272,132 333,132 Q402,132 474,194 L537,73 Q463,-3 338,-11 L332,-36 Q407,-44 407,-116 Q407,-166 373,-188 Q339,-210 290,-210 Q253,-210 219,-201 L219,-114 Q237,-124 264,-124 Q302,-124 302,-101 Q302,-80 261,-80"/> 
            <glyph glyph-name="è" unicode="&#xE8;" horiz-adv-x="535" d=" M29,258 Q29,374 102,450.5 Q175,527 297,527 Q408,527 471.5,457.5 Q535,388 535,278 Q535,260 531,224 L206,224 Q215,179 248.5,155.5 Q282,132 326,132 Q390,132 468,184 L532,63 Q491,28 431.5,8 Q372,-12 312,-12 Q181,-12 105,68 Q29,148 29,258 M210,323 L364,323 Q364,356 344.5,378 Q325,400 293,400 Q227,400 210,323 M232,565 L114,715 L285,715 L366,565"/> 
            <glyph glyph-name="é" unicode="&#xE9;" horiz-adv-x="535" d=" M29,258 Q29,374 102,450.5 Q175,527 297,527 Q408,527 471.5,457.5 Q535,388 535,278 Q535,260 531,224 L206,224 Q215,179 248.5,155.5 Q282,132 326,132 Q390,132 468,184 L532,63 Q491,28 431.5,8 Q372,-12 312,-12 Q181,-12 105,68 Q29,148 29,258 M210,323 L364,323 Q364,356 344.5,378 Q325,400 293,400 Q227,400 210,323 M221,565 L302,715 L473,715 L355,565"/> 
            <glyph glyph-name="ê" unicode="&#xEA;" horiz-adv-x="535" d=" M29,258 Q29,374 102,450.5 Q175,527 297,527 Q408,527 471.5,457.5 Q535,388 535,278 Q535,260 531,224 L206,224 Q215,179 248.5,155.5 Q282,132 326,132 Q390,132 468,184 L532,63 Q491,28 431.5,8 Q372,-12 312,-12 Q181,-12 105,68 Q29,148 29,258 M210,323 L364,323 Q364,356 344.5,378 Q325,400 293,400 Q227,400 210,323 M110,565 L209,715 L377,715 L476,565 L341,565 L294,647 L292,647 L245,565"/> 
            <glyph glyph-name="ë" unicode="&#xEB;" horiz-adv-x="535" d=" M29,258 Q29,374 102,450.5 Q175,527 297,527 Q408,527 471.5,457.5 Q535,388 535,278 Q535,260 531,224 L206,224 Q215,179 248.5,155.5 Q282,132 326,132 Q390,132 468,184 L532,63 Q491,28 431.5,8 Q372,-12 312,-12 Q181,-12 105,68 Q29,148 29,258 M210,323 L364,323 Q364,356 344.5,378 Q325,400 293,400 Q227,400 210,323 M335,575 L335,715 L461,715 L461,575 M126,575 L126,715 L252,715 L252,575"/> 
            <glyph glyph-name="ì" unicode="&#xEC;" horiz-adv-x="231" d=" M58,0 L58,515 L231,515 L231,0 M82,565 L-36,715 L135,715 L216,565"/> 
            <glyph glyph-name="í" unicode="&#xED;" horiz-adv-x="324" d=" M58,0 L58,515 L231,515 L231,0 M72,565 L153,715 L324,715 L206,565"/> 
            <glyph glyph-name="î" unicode="&#xEE;" horiz-adv-x="327" d=" M58,0 L58,515 L231,515 L231,0 M-39,565 L60,715 L228,715 L327,565 L192,565 L145,647 L143,647 L96,565"/> 
            <glyph glyph-name="ï" unicode="&#xEF;" horiz-adv-x="312" d=" M58,0 L58,515 L231,515 L231,0 M186,575 L186,715 L312,715 L312,575 M-23,575 L-23,715 L103,715 L103,575"/> 
            <glyph glyph-name="ð" unicode="&#xF0;" horiz-adv-x="554" d=" M30,241 Q30,332 93.5,398 Q157,464 261,464 Q278,464 295.5,462 Q313,460 322,458 L330,455 L332,455 Q307,493 262,518 L70,439 L70,534 L162,573 Q110,595 67,603 L115,738 Q247,710 347,649 L508,716 L508,621 L427,587 Q554,465 554,283 Q554,240 545.5,199.5 Q537,159 516.5,120 Q496,81 466,52 Q436,23 389,5.5 Q342,-12 284,-12 Q168,-12 99,63 Q30,138 30,241 M204,236 Q204,192 224,162 Q244,132 287,132 Q335,132 357.5,166.5 Q380,201 380,250 Q380,287 358,309.5 Q336,332 297,332 Q252,332 228,304.5 Q204,277 204,236"/> 
            <glyph glyph-name="ñ" unicode="&#xF1;" horiz-adv-x="573" d=" M58,0 L58,515 L224,515 L224,470 L222,438 L224,438 Q277,527 388,527 Q573,527 573,334 L573,0 L400,0 L400,302 Q400,370 343,370 Q288,370 259.5,331 Q231,292 231,233 L231,0 M118,565 Q118,718 246,718 Q275,718 298,703 Q321,688 339,673 Q357,658 372,658 Q409,658 409,715 L521,715 Q521,562 393,562 Q364,562 341,577 Q318,592 300,607 Q282,622 267,622 Q230,622 230,565"/> 
            <glyph glyph-name="ò" unicode="&#xF2;" horiz-adv-x="613" d=" M29,137 Q29,375 113,451 Q197,527 320,527 Q444,527 528.5,451.5 Q613,376 613,256 Q613,137 529,62.5 Q445,-12 321,-12 Q197,-12 29,137 M204,256 Q204,200 238,166 Q272,132 321,132 Q370,132 404,166 Q438,200 438,256 Q438,313 404,348 Q370,383 321,383 Q272,383 238,348 Q204,313 204,256 M259,565 L141,715 L312,715 L393,565"/> 
            <glyph glyph-name="ó" unicode="&#xF3;" horiz-adv-x="613" d=" M29,137 Q29,375 113,451 Q197,527 320,527 Q444,527 528.5,451.5 Q613,376 613,256 Q613,137 529,62.5 Q445,-12 321,-12 Q197,-12 29,137 M204,256 Q204,200 238,166 Q272,132 321,132 Q370,132 404,166 Q438,200 438,256 Q438,313 404,348 Q370,383 321,383 Q272,383 238,348 Q204,313 204,256 M249,565 L330,715 L501,715 L383,565"/> 
            <glyph glyph-name="ô" unicode="&#xF4;" horiz-adv-x="613" d=" M29,137 Q29,375 113,451 Q197,527 320,527 Q444,527 528.5,451.5 Q613,376 613,256 Q613,137 529,62.5 Q445,-12 321,-12 Q197,-12 29,137 M204,256 Q204,200 238,166 Q272,132 321,132 Q370,132 404,166 Q438,200 438,256 Q438,313 404,348 Q370,383 321,383 Q272,383 238,348 Q204,313 204,256 M138,565 L237,715 L405,715 L504,565 L369,565 L322,647 L320,647 L273,565"/> 
            <glyph glyph-name="õ" unicode="&#xF5;" horiz-adv-x="613" d=" M29,137 Q29,375 113,451 Q197,527 320,527 Q444,527 528.5,451.5 Q613,376 613,256 Q613,137 529,62.5 Q445,-12 321,-12 Q197,-12 29,137 M204,256 Q204,200 238,166 Q272,132 321,132 Q370,132 404,166 Q438,200 438,256 Q438,313 404,348 Q370,383 321,383 Q272,383 238,348 Q204,313 204,256 M120,565 Q120,718 248,718 Q277,718 300,703 Q323,688 341,673 Q359,658 374,658 Q411,658 411,715 L523,715 Q523,562 395,562 Q366,562 343,577 Q320,592 302,607 Q284,622 269,622 Q232,622 232,565"/> 
            <glyph glyph-name="ö" unicode="&#xF6;" horiz-adv-x="613" d=" M29,137 Q29,375 113,451 Q197,527 320,527 Q444,527 528.5,451.5 Q613,376 613,256 Q613,137 529,62.5 Q445,-12 321,-12 Q197,-12 29,137 M204,256 Q204,200 238,166 Q272,132 321,132 Q370,132 404,166 Q438,200 438,256 Q438,313 404,348 Q370,383 321,383 Q272,383 238,348 Q204,313 204,256 M363,575 L363,715 L489,715 L489,575 M154,575 L154,715 L280,715 L280,575"/> 
            <glyph glyph-name="÷" unicode="&#xF7;" horiz-adv-x="573" d=" M227,440 L227,575 L373,575 L373,440 M27,222 L27,352 L573,352 L573,222 M227,0 L227,135 L373,135 L373,0"/> 
            <glyph glyph-name="ø" unicode="&#xF8;" horiz-adv-x="613" d=" M87,-4 L126,51 Q29,127 29,256 Q29,375 113,451 Q197,527 320,527 Q390,527 451,501 L493,559 L559,514 L519,459 Q613,381 613,256 Q613,137 529,62.5 Q445,-12 321,-12 Q254,-12 197,11 L153,-50 M223,185 L361,376 Q338,383 321,383 Q272,383 238,348 Q204,313 204,256 Q204,215 223,185 M287,136 Q302,132 321,132 Q370,132 404,166 Q438,200 438,256 Q438,293 422,323"/> 
            <glyph glyph-name="ù" unicode="&#xF9;" horiz-adv-x="563" d=" M53,181 L53,515 L226,515 L226,213 Q226,145 281,145 Q334,145 362,185.5 Q390,226 390,287 L390,515 L563,515 L563,0 L397,0 L397,45 L399,77 L397,77 Q376,36 332,12 Q288,-12 236,-12 Q152,-12 102.5,33.5 Q53,79 53,181 M246,565 L128,715 L299,715 L380,565"/> 
            <glyph glyph-name="ú" unicode="&#xFA;" horiz-adv-x="563" d=" M53,181 L53,515 L226,515 L226,213 Q226,145 281,145 Q334,145 362,185.5 Q390,226 390,287 L390,515 L563,515 L563,0 L397,0 L397,45 L399,77 L397,77 Q376,36 332,12 Q288,-12 236,-12 Q152,-12 102.5,33.5 Q53,79 53,181 M236,565 L317,715 L488,715 L370,565"/> 
            <glyph glyph-name="û" unicode="&#xFB;" horiz-adv-x="563" d=" M53,181 L53,515 L226,515 L226,213 Q226,145 281,145 Q334,145 362,185.5 Q390,226 390,287 L390,515 L563,515 L563,0 L397,0 L397,45 L399,77 L397,77 Q376,36 332,12 Q288,-12 236,-12 Q152,-12 102.5,33.5 Q53,79 53,181 M125,565 L224,715 L392,715 L491,565 L356,565 L309,647 L307,647 L260,565"/> 
            <glyph glyph-name="ü" unicode="&#xFC;" horiz-adv-x="563" d=" M53,181 L53,515 L226,515 L226,213 Q226,145 281,145 Q334,145 362,185.5 Q390,226 390,287 L390,515 L563,515 L563,0 L397,0 L397,45 L399,77 L397,77 Q376,36 332,12 Q288,-12 236,-12 Q152,-12 102.5,33.5 Q53,79 53,181 M350,575 L350,715 L476,715 L476,575 M141,575 L141,715 L267,715 L267,575"/> 
            <glyph glyph-name="ý" unicode="&#xFD;" horiz-adv-x="554" d=" M63,-47 Q91,-66 116,-66 Q178,-66 199,-14 L209,10 L-10,515 L186,515 L262,278 L281,198 L283,198 Q293,247 300,275 L365,515 L554,515 L343,-55 Q313,-135 254.5,-172.5 Q196,-210 128,-210 Q98,-210 68,-201 Q38,-192 23,-183 L8,-174 M210,564 L291,714 L462,714 L344,564"/> 
            <glyph glyph-name="þ" unicode="&#xFE;" horiz-adv-x="601" d=" M58,-200 L58,715 L231,715 L231,518 L229,474 L231,474 Q279,527 365,527 Q470,527 535.5,450.5 Q601,374 601,258 Q601,142 535.5,65 Q470,-12 365,-12 Q274,-12 231,36 L229,36 Q231,18 231,-8 L231,-200 M226,257 Q226,132 330,132 Q374,132 400.5,168.5 Q427,205 427,258 Q427,311 400.5,347 Q374,383 330,383 Q226,383 226,257"/> 
            <glyph glyph-name="ÿ" unicode="&#xFF;" horiz-adv-x="554" d=" M63,-47 Q91,-66 116,-66 Q178,-66 199,-14 L209,10 L-10,515 L186,515 L262,278 L281,198 L283,198 Q293,247 300,275 L365,515 L554,515 L343,-55 Q313,-135 254.5,-172.5 Q196,-210 128,-210 Q98,-210 68,-201 Q38,-192 23,-183 L8,-174 M324,574 L324,714 L450,714 L450,574 M115,574 L115,714 L241,714 L241,574"/> 
            <glyph glyph-name="Ā" unicode="&#x100;" horiz-adv-x="667" d=" M-3,0 L240,715 L424,715 L667,0 L487,0 L443,150 L220,150 L177,0 M261,290 L402,290 L362,429 L333,552 L331,552 Q315,474 302,429 M195,782 L195,894 L470,894 L470,782"/> 
            <glyph glyph-name="ā" unicode="&#x101;" horiz-adv-x="501" d=" M22,145 Q22,194 49,230 Q76,266 120.5,285 Q165,304 213,312.5 Q261,321 313,321 L328,321 L328,330 Q328,387 255,387 Q187,387 113,338 L53,460 Q88,487 149.5,507 Q211,527 271,527 Q378,527 439.5,471 Q501,415 501,317 L501,0 L343,0 L343,31 L345,63 L343,63 Q318,28 276.5,8 Q235,-12 190,-12 Q116,-12 69,33 Q22,78 22,145 M193,161 Q193,142 206,129.5 Q219,117 242,117 Q278,117 304,146 Q330,175 330,208 L330,222 L314,222 Q266,222 229.5,207.5 Q193,193 193,161 M139,586 L139,698 L414,698 L414,586"/> 
            <glyph glyph-name="Ă" unicode="&#x102;" horiz-adv-x="667" d=" M-3,0 L240,715 L424,715 L667,0 L487,0 L443,150 L220,150 L177,0 M261,290 L402,290 L362,429 L333,552 L331,552 Q315,474 302,429 M405,756 Q259,756 208.5,795 Q158,834 158,901 L158,911 L275,911 L275,900 Q275,872 292,857 Q309,842 332,842 Q355,842 372,857 Q389,872 389,900 L389,911 L506,911 L506,901 Q506,834 405,756"/> 
            <glyph glyph-name="ă" unicode="&#x103;" horiz-adv-x="501" d=" M22,145 Q22,194 49,230 Q76,266 120.5,285 Q165,304 213,312.5 Q261,321 313,321 L328,321 L328,330 Q328,387 255,387 Q187,387 113,338 L53,460 Q88,487 149.5,507 Q211,527 271,527 Q378,527 439.5,471 Q501,415 501,317 L501,0 L343,0 L343,31 L345,63 L343,63 Q318,28 276.5,8 Q235,-12 190,-12 Q116,-12 69,33 Q22,78 22,145 M193,161 Q193,142 206,129.5 Q219,117 242,117 Q278,117 304,146 Q330,175 330,208 L330,222 L314,222 Q266,222 229.5,207.5 Q193,193 193,161 M349,560 Q203,560 152.5,599 Q102,638 102,705 L102,715 L219,715 L219,704 Q219,676 236,661 Q253,646 276,646 Q299,646 316,661 Q333,676 333,704 L333,715 L450,715 L450,705 Q450,638 349,560"/> 
            <glyph glyph-name="Ą" unicode="&#x104;" horiz-adv-x="667" d=" M-3,0 L240,715 L424,715 L667,0 Q624,-40 624,-61 Q624,-71 633.5,-77 Q643,-83 652,-84 L662,-86 L620,-210 Q615,-209 606,-208 Q597,-207 574,-200 Q551,-193 533.5,-183 Q516,-173 501.5,-154 Q487,-135 487,-111 Q487,-55 551,0 L487,0 L443,150 L220,150 L177,0 M261,290 L402,290 L362,429 L333,552 L331,552 Q315,474 302,429"/> 
            <glyph glyph-name="ą" unicode="&#x105;" horiz-adv-x="501" d=" M22,145 Q22,194 49,230 Q76,266 120.5,285 Q165,304 213,312.5 Q261,321 313,321 L328,321 L328,330 Q328,387 255,387 Q187,387 113,338 L53,460 Q88,487 149.5,507 Q211,527 271,527 Q378,527 439.5,471 Q501,415 501,317 L501,0 Q458,-40 458,-61 Q458,-71 467.5,-77 Q477,-83 486,-84 L496,-86 L454,-210 Q449,-209 440,-208 Q431,-207 408,-200 Q385,-193 367.5,-183 Q350,-173 335.5,-154 Q321,-135 321,-111 Q321,-55 385,0 L343,0 L343,31 L345,63 L343,63 Q318,28 276.5,8 Q235,-12 190,-12 Q116,-12 69,33 Q22,78 22,145 M193,161 Q193,142 206,129.5 Q219,117 242,117 Q278,117 304,146 Q330,175 330,208 L330,222 L314,222 Q266,222 229.5,207.5 Q193,193 193,161"/> 
            <glyph glyph-name="Ć" unicode="&#x106;" horiz-adv-x="700" d=" M37,359 Q37,517 142.5,622 Q248,727 412,727 Q487,727 558,701.5 Q629,676 680,626 L599,494 Q563,526 514.5,546.5 Q466,567 420,567 Q320,567 269,507.5 Q218,448 218,363 Q218,276 270.5,212 Q323,148 420,148 Q522,148 610,236 L700,108 Q584,-12 412,-12 Q242,-12 139.5,92.5 Q37,197 37,359 M330,761 L411,911 L582,911 L464,761"/> 
            <glyph glyph-name="ć" unicode="&#x107;" horiz-adv-x="537" d=" M29,258 Q29,368 106.5,447.5 Q184,527 316,527 Q374,527 429.5,507.5 Q485,488 521,449 L448,333 Q396,383 327,383 Q269,383 236.5,346.5 Q204,310 204,260 Q204,209 238,170.5 Q272,132 333,132 Q402,132 474,194 L537,73 Q499,34 439.5,11 Q380,-12 316,-12 Q184,-12 106.5,67 Q29,146 29,258 M224,565 L305,715 L476,715 L358,565"/> 
            <glyph glyph-name="Ĉ" unicode="&#x108;" horiz-adv-x="700" d=" M37,359 Q37,517 142.5,622 Q248,727 412,727 Q487,727 558,701.5 Q629,676 680,626 L599,494 Q563,526 514.5,546.5 Q466,567 420,567 Q320,567 269,507.5 Q218,448 218,363 Q218,276 270.5,212 Q323,148 420,148 Q522,148 610,236 L700,108 Q584,-12 412,-12 Q242,-12 139.5,92.5 Q37,197 37,359 M219,761 L318,911 L486,911 L585,761 L450,761 L403,843 L401,843 L354,761"/> 
            <glyph glyph-name="ĉ" unicode="&#x109;" horiz-adv-x="537" d=" M29,258 Q29,368 106.5,447.5 Q184,527 316,527 Q374,527 429.5,507.5 Q485,488 521,449 L448,333 Q396,383 327,383 Q269,383 236.5,346.5 Q204,310 204,260 Q204,209 238,170.5 Q272,132 333,132 Q402,132 474,194 L537,73 Q499,34 439.5,11 Q380,-12 316,-12 Q184,-12 106.5,67 Q29,146 29,258 M113,565 L212,715 L380,715 L479,565 L344,565 L297,647 L295,647 L248,565"/> 
            <glyph glyph-name="Ċ" unicode="&#x10A;" horiz-adv-x="700" d=" M37,359 Q37,517 142.5,622 Q248,727 412,727 Q487,727 558,701.5 Q629,676 680,626 L599,494 Q563,526 514.5,546.5 Q466,567 420,567 Q320,567 269,507.5 Q218,448 218,363 Q218,276 270.5,212 Q323,148 420,148 Q522,148 610,236 L700,108 Q584,-12 412,-12 Q242,-12 139.5,92.5 Q37,197 37,359 M331,779 L331,911 L474,911 L474,779"/> 
            <glyph glyph-name="ċ" unicode="&#x10B;" horiz-adv-x="537" d=" M29,258 Q29,368 106.5,447.5 Q184,527 316,527 Q374,527 429.5,507.5 Q485,488 521,449 L448,333 Q396,383 327,383 Q269,383 236.5,346.5 Q204,310 204,260 Q204,209 238,170.5 Q272,132 333,132 Q402,132 474,194 L537,73 Q499,34 439.5,11 Q380,-12 316,-12 Q184,-12 106.5,67 Q29,146 29,258 M225,583 L225,715 L368,715 L368,583"/> 
            <glyph glyph-name="Č" unicode="&#x10C;" horiz-adv-x="700" d=" M37,359 Q37,517 142.5,622 Q248,727 412,727 Q487,727 558,701.5 Q629,676 680,626 L599,494 Q563,526 514.5,546.5 Q466,567 420,567 Q320,567 269,507.5 Q218,448 218,363 Q218,276 270.5,212 Q323,148 420,148 Q522,148 610,236 L700,108 Q584,-12 412,-12 Q242,-12 139.5,92.5 Q37,197 37,359 M318,761 L219,911 L354,911 L401,829 L403,829 L450,911 L585,911 L486,761"/> 
            <glyph glyph-name="č" unicode="&#x10D;" horiz-adv-x="537" d=" M29,258 Q29,368 106.5,447.5 Q184,527 316,527 Q374,527 429.5,507.5 Q485,488 521,449 L448,333 Q396,383 327,383 Q269,383 236.5,346.5 Q204,310 204,260 Q204,209 238,170.5 Q272,132 333,132 Q402,132 474,194 L537,73 Q499,34 439.5,11 Q380,-12 316,-12 Q184,-12 106.5,67 Q29,146 29,258 M212,565 L113,715 L248,715 L295,633 L297,633 L344,715 L479,715 L380,565"/> 
            <glyph glyph-name="Ď" unicode="&#x10E;" horiz-adv-x="698" d=" M75,0 L75,715 L329,715 Q499,715 598.5,620.5 Q698,526 698,359 Q698,191 598.5,95.5 Q499,0 329,0 M250,150 L322,150 Q414,150 465.5,204 Q517,258 517,359 Q517,459 465,512 Q413,565 322,565 L250,565 M259,761 L160,911 L295,911 L342,829 L344,829 L391,911 L526,911 L427,761"/> 
            <glyph glyph-name="ď" unicode="&#x10F;" horiz-adv-x="764" d=" M31,137 Q31,379 96.5,453 Q162,527 266,527 Q360,527 401,486 L403,486 Q402,496 402,509 L402,715 L575,715 L575,0 L413,0 L413,34 L414,63 L412,63 Q363,-12 263,-12 Q158,-12 31,137 M205,315 Q205,201 233,166 Q261,131 306,131 Q349,131 378,163 Q407,195 407,258 Q407,308 380.5,344.5 Q354,381 306,381 Q263,381 205,315 M621,715 L757,715 Q764,686 764,657 Q764,610 736,554 L613,554 Q633,612 633,647 Q633,680 621,715"/> 
            <glyph glyph-name="Đ" unicode="&#x110;" horiz-adv-x="703" d=" M80,0 L80,284 L23,284 L23,424 L80,424 L80,715 L334,715 Q504,715 603.5,620.5 Q703,526 703,359 Q703,191 603.5,95.5 Q504,0 334,0 M255,150 L327,150 Q419,150 470.5,204 Q522,258 522,359 Q522,459 470,512 Q418,565 327,565 L255,565 L255,424 L359,424 L359,284 L255,284"/> 
            <glyph glyph-name="đ" unicode="&#x111;" horiz-adv-x="641" d=" M31,137 Q31,379 96.5,453 Q162,527 266,527 Q361,527 401,486 L403,486 Q402,496 402,509 L402,554 L276,554 L276,649 L402,649 L402,715 L575,715 L575,649 L641,649 L641,554 L575,554 L575,0 L413,0 L413,34 L414,63 L412,63 Q359,-12 263,-12 Q158,-12 31,137 M205,315 Q205,201 233,166 Q261,131 306,131 Q349,131 378,163 Q407,195 407,258 Q407,308 380.5,344.5 Q354,381 306,381 Q263,381 205,315"/> 
            <glyph glyph-name="Ē" unicode="&#x112;" horiz-adv-x="537" d=" M75,0 L75,715 L523,715 L523,565 L250,565 L250,435 L468,435 L468,285 L250,285 L250,150 L537,150 L537,0 M170,782 L170,894 L445,894 L445,782"/> 
            <glyph glyph-name="ē" unicode="&#x113;" horiz-adv-x="535" d=" M29,258 Q29,374 102,450.5 Q175,527 297,527 Q408,527 471.5,457.5 Q535,388 535,278 Q535,260 531,224 L206,224 Q215,179 248.5,155.5 Q282,132 326,132 Q390,132 468,184 L532,63 Q491,28 431.5,8 Q372,-12 312,-12 Q181,-12 105,68 Q29,148 29,258 M210,323 L364,323 Q364,356 344.5,378 Q325,400 293,400 Q227,400 210,323 M156,586 L156,698 L431,698 L431,586"/> 
            <glyph glyph-name="Ĕ" unicode="&#x114;" horiz-adv-x="537" d=" M75,0 L75,715 L523,715 L523,565 L250,565 L250,435 L468,435 L468,285 L250,285 L250,150 L537,150 L537,0 M380,756 Q234,756 183.5,795 Q133,834 133,901 L133,911 L250,911 L250,900 Q250,872 267,857 Q284,842 307,842 Q330,842 347,857 Q364,872 364,900 L364,911 L481,911 L481,901 Q481,834 380,756"/> 
            <glyph glyph-name="ĕ" unicode="&#x115;" horiz-adv-x="535" d=" M29,258 Q29,374 102,450.5 Q175,527 297,527 Q408,527 471.5,457.5 Q535,388 535,278 Q535,260 531,224 L206,224 Q215,179 248.5,155.5 Q282,132 326,132 Q390,132 468,184 L532,63 Q491,28 431.5,8 Q372,-12 312,-12 Q181,-12 105,68 Q29,148 29,258 M210,323 L364,323 Q364,356 344.5,378 Q325,400 293,400 Q227,400 210,323 M366,560 Q220,560 169.5,599 Q119,638 119,705 L119,715 L236,715 L236,704 Q236,676 253,661 Q270,646 293,646 Q316,646 333,661 Q350,676 350,704 L350,715 L467,715 L467,705 Q467,638 366,560"/> 
            <glyph glyph-name="Ė" unicode="&#x116;" horiz-adv-x="537" d=" M75,0 L75,715 L523,715 L523,565 L250,565 L250,435 L468,435 L468,285 L250,285 L250,150 L537,150 L537,0 M236,779 L236,911 L379,911 L379,779"/> 
            <glyph glyph-name="ė" unicode="&#x117;" horiz-adv-x="535" d=" M29,258 Q29,374 102,450.5 Q175,527 297,527 Q408,527 471.5,457.5 Q535,388 535,278 Q535,260 531,224 L206,224 Q215,179 248.5,155.5 Q282,132 326,132 Q390,132 468,184 L532,63 Q491,28 431.5,8 Q372,-12 312,-12 Q181,-12 105,68 Q29,148 29,258 M210,323 L364,323 Q364,356 344.5,378 Q325,400 293,400 Q227,400 210,323 M222,583 L222,715 L365,715 L365,583"/> 
            <glyph glyph-name="Ę" unicode="&#x118;" horiz-adv-x="537" d=" M75,0 L75,715 L523,715 L523,565 L250,565 L250,435 L468,435 L468,285 L250,285 L250,150 L537,150 L537,0 Q494,-40 494,-61 Q494,-71 503.5,-77 Q513,-83 522,-84 L532,-86 L490,-210 Q485,-209 476,-208 Q467,-207 444,-200 Q421,-193 403.5,-183 Q386,-173 371.5,-154 Q357,-135 357,-111 Q357,-54 426,0"/> 
            <glyph glyph-name="ę" unicode="&#x119;" horiz-adv-x="535" d=" M29,258 Q29,374 102,450.5 Q175,527 297,527 Q408,527 471.5,457.5 Q535,388 535,278 L531,224 L206,224 Q215,179 248.5,155.5 Q282,132 326,132 Q394,132 468,184 L531,64 Q523,56 492,32.5 Q461,9 442.5,-13.5 Q424,-36 424,-61 Q424,-71 433.5,-77 Q443,-83 452,-84 L462,-86 L420,-210 Q415,-209 406,-208 Q397,-207 374,-200 Q351,-193 333.5,-183 Q316,-173 301.5,-154 Q287,-135 287,-111 Q287,-57 353,-8 Q327,-12 312,-12 Q181,-12 105,68 Q29,148 29,258 M210,323 L364,323 Q364,354 345,377 Q326,400 293,400 Q228,400 210,323"/> 
            <glyph glyph-name="Ě" unicode="&#x11A;" horiz-adv-x="537" d=" M75,0 L75,715 L523,715 L523,565 L250,565 L250,435 L468,435 L468,285 L250,285 L250,150 L537,150 L537,0 M223,761 L124,911 L259,911 L306,829 L308,829 L355,911 L490,911 L391,761"/> 
            <glyph glyph-name="ě" unicode="&#x11B;" horiz-adv-x="535" d=" M29,258 Q29,374 102,450.5 Q175,527 297,527 Q408,527 471.5,457.5 Q535,388 535,278 Q535,260 531,224 L206,224 Q215,179 248.5,155.5 Q282,132 326,132 Q390,132 468,184 L532,63 Q491,28 431.5,8 Q372,-12 312,-12 Q181,-12 105,68 Q29,148 29,258 M210,323 L364,323 Q364,356 344.5,378 Q325,400 293,400 Q227,400 210,323 M209,565 L110,715 L245,715 L292,633 L294,633 L341,715 L476,715 L377,565"/> 
            <glyph glyph-name="Ĝ" unicode="&#x11C;" horiz-adv-x="723" d=" M37,359 Q37,516 143.5,621.5 Q250,727 412,727 Q579,727 687,632 L603,501 Q572,529 523,548 Q474,567 429,567 Q323,567 270.5,509.5 Q218,452 218,365 Q218,266 277.5,207 Q337,148 423,148 Q501,148 568,200 L568,255 L467,255 L467,404 L723,404 L723,0 L577,0 L577,20 L578,50 L576,50 Q544,22 492.5,5 Q441,-12 388,-12 Q244,-12 140.5,89 Q37,190 37,359 M219,761 L318,911 L486,911 L585,761 L450,761 L403,843 L401,843 L354,761"/> 
            <glyph glyph-name="ĝ" unicode="&#x11D;" horiz-adv-x="567" d=" M130,-33 Q198,-66 275,-66 Q394,-66 394,33 L394,50 L395,69 L393,69 Q348,15 264,15 Q154,15 93,91 Q32,167 32,274 Q32,380 92,453.5 Q152,527 263,527 Q353,527 403,477 L406,477 Q405,483 405,489 L405,515 L567,515 L567,47 Q567,-21 542,-72 Q517,-123 474,-152.5 Q431,-182 381.5,-196 Q332,-210 276,-210 Q169,-210 81,-164 M206,280 Q206,228 231,193.5 Q256,159 305,159 Q345,159 371.5,184.5 Q398,210 398,272 Q398,383 298,383 Q254,383 230,354.5 Q206,326 206,280 M121,565 L220,715 L388,715 L487,565 L352,565 L305,647 L303,647 L256,565"/> 
            <glyph glyph-name="Ğ" unicode="&#x11E;" horiz-adv-x="723" d=" M37,359 Q37,516 143.5,621.5 Q250,727 412,727 Q579,727 687,632 L603,501 Q572,529 523,548 Q474,567 429,567 Q323,567 270.5,509.5 Q218,452 218,365 Q218,266 277.5,207 Q337,148 423,148 Q501,148 568,200 L568,255 L467,255 L467,404 L723,404 L723,0 L577,0 L577,20 L578,50 L576,50 Q544,22 492.5,5 Q441,-12 388,-12 Q244,-12 140.5,89 Q37,190 37,359 M475,756 Q329,756 278.5,795 Q228,834 228,901 L228,911 L345,911 L345,900 Q345,872 362,857 Q379,842 402,842 Q425,842 442,857 Q459,872 459,900 L459,911 L576,911 L576,901 Q576,834 475,756"/> 
            <glyph glyph-name="ğ" unicode="&#x11F;" horiz-adv-x="567" d=" M130,-33 Q198,-66 275,-66 Q394,-66 394,33 L394,50 L395,69 L393,69 Q348,15 264,15 Q154,15 93,91 Q32,167 32,274 Q32,380 92,453.5 Q152,527 263,527 Q353,527 403,477 L406,477 Q405,483 405,489 L405,515 L567,515 L567,47 Q567,-21 542,-72 Q517,-123 474,-152.5 Q431,-182 381.5,-196 Q332,-210 276,-210 Q169,-210 81,-164 M206,280 Q206,228 231,193.5 Q256,159 305,159 Q345,159 371.5,184.5 Q398,210 398,272 Q398,383 298,383 Q254,383 230,354.5 Q206,326 206,280 M377,560 Q231,560 180.5,599 Q130,638 130,705 L130,715 L247,715 L247,704 Q247,676 264,661 Q281,646 304,646 Q327,646 344,661 Q361,676 361,704 L361,715 L478,715 L478,705 Q478,638 377,560"/> 
            <glyph glyph-name="Ġ" unicode="&#x120;" horiz-adv-x="723" d=" M37,359 Q37,516 143.5,621.5 Q250,727 412,727 Q579,727 687,632 L603,501 Q572,529 523,548 Q474,567 429,567 Q323,567 270.5,509.5 Q218,452 218,365 Q218,266 277.5,207 Q337,148 423,148 Q501,148 568,200 L568,255 L467,255 L467,404 L723,404 L723,0 L577,0 L577,20 L578,50 L576,50 Q544,22 492.5,5 Q441,-12 388,-12 Q244,-12 140.5,89 Q37,190 37,359 M331,779 L331,911 L474,911 L474,779"/> 
            <glyph glyph-name="ġ" unicode="&#x121;" horiz-adv-x="567" d=" M130,-33 Q198,-66 275,-66 Q394,-66 394,33 L394,50 L395,69 L393,69 Q348,15 264,15 Q154,15 93,91 Q32,167 32,274 Q32,380 92,453.5 Q152,527 263,527 Q353,527 403,477 L406,477 Q405,483 405,489 L405,515 L567,515 L567,47 Q567,-21 542,-72 Q517,-123 474,-152.5 Q431,-182 381.5,-196 Q332,-210 276,-210 Q169,-210 81,-164 M206,280 Q206,228 231,193.5 Q256,159 305,159 Q345,159 371.5,184.5 Q398,210 398,272 Q398,383 298,383 Q254,383 230,354.5 Q206,326 206,280 M233,583 L233,715 L376,715 L376,583"/> 
            <glyph glyph-name="Ģ" unicode="&#x122;" horiz-adv-x="723" d=" M37,359 Q37,516 143.5,621.5 Q250,727 412,727 Q579,727 687,632 L603,501 Q572,529 523,548 Q474,567 429,567 Q323,567 270.5,509.5 Q218,452 218,365 Q218,266 277.5,207 Q337,148 423,148 Q501,148 568,200 L568,255 L467,255 L467,404 L723,404 L723,0 L577,0 L577,20 L578,50 L576,50 Q544,22 492.5,5 Q441,-12 388,-12 Q244,-12 140.5,89 Q37,190 37,359 M317,-49 L453,-49 Q460,-78 460,-107 Q460,-154 432,-210 L309,-210 Q329,-152 329,-117 Q329,-84 317,-49"/> 
            <glyph glyph-name="ģ" unicode="&#x123;" horiz-adv-x="567" d=" M130,-33 Q198,-66 275,-66 Q394,-66 394,33 L394,50 L395,69 L393,69 Q348,15 264,15 Q154,15 93,91 Q32,167 32,274 Q32,380 92,453.5 Q152,527 263,527 Q353,527 403,477 L406,477 Q405,483 405,489 L405,515 L567,515 L567,47 Q567,-21 542,-72 Q517,-123 474,-152.5 Q431,-182 381.5,-196 Q332,-210 276,-210 Q169,-210 81,-164 M206,280 Q206,228 231,193.5 Q256,159 305,159 Q345,159 371.5,184.5 Q398,210 398,272 Q398,383 298,383 Q254,383 230,354.5 Q206,326 206,280 M375,560 L240,560 Q233,588 233,616 Q233,661 260,715 L383,715 Q363,658 363,626 Q363,593 375,560"/> 
            <glyph glyph-name="Ĥ" unicode="&#x124;" horiz-adv-x="685" d=" M75,0 L75,715 L250,715 L250,429 L510,429 L510,715 L685,715 L685,0 L510,0 L510,280 L250,280 L250,0 M197,761 L296,911 L464,911 L563,761 L428,761 L381,843 L379,843 L332,761"/> 
            <glyph glyph-name="ĥ" unicode="&#x125;" horiz-adv-x="573" d=" M58,0 L58,715 L231,715 L231,489 L229,445 L231,445 Q253,483 295,505 Q337,527 388,527 Q573,527 573,334 L573,0 L400,0 L400,302 Q400,370 343,370 Q289,370 260,332 Q231,294 231,232 L231,0 M-38,761 L61,911 L229,911 L328,761 L193,761 L146,843 L144,843 L97,761"/> 
            <glyph glyph-name="Ħ" unicode="&#x126;" horiz-adv-x="747" d=" M82,0 L82,517 L16,517 L16,624 L82,624 L82,715 L261,715 L261,624 L503,624 L503,715 L682,715 L682,624 L747,624 L747,517 L682,517 L682,0 L503,0 L503,280 L261,280 L261,0 M261,429 L503,429 L503,517 L261,517"/> 
            <glyph glyph-name="ħ" unicode="&#x127;" horiz-adv-x="573" d=" M58,0 L58,554 L0,554 L0,649 L58,649 L58,715 L231,715 L231,649 L365,649 L365,554 L231,554 L231,489 L229,445 L231,445 Q253,483 295,505 Q337,527 388,527 Q573,527 573,334 L573,0 L400,0 L400,302 Q400,370 343,370 Q289,370 260,331 Q231,292 231,233 L231,0"/> 
            <glyph glyph-name="Ĩ" unicode="&#x128;" horiz-adv-x="365" d=" M75,0 L75,715 L250,715 L250,0 M-38,761 Q-38,914 90,914 Q119,914 142,899 Q165,884 183,869 Q201,854 216,854 Q253,854 253,911 L365,911 Q365,758 237,758 Q208,758 185,773 Q162,788 144,803 Q126,818 111,818 Q74,818 74,761"/> 
            <glyph glyph-name="ĩ" unicode="&#x129;" horiz-adv-x="346" d=" M58,0 L58,515 L231,515 L231,0 M-57,565 Q-57,718 71,718 Q100,718 123,703 Q146,688 164,673 Q182,658 197,658 Q234,658 234,715 L346,715 Q346,562 218,562 Q189,562 166,577 Q143,592 125,607 Q107,622 92,622 Q55,622 55,565"/> 
            <glyph glyph-name="Ī" unicode="&#x12A;" horiz-adv-x="301" d=" M75,0 L75,715 L250,715 L250,0 M26,782 L26,894 L301,894 L301,782"/> 
            <glyph glyph-name="ī" unicode="&#x12B;" horiz-adv-x="282" d=" M58,0 L58,515 L231,515 L231,0 M7,586 L7,698 L282,698 L282,586"/> 
            <glyph glyph-name="Ĭ" unicode="&#x12C;" horiz-adv-x="337" d=" M75,0 L75,715 L250,715 L250,0 M236,756 Q90,756 39.5,795 Q-11,834 -11,901 L-11,911 L106,911 L106,900 Q106,872 123,857 Q140,842 163,842 Q186,842 203,857 Q220,872 220,900 L220,911 L337,911 L337,901 Q337,834 236,756"/> 
            <glyph glyph-name="ĭ" unicode="&#x12D;" horiz-adv-x="318" d=" M58,0 L58,515 L231,515 L231,0 M217,560 Q71,560 20.5,599 Q-30,638 -30,705 L-30,715 L87,715 L87,704 Q87,676 104,661 Q121,646 144,646 Q167,646 184,661 Q201,676 201,704 L201,715 L318,715 L318,705 Q318,638 217,560"/> 
            <glyph glyph-name="Į" unicode="&#x12E;" horiz-adv-x="250" d=" M75,0 L75,715 L250,715 L250,0 Q207,-40 207,-61 Q207,-71 216.5,-77 Q226,-83 236,-84 L245,-86 L203,-210 Q198,-209 189,-208 Q180,-207 157,-200 Q134,-193 116.5,-183 Q99,-173 84.5,-154 Q70,-135 70,-111 Q70,-55 134,0"/> 
            <glyph glyph-name="į" unicode="&#x12F;" horiz-adv-x="231" d=" M58,0 L58,515 L231,515 L231,0 Q188,-40 188,-61 Q188,-71 197.5,-77 Q207,-83 216,-84 L226,-86 L184,-210 Q179,-210 170,-208.5 Q161,-207 138,-200 Q115,-193 97.5,-183 Q80,-173 65.5,-154 Q51,-135 51,-110 Q51,-55 115,0 M60,580 L60,715 L229,715 L229,580"/> 
            <glyph glyph-name="İ" unicode="&#x130;" horiz-adv-x="250" d=" M75,0 L75,715 L250,715 L250,0 M92,779 L92,911 L235,911 L235,779"/> 
            <glyph glyph-name="ı" unicode="&#x131;" horiz-adv-x="231" d=" M58,0 L58,515 L231,515 L231,0"/> 
            <glyph glyph-name="Ĳ" unicode="&#x132;" horiz-adv-x="613" d=" M318,-4 L318,154 Q360,154 397,181.5 Q434,209 434,270 L434,715 L613,715 L613,268 Q613,203 594.5,153 Q576,103 547.5,74 Q519,45 478.5,26.5 Q438,8 400,2 Q362,-4 318,-4 M75,0 L75,715 L250,715 L250,0"/> 
            <glyph glyph-name="ĳ" unicode="&#x133;" horiz-adv-x="520" d=" M60,580 L60,715 L229,715 L229,580 M58,0 L58,515 L231,515 L231,0 M349,580 L349,715 L518,715 L518,580 M347,4 L347,515 L520,515 L520,-13 Q520,-62 502,-99.5 Q484,-137 458.5,-157 Q433,-177 397.5,-189 Q362,-201 334.5,-204.5 Q307,-208 278,-208 Q254,-208 232,-205 L232,-61 Q240,-62 254,-62 Q347,-62 347,4"/> 
            <glyph glyph-name="Ĵ" unicode="&#x134;" horiz-adv-x="497" d=" M18,220 L18,272 L193,272 L193,234 Q193,148 258,148 Q288,148 305,167 Q322,186 322,224 L322,565 L130,565 L130,715 L497,715 L497,220 Q497,109 426,48.5 Q355,-12 258,-12 Q160,-12 89,49 Q18,110 18,220 M126,761 L225,911 L393,911 L492,761 L357,761 L310,843 L308,843 L261,761"/> 
            <glyph glyph-name="ĵ" unicode="&#x135;" horiz-adv-x="320" d=" M-30,565 L69,715 L221,715 L320,565 L193,565 L146,647 L144,647 L97,565 M58,4 L58,515 L231,515 L231,-13 Q231,-62 213,-99.5 Q195,-137 169.5,-157 Q144,-177 108.5,-189 Q73,-201 45.5,-204.5 Q18,-208 -11,-208 Q-34,-208 -57,-205 L-57,-61 Q-51,-62 -35,-62 Q58,-62 58,4"/> 
            <glyph glyph-name="Ķ" unicode="&#x136;" horiz-adv-x="669" d=" M75,0 L75,715 L250,715 L250,439 L322,439 L470,715 L658,715 L465,373 L465,371 L669,0 L473,0 L322,290 L250,290 L250,0 M271,-49 L407,-49 Q414,-78 414,-107 Q414,-154 386,-210 L263,-210 Q283,-152 283,-117 Q283,-84 271,-49"/> 
            <glyph glyph-name="ķ" unicode="&#x137;" horiz-adv-x="591" d=" M58,0 L58,715 L231,715 L231,345 L280,345 L382,515 L570,515 L419,281 L419,279 L591,0 L394,0 L285,200 L231,200 L231,0 M233,-49 L369,-49 Q376,-78 376,-107 Q376,-154 348,-210 L225,-210 Q245,-152 245,-117 Q245,-84 233,-49"/> 
            <glyph glyph-name="ĸ" unicode="&#x138;" horiz-adv-x="585" d=" M58,0 L58,515 L231,515 L231,335 L280,335 L385,515 L573,515 L419,271 L419,269 L585,0 L385,0 L285,190 L231,190 L231,0"/> 
            <glyph glyph-name="Ĺ" unicode="&#x139;" horiz-adv-x="542" d=" M75,0 L75,715 L250,715 L250,150 L542,150 L542,0 M91,761 L172,911 L343,911 L225,761"/> 
            <glyph glyph-name="ĺ" unicode="&#x13A;" horiz-adv-x="324" d=" M57,190 L57,715 L230,715 L230,213 Q230,175 239.5,161 Q249,147 278,147 Q291,147 299,148 L299,-2 Q263,-5 247,-5 Q207,-5 177.5,1.5 Q148,8 118.5,27 Q89,46 73,87 Q57,128 57,190 M72,761 L153,911 L324,911 L206,761"/> 
            <glyph glyph-name="Ļ" unicode="&#x13B;" horiz-adv-x="542" d=" M75,0 L75,715 L250,715 L250,150 L542,150 L542,0 M242,-49 L378,-49 Q385,-78 385,-107 Q385,-154 357,-210 L234,-210 Q254,-152 254,-117 Q254,-84 242,-49"/> 
            <glyph glyph-name="ļ" unicode="&#x13C;" horiz-adv-x="299" d=" M57,190 L57,715 L230,715 L230,213 Q230,175 239.5,161 Q249,147 278,147 Q291,147 299,148 L299,-2 Q263,-5 247,-5 Q207,-5 177.5,1.5 Q148,8 118.5,27 Q89,46 73,87 Q57,128 57,190 M113,-49 L249,-49 Q256,-78 256,-107 Q256,-154 228,-210 L105,-210 Q125,-152 125,-117 Q125,-84 113,-49"/> 
            <glyph glyph-name="Ľ" unicode="&#x13D;" horiz-adv-x="542" d=" M75,0 L75,715 L250,715 L250,150 L542,150 L542,0 M320,715 L456,715 Q463,686 463,657 Q463,610 435,554 L312,554 Q332,612 332,647 Q332,680 320,715"/> 
            <glyph glyph-name="ľ" unicode="&#x13E;" horiz-adv-x="420" d=" M57,190 L57,715 L230,715 L230,213 Q230,175 239.5,161 Q249,147 278,147 Q291,147 299,148 L299,-2 Q263,-5 247,-5 Q207,-5 177.5,1.5 Q148,8 118.5,27 Q89,46 73,87 Q57,128 57,190 M277,715 L413,715 Q420,686 420,657 Q420,610 392,554 L269,554 Q289,612 289,647 Q289,680 277,715"/> 
            <glyph glyph-name="Ŀ" unicode="&#x13F;" horiz-adv-x="542" d=" M75,0 L75,715 L250,715 L250,150 L542,150 L542,0 M343,315 L343,479 L501,479 L501,315"/> 
            <glyph glyph-name="ŀ" unicode="&#x140;" horiz-adv-x="470" d=" M57,190 L57,715 L230,715 L230,213 Q230,175 239.5,161 Q249,147 278,147 Q291,147 299,148 L299,-2 Q263,-5 247,-5 Q207,-5 177.5,1.5 Q148,8 118.5,27 Q89,46 73,87 Q57,128 57,190 M312,315 L312,479 L470,479 L470,315"/> 
            <glyph glyph-name="Ł" unicode="&#x141;" horiz-adv-x="546" d=" M79,0 L79,205 L27,175 L27,341 L79,371 L79,715 L254,715 L254,471 L355,529 L355,363 L254,305 L254,150 L546,150 L546,0"/> 
            <glyph glyph-name="ł" unicode="&#x142;" horiz-adv-x="310" d=" M18,195 L18,361 L68,390 L68,715 L241,715 L241,489 L310,529 L310,363 L241,323 L241,213 Q241,175 250.5,161 Q260,147 289,147 L310,148 L310,-2 Q286,-5 258,-5 Q218,-5 188.5,1.5 Q159,8 129.5,27 Q100,46 84,87 Q68,128 68,190 L68,224"/> 
            <glyph glyph-name="Ń" unicode="&#x143;" horiz-adv-x="679" d=" M75,0 L75,715 L252,715 L450,381 Q462,360 477,329.5 Q492,299 501,279 L510,259 L512,259 Q504,336 504,381 L504,715 L679,715 L679,0 L503,0 L304,333 Q292,354 277,384.5 Q262,415 253,435 L244,455 L242,455 Q250,378 250,333 L250,0 M305,761 L386,911 L557,911 L439,761"/> 
            <glyph glyph-name="ń" unicode="&#x144;" horiz-adv-x="573" d=" M58,0 L58,515 L224,515 L224,470 L222,438 L224,438 Q277,527 388,527 Q573,527 573,334 L573,0 L400,0 L400,302 Q400,370 343,370 Q288,370 259.5,331 Q231,292 231,233 L231,0 M247,565 L328,715 L499,715 L381,565"/> 
            <glyph glyph-name="Ņ" unicode="&#x145;" horiz-adv-x="679" d=" M75,0 L75,715 L252,715 L450,381 Q462,360 477,329.5 Q492,299 501,279 L510,259 L512,259 Q504,336 504,381 L504,715 L679,715 L679,0 L503,0 L304,333 Q292,354 277,384.5 Q262,415 253,435 L244,455 L242,455 Q250,378 250,333 L250,0 M306,-49 L442,-49 Q449,-78 449,-107 Q449,-154 421,-210 L298,-210 Q318,-152 318,-117 Q318,-84 306,-49"/> 
            <glyph glyph-name="ņ" unicode="&#x146;" horiz-adv-x="573" d=" M58,0 L58,515 L224,515 L224,470 L222,438 L224,438 Q277,527 388,527 Q573,527 573,334 L573,0 L400,0 L400,302 Q400,370 343,370 Q288,370 259.5,331 Q231,292 231,233 L231,0 M241,-49 L377,-49 Q384,-78 384,-107 Q384,-154 356,-210 L233,-210 Q253,-152 253,-117 Q253,-84 241,-49"/> 
            <glyph glyph-name="Ň" unicode="&#x147;" horiz-adv-x="679" d=" M75,0 L75,715 L252,715 L450,381 Q462,360 477,329.5 Q492,299 501,279 L510,259 L512,259 Q504,336 504,381 L504,715 L679,715 L679,0 L503,0 L304,333 Q292,354 277,384.5 Q262,415 253,435 L244,455 L242,455 Q250,378 250,333 L250,0 M293,761 L194,911 L329,911 L376,829 L378,829 L425,911 L560,911 L461,761"/> 
            <glyph glyph-name="ň" unicode="&#x148;" horiz-adv-x="573" d=" M58,0 L58,515 L224,515 L224,470 L222,438 L224,438 Q277,527 388,527 Q573,527 573,334 L573,0 L400,0 L400,302 Q400,370 343,370 Q288,370 259.5,331 Q231,292 231,233 L231,0 M235,565 L136,715 L271,715 L318,633 L320,633 L367,715 L502,715 L403,565"/> 
            <glyph glyph-name="ŉ" unicode="&#x149;" horiz-adv-x="573" d=" M58,0 L58,515 L224,515 L224,470 L222,438 L224,438 Q277,527 388,527 Q573,527 573,334 L573,0 L400,0 L400,302 Q400,370 343,370 Q288,370 259.5,331 Q231,292 231,233 L231,0 M-36,715 L100,715 Q107,686 107,657 Q107,610 79,554 L-44,554 Q-24,612 -24,647 Q-24,680 -36,715"/> 
            <glyph glyph-name="Ŋ" unicode="&#x14A;" horiz-adv-x="679" d=" M75,0 L75,715 L252,715 L450,381 Q462,360 477,329.5 Q492,299 501,279 L510,259 L512,259 Q504,336 504,381 L504,715 L679,715 L679,67 Q679,2 660.5,-48 Q642,-98 613.5,-127 Q585,-156 544.5,-174.5 Q504,-193 466,-199 Q428,-205 384,-205 L384,-47 Q411,-47 449,-31 Q487,-15 497,10 L304,333 Q292,354 277,384.5 Q262,415 253,435 L244,455 L242,455 Q250,378 250,333 L250,0"/> 
            <glyph glyph-name="ŋ" unicode="&#x14B;" horiz-adv-x="573" d=" M58,0 L58,515 L224,515 L224,450 L223,438 L225,438 Q278,527 388,527 Q573,527 573,334 L573,-13 Q573,-62 555,-99.5 Q537,-137 511.5,-157 Q486,-177 450.5,-189 Q415,-201 387.5,-204.5 Q360,-208 331,-208 L285,-205 L285,-61 Q294,-62 307,-62 Q400,-62 400,4 L400,302 Q400,370 343,370 Q288,370 259.5,331 Q231,292 231,233 L231,0"/> 
            <glyph glyph-name="Ō" unicode="&#x14C;" horiz-adv-x="784" d=" M36,362 Q36,518 141,622.5 Q246,727 410,727 Q574,727 679,622.5 Q784,518 784,362 Q784,202 679,95 Q574,-12 410,-12 Q246,-12 141,95 Q36,202 36,362 M217,362 Q217,270 271.5,209 Q326,148 410,148 Q494,148 548.5,209 Q603,270 603,362 Q603,450 548.5,508.5 Q494,567 410,567 Q326,567 271.5,508.5 Q217,450 217,362 M273,782 L273,894 L548,894 L548,782"/> 
            <glyph glyph-name="ō" unicode="&#x14D;" horiz-adv-x="613" d=" M29,137 Q29,375 113,451 Q197,527 320,527 Q444,527 528.5,451.5 Q613,376 613,256 Q613,137 529,62.5 Q445,-12 321,-12 Q197,-12 29,137 M204,256 Q204,200 238,166 Q272,132 321,132 Q370,132 404,166 Q438,200 438,256 Q438,313 404,348 Q370,383 321,383 Q272,383 238,348 Q204,313 204,256 M184,586 L184,698 L459,698 L459,586"/> 
            <glyph glyph-name="Ŏ" unicode="&#x14E;" horiz-adv-x="784" d=" M36,362 Q36,518 141,622.5 Q246,727 410,727 Q574,727 679,622.5 Q784,518 784,362 Q784,202 679,95 Q574,-12 410,-12 Q246,-12 141,95 Q36,202 36,362 M217,362 Q217,270 271.5,209 Q326,148 410,148 Q494,148 548.5,209 Q603,270 603,362 Q603,450 548.5,508.5 Q494,567 410,567 Q326,567 271.5,508.5 Q217,450 217,362 M483,756 Q337,756 286.5,795 Q236,834 236,901 L236,911 L353,911 L353,900 Q353,872 370,857 Q387,842 410,842 Q433,842 450,857 Q467,872 467,900 L467,911 L584,911 L584,901 Q584,834 483,756"/> 
            <glyph glyph-name="ŏ" unicode="&#x14F;" horiz-adv-x="613" d=" M29,137 Q29,375 113,451 Q197,527 320,527 Q444,527 528.5,451.5 Q613,376 613,256 Q613,137 529,62.5 Q445,-12 321,-12 Q197,-12 29,137 M204,256 Q204,200 238,166 Q272,132 321,132 Q370,132 404,166 Q438,200 438,256 Q438,313 404,348 Q370,383 321,383 Q272,383 238,348 Q204,313 204,256 M394,560 Q248,560 197.5,599 Q147,638 147,705 L147,715 L264,715 L264,704 Q264,676 281,661 Q298,646 321,646 Q344,646 361,661 Q378,676 378,704 L378,715 L495,715 L495,705 Q495,638 394,560"/> 
            <glyph glyph-name="Ő" unicode="&#x150;" horiz-adv-x="784" d=" M36,362 Q36,518 141,622.5 Q246,727 410,727 Q574,727 679,622.5 Q784,518 784,362 Q784,202 679,95 Q574,-12 410,-12 Q246,-12 141,95 Q36,202 36,362 M217,362 Q217,270 271.5,209 Q326,148 410,148 Q494,148 548.5,209 Q603,270 603,362 Q603,450 548.5,508.5 Q494,567 410,567 Q326,567 271.5,508.5 Q217,450 217,362 M436,761 L517,911 L680,911 L562,761 M228,761 L304,911 L443,911 L364,761"/> 
            <glyph glyph-name="ő" unicode="&#x151;" horiz-adv-x="613" d=" M29,137 Q29,375 113,451 Q197,527 320,527 Q444,527 528.5,451.5 Q613,376 613,256 Q613,137 529,62.5 Q445,-12 321,-12 Q197,-12 29,137 M204,256 Q204,200 238,166 Q272,132 321,132 Q370,132 404,166 Q438,200 438,256 Q438,313 404,348 Q370,383 321,383 Q272,383 238,348 Q204,313 204,256 M347,565 L428,715 L591,715 L473,565 M139,565 L215,715 L354,715 L275,565"/> 
            <glyph glyph-name="Œ" unicode="&#x152;" horiz-adv-x="954" d=" M35,206 Q35,512 147.5,617.5 Q260,723 419,723 Q456,723 494,719 Q532,715 551,715 L939,715 L939,565 L666,565 L666,435 L884,435 L884,285 L666,285 L666,150 L954,150 L954,0 L551,0 Q532,0 494,-4 Q456,-8 419,-8 Q260,-8 35,206 M216,449 Q216,269 275,205 Q334,141 419,141 Q439,141 457,142.5 Q475,144 483,146 L491,148 L491,567 Q463,574 419,574 Q334,574 216,449"/> 
            <glyph glyph-name="œ" unicode="&#x153;" horiz-adv-x="943" d=" M29,137 Q29,375 111,451 Q193,527 314,527 Q382,527 427.5,506.5 Q473,486 513,447 L515,447 Q550,486 593,506.5 Q636,527 705,527 Q816,527 879.5,457.5 Q943,388 943,278 L939,224 L615,224 Q624,181 657.5,156.5 Q691,132 734,132 Q804,132 876,184 L940,63 Q898,27 839,7.5 Q780,-12 720,-12 Q647,-12 601.5,10 Q556,32 519,73 L517,73 Q477,32 430.5,10 Q384,-12 315,-12 Q193,-12 29,137 M618,323 L769,323 Q768,352 750,374.5 Q732,397 703,397 Q636,397 618,323 M203,256 Q203,200 237,166 Q271,132 320,132 Q369,132 403,166 Q437,200 437,256 Q437,313 403,348 Q369,383 320,383 Q271,383 237,348 Q203,313 203,256"/> 
            <glyph glyph-name="Ŕ" unicode="&#x154;" horiz-adv-x="654" d=" M75,0 L75,715 L324,715 Q419,715 463,698 Q525,674 560,620.5 Q595,567 595,490 Q595,430 567,375.5 Q539,321 488,295 L488,293 Q498,280 515,250 L654,0 L459,0 L332,241 L250,241 L250,0 M250,391 L326,391 Q369,391 393,414 Q417,437 417,479 Q417,538 375,555 Q352,565 309,565 L250,565 M245,761 L326,911 L497,911 L379,761"/> 
            <glyph glyph-name="ŕ" unicode="&#x155;" horiz-adv-x="430" d=" M58,0 L58,515 L224,515 L224,428 L222,396 L224,396 Q241,450 286.5,487 Q332,524 388,524 Q396,524 408,522 L408,352 Q399,355 373,355 Q303,355 267,314 Q231,273 231,200 L231,0 M178,564 L259,714 L430,714 L312,564"/> 
            <glyph glyph-name="Ŗ" unicode="&#x156;" horiz-adv-x="654" d=" M75,0 L75,715 L324,715 Q419,715 463,698 Q525,674 560,620.5 Q595,567 595,490 Q595,430 567,375.5 Q539,321 488,295 L488,293 Q498,280 515,250 L654,0 L459,0 L332,241 L250,241 L250,0 M250,391 L326,391 Q369,391 393,414 Q417,437 417,479 Q417,538 375,555 Q352,565 309,565 L250,565 M267,-49 L403,-49 Q410,-78 410,-107 Q410,-154 382,-210 L259,-210 Q279,-152 279,-117 Q279,-84 267,-49"/> 
            <glyph glyph-name="ŗ" unicode="&#x157;" horiz-adv-x="408" d=" M58,0 L58,515 L224,515 L224,428 L222,396 L224,396 Q241,450 286.5,487 Q332,524 388,524 Q396,524 408,522 L408,352 Q399,355 373,355 Q303,355 267,314 Q231,273 231,200 L231,0 M74,-49 L210,-49 Q217,-78 217,-107 Q217,-154 189,-210 L66,-210 Q86,-152 86,-117 Q86,-84 74,-49"/> 
            <glyph glyph-name="Ř" unicode="&#x158;" horiz-adv-x="654" d=" M75,0 L75,715 L324,715 Q419,715 463,698 Q525,674 560,620.5 Q595,567 595,490 Q595,430 567,375.5 Q539,321 488,295 L488,293 Q498,280 515,250 L654,0 L459,0 L332,241 L250,241 L250,0 M250,391 L326,391 Q369,391 393,414 Q417,437 417,479 Q417,538 375,555 Q352,565 309,565 L250,565 M233,761 L134,911 L269,911 L316,829 L318,829 L365,911 L500,911 L401,761"/> 
            <glyph glyph-name="ř" unicode="&#x159;" horiz-adv-x="433" d=" M58,0 L58,515 L224,515 L224,428 L222,396 L224,396 Q241,450 286.5,487 Q332,524 388,524 Q396,524 408,522 L408,352 Q399,355 373,355 Q303,355 267,314 Q231,273 231,200 L231,0 M166,564 L67,714 L202,714 L249,632 L251,632 L298,714 L433,714 L334,564"/> 
            <glyph glyph-name="Ś" unicode="&#x15A;" horiz-adv-x="539" d=" M26,90 L118,223 Q152,193 199,171 Q246,149 290,149 Q325,149 344.5,163 Q364,177 364,199 Q364,222 340.5,241.5 Q317,261 282,274 Q247,287 206,307.5 Q165,328 130,351 Q95,374 71.5,414.5 Q48,455 48,508 Q48,606 120.5,666.5 Q193,727 307,727 Q440,727 531,646 L457,503 Q426,530 383,548 Q340,566 299,566 Q261,566 242,552 Q223,538 223,515 Q223,492 246.5,473 Q270,454 305,441.5 Q340,429 381,409.5 Q422,390 457,367.5 Q492,345 515.5,304.5 Q539,264 539,211 Q539,116 471.5,52 Q404,-12 285,-12 Q213,-12 144.5,14 Q76,40 26,90 M216,761 L297,911 L468,911 L350,761"/> 
            <glyph glyph-name="ś" unicode="&#x15B;" horiz-adv-x="441" d=" M19,64 L93,177 Q155,125 233,125 Q280,125 280,152 Q280,167 255,178.5 Q230,190 195,202 Q160,214 124.5,231.5 Q89,249 64,283 Q39,317 39,364 Q39,441 99.5,484 Q160,527 253,527 Q364,527 437,468 L378,348 Q356,366 318.5,378 Q281,390 248,390 Q200,390 200,365 Q200,353 218,342.5 Q236,332 262.5,324.5 Q289,317 320.5,303.5 Q352,290 378.5,273.5 Q405,257 423,226.5 Q441,196 441,157 Q441,83 383.5,35.5 Q326,-12 229,-12 Q104,-12 19,64 M157,565 L238,715 L409,715 L291,565"/> 
            <glyph glyph-name="Ŝ" unicode="&#x15C;" horiz-adv-x="539" d=" M26,90 L118,223 Q152,193 199,171 Q246,149 290,149 Q325,149 344.5,163 Q364,177 364,199 Q364,222 340.5,241.5 Q317,261 282,274 Q247,287 206,307.5 Q165,328 130,351 Q95,374 71.5,414.5 Q48,455 48,508 Q48,606 120.5,666.5 Q193,727 307,727 Q440,727 531,646 L457,503 Q426,530 383,548 Q340,566 299,566 Q261,566 242,552 Q223,538 223,515 Q223,492 246.5,473 Q270,454 305,441.5 Q340,429 381,409.5 Q422,390 457,367.5 Q492,345 515.5,304.5 Q539,264 539,211 Q539,116 471.5,52 Q404,-12 285,-12 Q213,-12 144.5,14 Q76,40 26,90 M105,761 L204,911 L372,911 L471,761 L336,761 L289,843 L287,843 L240,761"/> 
            <glyph glyph-name="ŝ" unicode="&#x15D;" horiz-adv-x="441" d=" M19,64 L93,177 Q155,125 233,125 Q280,125 280,152 Q280,167 255,178.5 Q230,190 195,202 Q160,214 124.5,231.5 Q89,249 64,283 Q39,317 39,364 Q39,441 99.5,484 Q160,527 253,527 Q364,527 437,468 L378,348 Q356,366 318.5,378 Q281,390 248,390 Q200,390 200,365 Q200,353 218,342.5 Q236,332 262.5,324.5 Q289,317 320.5,303.5 Q352,290 378.5,273.5 Q405,257 423,226.5 Q441,196 441,157 Q441,83 383.5,35.5 Q326,-12 229,-12 Q104,-12 19,64 M47,565 L146,715 L314,715 L413,565 L278,565 L231,647 L229,647 L182,565"/> 
            <glyph glyph-name="Ş" unicode="&#x15E;" horiz-adv-x="539" d=" M225,-82 L247,-10 Q113,3 26,90 L118,223 Q152,193 199,171 Q246,149 290,149 Q325,149 344.5,163 Q364,177 364,199 Q364,222 340.5,241.5 Q317,261 282,274 Q247,287 206,307.5 Q165,328 130,351 Q95,374 71.5,414.5 Q48,455 48,508 Q48,606 120.5,666.5 Q193,727 307,727 Q440,727 531,646 L457,503 Q426,530 383,548 Q340,566 299,566 Q261,566 242,552 Q223,538 223,515 Q223,492 246.5,473 Q270,454 305,441.5 Q340,429 381,409.5 Q422,390 457,367.5 Q492,345 515.5,304.5 Q539,264 539,211 Q539,126 483,64.5 Q427,3 328,-9 L322,-36 Q397,-44 397,-116 Q397,-166 363,-188 Q329,-210 280,-210 Q244,-210 209,-201 L209,-114 Q227,-124 254,-124 Q292,-124 292,-101 Q292,-80 251,-80"/> 
            <glyph glyph-name="ş" unicode="&#x15F;" horiz-adv-x="443" d=" M160,-82 L183,-8 Q87,5 21,64 L95,177 Q157,125 235,125 Q282,125 282,152 Q282,167 257,178.5 Q232,190 197,202 Q162,214 126.5,231.5 Q91,249 66,283 Q41,317 41,364 Q41,441 101.5,484 Q162,527 255,527 Q366,527 439,468 L380,348 Q358,366 320.5,378 Q283,390 250,390 Q202,390 202,365 Q202,353 220,342.5 Q238,332 264.5,324.5 Q291,317 322.5,303.5 Q354,290 380.5,273.5 Q407,257 425,226.5 Q443,196 443,157 Q443,90 394.5,43.5 Q346,-3 263,-10 L257,-36 Q332,-44 332,-116 Q332,-166 298,-188 Q264,-210 215,-210 Q178,-210 144,-201 L144,-114 Q162,-124 189,-124 Q227,-124 227,-101 Q227,-80 186,-80"/> 
            <glyph glyph-name="Š" unicode="&#x160;" horiz-adv-x="539" d=" M26,90 L118,223 Q152,193 199,171 Q246,149 290,149 Q325,149 344.5,163 Q364,177 364,199 Q364,222 340.5,241.5 Q317,261 282,274 Q247,287 206,307.5 Q165,328 130,351 Q95,374 71.5,414.5 Q48,455 48,508 Q48,606 120.5,666.5 Q193,727 307,727 Q440,727 531,646 L457,503 Q426,530 383,548 Q340,566 299,566 Q261,566 242,552 Q223,538 223,515 Q223,492 246.5,473 Q270,454 305,441.5 Q340,429 381,409.5 Q422,390 457,367.5 Q492,345 515.5,304.5 Q539,264 539,211 Q539,116 471.5,52 Q404,-12 285,-12 Q213,-12 144.5,14 Q76,40 26,90 M204,761 L105,911 L240,911 L287,829 L289,829 L336,911 L471,911 L372,761"/> 
            </font>
</defs>
</svg>
